<?xml version="1.0" encoding="utf-8"?>
<!-- Generator: Adobe Illustrator 25.0.0, SVG Export Plug-In . SVG Version: 6.00 Build 0)  -->
<svg version="1.1" id="Capa_1" xmlns="http://www.w3.org/2000/svg" xmlns:xlink="http://www.w3.org/1999/xlink" x="0px" y="0px"
	 viewBox="0 0 200 200" style="enable-background:new 0 0 200 200;" xml:space="preserve">
<style type="text/css">
	.st0{fill:#F8AB10;}
	.st1{fill:#0058A2;}
	.st2{fill:#E73137;}
	.st3{fill:#3A8DDE;}
</style>
<g>
	<path class="st0" d="M56.3,103.6c0-0.1-0.1-0.2-0.1-0.3c-3.8,4.2-13,7-21.4,6.5c-4.9-0.4-14-2.9-18.6-5.7c4.9,4.6,10.5,8.1,17,10.1
		c7.7,2.2,15.8,2.1,20.4-0.3C56.8,111.5,57.6,107.4,56.3,103.6"/>
	<path class="st1" d="M45.7,76.6c15,8.9,6.1,36.6-5.9,45.5c-11.2,8.3-23,4.5-25.6-3.1c2.2,3.3,6.7,4.5,10.6,3.2
		c11-4.3,16.6-24.2,17.4-31.1c0.5-5.9-0.3-9.9-2.4-12.4c-2.4-2.5-6-3.7-11.4-2C32.4,73.7,40.1,73.4,45.7,76.6"/>
	<path class="st2" d="M54.1,113.4c0.1,0,0.1-0.1,0.2-0.1l0,0c0.3-0.2,0.6-0.5,0.9-0.6c0.1-0.1,0.3-0.3,0.4-0.4
		c5.8-5.9,7.1-22.3-7.3-30.1c-5.2-2.8-17.1-6.6-29-0.6c-4,1.9-8,6.1-10.2,11.6c1.6-2.7,4.4-4.4,9.9-5.3c5.4-0.6,13,0.2,20.5,2.8
		c4.8,1.8,8.7,3.9,11.6,6.4c2.5,2.1,4.1,4.2,4.9,6.3c0,0.1,0.1,0.2,0.1,0.3c1.4,3.9,0.6,7.9-2.8,10.2l0,0c0.2-0.1,0.3-0.2,0.5-0.3
		c0,0,0,0,0.1,0C54,113.4,54,113.4,54.1,113.4"/>
	<path class="st0" d="M11,102.6c0.3,0.5,0.9,1.2,1.3,1.7c2.9-6.7,18.7-11.2,23.4-11.1c-10.5-3.3-20.8-1.8-24.9,1.8
		C9.3,96.6,8.8,99,11,102.6"/>
	<path class="st3" d="M41.9,117.9c-8.4-0.5-20.7-3.7-29.4-13.5c0-0.1-0.1-0.1-0.2-0.2c-0.4-0.5-1-1.2-1.3-1.7
		c-2.2-3.5-1.8-6-0.2-7.7l0,0l0,0c-0.3,0.3-0.6,0.6-1,1c-2.2,2.9-2.5,7.5-1,12.5c3.3,10.7,17.8,17.2,29.5,15.3
		c7.6-1.1,12.2-5.4,14.2-7C48.3,117.9,45.2,118.1,41.9,117.9"/>
	<path class="st2" d="M108,93.9c-7.9,0-12.5,3.3-12.5,9.2c0,5.8,4.5,9.2,12.5,9.2s12.5-3.3,12.5-9.2C120.4,97.2,115.9,93.9,108,93.9
		 M108,108c-4.3,0-6.5-1.7-6.5-5c0-3.3,2.2-5,6.5-5s6.6,1.7,6.6,5C114.5,106.3,112.4,108,108,108"/>
	<path class="st2" d="M122.1,94.2v4h7.5c0,0.4,0,12.2,0,12.2c0,1.2,1.8,1.6,3.3,1.6c1.5,0,3.3-0.4,3.3-1.6V98.2h7.5v-4H122.1z"/>
	<path class="st2" d="M183.5,107.8c-1.8,0-3-0.3-3.8-0.8c-0.9-0.7-1-1.8-1-2.7v-8.6c0-1.1-1.7-1.6-3.1-1.6c-1.5,0-3.1,0.4-3.1,1.6
		v2.8v5.6c0,3.2,1,5.4,3,6.6c2.5,1.5,7.1,1.4,11.5,1.4h5.5v-0.8V108h-9V107.8z"/>
	<path class="st2" d="M81.2,106.5c0,3.1,2.7,5.3,7.1,5.6V93.3h10.1V89H72.2v4.3h9L81.2,106.5L81.2,106.5z"/>
	<path class="st2" d="M169.8,111.9l-0.2-0.7c-1.5-7.2-9.7-15.5-11.4-16.7c-0.6-0.4-1.1-0.5-1.9-0.5c-0.7,0-1.4,0.1-1.9,0.5
		c-1.7,1.2-10,9.4-11.4,16.7l-0.2,0.7h5.8l0.1-0.5c0.3-1,0.6-2.1,1.1-3.3h12.8c0.6,1.1,0.9,2.2,1.1,3.3l0.1,0.5H169.8 M151.9,104.4
		c1.2-1.8,2.7-3.7,4.3-5.3c1.7,1.6,3.1,3.4,4.3,5.3H151.9z"/>
</g>
</svg>
