<?xml version="1.0" encoding="utf-8"?>
<!-- Generator: Adobe Illustrator 25.0.0, SVG Export Plug-In . SVG Version: 6.00 Build 0)  -->
<svg version="1.1" id="Capa_1" xmlns="http://www.w3.org/2000/svg" xmlns:xlink="http://www.w3.org/1999/xlink" x="0px" y="0px"
	 viewBox="0 0 200 200" style="enable-background:new 0 0 200 200;" xml:space="preserve">
<style type="text/css">
	.st0{fill-rule:evenodd;clip-rule:evenodd;fill:#B4282E;}
</style>
<g>
	<path class="st0" d="M45.4,54.3C20.3,54.3,0,74.6,0,99.6C0,124.7,20.3,145,45.4,145c25.1,0,45.4-20.3,45.4-45.4
		C90.8,74.6,70.5,54.3,45.4,54.3L45.4,54.3z M74.4,109.8c-1.6,0-3.1,0.6-4.3,1.5c1.3-2.8,2.2-5.9,2.5-9c0.1,0.3,0.3,0.7,0.5,1
		c1.9,3.3,6.1,4.4,9.4,2.5c1.1-0.6,2-1.5,2.6-2.6c-0.4,4.7-1.7,9.3-3.7,13.6c0-0.1,0-0.1,0-0.2C81.3,112.8,78.2,109.8,74.4,109.8z
		 M80.6,86.5c0.6-1.1,0.9-2.3,0.9-3.5c2,4.3,3.2,8.9,3.6,13.6c0,0,0-0.1-0.1-0.1c-1.9-3.3-6.1-4.4-9.4-2.5c-1.4,0.8-2.4,2-3,3.5
		c-0.3-3.1-1.1-6.2-2.4-9c0.3,0.2,0.6,0.5,0.9,0.6C74.5,90.9,78.7,89.7,80.6,86.5z M78.2,77.2c-0.1,0-0.1-0.1-0.1-0.1
		c-3.3-1.9-7.5-0.8-9.4,2.5c0,0,0,0,0,0c-0.8,1.4-1.1,2.9-0.8,4.5c-1.8-2.6-4-4.8-6.6-6.6c0.4,0.1,0.7,0.1,1.1,0.1
		c3.8,0,6.9-3.1,6.9-6.9c0-1.2-0.3-2.4-1-3.5C72.2,69.9,75.5,73.3,78.2,77.2L78.2,77.2z M58.6,134.8c1.1,0.6,2.3,0.9,3.5,0.9
		c-4.3,2-8.9,3.2-13.6,3.6l0.1-0.1c3.3-1.9,4.4-6.1,2.5-9.4c-0.8-1.4-2-2.4-3.5-3c3.1-0.3,6.2-1.1,9-2.4c-0.2,0.3-0.5,0.6-0.6,0.9
		C54.2,128.7,55.3,132.9,58.6,134.8C58.6,134.8,58.6,134.8,58.6,134.8L58.6,134.8z M33.8,124.4c2.8,1.3,5.9,2.2,9,2.5
		c-0.4,0.1-0.7,0.3-1,0.5c-3.3,1.9-4.4,6.1-2.5,9.4c0.6,1.1,1.5,2,2.6,2.6c-4.7-0.4-9.3-1.7-13.6-3.7c0.1,0,0.1,0,0.2,0
		c3.8,0,6.9-3.1,6.9-6.9C35.3,127.1,34.7,125.6,33.8,124.4L33.8,124.4z M45.4,121.7c-12.2,0-22-9.9-22-22s9.9-22,22-22s22,9.9,22,22
		C67.4,111.8,57.6,121.7,45.4,121.7z M32.2,64.5c-1.1-0.6-2.3-0.9-3.5-0.9c4.3-2,8.9-3.2,13.6-3.6c0,0-0.1,0-0.1,0.1
		c-3.3,1.9-4.4,6.1-2.5,9.4c0.8,1.4,2,2.4,3.5,3c-3.1,0.3-6.2,1.1-9,2.4c0.2-0.3,0.5-0.6,0.6-0.9C36.6,70.6,35.5,66.4,32.2,64.5z
		 M57,74.9c-2.8-1.3-5.9-2.2-9-2.5c0.3-0.1,0.7-0.3,1-0.5c3.3-1.9,4.4-6.1,2.5-9.4c-0.6-1.1-1.5-2-2.6-2.6c4.7,0.4,9.3,1.7,13.6,3.7
		c-0.1,0-0.1,0-0.2,0c-3.8,0-6.9,3.1-6.9,6.9C55.5,72.2,56,73.7,57,74.9z M22.9,66.8c0,0.1-0.1,0.1-0.1,0.1
		c-1.9,3.3-0.8,7.5,2.5,9.4c1.4,0.8,2.9,1.1,4.5,0.8c-2.6,1.8-4.8,4-6.6,6.6c0.1-0.4,0.1-0.7,0.1-1.1c0-3.8-3.1-6.9-6.9-6.9
		c-1.2,0-2.4,0.3-3.5,1C15.6,72.9,19,69.5,22.9,66.8L22.9,66.8z M10.2,112.8c-0.6,1.1-0.9,2.3-0.9,3.5c-2-4.3-3.2-8.9-3.6-13.6
		c0,0,0,0.1,0.1,0.1c1.9,3.3,6.1,4.4,9.4,2.5c1.4-0.8,2.4-2,3-3.5c0.3,3.1,1.1,6.2,2.4,9c-0.3-0.2-0.6-0.5-0.9-0.6
		C16.3,108.4,12.1,109.5,10.2,112.8C10.2,112.8,10.2,112.8,10.2,112.8L10.2,112.8z M16.4,89.5c1.6,0,3.1-0.6,4.3-1.5
		c-1.3,2.8-2.2,5.9-2.5,9c-0.1-0.4-0.3-0.7-0.5-1c-1.9-3.3-6.1-4.4-9.4-2.5c-1.1,0.6-2,1.5-2.6,2.6c0.4-4.7,1.7-9.3,3.7-13.6
		c0,0.1,0,0.1,0,0.2C9.5,86.4,12.6,89.5,16.4,89.5L16.4,89.5z M12.6,122.1c0.1,0,0.1,0.1,0.1,0.1c3.3,1.9,7.5,0.8,9.4-2.5
		c0.8-1.4,1.1-2.9,0.8-4.5c1.8,2.6,4,4.8,6.6,6.6c-0.4-0.1-0.7-0.1-1.1-0.1c-3.8,0-6.9,3.1-6.9,6.9c0,0,0,0,0,0c0,1.3,0.4,2.5,1,3.5
		C18.6,129.4,15.3,126,12.6,122.1z M67.9,132.5c0-0.1,0.1-0.1,0.1-0.1c1.9-3.3,0.8-7.5-2.5-9.4c0,0,0,0,0,0
		c-1.4-0.8-2.9-1.1-4.5-0.8c2.6-1.8,4.8-4,6.6-6.6c-0.1,0.4-0.1,0.8-0.1,1.1c0,3.8,3.1,6.9,6.9,6.9c1.2,0,2.4-0.3,3.5-1
		C75.2,126.4,71.8,129.8,67.9,132.5L67.9,132.5z M131,82.9h-30.2v34.6h13.9v-15.6H131v-6h-16v-7.3h16L131,82.9L131,82.9z
		 M152.9,117.5h11.6l-10.4-34.6h-11.4L132,117.4l6,0l2.2-6.8h10.4L152.9,117.5L152.9,117.5z M142.1,105.1l3.5-10.7l3.4,10.7H142.1z
		 M186.8,92v-3.5h-7.2v23.2h6.8v-8.8h-3.7v-6.4H200v17c0,1.7,0.6,4-2.7,4h-27.7c-1.9,0-3.1-1-3.1-3.1V85.6c0-1.5,0.4-3,3-3h26.8
		c2.1,0,3.8,1.2,3.8,3.8V92L186.8,92L186.8,92L186.8,92z"/>
</g>
</svg>
