<?xml version="1.0" encoding="utf-8"?>
<!-- Generator: Adobe Illustrator 25.0.0, SVG Export Plug-In . SVG Version: 6.00 Build 0)  -->
<svg version="1.1" id="Capa_1" xmlns="http://www.w3.org/2000/svg" xmlns:xlink="http://www.w3.org/1999/xlink" x="0px" y="0px"
	 viewBox="0 0 200 200" style="enable-background:new 0 0 200 200;" xml:space="preserve">
<style type="text/css">
	.st0{fill-rule:evenodd;clip-rule:evenodd;fill:#004380;}
</style>
<g>
	<path class="st0" d="M17.5,8.1h163.8v116H17.5V8.1L17.5,8.1z M80.6,45.4h11.6v41.3H80.6V45.4L80.6,45.4z M105.8,45.4H120
		l-12.5,20.6l11.3,20.6h-14.3L93.3,66.1L105.8,45.4L105.8,45.4z M99.4,27.7c21.1,0,38.3,17.2,38.3,38.4c0,21.1-17.2,38.4-38.3,38.4
		S61,87.2,61,66.1C61,44.9,78.3,27.7,99.4,27.7L99.4,27.7z M99.4,36.3c16.5,0,29.8,13.3,29.8,29.8s-13.4,29.8-29.8,29.8
		c-16.5,0-29.8-13.4-29.8-29.8C69.6,49.6,83,36.3,99.4,36.3L99.4,36.3z M40.7,45.4H49c-2.6,6.4-4.1,13.3-4.1,20.6s1.5,14.3,4.1,20.6
		h-8.1l-9.5-20.6L40.7,45.4L40.7,45.4z M149.9,45.4h8.1l9.4,20.6l-9.4,20.6h-8.1c2.6-6.4,4-13.4,4-20.6
		C153.9,58.8,152.5,51.8,149.9,45.4L149.9,45.4z M52.7,45.4h9.8c-3.3,6.1-5.4,13.1-5.4,20.6c0,7.4,1.9,14.5,5.4,20.6h-9.8
		c-2.8-6.4-4.3-13.4-4.3-20.6C48.3,58.8,49.9,51.8,52.7,45.4L52.7,45.4z M136.3,45.4h9.8c2.8,6.4,4.3,13.3,4.3,20.6
		s-1.6,14.3-4.3,20.6h-9.8c3.4-6.1,5.5-13.2,5.5-20.6C141.7,58.6,139.8,51.5,136.3,45.4L136.3,45.4z"/>
	<path class="st0" d="M18.1,161.3h9.3v-9.3l2.3-2.4l7.3,11.7h11.3l-11.9-18.6l10.6-10.8H35.8l-8.5,9.8v-9.8h-9.3V161.3L18.1,161.3z
		 M52.6,161.3h9v-13.8c0-1.2,0-2.5-0.2-4.1c0.6,2,1.3,3.5,1.8,4.3l8.2,13.5h9.1v-29.4h-9.1v13.9c0,1.5,0,2.7,0.2,4
		c-0.6-1.9-1.2-3.4-1.8-4.2l-8.2-13.7h-9L52.6,161.3L52.6,161.3z M85.6,146.6c0,9.5,5.8,15.5,15.4,15.5c9.4,0,15.2-5.9,15.2-15.5
		c0-9.5-5.8-15.5-15.2-15.5C91.4,131.1,85.6,137,85.6,146.6L85.6,146.6z M95.1,146.6c0-5.6,1.9-8.1,5.9-8.1c3.9,0,5.6,2.5,5.6,8.1
		c0,5.6-1.8,8.1-5.6,8.1C96.9,154.7,95.1,152.2,95.1,146.6L95.1,146.6z M121.4,161.3h9.4v-10.2h4c2.9,0,4,1.1,4,4.2v3
		c0,0.5,0.2,1.5,0.6,3h9.5v-1.1c-0.7-0.1-0.7-0.6-0.8-1.9l-0.2-4.1c-0.2-4.1-1.6-5.9-4.8-6.6c3.2-1.5,4.7-3.7,4.7-7.3
		c0-6.3-3.8-8.5-12.2-8.5h-14.2L121.4,161.3L121.4,161.3z M130.9,144.5V139h4.1c2.9,0,4.2,0.5,4.2,2.9c0,2.2-1.3,2.8-4.1,2.8
		L130.9,144.5L130.9,144.5z M154.5,161.3h9.3v-10.2h4.1c2.9,0,4,1.1,4,4.2v3c0,0.5,0.2,1.5,0.6,3h9.4v-1.1c-0.7-0.1-0.7-0.6-0.8-1.9
		l-0.2-4.1c-0.2-4.1-1.6-5.9-4.8-6.6c3.2-1.5,4.7-3.7,4.7-7.3c0-6.3-3.8-8.5-12.2-8.5h-14.2V161.3L154.5,161.3z M163.8,144.5V139
		h4.1c2.9,0,4.3,0.5,4.3,2.9c0,2.2-1.3,2.8-4,2.8L163.8,144.5L163.8,144.5z"/>
	<path class="st0" d="M17.7,192.5h11.2c3.1,0,5.6,0,8-1.1c2.3-1.2,3.6-3.4,3.6-6.5c0-3-1.2-5-3.9-5.9c1.9-1.1,3.1-2.9,3.1-5.1
		c0-2.9-1.4-5.1-4-5.9c-1.9-0.6-4.4-0.6-7.5-0.6H17.7V192.5L17.7,192.5z M25.6,177.3V173h2.2c3,0,4.2,0.2,4.2,2.1
		c0,1.7-1.1,2.2-3.1,2.2H25.6L25.6,177.3z M25.6,186.6v-4.6h3.7c2.4,0,3.5,0.6,3.5,2.4c0,1.8-1,2.3-3.4,2.3L25.6,186.6L25.6,186.6z
		 M45.9,192.5H54v-8.7h3.3c2.5,0,3.5,1,3.5,3.7v2.5c0,0.4,0.1,1.2,0.5,2.5h8.2v-0.9c-0.7-0.1-0.7-0.6-0.8-1.6l-0.2-3.6
		c-0.1-3.4-1.3-5.1-4.1-5.6c2.8-1.1,4.1-3.2,4.1-6.3c0-5.5-3.3-7.3-10.6-7.3h-12V192.5L45.9,192.5z M53.9,178v-4.7h3.4
		c2.4,0,3.6,0.3,3.6,2.4c0,1.9-1.1,2.4-3.3,2.4L53.9,178L53.9,178z M74.2,192.5H95v-6.1H82.4v-3.9h10.3v-5.8H82.4v-3.3h12.1v-6.1
		H74.2V192.5L74.2,192.5z M107.4,192.5v-12.1c0-0.9-0.1-2.5-0.1-4.6c0.2,1.8,0.6,3.3,1,4.7l3.1,12.1h5.6l3.1-12.4
		c0.2-0.7,0.6-2.3,1.1-4.4c-0.1,2.3-0.1,3.8-0.1,4.3l-0.1,12.5h7.4v-25.4h-9.9l-3.6,12.6c-0.2,0.6-0.4,1.9-0.7,3.7
		c-0.6-2.2-0.7-3.4-0.8-3.7l-3.6-12.6H100v25.3H107.4L107.4,192.5z M132.5,184.6c0.6,5.4,4.6,8.5,11.3,8.5c7.4,0,11.4-3.1,11.4-8.6
		c0-2.6-1-4.4-3.2-5.9c-1.7-1.1-4.2-1.6-7.3-2.4c-2.4-0.6-3.8-0.8-3.8-2.2c0-1.1,0.8-1.7,2.6-1.7c1.9,0,3,0.6,3.2,2.2h7.7
		c-0.5-5.1-4.3-8-10.8-8c-6.8,0-10.6,3.2-10.6,8.1c0,2.4,0.9,4.3,2.9,5.8c1.1,0.6,3.3,1.6,6.8,2.4c3,0.7,4.5,0.9,4.5,2.5
		c0,1.1-1.1,1.9-3.1,1.9c-2.2,0-3.3-0.7-3.8-2.6h-7.7V184.6z M160.5,192.5h20.8v-6.1h-12.6v-3.9H179v-5.8h-10.3v-3.3h12.1v-6.1
		h-20.3L160.5,192.5L160.5,192.5z"/>
</g>
</svg>
