<?xml version="1.0" encoding="utf-8"?>
<!-- Generator: Adobe Illustrator 25.0.0, SVG Export Plug-In . SVG Version: 6.00 Build 0)  -->
<svg version="1.1" id="Capa_1" xmlns="http://www.w3.org/2000/svg" xmlns:xlink="http://www.w3.org/1999/xlink" x="0px" y="0px"
	 viewBox="0 0 200 200" style="enable-background:new 0 0 200 200;" xml:space="preserve">
<style type="text/css">
	.st0{fill:#FFFFFF;}
	.st1{fill-rule:evenodd;clip-rule:evenodd;fill:#DA251C;}
	.st2{fill-rule:evenodd;clip-rule:evenodd;fill:#1D1D1B;}
	.st3{fill:#1D1D1B;}
	.st4{fill-rule:evenodd;clip-rule:evenodd;fill:#FFFFFF;}
</style>
<path class="st0" d="M46.1,139.1L46.1,139.1z"/>
<g>
	<polygon class="st1" points="174.1,119.4 192.5,119.4 192.5,110.4 182.3,110.4 182.3,90.4 174.1,90.4 174.1,119.4 	"/>
	<path class="st2" d="M102,74.9c-1.5,0-3,0.6-4.4,1.8L74.3,94c-1,0.7,1.7,0.4-1,2.1c-0.4,0.3-0.3,0.7,0.2,1c1.7,1,1.7,2,0.1,3.3
		c-0.3,0.4-0.4,0.9,0,1.2c1.5,1.2,1.5,2.1,0.1,3.3c-0.7,0.7-0.7,1.6-0.1,2.3c1,1.1,0.9,1.7-1,3c-0.6,0.4-0.6,1.4,0.1,1.9
		c0.7,1.3,0.5,2.4-1.2,3.3c-0.5,0.3-0.7,0.7-0.6,1.2c0.4,1.8-0.4,3-2.4,3.7c-0.6,0.2-0.7,0.8-0.6,1.5c-5.8,3.5-10,5.1-11.6,3.6
		c-0.3-0.3-0.7-0.3-1.4,0.2c-1.3,0.8-3.2,0.3-3.2-0.6c0.1-1.6-0.5-1.7-1.9-1.2c-1.3,0.5-2.6-0.1-2.5-2.1c0.1-1.2,0.3-1.9-2-1.9
		c-2.4,0-3.1-1.5-2.4-3c1.1-2.4,0.7-3.8-2.6-4.2c-1.7-0.7-1.6-2-0.2-3.7c1.1-1,1-2-0.5-2.9c-2.9-0.9-2.5-4-0.5-4.4
		c1.1-0.3,0.7-1.2-0.6-2.6c-2.1-1.5-1.3-3,0.5-4c0.8-0.3,1-0.9,0.1-1.9c-1.2-2-0.9-3.4,0.8-4.4c0.8-0.3,0.9-1.4,0.1-1.5
		c-0.2-1.8,0.7-2.6,2.5-3c0.7-0.5,0.9-1.1,0.8-1.8c5.5-3.7,8.5-5.5,13.4-6.3c0.7,0.2,1.4,0.1,2.3-0.1c1.3-0.5,2.4-0.3,3.2,1.1
		c0,0.5,0.3,0.6,1.1,0.4c1.3-0.5,2.1,0.2,2.6,1.6c0.1,0.6,0.5,0.8,1.1,0.9c1.6,0.1,2.3,0.8,2,2.2c-0.1,1.1,0.7,1.5,1.9,1.6
		l20.4-18.3c0.5-0.4,1-1.2,1.5-2.2L102,74.9L102,74.9z"/>
	<path class="st3" d="M102.3,75l-0.3,0c-0.7,0-1.5,0.1-2.2,0.4c-0.7,0.3-1.4,0.8-2.1,1.3l0,0L74.3,94.1c-0.2,0.1-0.2,0.2-0.2,0.2
		c0,0,0.1,0.1,0.1,0.1l0,0c0.1,0.1,0.2,0.1,0.3,0.2v0c0.2,0.3,0.1,0.7-1.3,1.6c-0.1,0.1-0.2,0.3-0.2,0.4c0,0.1,0.1,0.3,0.3,0.4
		c0,0,0,0,0,0c0,0,0,0,0,0c0.9,0.5,1.3,1,1.4,1.6c0,0.6-0.4,1.2-1.2,1.8c-0.1,0.2-0.2,0.4-0.2,0.6c0,0.2,0.1,0.3,0.2,0.5h0
		c0.8,0.6,1.2,1.2,1.2,1.7c0,0.6-0.3,1.1-1.1,1.8c-0.3,0.3-0.5,0.6-0.5,1c0,0.4,0.1,0.8,0.4,1.1c0.5,0.6,0.8,1,0.6,1.5
		c-0.1,0.5-0.6,1-1.6,1.7c-0.1,0.1-0.2,0.2-0.2,0.3c-0.1,0.2-0.1,0.3-0.1,0.5c0,0.2,0.1,0.4,0.2,0.6c0.1,0.1,0.2,0.2,0.3,0.3l0,0.1
		c0.3,0.7,0.5,1.3,0.3,1.9c-0.2,0.6-0.7,1.1-1.6,1.6c-0.2,0.1-0.4,0.3-0.4,0.4c-0.1,0.2-0.1,0.4-0.1,0.6c0.2,1,0.1,1.7-0.3,2.4
		c-0.4,0.6-1.2,1.1-2.2,1.5c-0.3,0.1-0.4,0.3-0.5,0.5c-0.1,0.2-0.1,0.6,0,0.9l0,0.1l-0.1,0c-2.9,1.8-5.4,3.1-7.4,3.7
		c-2,0.7-3.5,0.7-4.4-0.1c-0.1-0.1-0.3-0.2-0.4-0.2h0c-0.2,0-0.5,0.1-0.8,0.4c-0.5,0.3-1.2,0.4-1.7,0.4c-0.3,0-0.7-0.1-0.9-0.2h0
		c-0.3-0.1-0.5-0.3-0.6-0.5v0c-0.1-0.1-0.1-0.3-0.1-0.4c0-0.7-0.1-1.1-0.3-1.3c-0.3-0.1-0.7,0-1.4,0.2h0c-0.4,0.1-0.7,0.2-1,0.2
		c-0.3,0-0.6-0.1-0.9-0.3c-0.3-0.2-0.5-0.4-0.6-0.8c-0.1-0.4-0.2-0.8-0.2-1.3c0-0.1,0-0.2,0-0.2c0-0.2,0-0.4,0-0.5
		c0-0.6-0.3-1-1.9-1h0c-0.7,0-1.2-0.1-1.6-0.3h0c-0.4-0.2-0.7-0.4-0.9-0.7c-0.2-0.3-0.3-0.7-0.3-1c0-0.4,0.1-0.8,0.3-1.1
		c0.5-1.2,0.7-2.1,0.4-2.7c-0.3-0.7-1.2-1.1-2.8-1.3l0,0c-0.9-0.4-1.3-0.9-1.3-1.6c0-0.7,0.4-1.5,1-2.4l0,0c0.5-0.5,0.8-0.9,0.7-1.4
		c-0.1-0.4-0.4-0.9-1.1-1.3c-0.9-0.3-1.5-0.8-1.8-1.4c-0.2-0.4-0.3-0.8-0.3-1.2c0-0.4,0.1-0.8,0.4-1.2c0.3-0.4,0.8-0.8,1.4-0.9l0,0
		c0.4-0.1,0.6-0.4,0.5-0.7c-0.1-0.4-0.5-1-1.1-1.6c-0.5-0.4-0.9-0.7-1.1-1.1c-0.2-0.3-0.3-0.7-0.2-1c0-0.3,0.2-0.6,0.4-0.9
		c0.3-0.4,0.8-0.9,1.4-1.2l0,0c0.2-0.1,0.3-0.1,0.4-0.2c0.1-0.1,0.2-0.2,0.2-0.3c0-0.1,0-0.2,0-0.4h0c-0.1-0.2-0.2-0.4-0.5-0.7l0,0
		c-0.6-1-0.8-1.9-0.7-2.7c0.1-0.8,0.7-1.4,1.6-1.9l0,0c0.2-0.1,0.4-0.3,0.5-0.5c0.1-0.1,0.1-0.2,0.1-0.3v0v0v0c0-0.1,0-0.2-0.1-0.3
		h0c-0.1-0.1-0.2-0.2-0.4-0.2l-0.1,0l0-0.1c-0.1-0.9,0.1-1.6,0.6-2.1c0.4-0.5,1.1-0.8,2-1c0.3-0.2,0.5-0.4,0.6-0.7
		c0.1-0.3,0.1-0.6,0-0.9l0-0.1l0.1-0.1c2.8-1.9,4.9-3.2,7-4.3c2.1-1,4.1-1.6,6.5-2l0.1,0c0.6,0.2,1.4,0.1,2.2-0.1c0,0,0,0,0,0l0,0
		c0,0,0,0,0,0c0.7-0.3,1.3-0.4,1.8-0.2c0.6,0.2,1.1,0.6,1.5,1.3l0,0.1c0,0.2,0,0.3,0.2,0.3c0,0,0,0,0,0h0h0c0.2,0.1,0.4,0,0.8,0
		c0,0,0,0,0,0l0,0c0,0,0,0,0,0c0.7-0.2,1.3-0.2,1.7,0.1c0.5,0.3,0.8,0.9,1,1.6l0,0c0.1,0.3,0.2,0.5,0.3,0.6c0.2,0.1,0.4,0.2,0.6,0.2
		h0c0.8,0.1,1.4,0.3,1.8,0.7c0.4,0.4,0.5,0.9,0.3,1.7c0,0.5,0.1,0.8,0.4,1.1c0.3,0.2,0.7,0.4,1.3,0.4l20.3-18.3
		c0.2-0.2,0.5-0.5,0.8-0.9c0.2-0.4,0.5-0.8,0.7-1.2l0.1-0.2l0.1,0.2l9.2,11.4L102.3,75L102.3,75z M73.5,97.1
		C73.5,97.1,73.5,97.1,73.5,97.1L73.5,97.1L73.5,97.1z M101.7,74.8l-8.9-11c-0.2,0.4-0.4,0.8-0.6,1.1c-0.3,0.4-0.6,0.7-0.8,1
		L71,84.2l0,0l-0.1,0c-0.6-0.1-1.1-0.2-1.5-0.5c-0.4-0.3-0.5-0.7-0.5-1.3l0,0c0.2-0.6,0.1-1.1-0.2-1.5c-0.3-0.3-0.9-0.5-1.6-0.6
		c-0.3,0-0.6-0.1-0.8-0.2c-0.2-0.2-0.3-0.4-0.4-0.7c0,0,0,0,0,0l0,0c0,0,0,0,0,0c-0.2-0.7-0.5-1.2-0.9-1.5c-0.4-0.3-0.9-0.3-1.5-0.1
		l0,0c-0.4,0.1-0.7,0.1-1,0h0c-0.2-0.1-0.3-0.3-0.3-0.6c-0.4-0.6-0.8-1-1.3-1.2c-0.5-0.2-1.1-0.1-1.7,0.2l0,0
		c-0.9,0.2-1.7,0.3-2.3,0.1c-2.4,0.4-4.4,1-6.4,2c-2,1-4.1,2.3-6.9,4.2c0.1,0.4,0,0.7-0.1,1c-0.1,0.3-0.4,0.6-0.8,0.9l0,0
		c-0.9,0.2-1.5,0.4-1.9,0.9c-0.4,0.4-0.6,1-0.5,1.8c0.2,0,0.3,0.1,0.4,0.2h0h0c0,0,0,0,0,0c0.1,0.1,0.2,0.3,0.2,0.4v0
		c0,0.2,0,0.3-0.1,0.5c-0.1,0.2-0.3,0.4-0.6,0.6c-0.8,0.5-1.3,1.1-1.4,1.7c-0.1,0.7,0.1,1.5,0.7,2.5c0.3,0.3,0.4,0.5,0.5,0.8h0
		c0.1,0.2,0.1,0.4,0.1,0.6c0,0.2-0.1,0.3-0.3,0.4c-0.1,0.1-0.3,0.2-0.5,0.3c-0.6,0.3-1,0.7-1.3,1.1c-0.2,0.2-0.3,0.5-0.3,0.8
		c0,0.3,0,0.5,0.2,0.8c0.2,0.3,0.5,0.7,1,1l0,0c0.7,0.7,1.1,1.3,1.2,1.7c0.1,0.5-0.1,0.9-0.7,1l0,0c-0.5,0.1-0.9,0.4-1.2,0.8
		c-0.2,0.3-0.3,0.7-0.3,1c0,0.4,0.1,0.8,0.3,1.1c0.3,0.5,0.9,1,1.7,1.3l0,0c0.8,0.5,1.2,1,1.3,1.5c0.1,0.5-0.2,1.1-0.8,1.6
		c-0.6,0.8-1,1.6-1,2.2c0,0.6,0.4,1,1.1,1.3c1.7,0.2,2.6,0.7,3,1.4c0.4,0.7,0.2,1.7-0.3,2.9c-0.2,0.4-0.2,0.7-0.2,1
		c0,0.3,0.1,0.6,0.3,0.9c0.2,0.3,0.4,0.5,0.8,0.6h0c0.4,0.2,0.9,0.3,1.5,0.3h0h0h0c1.8,0,2.1,0.4,2.1,1.2c0,0.2,0,0.3,0,0.5
		c0,0.1,0,0.2,0,0.2c0,0.5,0,0.9,0.2,1.2c0.1,0.3,0.3,0.5,0.5,0.7c0.2,0.1,0.5,0.2,0.7,0.2c0.3,0,0.6,0,0.9-0.2h0h0h0
		c0.7-0.3,1.3-0.4,1.6-0.2c0.4,0.2,0.5,0.7,0.4,1.5c0,0.1,0,0.2,0.1,0.3v0c0.1,0.2,0.3,0.3,0.5,0.4h0c0.2,0.1,0.5,0.2,0.8,0.2
		c0.5,0,1.1-0.1,1.6-0.4c0.4-0.2,0.7-0.4,0.9-0.4c0.3,0,0.5,0,0.6,0.2c0.8,0.7,2.2,0.7,4.1,0.1c2-0.6,4.4-1.9,7.3-3.7
		c0-0.4,0-0.7,0-1c0.1-0.3,0.3-0.5,0.7-0.6c1-0.3,1.7-0.8,2.1-1.4c0.4-0.6,0.5-1.3,0.3-2.2c-0.1-0.3,0-0.5,0.1-0.8
		c0.1-0.2,0.3-0.4,0.6-0.6c0.8-0.5,1.3-0.9,1.4-1.5c0.2-0.5,0-1.1-0.3-1.7c-0.1-0.1-0.3-0.2-0.4-0.4c-0.1-0.2-0.2-0.5-0.2-0.7
		c0-0.2,0.1-0.5,0.2-0.7c0.1-0.1,0.2-0.2,0.3-0.3c0.9-0.6,1.4-1.1,1.5-1.5c0.1-0.4-0.1-0.8-0.6-1.3c-0.3-0.4-0.5-0.8-0.5-1.3
		c0-0.4,0.2-0.8,0.6-1.2c0.7-0.6,1-1.1,1-1.6c0-0.5-0.4-1-1.1-1.5h0c-0.2-0.2-0.3-0.4-0.3-0.7c0-0.3,0.1-0.5,0.3-0.8l0,0
		c0.8-0.6,1.1-1.1,1.1-1.6c0-0.5-0.4-1-1.2-1.4l0,0c-0.3-0.2-0.4-0.4-0.5-0.6c0-0.2,0.1-0.4,0.3-0.6l0,0c1.2-0.7,1.3-1,1.2-1.2v0v0
		c0,0,0,0,0,0c0-0.1-0.1-0.1-0.2-0.2c0,0,0,0,0,0l0,0c0,0,0,0,0,0c-0.1-0.1-0.1-0.1-0.2-0.2c-0.1-0.2-0.1-0.3,0.2-0.6l23.4-17.3
		c0,0,0,0,0,0l0,0l0,0c0.7-0.6,1.5-1.1,2.2-1.4C100.4,75,101.1,74.8,101.7,74.8L101.7,74.8z"/>
	<path class="st4" d="M93,72.5l-1.5-2.6l-31,26c-0.8,0.6-0.7,3-0.1,3.8L93,72.5L93,72.5z"/>
	<path class="st0" d="M92.8,72.5l-1.4-2.4L60.6,96c-0.3,0.3-0.5,0.9-0.5,1.6c0,0.7,0.1,1.4,0.3,1.9L92.8,72.5L92.8,72.5z M93.1,72.4
		L93.1,72.4l0,0.2L60.5,99.7l-0.1,0.1l-0.1-0.1c-0.3-0.4-0.5-1.3-0.5-2.1c0-0.7,0.2-1.5,0.6-1.8l31-26l0.1-0.1l0.1,0.1L93.1,72.4
		L93.1,72.4z"/>
	<polygon class="st4" points="94.1,74.4 93.7,73.7 91.9,75.2 60.5,101.1 61,101.8 63.3,100 94.1,74.4 	"/>
	<path class="st0" d="M94,74.4l-0.3-0.5L92,75.3l0,0l-31.3,25.8l0.3,0.4l2.2-1.8l0,0L94,74.4L94,74.4z M94.3,74.3L94.3,74.3l0,0.2
		l-30.8,25.6l0,0l-2.4,1.8l-0.1,0.1l-0.1-0.1l-0.4-0.7l-0.1-0.1l0.1-0.1l31.3-25.9l0,0l1.9-1.5l0.1-0.1l0.1,0.1L94.3,74.3L94.3,74.3
		z"/>
	<path class="st4" d="M71.3,96.5l0.7-0.4c-0.1,1.1,0,1.8,0.4,2c1,0.4,1.2,1.3,0.3,1.9c-0.7,0.6-0.6,1.9,0.1,2.3
		c0.9,0.4,0.7,1.4,0,2.1c-1.1,1.1-1.5,2.4-0.3,3.3c0.5,0.4,0.5,1.1-0.3,1.7c-1.1,0.9-1.4,2-0.6,3c0.6,0.7,0.5,1.6-0.3,1.8
		c-1.8,0.5-2.6,1.1-1.7,2.8c0.4,1.3,0.1,1.4-0.7,1.4c-1.9-0.1-2.2,1.1-2.3,2.6c0,0.7-0.7,0.9-1.3,0.5c-1.1-0.6-1.7-0.3-2.2,0.5
		c-0.5,0.7-1.2,1-1.7,0.3c-0.8-1.1-1.4-1.3-2.3-0.3c-0.5,0.5-1.1,0.7-1.3,0c-0.4-1.1-0.8-1.8-3.2-1.5c-0.7,0.1-1.3-0.5-1.1-1.4
		c0.5-2-0.6-2.6-3.3-3.1c-0.6-0.1-0.9-1-0.5-1.9c1-1.9,0.9-4.2-2-4.8c-0.8-0.2-1-1.5-0.5-2.3c1.4-2.1,1-4.3-1.1-5.3
		c-0.4-0.2-0.8-1.5-0.1-2c1.7-1.1,1.8-3.8,0.1-4.5c-0.5-0.2-0.6-1.9,0.1-2.2c2-1,2.4-2,0.8-4.5c-0.5-0.7,0-1.6,0.8-1.8
		c1.5-0.4,1.8-1.1,1.3-2.8c-0.3-0.9,0.2-1.4,1.2-1.3c0.9,0.1,1.9-0.5,1.9-2.3c0-0.9,0-0.9,1.1-0.5c0.8,0.3,1.7-0.2,2.2-1.5
		c0.3-0.9,0.7-1,1.2-0.5c0.8,0.8,1.5,0.9,2.3-0.1c0.5-0.7,0.9-1,1.4-0.3c0.8,1.3,1.8,1.8,2.6,1.3c0.8-0.5,1.3-0.2,1.5,1.4
		c0.1,0.7,0.7,1.2,1.7,1.1c1-0.1,1.3,0.2,1.2,1.1c-0.2,1.8,0.2,2.9,1.3,2.7c1.7-0.3,0.3,1-0.9,1.6c-3.8-8.7-11.8-8.8-16.3-1.7
		c-4.5,7-3.3,32.8,8.5,34.5C68.6,120.7,72.1,111.1,71.3,96.5L71.3,96.5z"/>
	<path class="st0" d="M71.1,96.4L71.1,96.4l0.8-0.4l0.2-0.1l0,0.3c0,0.5-0.1,1,0,1.3c0.1,0.3,0.2,0.5,0.3,0.6v0v0v0
		c0.3,0.1,0.6,0.3,0.7,0.5c0.1,0.1,0.2,0.3,0.2,0.5v0c0,0.2,0,0.3-0.1,0.5c-0.1,0.2-0.3,0.5-0.5,0.7c-0.1,0.1-0.2,0.2-0.3,0.4
		c-0.1,0.2-0.2,0.5-0.1,0.8c0,0.3,0.1,0.5,0.3,0.7c0.1,0.1,0.2,0.2,0.3,0.2l0,0c0.2,0.1,0.3,0.2,0.4,0.3c0.2,0.2,0.3,0.4,0.3,0.7
		c0,0.2,0,0.5-0.2,0.7c-0.1,0.2-0.3,0.4-0.5,0.6c-0.2,0.2-0.4,0.4-0.6,0.6c-0.3,0.4-0.4,0.8-0.5,1.1c0,0.4,0.1,0.7,0.4,1
		c0.1,0.1,0.2,0.2,0.3,0.2h0c0.1,0.1,0.2,0.1,0.2,0.2c0.1,0.2,0.2,0.4,0.2,0.6c0,0.2-0.1,0.4-0.3,0.7c0,0,0,0,0,0v0c0,0,0,0,0,0
		c-0.1,0.2-0.3,0.3-0.5,0.5h0c-0.6,0.4-0.9,0.9-1,1.4c-0.1,0.5,0,1,0.4,1.4c0.2,0.2,0.3,0.5,0.4,0.7l0,0c0.1,0.2,0.1,0.4,0,0.6
		c-0.1,0.2-0.2,0.4-0.3,0.5c-0.1,0.1-0.3,0.2-0.4,0.2c-0.9,0.2-1.5,0.5-1.8,0.9c-0.3,0.4-0.2,0.9,0.2,1.7l0,0
		c0.2,0.7,0.2,1.1,0.1,1.3c-0.2,0.2-0.5,0.3-0.9,0.2c-0.9-0.1-1.4,0.2-1.7,0.6c-0.3,0.5-0.4,1.1-0.4,1.9c0,0.2-0.1,0.4-0.1,0.5h0h0
		h0c-0.1,0.1-0.2,0.2-0.3,0.3c-0.1,0.1-0.3,0.1-0.4,0.1c-0.2,0-0.4-0.1-0.7-0.2c-0.5-0.3-0.9-0.4-1.2-0.3c-0.3,0.1-0.6,0.4-0.8,0.8
		c-0.1,0.2-0.3,0.4-0.5,0.5c-0.2,0.1-0.4,0.2-0.5,0.2h0h0c-0.2,0-0.4,0-0.5-0.1c-0.1-0.1-0.2-0.2-0.3-0.3c-0.4-0.5-0.7-0.8-1-0.9h0
		c-0.3-0.1-0.7,0.1-1.1,0.6c0,0,0,0,0,0h0h0c-0.2,0.2-0.4,0.4-0.7,0.5c-0.1,0-0.2,0-0.3,0c-0.1,0-0.2-0.1-0.3-0.1v0
		c-0.1-0.1-0.2-0.2-0.2-0.4c-0.2-0.5-0.4-1-0.8-1.2c-0.4-0.3-1.1-0.4-2.3-0.2c-0.1,0-0.3,0-0.4,0c-0.2-0.1-0.4-0.2-0.5-0.3v0
		c-0.1-0.2-0.2-0.4-0.3-0.6c0-0.2,0-0.3,0-0.5c0.2-0.9,0.1-1.6-0.4-2c-0.5-0.4-1.4-0.7-2.8-1c-0.1,0-0.2,0-0.2-0.1l0,0
		c-0.2-0.1-0.4-0.3-0.5-0.5c-0.1-0.2-0.1-0.5-0.1-0.8v0v0v0c0-0.2,0.1-0.4,0.2-0.6c0.2-0.4,0.4-0.9,0.5-1.3c0.1-0.6,0.1-1.2-0.1-1.7
		v0v0v0c-0.2-0.5-0.6-0.9-1.2-1.3h0c-0.3-0.2-0.7-0.3-1.2-0.4c-0.1,0-0.2-0.1-0.3-0.1h0c-0.2-0.2-0.4-0.4-0.5-0.7
		c-0.1-0.3-0.1-0.7,0-1c0-0.2,0.1-0.5,0.3-0.7c0.1-0.2,0.3-0.4,0.3-0.6c0.4-0.8,0.5-1.7,0.4-2.4c-0.2-0.7-0.6-1.4-1.3-1.9
		c-0.1-0.1-0.3-0.2-0.5-0.3c-0.1-0.1-0.2-0.2-0.3-0.3v0c-0.1-0.2-0.2-0.4-0.2-0.7c0-0.3,0-0.6,0.1-0.8c0.1-0.2,0.2-0.3,0.3-0.4
		c0.5-0.3,0.8-0.7,1-1.2c0.2-0.4,0.3-0.8,0.2-1.2c0-0.4-0.1-0.8-0.3-1.1c-0.2-0.3-0.5-0.5-0.8-0.7c-0.1-0.1-0.2-0.2-0.3-0.3
		c-0.1-0.2-0.2-0.5-0.2-0.8c0-0.3,0-0.6,0.1-0.8c0.1-0.2,0.2-0.4,0.4-0.5c1-0.5,1.6-1,1.7-1.6c0.1-0.7-0.2-1.5-1-2.7
		c-0.1-0.1-0.1-0.2-0.2-0.4c-0.1-0.3,0-0.5,0.1-0.8c0.1-0.2,0.3-0.5,0.5-0.6c0.1-0.1,0.3-0.2,0.5-0.2h0c0.7-0.2,1.1-0.5,1.3-0.9
		c0.2-0.4,0.1-1-0.1-1.8l0,0c-0.1-0.2-0.1-0.5-0.1-0.6c0-0.2,0.1-0.3,0.2-0.5c0.1-0.1,0.3-0.2,0.4-0.3l0,0c0.2-0.1,0.5-0.1,0.8-0.1
		c0,0,0.1,0,0.2,0c0.4,0,0.7-0.1,1-0.4c0.3-0.3,0.5-0.7,0.6-1.4c0-0.1,0-0.3,0-0.5c0-0.5,0-0.8,0.2-0.9c0.2-0.1,0.5,0,1,0.3h0
		c0,0,0,0,0.1,0l0,0c0.7,0.2,1.5-0.2,1.9-1.5l0,0l0,0l0,0c0.2-0.5,0.4-0.7,0.6-0.8c0.3-0.1,0.5,0,0.8,0.3c0.4,0.4,0.7,0.6,1,0.6
		c0.3,0,0.7-0.2,1.1-0.7c0,0,0,0,0,0l0,0c0,0,0,0,0,0c0.3-0.4,0.5-0.6,0.8-0.7c0.3-0.1,0.5,0,0.8,0.4c0.4,0.6,0.8,1.1,1.3,1.3
		c0.4,0.2,0.8,0.2,1.2,0h0c0.5-0.3,0.8-0.3,1.1-0.1c0.3,0.2,0.5,0.7,0.6,1.6c0,0.3,0.2,0.6,0.5,0.8c0.3,0.2,0.6,0.3,1.1,0.2
		c0.5,0,0.9,0,1.1,0.2c0.2,0.2,0.3,0.5,0.2,1v0c-0.1,0.6-0.1,1.1,0,1.5c0.1,0.3,0.1,0.6,0.3,0.8c0.1,0.2,0.3,0.3,0.5,0.3
		c0.1,0,0.2,0,0.3,0c0.4-0.1,0.6-0.1,0.8,0h0c0.1,0.1,0.2,0.2,0.2,0.3v0c0,0.1-0.1,0.2-0.2,0.3c-0.3,0.4-1,0.8-1.6,1.1L68,86.8
		l-0.1-0.1c-1.1-2.6-2.7-4.5-4.4-5.5c-1.1-0.7-2.2-1.1-3.4-1.2c-1.2-0.1-2.4,0.1-3.5,0.6c-1.8,0.8-3.4,2.2-4.8,4.4
		c-0.9,1.4-1.6,3.6-2,6.3c-0.7,4.5-0.5,10.1,0.6,15.2c1.1,5.1,3.3,9.6,6.6,11.7c1,0.6,2,1,3.2,1.2c0.6,0.1,1.3,0.1,1.9,0.1h0
		c2.4-0.1,4.3-1.3,5.7-3.3c1.4-2,2.4-4.9,3-8.5C71.3,104.4,71.4,100.6,71.1,96.4L71.1,96.4L71.1,96.4z M71.4,96.5
		c0.2,4.1,0.1,7.9-0.4,11.1c-0.5,3.6-1.5,6.5-3,8.6c-1.5,2.1-3.5,3.3-5.9,3.4h0h0h0c-0.6,0-1.2,0-1.9-0.1c-1.2-0.2-2.3-0.6-3.3-1.2
		c-3.4-2.2-5.6-6.7-6.7-11.8c-1.1-5.1-1.3-10.8-0.6-15.3c0.4-2.7,1.1-4.9,2-6.4c1.4-2.2,3.1-3.7,4.9-4.5c1.2-0.5,2.4-0.7,3.6-0.6
		c1.2,0.1,2.4,0.5,3.5,1.2c1.7,1.1,3.3,2.9,4.4,5.5c0.6-0.3,1.1-0.7,1.4-1c0.1-0.1,0.1-0.2,0.1-0.2v0v0v0c0,0,0,0,0,0h0
		c-0.1,0-0.3,0-0.6,0c-0.1,0-0.3,0-0.4,0c-0.3,0-0.5-0.2-0.7-0.4c-0.2-0.2-0.3-0.5-0.3-0.9c-0.1-0.4-0.1-1,0-1.6v0
		c0.1-0.4,0-0.6-0.2-0.8c-0.2-0.1-0.5-0.2-0.9-0.1c-0.5,0-1-0.1-1.3-0.3c-0.3-0.2-0.6-0.6-0.6-1c-0.1-0.8-0.3-1.3-0.5-1.5
		c-0.2-0.2-0.5-0.1-0.8,0.1h0c-0.5,0.3-0.9,0.3-1.4,0c-0.5-0.2-0.9-0.7-1.4-1.4c-0.2-0.3-0.3-0.4-0.5-0.3c-0.2,0.1-0.4,0.3-0.7,0.6
		l0,0c-0.5,0.6-0.9,0.8-1.3,0.8c-0.4,0-0.8-0.2-1.2-0.7c-0.2-0.2-0.4-0.3-0.5-0.2c-0.2,0.1-0.3,0.3-0.4,0.7l0,0
		c-0.5,1.4-1.4,1.9-2.3,1.6l0,0l0,0l0,0c0,0-0.1,0-0.1,0c0,0,0,0,0,0h0c0,0,0,0,0,0c-0.5-0.2-0.7-0.3-0.8-0.3c0,0-0.1,0.2-0.1,0.6
		c0,0.2,0,0.3,0,0.5c-0.1,0.7-0.3,1.2-0.7,1.5c-0.3,0.3-0.7,0.5-1.2,0.5c-0.1,0-0.1,0-0.2,0c-0.3,0-0.5,0-0.7,0l0,0
		c-0.1,0-0.2,0.1-0.3,0.2c-0.1,0.1-0.1,0.2-0.1,0.3c0,0.1,0,0.3,0.1,0.5l0,0c0.3,0.9,0.3,1.5,0.1,2c-0.2,0.5-0.7,0.8-1.5,1h0
		c-0.2,0-0.3,0.1-0.4,0.2c-0.2,0.1-0.4,0.3-0.4,0.5c-0.1,0.2-0.1,0.4,0,0.6c0,0.1,0.1,0.2,0.1,0.3c0.8,1.2,1.2,2.1,1,2.9
		c-0.2,0.7-0.8,1.3-1.8,1.8c-0.1,0.1-0.2,0.2-0.3,0.3c-0.1,0.2-0.1,0.5-0.1,0.7c0,0.3,0.1,0.5,0.1,0.7c0.1,0.1,0.1,0.2,0.2,0.2
		c0.4,0.2,0.7,0.5,1,0.8c0.2,0.4,0.4,0.8,0.4,1.3c0,0.4-0.1,0.9-0.3,1.4c-0.2,0.5-0.6,1-1.1,1.3c-0.1,0.1-0.2,0.2-0.3,0.3
		c-0.1,0.2-0.1,0.4-0.1,0.7c0,0.2,0.1,0.4,0.2,0.6v0c0.1,0.1,0.1,0.2,0.2,0.2c0.2,0.1,0.3,0.2,0.5,0.3c0.8,0.5,1.3,1.2,1.4,2
		c0.2,0.8,0,1.7-0.4,2.6c-0.1,0.2-0.2,0.4-0.4,0.6c-0.1,0.2-0.2,0.4-0.2,0.6c-0.1,0.3-0.1,0.6,0,0.9c0.1,0.3,0.2,0.5,0.4,0.6h0
		c0.1,0,0.1,0.1,0.2,0.1c0.5,0.1,0.9,0.2,1.2,0.4h0h0h0c0.7,0.3,1.1,0.8,1.3,1.4v0c0.2,0.6,0.2,1.2,0.1,1.8c-0.1,0.5-0.3,1-0.5,1.4
		c-0.1,0.2-0.2,0.4-0.2,0.6v0c0,0.3,0,0.5,0.1,0.7c0.1,0.2,0.2,0.3,0.3,0.4l0,0c0,0,0.1,0,0.2,0.1c1.4,0.2,2.3,0.5,2.9,1
		c0.6,0.5,0.7,1.2,0.5,2.3c0,0.2,0,0.3,0,0.4c0,0.2,0.1,0.4,0.2,0.5v0c0.1,0.1,0.3,0.2,0.4,0.3c0.1,0,0.2,0,0.3,0
		c1.2-0.2,1.9,0,2.4,0.2c0.5,0.3,0.7,0.8,0.9,1.4c0,0.1,0.1,0.2,0.2,0.3v0c0,0,0.1,0.1,0.2,0.1c0.1,0,0.1,0,0.2,0
		c0.2-0.1,0.4-0.2,0.5-0.4h0c0.5-0.5,0.9-0.8,1.3-0.7h0c0.4,0.1,0.8,0.4,1.2,1c0.1,0.1,0.2,0.2,0.2,0.2c0.1,0.1,0.2,0.1,0.4,0.1h0
		c0.1,0,0.3-0.1,0.4-0.2c0.2-0.1,0.3-0.3,0.4-0.5c0.3-0.4,0.6-0.8,1-0.9c0.4-0.1,0.8,0,1.4,0.3c0.2,0.1,0.4,0.2,0.5,0.2h0
		c0.1,0,0.2,0,0.3-0.1c0.1,0,0.1-0.1,0.2-0.2h0c0.1-0.1,0.1-0.2,0.1-0.4c0-0.8,0.1-1.5,0.5-2c0.3-0.5,0.9-0.8,1.9-0.7
		c0.3,0,0.6,0,0.7-0.1c0.1-0.1,0.1-0.5-0.1-1.1c-0.5-0.9-0.5-1.5-0.2-2c0.3-0.5,1-0.7,1.9-1c0.1,0,0.2-0.1,0.3-0.2
		c0.1-0.1,0.2-0.2,0.2-0.4c0-0.1,0-0.3,0-0.5l0,0c0-0.2-0.2-0.4-0.3-0.6c-0.4-0.5-0.6-1.1-0.5-1.7c0.1-0.6,0.5-1.1,1.1-1.6h0
		c0.2-0.1,0.3-0.3,0.4-0.4v0c0.1-0.2,0.2-0.4,0.2-0.5c0-0.2,0-0.3-0.1-0.4c0-0.1-0.1-0.1-0.2-0.2c0,0,0,0,0,0h0c0,0,0,0,0,0
		c-0.1-0.1-0.2-0.2-0.3-0.3l0,0c-0.3-0.4-0.5-0.8-0.5-1.2c0-0.4,0.2-0.9,0.5-1.3c0.2-0.2,0.4-0.5,0.6-0.7c0.2-0.2,0.3-0.4,0.4-0.6
		c0.1-0.2,0.2-0.4,0.1-0.6c0-0.2-0.1-0.4-0.2-0.5c-0.1-0.1-0.2-0.2-0.3-0.2l0,0c-0.1-0.1-0.3-0.2-0.4-0.3c-0.2-0.2-0.3-0.5-0.3-0.8
		c0-0.3,0-0.6,0.2-0.9c0.1-0.2,0.2-0.3,0.4-0.5c0.2-0.2,0.4-0.4,0.4-0.6c0-0.1,0.1-0.3,0-0.4v0c0-0.1-0.1-0.2-0.2-0.4
		c-0.1-0.2-0.3-0.3-0.6-0.4v0c-0.3-0.1-0.4-0.4-0.5-0.7c-0.1-0.3-0.1-0.7,0-1.1L71.4,96.5L71.4,96.5z"/>
	<path class="st4" d="M48,82.7l-2.4-0.9c-0.1,0-0.3,0-0.3,0.2l-0.1,0.2c0,0.1,0,0.3,0.2,0.3l2.4,0.9c0.1,0,0.3,0,0.3-0.2l0.1-0.2
		C48.2,82.9,48.2,82.7,48,82.7L48,82.7z"/>
	<path class="st0" d="M48,82.8L48,82.8l-2.4-0.9h0c0,0-0.1,0-0.1,0v0c0,0-0.1,0-0.1,0.1l-0.1,0.2c0,0,0,0.1,0,0.1h0
		c0,0,0,0.1,0.1,0.1l2.4,0.9h0c0,0,0.1,0,0.1,0v0c0,0,0.1,0,0.1-0.1l0.1-0.2v0C48.1,82.9,48.1,82.9,48,82.8L48,82.8
		C48.1,82.8,48,82.8,48,82.8L48,82.8z M48.1,82.5L48.1,82.5c0.1,0,0.2,0.1,0.2,0.2l0,0c0,0.1,0,0.2,0,0.3v0l-0.1,0.2
		c0,0.1-0.1,0.2-0.2,0.2v0c-0.1,0-0.2,0-0.3,0h0l-2.4-0.9c-0.1,0-0.2-0.1-0.2-0.2h0c0-0.1,0-0.2,0-0.3l0.1-0.2
		c0-0.1,0.1-0.2,0.2-0.2v0c0.1,0,0.2,0,0.3,0h0L48.1,82.5L48.1,82.5z"/>
	<path class="st4" d="M45.9,84.9l-3.7,0.5c-0.2,0-0.4,0.2-0.3,0.3l0,0.2c0,0.1,0.2,0.2,0.4,0.2l3.7-0.5c0.2,0,0.4-0.2,0.3-0.3l0-0.2
		C46.3,85,46.1,84.9,45.9,84.9L45.9,84.9z"/>
	<path class="st0" d="M45.9,85l-3.7,0.5h0c0,0,0,0,0,0h0c-0.1,0-0.1,0-0.1,0.1v0c0,0,0,0,0,0.1l0,0c0,0,0,0,0,0l0,0l0,0.2v0
		c0,0,0,0.1,0.1,0.1c0,0,0,0,0,0l0,0c0,0,0,0,0,0c0.1,0,0.1,0,0.2,0l3.7-0.5h0c0,0,0,0,0,0l0,0c0.1,0,0.1,0,0.1-0.1c0,0,0,0,0-0.1
		l0-0.2v0c0,0,0-0.1-0.1-0.1c0,0,0,0,0,0l0,0c0,0,0,0,0,0C46.1,85,46,85,45.9,85L45.9,85z M45.9,84.8c0.1,0,0.3,0,0.4,0.1l0,0
		c0.1,0.1,0.2,0.1,0.2,0.3v0l0,0.2l0,0c0,0.1,0,0.2-0.1,0.3c-0.1,0.1-0.2,0.1-0.3,0.1l0,0c0,0-0.1,0-0.1,0h0h0c0,0,0,0,0,0l-3.7,0.5
		c-0.1,0-0.3,0-0.4-0.1l0,0c-0.1-0.1-0.2-0.1-0.2-0.3v0l0-0.2c0,0,0,0,0,0l0,0l0,0c0,0,0,0,0,0l0,0c0-0.1,0-0.2,0.1-0.3v0
		c0.1-0.1,0.2-0.1,0.3-0.1h0c0,0,0,0,0.1,0h0h0c0,0,0,0,0,0L45.9,84.8L45.9,84.8z"/>
	<path class="st4" d="M45.5,87.9l-4.4,1.3c-0.3,0.1-0.4,0.3-0.3,0.4l0.1,0.2c0.1,0.2,0.3,0.2,0.6,0.2l4.4-1.3
		c0.3-0.1,0.4-0.3,0.3-0.4l-0.1-0.2C46.1,87.9,45.8,87.8,45.5,87.9L45.5,87.9z"/>
	<path class="st0" d="M45.6,88l-4.4,1.3c0,0-0.1,0-0.1,0l0,0c-0.1,0-0.1,0.1-0.1,0.1c0,0,0,0.1,0,0.1l0,0c0,0,0,0,0,0l0,0l0.1,0.2v0
		c0,0,0.1,0.1,0.2,0.1h0c0.1,0,0.2,0,0.3,0l4.4-1.3c0,0,0.1,0,0.1,0l0,0c0.1,0,0.1-0.1,0.1-0.1c0,0,0-0.1,0-0.1l0,0c0,0,0,0,0,0l0,0
		L46,88.1v0v0v0c0,0-0.1-0.1-0.2-0.1h0C45.8,88,45.7,88,45.6,88L45.6,88z M45.5,87.8c0.1,0,0.3,0,0.4,0c0.1,0,0.3,0.1,0.3,0.2v0
		l0.1,0.2c0,0,0,0,0,0l0,0l0,0c0,0,0,0,0,0.1c0,0,0,0,0,0l0,0c0,0,0,0,0,0c0,0.1,0,0.2-0.1,0.3c-0.1,0.1-0.1,0.2-0.2,0.2l0,0
		c0,0-0.1,0-0.1,0l-4.4,1.3c-0.1,0-0.3,0-0.4,0h0c-0.1,0-0.3-0.1-0.3-0.2v0l-0.1-0.2c0,0,0,0,0,0l0,0l0,0c0,0,0,0,0-0.1
		c0-0.1,0-0.2,0.1-0.3c0.1-0.1,0.1-0.2,0.2-0.2l0,0c0,0,0.1,0,0.1,0L45.5,87.8L45.5,87.8z M40.6,89.6C40.6,89.6,40.6,89.6,40.6,89.6
		L40.6,89.6C40.6,89.6,40.6,89.6,40.6,89.6L40.6,89.6z"/>
	<path class="st4" d="M44.1,93.8l-5.2,2.4c-0.3,0.1-0.4,0.4-0.3,0.6l0.1,0.2c0.1,0.2,0.5,0.2,0.8,0.1l5.2-2.4
		c0.3-0.1,0.4-0.4,0.3-0.6l-0.1-0.2C44.7,93.7,44.3,93.7,44.1,93.8L44.1,93.8z"/>
	<path class="st0" d="M44.1,93.9l-5.2,2.4c0,0,0,0,0,0h0h0c0,0-0.1,0-0.1,0c-0.1,0.1-0.1,0.1-0.2,0.2c0,0.1,0,0.1,0,0.2l0,0
		c0,0,0,0,0,0l0,0l0.1,0.2c0,0.1,0.1,0.1,0.2,0.1c0.1,0,0.2,0,0.4-0.1l5.2-2.4c0,0,0.1,0,0.1,0c0.1-0.1,0.1-0.1,0.2-0.2
		c0-0.1,0-0.1,0-0.2l0,0c0,0,0,0,0,0l0,0L44.7,94c0-0.1-0.1-0.1-0.2-0.1h0C44.4,93.9,44.2,93.9,44.1,93.9L44.1,93.9z M44.8,94.4
		L44.8,94.4L44.8,94.4C44.8,94.4,44.8,94.4,44.8,94.4L44.8,94.4z M44,93.7c0.2-0.1,0.4-0.1,0.5-0.1c0.2,0,0.3,0.1,0.4,0.2l0.1,0.2
		c0,0,0,0,0,0l0,0l0,0c0,0,0,0,0,0l0,0c0.1,0.1,0,0.3,0,0.4l0,0c-0.1,0.1-0.1,0.2-0.3,0.3c0,0-0.1,0-0.1,0.1l-5.2,2.4
		c-0.2,0.1-0.4,0.1-0.5,0.1c-0.2,0-0.3-0.1-0.4-0.2l-0.1-0.2c0,0,0,0,0,0l0,0l0,0c0,0,0,0,0-0.1c-0.1-0.1,0-0.3,0-0.4l0,0
		c0.1-0.1,0.1-0.2,0.3-0.3c0,0,0.1,0,0.1-0.1h0L44,93.7L44,93.7z M38.4,96.8C38.4,96.8,38.4,96.8,38.4,96.8L38.4,96.8
		C38.4,96.8,38.4,96.8,38.4,96.8L38.4,96.8z"/>
	<path class="st4" d="M45.6,97.8l-4.7,2.2c-0.3,0.1-0.4,0.4-0.3,0.5l0.1,0.2c0.1,0.2,0.4,0.2,0.7,0.1l4.7-2.2
		c0.3-0.1,0.4-0.4,0.3-0.5l-0.1-0.2C46.2,97.7,45.9,97.7,45.6,97.8L45.6,97.8z"/>
	<path class="st0" d="M45.6,97.9l-4.7,2.2l0,0c0,0,0,0-0.1,0l0,0c-0.1,0-0.1,0.1-0.2,0.2c0,0,0,0.1,0,0.1v0c0,0,0,0,0,0l0.1,0.2v0
		c0,0.1,0.1,0.1,0.2,0.1c0.1,0,0.2,0,0.3-0.1l4.7-2.2v0c0,0,0,0,0.1,0v0v0v0c0.1,0,0.1-0.1,0.2-0.2l0,0c0,0,0-0.1,0-0.1h0h0h0
		c0,0,0,0,0,0L46.2,98h0c0-0.1-0.1-0.1-0.2-0.1C45.9,97.9,45.8,97.9,45.6,97.9L45.6,97.9z M45.5,97.7c0.2-0.1,0.3-0.1,0.5-0.1
		c0.2,0,0.3,0.1,0.4,0.2h0h0c0,0,0,0,0,0l0.1,0.2c0,0,0,0,0,0h0c0.1,0.1,0,0.2,0,0.4l0,0c0,0.1-0.1,0.2-0.3,0.3v0c0,0-0.1,0-0.1,0.1
		v0l-4.7,2.2c-0.2,0.1-0.3,0.1-0.5,0.1c-0.2,0-0.3-0.1-0.4-0.2v0l-0.1-0.2c0,0,0,0,0,0v0c-0.1-0.1,0-0.2,0-0.4
		c0-0.1,0.1-0.2,0.3-0.3l0,0c0,0,0,0,0,0c0,0,0.1,0,0.1-0.1l0,0L45.5,97.7L45.5,97.7z"/>
	<path class="st4" d="M43.7,100.8L39,103c-0.3,0.1-0.4,0.4-0.3,0.5l0.1,0.2c0.1,0.2,0.4,0.2,0.7,0.1l4.7-2.2
		c0.3-0.1,0.4-0.4,0.3-0.5l-0.1-0.2C44.3,100.7,44,100.7,43.7,100.8L43.7,100.8z"/>
	<path class="st0" d="M43.8,100.9l-4.7,2.2v0c0,0,0,0-0.1,0c0,0,0,0,0,0v0v0c-0.1,0-0.1,0.1-0.2,0.2l0,0c0,0,0,0.1,0,0.1h0
		c0,0,0,0,0,0l0.1,0.2v0c0,0.1,0.1,0.1,0.2,0.1c0.1,0,0.2,0,0.3-0.1l4.7-2.2v0c0,0,0,0,0.1,0v0c0.1,0,0.1-0.1,0.2-0.2l0,0
		c0,0,0-0.1,0-0.1l0,0c0,0,0,0,0,0v0v0c0,0,0,0,0,0l-0.1-0.2c0-0.1-0.1-0.1-0.2-0.1C44,100.8,43.9,100.9,43.8,100.9L43.8,100.9z
		 M43.7,100.7c0.2-0.1,0.3-0.1,0.5-0.1c0.2,0,0.3,0.1,0.4,0.2l0.1,0.2v0c0,0,0,0,0,0c0.1,0.1,0,0.2,0,0.4c0,0,0,0,0,0l0,0
		c0,0,0,0,0,0c0,0.1-0.1,0.2-0.3,0.3v0c0,0-0.1,0-0.1,0.1v0l-4.7,2.2c-0.2,0.1-0.3,0.1-0.5,0.1c-0.2,0-0.3-0.1-0.4-0.2v0l-0.1-0.2
		c0,0,0,0,0,0h0c-0.1-0.1,0-0.2,0-0.4l0,0c0-0.1,0.1-0.2,0.3-0.3v0c0,0,0.1,0,0.1-0.1v0L43.7,100.7L43.7,100.7z"/>
	<path class="st4" d="M46.8,103.9l-5,2.5c-0.3,0.1-0.4,0.5-0.4,0.7l0.1,0.3c0.1,0.3,0.4,0.4,0.7,0.2l5-2.5c0.3-0.1,0.4-0.5,0.4-0.7
		l-0.1-0.3C47.4,103.9,47.1,103.8,46.8,103.9L46.8,103.9z"/>
	<path class="st0" d="M46.9,104.1L46.9,104.1l-5,2.5c-0.1,0.1-0.2,0.2-0.3,0.3v0c-0.1,0.1-0.1,0.2,0,0.3l0,0l0.1,0.3v0c0,0,0,0,0,0
		l0,0c0,0.1,0.1,0.1,0.2,0.1c0.1,0,0.2,0,0.2,0l0,0c0,0,0,0,0.1,0v0v0v0l5-2.5v0c0.1-0.1,0.2-0.2,0.3-0.3c0-0.1,0.1-0.2,0-0.3l0,0
		l-0.1-0.3l0,0c0,0,0,0,0,0l0,0c0-0.1-0.1-0.1-0.2-0.1C47.1,104,47,104,46.9,104.1C46.9,104,46.9,104.1,46.9,104.1L46.9,104.1z
		 M46.8,103.8L46.8,103.8C46.8,103.8,46.8,103.8,46.8,103.8L46.8,103.8z M46.8,103.8c0,0,0.1,0,0.1,0c0.1,0,0.3,0,0.4,0
		c0.1,0,0.2,0.1,0.3,0.3l0,0c0,0,0,0,0,0.1l0,0l0,0c0,0,0,0,0,0l0.1,0.3l0,0c0.1,0.2,0,0.4,0,0.5c-0.1,0.2-0.2,0.3-0.4,0.4v0v0v0
		l-5,2.5v0c0,0-0.1,0-0.1,0l0,0c-0.1,0-0.3,0-0.4,0c-0.1,0-0.2-0.1-0.3-0.3c0,0,0,0,0-0.1v0v0v0l-0.1-0.3l0,0c-0.1-0.2,0-0.4,0-0.5
		v0c0.1-0.2,0.2-0.3,0.4-0.4L46.8,103.8L46.8,103.8L46.8,103.8z M41.5,107.6L41.5,107.6L41.5,107.6
		C41.5,107.6,41.5,107.6,41.5,107.6L41.5,107.6z"/>
	<path class="st4" d="M45.3,108.2l-4.9,2.2c-0.3,0.1-0.4,0.4-0.3,0.6l0.1,0.2c0.1,0.2,0.4,0.3,0.7,0.1l4.9-2.2
		c0.3-0.1,0.4-0.4,0.3-0.6l-0.1-0.2C45.9,108.2,45.6,108.1,45.3,108.2L45.3,108.2z"/>
	<path class="st0" d="M45.3,108.4l-4.9,2.2c-0.1,0-0.2,0.1-0.2,0.2c0,0.1,0,0.1,0,0.2l0.1,0.2c0,0.1,0.1,0.1,0.2,0.1
		c0.1,0,0.2,0,0.3,0l4.9-2.2c0.1-0.1,0.2-0.1,0.2-0.2c0-0.1,0-0.1,0-0.2l-0.1-0.2c0-0.1-0.1-0.1-0.2-0.1
		C45.6,108.3,45.4,108.3,45.3,108.4L45.3,108.4z M45.2,108.1c0.2-0.1,0.3-0.1,0.5-0.1c0.2,0,0.3,0.1,0.4,0.3l0.1,0.2
		c0.1,0.1,0.1,0.3,0,0.4c-0.1,0.1-0.2,0.2-0.4,0.3l-4.9,2.2c-0.2,0.1-0.3,0.1-0.5,0.1c-0.2,0-0.3-0.1-0.4-0.3l-0.1-0.2
		c-0.1-0.1-0.1-0.3,0-0.4c0.1-0.1,0.2-0.2,0.4-0.3L45.2,108.1L45.2,108.1z"/>
	<path class="st4" d="M49,110.6l-4.7,2.4c-0.3,0.1-0.5,0.5-0.4,0.9l0,0.4c0,0.4,0.3,0.5,0.5,0.4l4.7-2.4c0.3-0.1,0.5-0.5,0.4-0.9
		l0-0.4C49.5,110.7,49.2,110.5,49,110.6L49,110.6z"/>
	<path class="st0" d="M49,110.8l-4.7,2.4c-0.1,0.1-0.2,0.2-0.3,0.3c-0.1,0.1-0.1,0.3-0.1,0.5l0,0.4v0c0,0.1,0,0.2,0.1,0.2
		c0,0,0,0.1,0.1,0.1c0,0,0.1,0,0.1,0c0,0,0.1,0,0.1,0l0,0l4.7-2.4c0.1-0.1,0.2-0.2,0.3-0.3c0.1-0.1,0.1-0.3,0.1-0.5l0-0.4v0v0v0
		c0-0.1,0-0.2-0.1-0.2c0,0,0-0.1-0.1-0.1l0,0c0,0-0.1,0-0.1,0C49.1,110.7,49.1,110.7,49,110.8C49,110.8,49,110.8,49,110.8L49,110.8z
		 M48.9,110.5L48.9,110.5c0.1,0,0.1-0.1,0.2-0.1c0.1,0,0.2,0,0.2,0.1c0,0,0,0,0,0l0,0c0,0,0,0,0,0c0.1,0,0.1,0.1,0.2,0.2
		c0,0.1,0.1,0.2,0.1,0.3v0l0,0.4c0,0.2,0,0.4-0.1,0.6c-0.1,0.2-0.2,0.3-0.4,0.4l-4.7,2.4l0,0c-0.1,0-0.1,0.1-0.2,0.1
		c-0.1,0-0.2,0-0.2-0.1c-0.1,0-0.1-0.1-0.2-0.2c0-0.1-0.1-0.2-0.1-0.3v0l0-0.4c0-0.2,0-0.4,0.1-0.6c0.1-0.2,0.2-0.3,0.4-0.4
		L48.9,110.5L48.9,110.5z"/>
	<path class="st4" d="M48.2,115.7l-3.7,1.6c-0.2,0.1-0.4,0.4-0.3,0.6l0,0.3c0,0.2,0.2,0.3,0.4,0.3l3.7-1.6c0.2-0.1,0.4-0.4,0.3-0.6
		l0-0.3C48.6,115.7,48.4,115.6,48.2,115.7L48.2,115.7z"/>
	<path class="st0" d="M48.2,115.8L48.2,115.8l-3.7,1.6c-0.1,0-0.1,0.1-0.2,0.2h0c0,0.1-0.1,0.2-0.1,0.3l0,0.3v0c0,0,0,0.1,0,0.1l0,0
		c0,0,0,0.1,0.1,0.1l0,0c0,0,0,0,0.1,0h0c0,0,0,0,0.1,0v0l3.7-1.6h0c0.1,0,0.1-0.1,0.2-0.2h0c0-0.1,0.1-0.2,0.1-0.3v0l0-0.3v0
		c0,0,0-0.1,0-0.1l0,0c0,0,0-0.1-0.1-0.1C48.4,115.8,48.3,115.8,48.2,115.8L48.2,115.8C48.3,115.8,48.3,115.8,48.2,115.8L48.2,115.8
		z M44.3,118.5L44.3,118.5L44.3,118.5C44.3,118.5,44.3,118.5,44.3,118.5L44.3,118.5z M44.1,118.3C44.1,118.3,44.1,118.3,44.1,118.3
		L44.1,118.3L44.1,118.3L44.1,118.3z"/>
	<path class="st4" d="M52,117.5l-3.7,1.4c-0.2,0.1-0.4,0.3-0.3,0.5l0,0.2c0,0.2,0.2,0.3,0.4,0.2l3.7-1.4c0.2-0.1,0.4-0.3,0.3-0.5
		l0-0.2C52.4,117.5,52.3,117.4,52,117.5L52,117.5z"/>
	<path class="st0" d="M52,117.3L52,117.3c0.1,0,0.1,0,0.1,0h0c0.1,0,0.2,0,0.2,0.1l0,0c0.1,0,0.1,0.1,0.2,0.2l0,0c0,0,0,0.1,0,0.1
		l0,0.2c0,0.1,0,0.3-0.1,0.4c-0.1,0.1-0.2,0.2-0.3,0.3l-3.7,1.4v0c-0.1,0-0.1,0-0.2,0h0c0,0,0,0,0,0c-0.1,0-0.2,0-0.2-0.1
		c-0.1,0-0.1-0.1-0.2-0.2c0,0,0-0.1,0-0.1v0l0-0.2v0c0-0.1,0-0.3,0.1-0.4c0.1-0.1,0.2-0.2,0.3-0.3L52,117.3L52,117.3z"/>
	<path class="st4" d="M53.2,120.6l-2.4,1.8c-0.1,0.1-0.2,0.3-0.1,0.4l0.1,0.1c0.1,0.1,0.2,0.1,0.4,0l2.4-1.8
		c0.1-0.1,0.2-0.3,0.1-0.4l-0.1-0.1C53.5,120.5,53.4,120.5,53.2,120.6L53.2,120.6z"/>
	<path class="st0" d="M53.3,120.7l-2.4,1.8c0,0-0.1,0.1-0.1,0.1v0c0,0,0,0.1,0,0.1l0,0l0.1,0.1c0,0,0,0,0,0l0,0l0,0c0,0,0,0,0,0
		c0,0,0,0,0,0c0,0,0.1,0,0.1,0c0,0,0,0,0,0l2.4-1.8c0,0,0.1-0.1,0.1-0.1v0c0,0,0-0.1,0-0.1l-0.1-0.1l0,0l0,0l0,0c0,0,0,0,0,0l0,0
		c0,0,0,0-0.1,0C53.4,120.6,53.4,120.7,53.3,120.7C53.3,120.7,53.3,120.7,53.3,120.7L53.3,120.7C53.3,120.7,53.3,120.7,53.3,120.7
		C53.3,120.7,53.3,120.7,53.3,120.7L53.3,120.7z M51,122.9C51,122.9,51,122.9,51,122.9L51,122.9C51,122.9,51,122.9,51,122.9
		L51,122.9z M53.1,120.5C53.2,120.5,53.2,120.4,53.1,120.5L53.1,120.5c0.1-0.1,0.2-0.1,0.3-0.1c0.1,0,0.2,0.1,0.2,0.1l0,0
		c0,0,0,0,0,0l0,0l0.1,0.1c0,0.1,0.1,0.2,0,0.3v0c0,0.1-0.1,0.2-0.2,0.3l-2.4,1.8c0,0,0,0-0.1,0l0,0c-0.1,0-0.2,0.1-0.3,0h0
		c-0.1,0-0.2-0.1-0.2-0.1l0,0c0,0,0,0,0,0l0,0l-0.1-0.1l0,0c0-0.1-0.1-0.2,0-0.3v0c0-0.1,0.1-0.2,0.2-0.3L53.1,120.5L53.1,120.5z"/>
	<path class="st4" d="M55.8,121.7l-2.3,2.2c-0.1,0.1-0.2,0.3-0.1,0.4l0.1,0.1c0.1,0.1,0.3,0.1,0.4,0l2.3-2.2
		c0.1-0.1,0.2-0.3,0.1-0.4l-0.1-0.1C56.2,121.6,56,121.6,55.8,121.7L55.8,121.7z"/>
	<path class="st0" d="M55.9,121.8l-2.3,2.2c0,0-0.1,0.1-0.1,0.1c0,0,0,0.1,0,0.1l0.1,0.1c0,0,0.1,0,0.1,0h0c0,0,0.1,0,0.1-0.1
		l2.3-2.2c0,0,0.1-0.1,0.1-0.1c0,0,0-0.1,0-0.1l-0.1-0.1c0,0-0.1,0-0.1,0h0C56,121.8,56,121.8,55.9,121.8L55.9,121.8z M55.7,121.7
		c0.1-0.1,0.2-0.1,0.3-0.1c0.1,0,0.2,0,0.3,0.1l0.1,0.1c0.1,0.1,0.1,0.2,0.1,0.3v0c0,0.1-0.1,0.2-0.2,0.3l-2.3,2.2
		c-0.1,0.1-0.2,0.1-0.3,0.1h0c0,0,0,0,0,0c-0.1,0-0.2,0-0.3-0.1l-0.1-0.1c-0.1-0.1-0.1-0.2-0.1-0.3c0-0.1,0.1-0.2,0.2-0.3
		L55.7,121.7L55.7,121.7z"/>
	<path class="st4" d="M58,122.8l-1.9,1.8c-0.1,0.1-0.1,0.3,0,0.3l0.1,0.1c0.1,0.1,0.2,0.1,0.3,0l1.9-1.8c0.1-0.1,0.1-0.3,0-0.3
		l-0.1-0.1C58.2,122.6,58.1,122.7,58,122.8L58,122.8z"/>
	<path class="st0" d="M58.1,122.9l-1.9,1.8c0,0-0.1,0.1-0.1,0.1v0c0,0,0,0.1,0,0.1l0,0l0.1,0.1l0,0c0,0,0,0,0.1,0h0c0,0,0.1,0,0.1,0
		l0,0l1.9-1.8c0,0,0-0.1,0.1-0.1v0c0,0,0-0.1,0-0.1l0,0l0,0l0,0l-0.1-0.1l0,0C58.2,122.8,58.2,122.8,58.1,122.9L58.1,122.9
		C58.1,122.8,58.1,122.8,58.1,122.9L58.1,122.9z M57.9,122.7c0.1-0.1,0.2-0.1,0.3-0.1c0.1,0,0.2,0,0.3,0.1l0,0l0.1,0.1l0,0
		c0.1,0.1,0.1,0.2,0.1,0.3c0,0.1-0.1,0.2-0.1,0.3l-1.9,1.8l0,0c-0.1,0.1-0.2,0.1-0.3,0.1h0c0,0,0,0,0,0c-0.1,0-0.2,0-0.3-0.1l0,0
		L56,125l0,0c-0.1-0.1-0.1-0.2-0.1-0.3c0-0.1,0.1-0.2,0.1-0.3L57.9,122.7L57.9,122.7z"/>
	<path class="st4" d="M60.1,122.5l-1.1,2.4c-0.1,0.1,0,0.3,0.1,0.3l0.1,0.1c0.1,0.1,0.2,0,0.3-0.1l1.1-2.4c0.1-0.1,0-0.3-0.1-0.3
		l-0.1-0.1C60.3,122.3,60.2,122.4,60.1,122.5L60.1,122.5z"/>
	<path class="st0" d="M60.2,122.5l-1.1,2.4l0,0c0,0,0,0.1,0,0.1c0,0,0,0,0,0.1v0l0.1,0.1c0,0,0,0,0.1,0c0,0,0.1,0,0.1-0.1v0l1.1-2.4
		l0,0c0,0,0-0.1,0-0.1l0,0c0,0,0,0,0-0.1h0l-0.1-0.1h0C60.3,122.5,60.3,122.5,60.2,122.5C60.3,122.5,60.2,122.5,60.2,122.5
		C60.2,122.5,60.2,122.5,60.2,122.5L60.2,122.5z M60,122.4L60,122.4c0-0.1,0.1-0.2,0.2-0.2c0.1,0,0.2,0,0.3,0h0l0.1,0.1h0
		c0.1,0,0.2,0.1,0.2,0.2l0,0c0,0.1,0,0.2,0,0.3l0,0l0,0l0,0l-1.1,2.4v0v0v0c0,0.1-0.1,0.2-0.2,0.2c-0.1,0-0.2,0-0.3,0l-0.1-0.1v0
		c-0.1,0-0.1-0.1-0.2-0.2c0-0.1,0-0.2,0-0.3l0,0L60,122.4L60,122.4z"/>
	<path class="st4" d="M63.7,90.6c0.6-0.2,1-0.6,1.3-1.5c-0.3-0.9-0.5-1.8-0.8-2.6c-3.1-6.6-9.2-4.5-11.3,1.4
		c-2.8,8-2.4,16.3,1.4,23.9c4.7,9.5,14.4,5.4,14.1-9.6c0-1.4-0.4-2.4-0.7-2.8c-0.8,0.4-1.5,0.8-1.5,1.5c0.7,12.5-9.8,15.3-12,2.6
		C51.6,89,60.6,85.8,63.7,90.6L63.7,90.6z"/>
	<path class="st0" d="M63.7,90.5c0.3-0.1,0.4-0.2,0.6-0.4h0c0.2-0.2,0.3-0.5,0.5-0.9c-0.1-0.3-0.2-0.6-0.2-0.8
		c-0.2-0.6-0.3-1.2-0.6-1.7c-0.7-1.5-1.6-2.6-2.5-3.2c-0.9-0.7-2-0.9-3-0.8c-1,0.1-2,0.6-2.9,1.3c-1.1,0.9-2.1,2.3-2.7,4.1
		c-1.4,4-2,8.1-1.8,12.1c0.2,4,1.3,7.9,3.2,11.7c1.2,2.5,2.8,4,4.4,4.7c1.1,0.4,2.3,0.5,3.3,0.1c1.1-0.4,2.1-1.1,3-2.3
		c1.9-2.4,3.1-6.4,3-12c0-0.6-0.1-1.1-0.2-1.5c-0.1-0.5-0.3-0.8-0.4-1.1c-0.4,0.2-0.7,0.3-0.9,0.6c-0.2,0.2-0.4,0.5-0.4,0.7
		c0.3,4.7-1,8-2.9,9.7c-0.8,0.7-1.6,1.1-2.5,1.2c-0.9,0.1-1.8,0-2.6-0.5c-1.9-1-3.5-3.6-4.3-7.8c-1-5.8-0.2-9.8,1.4-12.3
		c0.7-1.1,1.6-1.9,2.5-2.4c0.9-0.5,1.9-0.6,2.8-0.5C61.9,88.6,63,89.3,63.7,90.5L63.7,90.5z M63.7,90.7L63.7,90.7l-0.2-0.1
		c-0.7-1.1-1.8-1.8-2.9-2c-0.9-0.1-1.8,0-2.7,0.5c-0.9,0.5-1.7,1.2-2.4,2.3c-1.5,2.4-2.3,6.4-1.3,12.1c0.7,4.1,2.3,6.6,4.1,7.6
		c0.8,0.4,1.6,0.6,2.5,0.5c0.8-0.1,1.6-0.5,2.3-1.2c1.8-1.6,3.1-4.9,2.8-9.5c0-0.4,0.2-0.7,0.5-1c0.3-0.3,0.7-0.5,1.1-0.7l0.1,0
		l0.1,0.1c0.2,0.3,0.4,0.7,0.5,1.3c0.1,0.4,0.2,1,0.2,1.6c0.1,5.6-1.2,9.7-3.1,12.1c-0.9,1.2-2,2-3.2,2.4c-1.1,0.4-2.4,0.4-3.5-0.1
		c-1.7-0.7-3.3-2.3-4.6-4.8c-1.9-3.8-2.9-7.8-3.2-11.8c-0.2-4.1,0.4-8.2,1.8-12.2c0.6-1.8,1.6-3.2,2.8-4.2c0.9-0.8,2-1.3,3.1-1.4
		c1.1-0.1,2.2,0.1,3.2,0.8c1,0.7,1.9,1.8,2.6,3.3c0.3,0.6,0.4,1.2,0.6,1.8c0.1,0.3,0.2,0.6,0.3,0.9l0,0.1c-0.2,0.4-0.3,0.8-0.5,1h0
		C64.3,90.5,64.1,90.6,63.7,90.7L63.7,90.7z"/>
	<path class="st4" d="M58.9,93.2c-0.3,0-0.6,0.3-0.6,0.7c0,0.4,0.3,0.7,0.6,0.7s0.6-0.3,0.6-0.7C59.5,93.5,59.2,93.2,58.9,93.2
		L58.9,93.2z"/>
	<path class="st0" d="M58.9,93.4c-0.1,0-0.3,0.1-0.3,0.2c-0.1,0.1-0.1,0.2-0.1,0.4c0,0.1,0.1,0.3,0.1,0.4c0.1,0.1,0.2,0.2,0.3,0.2
		s0.3-0.1,0.3-0.2c0.1-0.1,0.1-0.2,0.1-0.4c0-0.1-0.1-0.3-0.1-0.4C59.1,93.4,59,93.4,58.9,93.4L58.9,93.4z M58.9,93.1
		c0.2,0,0.4,0.1,0.5,0.2c0.1,0.1,0.2,0.3,0.2,0.6c0,0.2-0.1,0.4-0.2,0.6c-0.1,0.1-0.3,0.2-0.5,0.2c-0.2,0-0.4-0.1-0.5-0.2
		c-0.1-0.1-0.2-0.3-0.2-0.6c0-0.2,0.1-0.4,0.2-0.6C58.5,93.2,58.7,93.1,58.9,93.1L58.9,93.1z"/>
	<path class="st4" d="M57.5,98.7c-0.2,0-0.3,0.1-0.3,0.2c0,0.1,0.2,0.2,0.3,0.2c0.2,0,0.3-0.1,0.3-0.2
		C57.8,98.8,57.7,98.7,57.5,98.7L57.5,98.7z"/>
	<path class="st0" d="M57.5,98.8c-0.1,0-0.1,0-0.2,0l0,0c0,0,0,0,0,0.1c0,0,0,0,0,0.1c0,0,0.1,0,0.2,0c0.1,0,0.1,0,0.2,0
		c0,0,0,0,0-0.1c0,0,0,0,0-0.1l0,0C57.6,98.9,57.5,98.8,57.5,98.8L57.5,98.8z M57.5,98.6c0.1,0,0.2,0,0.3,0.1l0,0
		c0.1,0.1,0.2,0.2,0.2,0.3c0,0.1-0.1,0.2-0.2,0.3c-0.1,0.1-0.2,0.1-0.3,0.1s-0.2,0-0.3-0.1c-0.1-0.1-0.2-0.2-0.2-0.3
		c0-0.1,0.1-0.2,0.2-0.3C57.2,98.6,57.4,98.6,57.5,98.6L57.5,98.6z"/>
	<path class="st4" d="M59.4,99l-2.1,0.7c-0.2,0.1,0,0.5,0.1,0.5l2.1-0.9C59.6,99.3,59.5,99,59.4,99L59.4,99z"/>
	<path class="st0" d="M59.4,99.1l-2.1,0.7c0,0,0,0,0,0.1v0c0,0,0,0.1,0,0.1v0c0,0,0,0,0,0.1v0c0,0,0,0,0,0h0h0c0,0,0,0,0,0
		L59.4,99.1C59.5,99.2,59.4,99.2,59.4,99.1L59.4,99.1C59.4,99.2,59.4,99.2,59.4,99.1C59.4,99.2,59.4,99.1,59.4,99.1L59.4,99.1
		C59.4,99.1,59.5,99.1,59.4,99.1L59.4,99.1z M59.4,98.9c0.1,0,0.2,0,0.3,0.1c0,0,0,0,0,0l0,0c0,0,0,0,0,0c0,0,0,0.1,0.1,0.1
		c0,0,0,0.1,0,0.1v0c0,0.1,0,0.2-0.1,0.3l-2.1,0.9h0c-0.1,0-0.2,0-0.3-0.1c0,0,0,0,0,0v0c0,0,0,0,0,0c0,0,0-0.1-0.1-0.1v0
		c0,0,0-0.1,0-0.1v0v0c0-0.1,0-0.3,0.2-0.3L59.4,98.9L59.4,98.9z"/>
	<path class="st4" d="M59.8,101.6l-1,1.5c-0.1,0.2,0.5,0.3,0.5,0.2l0.9-1.6C60.3,101.6,59.9,101.5,59.8,101.6L59.8,101.6z"/>
	<path class="st0" d="M59.9,101.6l-0.9,1.5c0,0,0,0,0,0c0,0,0.1,0,0.1,0c0.1,0,0.2,0,0.2,0l0.8-1.5c0,0,0,0,0,0v0
		C60,101.6,59.9,101.6,59.9,101.6L59.9,101.6z M59.7,101.5L59.7,101.5c0.1-0.1,0.2-0.1,0.4-0.1v0c0,0,0.1,0,0.1,0l0,0
		c0,0,0.1,0,0.1,0.1c0.1,0.1,0.1,0.1,0,0.2l-0.9,1.6l0,0c-0.1,0.1-0.3,0.1-0.4,0.1c0,0-0.1,0-0.1,0c0,0-0.1-0.1-0.1-0.1l0,0
		c-0.1-0.1-0.1-0.2,0-0.3l0,0L59.7,101.5L59.7,101.5z"/>
	<path class="st4" d="M62.3,102.6l-3.8,3.3l0.6,0.5l3.4-3.3C62.6,102.9,62.5,102.5,62.3,102.6L62.3,102.6z"/>
	<path class="st0" d="M62.4,102.8l-3.7,3.2l0.4,0.3l3.3-3.2C62.4,102.9,62.4,102.9,62.4,102.8L62.4,102.8
		C62.4,102.8,62.4,102.8,62.4,102.8L62.4,102.8z M62.2,102.5c0.1-0.1,0.2-0.1,0.3,0c0,0,0.1,0.1,0.1,0.1l0,0c0,0,0,0.1,0.1,0.1l0,0
		c0,0.1,0,0.3-0.1,0.4l-3.4,3.3l-0.1,0.1l-0.1-0.1l-0.6-0.5l-0.1-0.1l0.1-0.1L62.2,102.5L62.2,102.5z"/>
	<path class="st4" d="M62.8,104.7c-0.4,0-0.7,0.2-0.7,0.5c0,0.3,0.3,0.5,0.7,0.5c0.4,0,0.7-0.2,0.7-0.5
		C63.5,104.9,63.2,104.7,62.8,104.7L62.8,104.7z"/>
	<path class="st0" d="M62.8,104.9c-0.2,0-0.3,0-0.4,0.1c-0.1,0.1-0.1,0.1-0.1,0.2c0,0.1,0.1,0.2,0.1,0.2c0.1,0.1,0.2,0.1,0.4,0.1
		c0.2,0,0.3,0,0.4-0.1l0,0c0.1-0.1,0.1-0.1,0.1-0.2c0-0.1-0.1-0.2-0.1-0.2l0,0C63.1,104.9,63,104.9,62.8,104.9L62.8,104.9z
		 M62.8,104.6c0.2,0,0.4,0.1,0.6,0.2c0.2,0.1,0.3,0.3,0.3,0.4c0,0.2-0.1,0.3-0.3,0.4l0,0l0,0c0,0,0,0,0,0c-0.1,0.1-0.3,0.2-0.6,0.2
		c-0.2,0-0.4-0.1-0.6-0.2c-0.2-0.1-0.3-0.3-0.3-0.4c0-0.2,0.1-0.3,0.3-0.4C62.4,104.7,62.6,104.6,62.8,104.6L62.8,104.6z"/>
	<path class="st4" d="M62.9,106c-0.1,0-0.3,0.1-0.3,0.3c0,0.1,0.1,0.3,0.3,0.3c0.1,0,0.3-0.1,0.3-0.3C63.2,106.1,63.1,106,62.9,106
		L62.9,106z"/>
	<path class="st0" d="M62.9,106.1C62.9,106.1,62.9,106.2,62.9,106.1L62.9,106.1c-0.1,0.1-0.1,0.1-0.1,0.1c0,0,0,0.1,0,0.1l0,0
		c0,0,0.1,0,0.1,0c0,0,0.1,0,0.1,0l0,0c0,0,0-0.1,0-0.1C63.1,106.2,63,106.2,62.9,106.1L62.9,106.1C63,106.2,63,106.1,62.9,106.1
		L62.9,106.1z M62.9,105.9c0.1,0,0.2,0,0.3,0.1c0.1,0.1,0.1,0.2,0.1,0.3c0,0.1,0,0.2-0.1,0.3l0,0c0,0,0,0,0,0
		c-0.1,0.1-0.2,0.1-0.3,0.1c-0.1,0-0.2,0-0.3-0.1c-0.1-0.1-0.1-0.2-0.1-0.3c0-0.1,0-0.2,0.1-0.3l0,0c0,0,0,0,0,0
		C62.7,105.9,62.8,105.9,62.9,105.9L62.9,105.9z M62.7,106.6L62.7,106.6L62.7,106.6C62.7,106.6,62.7,106.6,62.7,106.6L62.7,106.6z"
		/>
	<path class="st4" d="M62.1,104c-0.2,0-0.3,0.1-0.3,0.2c0,0.1,0.1,0.2,0.3,0.2c0.2,0,0.3-0.1,0.3-0.2C62.4,104.1,62.2,104,62.1,104
		L62.1,104z"/>
	<path class="st0" d="M62.1,104.2c-0.1,0-0.1,0-0.1,0c0,0,0,0,0,0c0,0,0,0,0,0C62,104.3,62,104.3,62.1,104.2
		c0.1,0.1,0.1,0.1,0.1,0.1l0,0c0,0,0,0,0,0c0,0,0,0,0,0l0,0C62.2,104.2,62.1,104.2,62.1,104.2L62.1,104.2z M62.1,103.9
		c0.1,0,0.2,0,0.3,0.1c0.1,0.1,0.1,0.1,0.1,0.2c0,0.1-0.1,0.2-0.1,0.2c-0.1,0-0.2,0.1-0.3,0.1c-0.1,0-0.2,0-0.3-0.1
		c-0.1-0.1-0.1-0.1-0.1-0.2c0-0.1,0.1-0.2,0.1-0.2C61.9,103.9,62,103.9,62.1,103.9L62.1,103.9z M62.4,104.5L62.4,104.5L62.4,104.5
		L62.4,104.5L62.4,104.5z"/>
	<path class="st4" d="M93.2,65.8c-0.6,0.1-1.1,0.6-0.7,1.2c1.6,2.9,3.5,5.5,5.6,6.8c0.5,0.3,0.9-0.1,1.2-0.6L93.2,65.8L93.2,65.8z"
		/>
	<path class="st0" d="M93.2,65.9c-0.1,0-0.2,0.1-0.3,0.1h0c-0.1,0.1-0.2,0.2-0.3,0.3c-0.1,0.1-0.1,0.2-0.1,0.4c0,0.1,0,0.1,0.1,0.2
		v0c0.8,1.5,1.8,2.9,2.8,4.1c0.9,1.1,1.8,2,2.8,2.6c0.2,0.1,0.4,0.1,0.5,0c0.2-0.1,0.3-0.3,0.5-0.4L93.2,65.9L93.2,65.9z M93.2,65.7
		L93.2,65.7l0.1,0l6.1,7.4l0.1,0.1l-0.1,0.1c-0.2,0.2-0.4,0.4-0.6,0.6c-0.2,0.1-0.5,0.2-0.8,0c-1-0.6-2-1.5-2.9-2.6
		c-1-1.2-1.9-2.6-2.8-4.2v0c-0.1-0.1-0.1-0.2-0.1-0.3c0-0.2,0-0.4,0.1-0.6c0.1-0.2,0.2-0.3,0.4-0.4h0C92.9,65.8,93.1,65.7,93.2,65.7
		L93.2,65.7z"/>
	<path class="st2" d="M91.7,57.6c0.8-6.6,10.1-9.1,16.7-2.1c6.8,7.2,6.9,15.5,3.1,18.7c-3.2,2.7-7.5,3.3-11,0.4
		c-4.2-3.4-6.7-7.1-8.1-10.3C91.3,61.9,91.4,59.7,91.7,57.6L91.7,57.6z"/>
	<path class="st3" d="M91.5,57.5c0.2-1.7,1-3.1,2.1-4.2c0.9-0.8,2-1.4,3.2-1.8c1.2-0.4,2.6-0.5,4-0.3c2.6,0.3,5.3,1.6,7.7,4.1
		c3.2,3.4,4.9,7,5.5,10.3c0.6,3.7-0.3,6.9-2.4,8.6c-1.7,1.4-3.7,2.3-5.7,2.3c-1.9,0.1-3.8-0.5-5.5-1.9c-2-1.6-3.5-3.2-4.8-4.8
		c-1.5-1.9-2.6-3.8-3.3-5.5c-0.5-1.2-0.8-2.4-0.9-3.5C91.3,59.7,91.4,58.6,91.5,57.5L91.5,57.5z M91.8,57.6
		c-0.1,1.1-0.2,2.2-0.1,3.3c0.1,1.1,0.3,2.3,0.9,3.5c0.7,1.7,1.8,3.5,3.3,5.4c1.3,1.6,2.8,3.2,4.8,4.8c1.7,1.3,3.5,1.9,5.3,1.8
		c1.9-0.1,3.9-0.9,5.5-2.3c2-1.7,2.9-4.8,2.3-8.4c-0.5-3.2-2.2-6.8-5.4-10.1c-2.3-2.5-5-3.7-7.5-4c-1.4-0.2-2.7-0.1-3.9,0.3
		c-1.2,0.4-2.2,0.9-3.1,1.7C92.7,54.6,92,55.9,91.8,57.6L91.8,57.6z"/>
	<path class="st4" d="M108.9,70.4c7.1-4.2-4.8-19.7-10.8-15.4C92.9,58.7,101.1,75,108.9,70.4L108.9,70.4z"/>
	<path class="st0" d="M108.8,70.3c2.2-1.3,2.5-3.7,1.7-6.3c-0.4-1.3-1.1-2.6-1.9-3.9c-0.8-1.2-1.9-2.4-3-3.3
		c-2.5-2.1-5.4-3.2-7.5-1.7c-1.8,1.3-1.9,4.2-1,7.1c0.4,1.3,1,2.7,1.8,3.9c0.8,1.2,1.7,2.3,2.7,3.2
		C103.8,71.1,106.4,71.8,108.8,70.3L108.8,70.3z M109,70.5c-2.6,1.5-5.2,0.8-7.4-1c-1.1-0.9-2-2-2.8-3.2c-0.8-1.2-1.4-2.6-1.8-3.9
		c-1-3.1-0.8-6.1,1.1-7.4c2.2-1.6,5.3-0.5,7.9,1.7c1.1,1,2.2,2.1,3,3.4c0.9,1.3,1.5,2.6,1.9,3.9C111.6,66.6,111.3,69.2,109,70.5
		L109,70.5z"/>
	<path class="st2" d="M98.8,55c-0.3,0-0.6,0.3-0.6,0.6c0,0.3,0.3,0.6,0.6,0.6s0.6-0.3,0.6-0.6C99.4,55.3,99.2,55,98.8,55L98.8,55z"
		/>
	<path class="st3" d="M98.8,55.1c-0.1,0-0.2,0-0.3,0.1c-0.1,0.1-0.1,0.2-0.1,0.3c0,0.2,0.2,0.4,0.4,0.4c0.1,0,0.2,0,0.3-0.1
		c0.1-0.1,0.1-0.2,0.1-0.3C99.3,55.3,99.1,55.1,98.8,55.1L98.8,55.1z M98.8,54.9c0.4,0,0.7,0.3,0.7,0.7c0,0.2-0.1,0.4-0.2,0.5
		c-0.1,0.1-0.3,0.2-0.5,0.2c-0.4,0-0.7-0.3-0.7-0.7c0-0.2,0.1-0.4,0.2-0.5C98.5,55,98.7,54.9,98.8,54.9L98.8,54.9z"/>
	<path class="st2" d="M101.8,54.7c-0.3,0-0.6,0.3-0.6,0.6c0,0.3,0.3,0.6,0.6,0.6c0.3,0,0.6-0.3,0.6-0.6
		C102.3,55,102.1,54.7,101.8,54.7L101.8,54.7z"/>
	<path class="st3" d="M101.8,54.9c-0.1,0-0.2,0-0.3,0.1c-0.1,0.1-0.1,0.2-0.1,0.3c0,0.1,0,0.2,0.1,0.3c0.1,0.1,0.2,0.1,0.3,0.1
		c0.2,0,0.4-0.2,0.4-0.4c0-0.1,0-0.2-0.1-0.3C102,54.9,101.9,54.9,101.8,54.9L101.8,54.9z M101.8,54.6c0.2,0,0.4,0.1,0.5,0.2
		c0.1,0.1,0.2,0.3,0.2,0.5c0,0.4-0.3,0.7-0.7,0.7c-0.2,0-0.4-0.1-0.5-0.2c-0.1-0.1-0.2-0.3-0.2-0.5c0-0.2,0.1-0.4,0.2-0.5
		C101.4,54.7,101.6,54.6,101.8,54.6L101.8,54.6z"/>
	<path class="st2" d="M104,55.6c-0.3,0-0.6,0.3-0.6,0.6c0,0.3,0.3,0.6,0.6,0.6c0.3,0,0.6-0.3,0.6-0.6
		C104.5,55.9,104.3,55.6,104,55.6L104,55.6z"/>
	<path class="st3" d="M104,55.8c-0.1,0-0.2,0-0.3,0.1c-0.1,0.1-0.1,0.2-0.1,0.3c0,0.2,0.2,0.4,0.4,0.4c0.1,0,0.2,0,0.3-0.1
		c0.1-0.1,0.1-0.2,0.1-0.3C104.4,56,104.2,55.8,104,55.8L104,55.8z M104,55.5c0.4,0,0.7,0.3,0.7,0.7c0,0.2-0.1,0.4-0.2,0.5
		c-0.1,0.1-0.3,0.2-0.5,0.2c-0.4,0-0.7-0.3-0.7-0.7c0-0.2,0.1-0.4,0.2-0.5C103.6,55.6,103.8,55.5,104,55.5L104,55.5z"/>
	<path class="st2" d="M105.8,57.1c-0.3,0-0.6,0.3-0.6,0.6c0,0.3,0.3,0.6,0.6,0.6c0.3,0,0.6-0.3,0.6-0.6
		C106.4,57.4,106.1,57.1,105.8,57.1L105.8,57.1z"/>
	<path class="st3" d="M105.8,57.2c-0.1,0-0.2,0-0.3,0.1c-0.1,0.1-0.1,0.2-0.1,0.3c0,0.1,0,0.2,0.1,0.3c0.1,0.1,0.2,0.1,0.3,0.1
		c0.1,0,0.2,0,0.3-0.1c0.1-0.1,0.1-0.2,0.1-0.3c0-0.1,0-0.2-0.1-0.3C106,57.3,105.9,57.2,105.8,57.2L105.8,57.2z M105.8,57
		c0.2,0,0.4,0.1,0.5,0.2c0.1,0.1,0.2,0.3,0.2,0.5c0,0.2-0.1,0.4-0.2,0.5c-0.1,0.1-0.3,0.2-0.5,0.2c-0.2,0-0.4-0.1-0.5-0.2
		c-0.1-0.1-0.2-0.3-0.2-0.5c0-0.2,0.1-0.4,0.2-0.5C105.4,57.1,105.6,57,105.8,57L105.8,57z"/>
	<path class="st2" d="M107.3,58.9c-0.3,0-0.6,0.3-0.6,0.6c0,0.3,0.3,0.6,0.6,0.6c0.3,0,0.6-0.3,0.6-0.6
		C107.9,59.1,107.6,58.9,107.3,58.9L107.3,58.9z"/>
	<path class="st3" d="M107.3,59c-0.2,0-0.4,0.2-0.4,0.4c0,0.1,0,0.2,0.1,0.3c0.1,0.1,0.2,0.1,0.3,0.1c0.2,0,0.4-0.2,0.4-0.4
		c0-0.1,0-0.2-0.1-0.3C107.5,59,107.4,59,107.3,59L107.3,59z M107.3,58.7c0.2,0,0.4,0.1,0.5,0.2c0.1,0.1,0.2,0.3,0.2,0.5
		c0,0.4-0.3,0.7-0.7,0.7c-0.2,0-0.4-0.1-0.5-0.2c-0.1-0.1-0.2-0.3-0.2-0.5C106.6,59,106.9,58.7,107.3,58.7L107.3,58.7z"/>
	<path class="st2" d="M108.7,61.1c-0.3,0-0.6,0.3-0.6,0.6c0,0.3,0.3,0.6,0.6,0.6c0.3,0,0.6-0.3,0.6-0.6
		C109.2,61.3,109,61.1,108.7,61.1L108.7,61.1z"/>
	<path class="st3" d="M108.7,61.2c-0.1,0-0.2,0-0.3,0.1c-0.1,0.1-0.1,0.2-0.1,0.3c0,0.1,0,0.2,0.1,0.3c0.1,0.1,0.2,0.1,0.3,0.1
		c0.1,0,0.2,0,0.3-0.1h0c0.1-0.1,0.1-0.2,0.1-0.3c0-0.1,0-0.2-0.1-0.3c0,0,0,0,0,0h0h0C108.9,61.3,108.8,61.2,108.7,61.2L108.7,61.2
		z M108.7,61c0.2,0,0.4,0.1,0.5,0.2h0c0.1,0.1,0.2,0.3,0.2,0.5c0,0.2-0.1,0.4-0.2,0.5h0c-0.1,0.1-0.3,0.2-0.5,0.2
		c-0.2,0-0.4-0.1-0.5-0.2s-0.2-0.3-0.2-0.5c0-0.2,0.1-0.4,0.2-0.5C108.3,61,108.5,61,108.7,61L108.7,61z"/>
	<path class="st2" d="M109.6,63.2c-0.3,0-0.6,0.3-0.6,0.6c0,0.3,0.3,0.6,0.6,0.6c0.3,0,0.6-0.3,0.6-0.6
		C110.2,63.5,109.9,63.2,109.6,63.2L109.6,63.2z"/>
	<path class="st3" d="M109.6,63.4c-0.1,0-0.2,0-0.3,0.1c-0.1,0.1-0.1,0.2-0.1,0.3c0,0.2,0.2,0.4,0.4,0.4c0.1,0,0.2,0,0.3-0.1
		c0.1-0.1,0.1-0.2,0.1-0.3C110,63.6,109.8,63.4,109.6,63.4L109.6,63.4z M109.6,63.1c0.4,0,0.7,0.3,0.7,0.7c0,0.2-0.1,0.4-0.2,0.5
		c-0.1,0.1-0.3,0.2-0.5,0.2c-0.4,0-0.7-0.3-0.7-0.7c0-0.2,0.1-0.4,0.2-0.5C109.2,63.2,109.4,63.1,109.6,63.1L109.6,63.1z"/>
	<path class="st2" d="M110.2,65.8c-0.3,0-0.6,0.3-0.6,0.6c0,0.3,0.3,0.6,0.6,0.6c0.3,0,0.6-0.3,0.6-0.6
		C110.8,66.1,110.5,65.8,110.2,65.8L110.2,65.8z"/>
	<path class="st3" d="M110.2,66c-0.1,0-0.2,0-0.3,0.1c-0.1,0.1-0.1,0.2-0.1,0.3c0,0.2,0.2,0.4,0.4,0.4c0.1,0,0.2,0,0.3-0.1
		c0.1-0.1,0.1-0.2,0.1-0.3c0-0.1,0-0.2-0.1-0.3C110.4,66,110.3,66,110.2,66L110.2,66z M110.2,65.7c0.2,0,0.4,0.1,0.5,0.2
		c0.1,0.1,0.2,0.3,0.2,0.5c0,0.2-0.1,0.4-0.2,0.5c-0.1,0.1-0.3,0.2-0.5,0.2c-0.4,0-0.7-0.3-0.7-0.7c0-0.2,0.1-0.4,0.2-0.5
		C109.9,65.8,110,65.7,110.2,65.7L110.2,65.7z"/>
	<path class="st2" d="M109.2,68.3c-0.3,0-0.6,0.3-0.6,0.6c0,0.3,0.3,0.6,0.6,0.6c0.3,0,0.6-0.3,0.6-0.6
		C109.8,68.6,109.6,68.3,109.2,68.3L109.2,68.3z"/>
	<path class="st3" d="M109.2,68.4c-0.1,0-0.2,0-0.3,0.1c-0.1,0.1-0.1,0.2-0.1,0.3c0,0.2,0.2,0.4,0.4,0.4c0.1,0,0.2,0,0.3-0.1
		c0.1-0.1,0.1-0.2,0.1-0.3C109.7,68.6,109.5,68.4,109.2,68.4L109.2,68.4z M109.2,68.2c0.4,0,0.7,0.3,0.7,0.7c0,0.2-0.1,0.4-0.2,0.5
		c-0.1,0.1-0.3,0.2-0.5,0.2c-0.4,0-0.7-0.3-0.7-0.7c0-0.2,0.1-0.4,0.2-0.5C108.9,68.3,109.1,68.2,109.2,68.2L109.2,68.2z"/>
	<path class="st2" d="M107.2,69.8c-0.3,0-0.6,0.3-0.6,0.6c0,0.3,0.3,0.6,0.6,0.6c0.3,0,0.6-0.3,0.6-0.6
		C107.8,70,107.5,69.8,107.2,69.8L107.2,69.8z"/>
	<path class="st3" d="M107.2,69.9c-0.1,0-0.2,0-0.3,0.1c-0.1,0.1-0.1,0.2-0.1,0.3c0,0.1,0,0.2,0.1,0.3c0.1,0.1,0.2,0.1,0.3,0.1
		c0.2,0,0.4-0.2,0.4-0.4c0-0.1,0-0.2-0.1-0.3C107.4,70,107.3,69.9,107.2,69.9L107.2,69.9z M107.2,69.6c0.2,0,0.4,0.1,0.5,0.2
		c0.1,0.1,0.2,0.3,0.2,0.5c0,0.4-0.3,0.7-0.7,0.7c-0.2,0-0.4-0.1-0.5-0.2c-0.1-0.1-0.2-0.3-0.2-0.5c0-0.2,0.1-0.4,0.2-0.5
		C106.9,69.7,107,69.6,107.2,69.6L107.2,69.6z"/>
	<path class="st2" d="M104.1,69.5c-0.3,0-0.6,0.3-0.6,0.6c0,0.3,0.3,0.6,0.6,0.6c0.3,0,0.6-0.3,0.6-0.6
		C104.6,69.8,104.4,69.5,104.1,69.5L104.1,69.5z"/>
	<path class="st3" d="M104.1,69.7c-0.1,0-0.2,0-0.3,0.1c-0.1,0.1-0.1,0.2-0.1,0.3c0,0.2,0.2,0.4,0.4,0.4c0.1,0,0.2,0,0.3-0.1
		c0.1-0.1,0.1-0.2,0.1-0.3C104.5,69.8,104.3,69.7,104.1,69.7L104.1,69.7z M104.1,69.4c0.4,0,0.7,0.3,0.7,0.7c0,0.2-0.1,0.4-0.2,0.5
		c-0.1,0.1-0.3,0.2-0.5,0.2c-0.4,0-0.7-0.3-0.7-0.7c0-0.2,0.1-0.4,0.2-0.5C103.7,69.5,103.9,69.4,104.1,69.4L104.1,69.4z"/>
	<path class="st2" d="M97.6,60.7c-0.3,0-0.6,0.3-0.6,0.6c0,0.3,0.3,0.6,0.6,0.6c0.3,0,0.6-0.3,0.6-0.6
		C98.1,60.9,97.9,60.7,97.6,60.7L97.6,60.7z"/>
	<path class="st3" d="M97.6,60.8c-0.1,0-0.2,0-0.3,0.1c-0.1,0.1-0.1,0.2-0.1,0.3c0,0.2,0.2,0.4,0.4,0.4c0.1,0,0.2,0,0.3-0.1
		c0.1-0.1,0.1-0.2,0.1-0.3c0-0.1,0-0.2-0.1-0.3C97.8,60.8,97.7,60.8,97.6,60.8L97.6,60.8z M97.6,60.5c0.2,0,0.4,0.1,0.5,0.2
		c0.1,0.1,0.2,0.3,0.2,0.5c0,0.2-0.1,0.4-0.2,0.5c-0.1,0.1-0.3,0.2-0.5,0.2c-0.4,0-0.7-0.3-0.7-0.7c0-0.2,0.1-0.4,0.2-0.5
		C97.2,60.6,97.4,60.5,97.6,60.5L97.6,60.5z"/>
	<path class="st2" d="M97.3,57.5c-0.3,0-0.6,0.3-0.6,0.6c0,0.3,0.3,0.6,0.6,0.6s0.6-0.3,0.6-0.6C97.9,57.8,97.6,57.5,97.3,57.5
		L97.3,57.5z"/>
	<path class="st3" d="M97.3,57.6c-0.1,0-0.2,0-0.3,0.1h0c-0.1,0.1-0.1,0.2-0.1,0.3c0,0.1,0,0.2,0.1,0.3c0.1,0.1,0.2,0.1,0.3,0.1
		c0.2,0,0.4-0.2,0.4-0.4c0-0.1,0-0.2-0.1-0.3h0C97.6,57.7,97.5,57.6,97.3,57.6L97.3,57.6z M97.3,57.4c0.2,0,0.4,0.1,0.5,0.2h0h0
		c0,0,0,0,0,0c0.1,0.1,0.2,0.3,0.2,0.5c0,0.4-0.3,0.7-0.7,0.7c-0.2,0-0.4-0.1-0.5-0.2c-0.1-0.1-0.2-0.3-0.2-0.5
		c0-0.2,0.1-0.4,0.2-0.5h0C97,57.4,97.1,57.4,97.3,57.4L97.3,57.4z"/>
	<path class="st2" d="M107.9,69c4.8-2.5-3.8-15.8-8.7-12.5c-2,1.3-0.9,5,0.9,8.1C102,67.9,104.9,70.6,107.9,69L107.9,69z"/>
	<path class="st3" d="M107.8,68.9c1.4-0.7,1.6-2.5,1.1-4.4c-0.3-1.1-0.8-2.2-1.4-3.3c-0.7-1.1-1.4-2.1-2.3-2.9
		c-1.9-1.9-4.1-2.9-5.9-1.7c-0.9,0.6-1.1,1.6-1,2.8c0.2,1.5,0.9,3.4,1.9,5c1,1.8,2.4,3.4,3.8,4.2C105.2,69.4,106.5,69.6,107.8,68.9
		L107.8,68.9z M107.9,69.2c-1.4,0.7-2.8,0.5-4-0.2c-1.5-0.9-2.9-2.5-3.9-4.3c-1-1.7-1.8-3.6-1.9-5.2c-0.1-1.4,0.1-2.5,1.1-3.1
		c1.9-1.2,4.2-0.2,6.2,1.8c0.9,0.9,1.7,1.9,2.3,3c0.7,1.1,1.2,2.2,1.5,3.3C109.7,66.5,109.5,68.4,107.9,69.2L107.9,69.2z"/>
	<path class="st4" d="M107.1,68.4c3.5-1.8-3.2-13.2-7-11c-1.6,0.9-0.3,4.3,1,6.6C102.6,66.4,104.9,69.5,107.1,68.4L107.1,68.4z"/>
	<path class="st0" d="M107,68.3c1.1-0.6,1.1-2.1,0.6-3.8c-0.3-0.9-0.7-1.8-1.2-2.7c-0.5-0.9-1.1-1.7-1.8-2.5
		c-1.5-1.7-3.2-2.6-4.5-1.9c-0.6,0.4-0.8,1.2-0.6,2.2c0.2,1.3,0.9,2.9,1.7,4.2c0.7,1.2,1.6,2.6,2.7,3.5
		C104.9,68.3,106,68.8,107,68.3L107,68.3z M107.1,68.5c-1.2,0.6-2.3,0.1-3.4-0.9c-1-1-2-2.4-2.7-3.6c-0.8-1.3-1.5-3-1.7-4.3
		c-0.2-1.1,0-2,0.7-2.4c1.4-0.9,3.3,0.2,4.8,1.9c0.7,0.7,1.3,1.6,1.8,2.5c0.5,0.9,0.9,1.8,1.2,2.7C108.4,66.3,108.3,67.9,107.1,68.5
		L107.1,68.5z"/>
	<path class="st4" d="M96.6,55.3c0.7-1,3-1.7,6.5-1.1c0.1-0.1,0.1-0.2,0-0.3c-1-0.6-2.2-0.9-3.5-0.9c-2.3,0-4.2,0.8-5,3.3
		c-0.7,2-0.5,4.4,0.3,6.9c1,3,3,6.3,7.1,9.3c3.1,2.2,6.6,1.2,9.3-1.9c0-0.2-0.1-0.3-0.3-0.3c-5.9,4.1-9.7,2-12.5-2.9
		C95.1,62.8,94.7,58.1,96.6,55.3L96.6,55.3z"/>
	<path class="st0" d="M96.5,55.2c0.4-0.6,1.3-1.1,2.6-1.3c1-0.2,2.4-0.2,3.9,0.1c0,0,0,0,0,0c-0.5-0.3-1-0.5-1.6-0.6
		c-0.6-0.1-1.2-0.2-1.8-0.2c-1.1,0-2.1,0.2-3,0.7c-0.8,0.5-1.5,1.3-1.9,2.5c-0.3,1-0.4,2-0.4,3.1c0,1.2,0.3,2.4,0.7,3.6
		c0.5,1.5,1.2,3,2.3,4.6c1.1,1.6,2.7,3.1,4.7,4.6c1.5,1.1,3,1.4,4.5,1.1c1.6-0.3,3.2-1.3,4.6-2.9c0-0.1,0-0.1,0-0.1c0,0,0,0-0.1,0
		c-3,2-5.4,2.6-7.5,1.9c-2.1-0.6-3.7-2.4-5.2-4.8c-1.7-2.3-2.6-4.6-2.9-6.6C95.1,58.6,95.5,56.7,96.5,55.2L96.5,55.2z M96.7,55.3
		c-1,1.4-1.3,3.3-1,5.5c0.3,2,1.3,4.3,2.9,6.5l0,0c1.4,2.4,3,4.1,5,4.7c2,0.6,4.4,0.1,7.3-1.9l0,0c0.2,0,0.3,0,0.4,0.1
		c0.1,0.1,0.1,0.2,0.1,0.4l0,0.1c-1.4,1.6-3.1,2.7-4.8,3c-1.6,0.3-3.2,0-4.7-1.1c-2.1-1.5-3.6-3.1-4.8-4.7c-1.1-1.6-1.9-3.2-2.4-4.7
		c-0.4-1.3-0.7-2.5-0.7-3.7c0-1.1,0.1-2.2,0.4-3.2c0.4-1.3,1.1-2.1,2-2.6c0.9-0.5,2-0.7,3.1-0.7c0.7,0,1.3,0.1,1.9,0.2
		c0.6,0.1,1.2,0.4,1.7,0.7l0.1,0.1c0,0.1,0,0.1,0,0.2c0,0.1,0,0.1-0.1,0.2l0,0.1l-0.1,0c-1.6-0.3-2.9-0.3-4-0.1
		C97.9,54.4,97.1,54.8,96.7,55.3L96.7,55.3z"/>
	<path class="st2" d="M101.4,67.2c-0.3,0-0.6,0.3-0.6,0.6c0,0.3,0.3,0.6,0.6,0.6c0.3,0,0.6-0.3,0.6-0.6
		C102,67.5,101.7,67.2,101.4,67.2L101.4,67.2z"/>
	<path class="st3" d="M101.4,67.4c-0.1,0-0.2,0-0.3,0.1c-0.1,0.1-0.1,0.2-0.1,0.3c0,0.2,0.2,0.4,0.4,0.4c0.1,0,0.2,0,0.3-0.1
		c0.1-0.1,0.1-0.2,0.1-0.3C101.8,67.6,101.7,67.4,101.4,67.4L101.4,67.4z M101.4,67.1c0.4,0,0.7,0.3,0.7,0.7c0,0.2-0.1,0.4-0.2,0.5
		c-0.1,0.1-0.3,0.2-0.5,0.2c-0.4,0-0.7-0.3-0.7-0.7c0-0.2,0.1-0.4,0.2-0.5C101.1,67.2,101.2,67.1,101.4,67.1L101.4,67.1z"/>
	<path class="st2" d="M99.3,64.2c-0.3,0-0.6,0.3-0.6,0.6c0,0.3,0.3,0.6,0.6,0.6c0.3,0,0.6-0.3,0.6-0.6
		C99.8,64.4,99.6,64.2,99.3,64.2L99.3,64.2z"/>
	<path class="st3" d="M99.3,64.3c-0.1,0-0.2,0-0.3,0.1c-0.1,0.1-0.1,0.2-0.1,0.3c0,0.1,0,0.2,0.1,0.3c0.1,0.1,0.2,0.1,0.3,0.1
		c0.2,0,0.4-0.2,0.4-0.4c0-0.1,0-0.2-0.1-0.3C99.5,64.4,99.4,64.3,99.3,64.3L99.3,64.3z M99.3,64.1c0.2,0,0.4,0.1,0.5,0.2
		c0.1,0.1,0.2,0.3,0.2,0.5c0,0.4-0.3,0.7-0.7,0.7c-0.2,0-0.4-0.1-0.5-0.2c-0.1-0.1-0.2-0.3-0.2-0.5c0-0.2,0.1-0.4,0.2-0.5
		C98.9,64.1,99.1,64.1,99.3,64.1L99.3,64.1z"/>
	<path class="st1" d="M141,119.4h9.3l2-5.5h8.6l2.1,5.5h9.3l-10.9-29h-8.9L141,119.4L141,119.4z M155.9,107.4h2l-1-3.4L155.9,107.4
		L155.9,107.4z"/>
	<path class="st1" d="M123.8,119.4v-29h12.7c5.3,0,8.5,3.7,8.3,9.9c-0.3,8.1-5.7,9.6-6.4,9.6h-6.2v9.6L123.8,119.4L123.8,119.4z
		 M132.6,101.5v-2.6c2.4-0.3,3.3,0.1,3.3,1.1C136,101.3,135.2,101.7,132.6,101.5L132.6,101.5z"/>
	<path class="st1" d="M78.4,117L96,129.4c-20.2,33.7-85.6,27.1-88.8-26.2C4.8,64,47.1,38.1,83.3,59.6L69.5,76
		c-19.4-12.5-47.1,1.9-41.9,28.3C33.4,133.3,66,135.7,78.4,117L78.4,117z"/>
	<polygon class="st1" points="85.5,119.4 94.2,119.4 94.2,90.5 85.5,90.5 85.5,119.4 	"/>
	<polygon class="st1" points="96.9,90.5 96.9,119.4 104.9,119.4 104.9,106.2 111.4,119.4 120.5,119.4 120.5,90.5 113,90.5 
		113,103.4 106.3,90.5 96.9,90.5 	"/>
</g>
</svg>
