<?xml version="1.0" encoding="utf-8"?>
<!-- Generator: Adobe Illustrator 25.0.0, SVG Export Plug-In . SVG Version: 6.00 Build 0)  -->
<svg version="1.1" id="Capa_1" xmlns="http://www.w3.org/2000/svg" xmlns:xlink="http://www.w3.org/1999/xlink" x="0px" y="0px"
	 viewBox="0 0 200 200" style="enable-background:new 0 0 200 200;" xml:space="preserve">
<style type="text/css">
	.st0{fill-rule:evenodd;clip-rule:evenodd;fill:#1D1D1B;}
	.st1{fill-rule:evenodd;clip-rule:evenodd;fill:#EE2E24;}
</style>
<g>
	<path class="st0" d="M23.4,33.5c0,2.8,0.1,5.9-0.1,8.5h-7.4l-0.2,0.2v12c2.4,0.2,5.1,0.1,7.5,0.1c0.1,2.4,0.2,5.2,0.1,7.9l-7.6,0.1
		c-0.1,9.2-0.1,19.1-0.1,28.7H7.7l0.4-57.5l0.1-0.1L23.4,33.5L23.4,33.5z"/>
	<path class="st0" d="M32.4,33.7l-0.3,57.5h-7.9l0.4-57.6c2.4-0.2,4.8,0,7.6,0L32.4,33.7L32.4,33.7z"/>
	<path class="st0" d="M81.7,33.7c0.1,2.2,0,4.7,0,7c0.4,0.5,0.9,0.1,1.4,0.4v7.6c-0.5,0.4-1.6-0.2-1.4,0.6v17.2l-0.2,25
		c-2.4,0.1-5.2,0-7.8,0V48.8c-0.5-0.3-1.1,0.2-1.3-0.4V41c0.5-0.3,1.1,0.1,1.4-0.5v-6.9C76.5,33.7,79.2,33.7,81.7,33.7L81.7,33.7z"
		/>
	<path class="st0" d="M191.9,36.5c0.8,1.3,0.8,3.3,0.1,4.7c-0.9,1.6-2.5,2.7-4.3,2.7c-1.8,0-3.2-0.9-4.2-2.4c-0.8-1.1-1-2.9-0.5-4.3
		c0.6-1.8,2.5-3,4.3-3.1C189.3,34,190.8,34.9,191.9,36.5L191.9,36.5z M185.6,35.6c-1.4,0.9-2.2,2.5-1.9,4.1c0.4,1.5,1.6,3,3.2,3.2
		c1.8,0.4,3.1-0.4,4.2-1.8c0.6-1.1,0.9-3,0-4.2C189.9,35.3,187.2,34.3,185.6,35.6L185.6,35.6z"/>
	<path class="st0" d="M189.6,37c0.2,0.6,0,1.3-0.4,1.8c-0.1,0.1-0.4,0.1-0.5,0.2c0.9,0.6,0.6,1.8,1,2.8h-0.9
		c-0.5-0.6-0.1-1.8-0.9-2.3c-0.5,0-1.5-0.5-1.4,0.5v1.8h-0.6c-0.1-1.6-0.1-3.6-0.1-5.3l0.1-0.5C187.1,36.3,188.6,35.6,189.6,37
		L189.6,37z M186.8,37c-0.2,0.4-0.2,0.9,0,1.4c0.3,0,0.6,0,1-0.1c0.4,0,0.8-0.4,0.6-0.9C188.2,36.9,187.4,37.1,186.8,37L186.8,37z"
		/>
	<path class="st0" d="M111.3,43.4v42c0.4,0.6,1,0.6,1.6,0.5c0.1-0.2,0.6-0.2,0.6-0.6l0.1-44.1l0.2-0.1l7.8,0.1v12.7l-0.2,37.5
		c-2.5,0.4-5.1,0-7.8,0.1c-0.2-0.4,0-0.9-0.2-1.3c-1.6,1.4-3.9,1.5-6,1.1c-1.8-0.6-3.6-2.3-4.1-4.2l0.1-33.9c0-4.2-0.1-8.7,0.2-12.2
		h7.6v2.4H111.3z"/>
	<path class="st0" d="M152.1,42.3c0.9-0.2,1.9-1.1,3.1-1.1c1.8,0,3.3,0.2,4.5,1.6c0.5,0.6,0.9,1.3,1,2v17.9c-2.5,0.1-5,0-7.4,0
		c-0.1-4.3,0-8.8-0.1-13.8c-0.1-0.4-0.4-0.6-0.6-0.6c-0.6,0-1,0.2-1.3,0.6l-0.1,0.9l-0.1,41.7c-2.4,0.1-5.2,0.1-7.9,0l0.1-50.2
		c0.1,0,0.1-0.1,0.1-0.1c2.7,0,5.6,0,8.5,0L152.1,42.3L152.1,42.3z"/>
	<path class="st0" d="M50.6,44.3c0.6,1.1,1.4,2.3,1.3,3.7v19.5h-9.2l-0.1,0.2l-0.1,16.4c0.1,0.4,0.2,0.6,0.6,0.8
		c0.2,0,0.6-0.2,0.6-0.6c0.1-5.1,0.3-8.5,0.1-13.9c2.7-0.1,5.2-0.1,7.9,0l-0.1,16.1c-0.9,2.7-3.8,4.6-6.5,4.8
		c-3.9,0.5-8.3,0-10.3-3.8c-0.6-0.8-0.5-1.9-0.5-3.1V47.2c0.6-2.5,2.9-4.8,5.3-5.5C43.6,40.6,48.4,41.1,50.6,44.3L50.6,44.3z
		 M44,48.2c-0.4-0.1-0.6-0.1-1.1,0c-0.2,4.1-0.1,7.4-0.1,11.9h1.3L44,48.2L44,48.2z"/>
	<path class="st0" d="M94.1,42.6c0.2-0.5-0.2-1.4,0.5-1.6l6.6,0.1l0.2,0.2l-0.4,57.6c-0.4,1.8-1.6,3.7-3.3,4.6
		c-3.8,1.6-9.2,1.5-12.4-1.5c-2.8-3.2-0.9-8.7-1.5-12.5c2.5-0.4,5.3-0.1,7.9-0.2c0.2,3.2-0.3,5.7,0.1,8.4c0.2,0.4,0.6,0.4,1,0.4
		l0.5-0.6v-9.4c-0.6-0.4-1.1,0.4-1.8,0.4c-2,0.4-4.5,0.4-6.1-1.1c-0.8-0.8-1.3-1.9-1.6-3l0.2-36.8c0.2-2.5,1.1-5.2,3.7-6.4
		C89.9,40.6,92.5,40.7,94.1,42.6L94.1,42.6z M92.5,48.2c-0.2,0-0.6,0.2-0.6,0.5l-0.1,33.1c0.1,0.4,0.5,0.4,0.6,0.4
		c0.4,0,0.6,0,0.8-0.4l0.1-33.1C93.2,48.4,92.9,48.2,92.5,48.2L92.5,48.2z"/>
	<path class="st0" d="M70.1,45.8l0.6,1.5v20.3h-9.2l-0.2,0.1l-0.1,16.7c0.2,0.1,0.5,0.6,0.6,0.6c1.4-0.1,0.6-1.8,0.9-2.3l0.1-12.1
		h7.7c0.4,5.2,0.1,10.8,0,16.2c-0.9,2.7-3.8,4.3-6.5,4.7c-3.4,0.5-6.9,0-9.2-2.4c-0.6-0.9-1.3-1.8-1.5-2.8L53.5,47
		c0.6-2.4,3-4.7,5.6-5.5C63.3,40.4,68.4,41.5,70.1,45.8L70.1,45.8z M61.5,48.7c-0.1,3.8-0.1,8,0,11.6h1.3l0.1-11.6
		C62.7,48.2,61.6,48.1,61.5,48.7L61.5,48.7z"/>
	<path class="st0" d="M180.3,63.5l-0.3,28c-2.7,0.1-5.5,0.1-8.4,0c0-0.2-0.1-0.2-0.3-0.5c-2.4,0.9-5.7,0.8-7.9-0.6
		c-0.9-0.5-1.1-1.4-1.5-2l0.1-43.6c0.5-1.8,2.5-3,4.3-3.4c2-0.2,4.2,0.1,5.9,0.9l0.1-1v-7c2.3-0.4,5.2,0,7.9,0L180.3,63.5
		L180.3,63.5z M170.3,49.3l-0.2,35.1c0.1,0.4,0.1,0.8,0.6,0.8c0.1,0,0.6,0.4,0.8-0.2l0.3-35.2C171.7,49.1,170.7,48.8,170.3,49.3
		L170.3,49.3z"/>
	<path class="st0" d="M140.7,45.3l0.4,0.8l-0.2,45.5l-7.6-0.1c-0.4-0.2,0-0.6-0.2-1c-2.2,1.4-5.5,1.5-7.9,0.4
		c-0.6-0.6-1.4-1.3-1.5-2.3l0.2-22.4c1.6-4.2,6.2-6.7,9.9-8.5v-7.9c-0.2-0.5-0.9-0.8-1.5-0.6c-0.8,0.4-0.6,1.3-0.6,1.9v5.7
		c-2.7,0.4-5,0-7.8,0.1l-0.1-9.2c0.6-3,3.1-5.5,6-6.2C134.1,40.6,138.8,41.4,140.7,45.3L140.7,45.3z M133.2,67.1
		c-1,0-1.1,1.1-1.5,1.8c-0.1,4.7,0,10.4,0,15.7l0.4,0.5c0.4,0.2,0.9,0,1-0.4L133.2,67.1L133.2,67.1z"/>
	<path class="st1" d="M81.4,93.3c0,7.1,0.1,15.6,0,22.7l-0.1,32.6l-0.1,20.2l-31.7-0.1l-42.2-0.1L7.3,168l0.2-44.9l0.1-26.6
		c0-1-0.1-2.2,0.1-3.3C32.5,93.1,56.6,93.2,81.4,93.3L81.4,93.3z"/>
</g>
</svg>
