<svg width="14" height="16" viewBox="0 0 14 16" fill="none" xmlns="http://www.w3.org/2000/svg">
<path d="M9.46634 7.81114C10.1223 7.29823 10.6018 6.59342 10.838 5.79498C11.0742 4.99655 11.0554 4.1443 10.7841 3.35707C10.5129 2.56985 10.0027 1.88689 9.3248 1.40344C8.64688 0.919997 7.83499 0.660156 7.00234 0.660156C6.16969 0.660156 5.3578 0.919997 4.67988 1.40344C4.00196 1.88689 3.4918 2.56985 3.22055 3.35707C2.94929 4.1443 2.93047 4.99655 3.1667 5.79498C3.40292 6.59342 3.88243 7.29823 4.53834 7.81114C3.29912 8.30422 2.23612 9.15737 1.48652 10.2605C0.73692 11.3636 0.335131 12.6661 0.333008 13.9998V14.6665C0.333008 14.8433 0.403246 15.0129 0.52827 15.1379C0.653294 15.2629 0.822863 15.3331 0.999674 15.3331H12.9997C13.1765 15.3331 13.3461 15.2629 13.4711 15.1379C13.5961 15.0129 13.6663 14.8433 13.6663 14.6665V13.9998C13.6646 12.6667 13.2636 11.3647 12.515 10.2616C11.7664 9.15857 10.7046 8.30506 9.46634 7.81114ZM4.33301 4.66647C4.33301 4.13906 4.48941 3.62348 4.78242 3.18495C5.07544 2.74642 5.49192 2.40463 5.97918 2.2028C6.46645 2.00096 7.00263 1.94815 7.51991 2.05105C8.0372 2.15394 8.51235 2.40792 8.88529 2.78086C9.25823 3.1538 9.51221 3.62895 9.6151 4.14623C9.718 4.66352 9.66519 5.19969 9.46335 5.68696C9.26152 6.17423 8.91973 6.59071 8.48119 6.88373C8.04266 7.17674 7.52709 7.33314 6.99967 7.33314C6.29243 7.33314 5.61415 7.05219 5.11406 6.55209C4.61396 6.052 4.33301 5.37372 4.33301 4.66647ZM1.66634 13.9998C1.66634 12.5853 2.22824 11.2288 3.22844 10.2286C4.22863 9.22838 5.58519 8.66647 6.99967 8.66647C8.41416 8.66647 9.77072 9.22838 10.7709 10.2286C11.7711 11.2288 12.333 12.5853 12.333 13.9998H1.66634Z" fill="white"/>
</svg>
