<svg width="31" height="29" viewBox="0 0 31 29" fill="none" xmlns="http://www.w3.org/2000/svg">
<path d="M24.5451 20.9549C22.4137 20.9549 20.6797 22.689 20.6797 24.8203C20.6797 26.9516 22.4137 28.6856 24.5451 28.6856C26.6764 28.6856 28.4104 26.9516 28.4104 24.8203C28.4104 22.689 26.6764 20.9549 24.5451 20.9549ZM24.5451 26.3664C23.6924 26.3664 22.9989 25.673 22.9989 24.8203C22.9989 23.9676 23.6924 23.2741 24.5451 23.2741C25.3977 23.2741 26.0912 23.9676 26.0912 24.8203C26.0912 25.673 25.3977 26.3664 24.5451 26.3664ZM30.7536 6.0157C30.6452 5.87705 30.5066 5.76492 30.3484 5.68783C30.1902 5.61074 30.0166 5.57072 29.8406 5.5708H7.15789L6.11424 1.20413C6.05359 0.950603 5.90931 0.724893 5.70468 0.563398C5.50005 0.401902 5.24699 0.314035 4.98631 0.313965H1.1596C0.519132 0.313904 0 0.833036 0 1.4735C0 2.11397 0.519132 2.63311 1.1596 2.63311H4.07101L7.83972 18.4022C7.9003 18.6558 8.04456 18.8815 8.2492 19.043C8.45385 19.2045 8.70695 19.2924 8.96765 19.2924H27.0189C27.552 19.2924 28.0165 18.929 28.1445 18.4118L30.9662 7.00904C31.0083 6.83817 31.0111 6.65997 30.9742 6.48789C30.9374 6.31581 30.8619 6.15435 30.7536 6.0157ZM26.1117 16.9732H9.88294L7.71214 7.89H28.3589L26.1117 16.9732ZM10.5138 20.9549C8.3824 20.9549 6.64845 22.689 6.64845 24.8203C6.64845 26.9516 8.38246 28.6856 10.5138 28.6856C12.6451 28.6856 14.3791 26.9516 14.3791 24.8203C14.3791 22.689 12.6451 20.9549 10.5138 20.9549ZM10.5138 26.3664C9.6611 26.3664 8.96765 25.673 8.96765 24.8203C8.96765 23.9676 9.6611 23.2741 10.5138 23.2741C11.3665 23.2741 12.0599 23.9676 12.0599 24.8203C12.0599 25.673 11.3665 26.3664 10.5138 26.3664Z" fill="white"/>
</svg>
