<svg width="22" height="22" viewBox="0 0 22 22" fill="none" xmlns="http://www.w3.org/2000/svg">
<path d="M9.84937 0.0924733C7.2662 0.0968039 4.79007 1.12488 2.96349 2.95147C1.1369 4.77805 0.108823 7.25418 0.104492 9.83736C0.106651 12.4227 1.13351 14.9018 2.9601 16.7314C4.78668 18.5611 7.26403 19.5921 9.84937 19.5986C12.1423 19.5986 14.255 18.792 15.9256 17.4572L19.9832 21.5148C20.1888 21.706 20.4604 21.81 20.7411 21.8051C21.0217 21.8002 21.2895 21.6867 21.4883 21.4885C21.687 21.2903 21.8012 21.0227 21.8069 20.7421C21.8126 20.4615 21.7092 20.1896 21.5187 19.9835L17.461 15.9218C18.8468 14.1982 19.6024 12.053 19.6024 9.84145C19.6024 4.46948 15.2213 0.0924733 9.84937 0.0924733ZM9.84937 2.26255C14.0503 2.26255 17.4324 5.64051 17.4324 9.83736C17.4324 14.0342 14.0503 17.4326 9.84937 17.4326C5.64843 17.4326 2.27048 14.0465 2.27048 9.84554C2.27048 5.6446 5.64843 2.26255 9.84937 2.26255Z" fill="#F29F03"/>
</svg>
