<svg viewBox="0 0 50 60" focusable="false" class="chakra-icon css-yu8z2g"><path d="M47.5 18.0937C46.1682 16.7578 44.4626 15.9141 42.6285 15.668V7.5C42.6285 6.85547 42.1028 6.32812 41.4603 6.32812H30.5023C29.8598 6.32812 29.3341 6.85547 29.3341 7.5C29.3341 8.14453 29.8598 8.67188 30.5023 8.67188H40.2921V16.7695C40.2921 17.0859 40.4206 17.3789 40.6308 17.6016C40.8528 17.8242 41.1449 17.9414 41.4603 17.9414C43.1192 17.9414 44.6729 18.5859 45.8411 19.7578C47.0093 20.9297 47.6636 22.4883 47.6636 24.1523V52.2656C47.6636 55.2422 45.257 57.6562 42.2897 57.6562H39.9299C42.2196 55.7578 43.6916 52.8984 43.6916 49.6875C43.6916 44.0039 39.0771 39.375 33.4112 39.375C27.7453 39.375 23.1308 44.0039 23.1308 49.6875C23.1308 52.8984 24.6028 55.7578 26.8925 57.6562H7.71028C4.74299 57.6562 2.33645 55.2422 2.33645 52.2656V24.1523C2.33645 22.4883 2.97897 20.9297 4.1472 19.7578C5.31542 18.5859 6.86916 17.9414 8.52804 17.9414H10.0234C10.3388 17.9414 10.6308 17.8125 10.8528 17.6016C11.0748 17.3789 11.1916 17.0859 11.1916 16.7695V8.67188H14.1939C14.8364 8.67188 15.3621 8.14453 15.3621 7.5C15.3621 6.85547 14.8364 6.32812 14.1939 6.32812H10.035C9.39252 6.32812 8.86682 6.85547 8.86682 7.5V15.5859H8.53972C8.53972 15.5859 8.53972 15.5859 8.52804 15.5859C6.25 15.5859 4.11215 16.4766 2.5 18.0937C0.88785 19.7109 0 21.8672 0 24.1523V52.2656C0 56.5312 3.45794 60 7.71028 60H42.2897C46.5421 60 50 56.5312 50 52.2656V24.1523C50 21.8672 49.1121 19.7109 47.5 18.0937ZM33.4112 57.6562C29.0304 57.6562 25.4673 54.082 25.4673 49.6875C25.4673 45.293 29.0304 41.7188 33.4112 41.7188C37.7921 41.7188 41.3551 45.293 41.3551 49.6875C41.3551 54.082 37.7921 57.6562 33.4112 57.6562Z" fill="currentColor"></path><path d="M33.4112 48.6797C32.4883 48.6797 31.7407 48.0469 31.7407 47.2617C31.7407 46.4766 32.4883 45.8438 33.4112 45.8438C34.3341 45.8438 35.0818 46.4766 35.0818 47.2617C35.0818 47.9062 35.6075 48.4336 36.25 48.4336C36.8925 48.4336 37.4182 47.9062 37.4182 47.2617C37.4182 45.5742 36.215 44.1328 34.5794 43.6641V43.5C34.5794 42.8555 34.0537 42.3281 33.4112 42.3281C32.7687 42.3281 32.243 42.8555 32.243 43.5V43.6641C30.5958 44.1328 29.4042 45.5625 29.4042 47.2617C29.4042 49.3359 31.2033 51.0234 33.4112 51.0234C34.3341 51.0234 35.0818 51.6562 35.0818 52.4414C35.0818 53.2266 34.3341 53.8594 33.4112 53.8594C32.4883 53.8594 31.7407 53.2266 31.7407 52.4414C31.7407 51.7969 31.215 51.2695 30.5724 51.2695C29.9299 51.2695 29.4042 51.7969 29.4042 52.4414C29.4042 54.1289 30.6075 55.5703 32.243 56.0391V56.1094C32.243 56.7539 32.7687 57.2812 33.4112 57.2812C34.0537 57.2812 34.5794 56.7539 34.5794 56.1094V56.0391C36.2266 55.5703 37.4182 54.1406 37.4182 52.4414C37.4182 50.3672 35.6192 48.6797 33.4112 48.6797Z" fill="currentColor"></path><path d="M24.9883 14.3555C19.3224 14.3555 14.7079 18.9844 14.7079 24.668C14.7079 30.3516 19.3224 34.9805 24.9883 34.9805C30.6542 34.9805 35.2687 30.3516 35.2687 24.668C35.2687 18.9844 30.6542 14.3555 24.9883 14.3555ZM24.9883 32.6367C20.6075 32.6367 17.0444 29.0625 17.0444 24.668C17.0444 20.2734 20.6075 16.6992 24.9883 16.6992C29.3692 16.6992 32.9323 20.2734 32.9323 24.668C32.9323 29.0625 29.3692 32.6367 24.9883 32.6367Z" fill="currentColor"></path><path d="M24.9883 23.6602C24.0654 23.6602 23.3178 23.0273 23.3178 22.2422C23.3178 21.457 24.0654 20.8242 24.9883 20.8242C25.9112 20.8242 26.6589 21.457 26.6589 22.2422C26.6589 22.8867 27.1846 23.4141 27.8271 23.4141C28.4696 23.4141 28.9953 22.8867 28.9953 22.2422C28.9953 20.5547 27.7921 19.1133 26.1565 18.6445V18.4805C26.1565 17.8359 25.6308 17.3086 24.9883 17.3086C24.3458 17.3086 23.8201 17.8359 23.8201 18.4805V18.6445C22.1729 19.1133 20.9813 20.543 20.9813 22.2422C20.9813 24.3164 22.7804 26.0039 24.9883 26.0039C25.9112 26.0039 26.6589 26.6367 26.6589 27.4219C26.6589 28.207 25.9112 28.8398 24.9883 28.8398C24.0654 28.8398 23.3178 28.207 23.3178 27.4219C23.3178 26.7773 22.7921 26.25 22.1495 26.25C21.507 26.25 20.9813 26.7773 20.9813 27.4219C20.9813 29.1094 22.1846 30.5508 23.8201 31.0195V31.0898C23.8201 31.7344 24.3458 32.2617 24.9883 32.2617C25.6308 32.2617 26.1565 31.7344 26.1565 31.0898V31.0195C27.8037 30.5508 28.9953 29.1211 28.9953 27.4219C28.9953 25.3359 27.1963 23.6602 24.9883 23.6602Z" fill="currentColor"></path><path d="M24.9883 0C24.3458 0 23.8201 0.527344 23.8201 1.17188V8.8125C23.8201 9.45703 24.3458 9.98438 24.9883 9.98438C25.6308 9.98438 26.1565 9.45703 26.1565 8.8125V1.17188C26.1565 0.527344 25.6308 0 24.9883 0Z" fill="currentColor"></path><path d="M42.5234 23.7539C41.8808 23.7539 41.3551 24.2812 41.3551 24.9258V32.5664C41.3551 33.2109 41.8808 33.7383 42.5234 33.7383C43.1659 33.7383 43.6916 33.2109 43.6916 32.5664V24.9258C43.6916 24.2812 43.1659 23.7539 42.5234 23.7539Z" fill="currentColor"></path><path d="M19.8481 4.6875C19.2056 4.6875 18.6799 5.21484 18.6799 5.85938V11.3203C18.6799 11.9648 19.2056 12.4922 19.8481 12.4922C20.4906 12.4922 21.0163 11.9648 21.0163 11.3203V5.85938C21.0163 5.21484 20.4906 4.6875 19.8481 4.6875Z" fill="currentColor"></path><path d="M43.3528 36.1523C43.1308 35.9297 42.8388 35.8125 42.5234 35.8125C42.2079 35.8125 41.9159 35.9414 41.6939 36.1523C41.472 36.375 41.3551 36.668 41.3551 36.9844C41.3551 37.2891 41.4836 37.5938 41.6939 37.8164C41.9159 38.0391 42.2079 38.1562 42.5234 38.1562C42.8388 38.1562 43.1308 38.0273 43.3528 37.8164C43.5748 37.5938 43.6916 37.3008 43.6916 36.9844C43.6916 36.6797 43.5631 36.375 43.3528 36.1523Z" fill="currentColor"></path><path d="M19.4276 48.6797H16.285C15.6425 48.6797 15.1168 49.207 15.1168 49.8516C15.1168 50.4961 15.6425 51.0234 16.285 51.0234H19.4276C20.0701 51.0234 20.5958 50.4961 20.5958 49.8516C20.5958 49.207 20.0701 48.6797 19.4276 48.6797Z" fill="currentColor"></path><path d="M12.1379 49.0195C11.9159 48.7969 11.6238 48.6797 11.3084 48.6797C10.993 48.6797 10.7009 48.8086 10.479 49.0195C10.257 49.2422 10.1402 49.5352 10.1402 49.8516C10.1402 50.1562 10.2687 50.4609 10.479 50.6836C10.7009 50.9063 10.993 51.0234 11.3084 51.0234C11.6238 51.0234 11.9159 50.8945 12.1379 50.6836C12.3598 50.4609 12.4766 50.168 12.4766 49.8516C12.4883 49.5469 12.3598 49.2422 12.1379 49.0195Z" fill="currentColor"></path><path d="M21.6238 44.8828L19.7079 42.9609C19.2523 42.5039 18.5164 42.5039 18.0607 42.9609C17.6051 43.418 17.6051 44.1563 18.0607 44.6133L19.9766 46.5352C20.2103 46.7695 20.5023 46.875 20.8061 46.875C21.1098 46.875 21.4019 46.7578 21.6355 46.5352C22.0794 46.0781 22.0911 45.3398 21.6238 44.8828Z" fill="currentColor"></path></svg>