<svg viewBox="0 0 500 500" focusable="false" class="chakra-icon css-yu8z2g"><path fill="#14387F" d="M475.1,200.6H283.9v-8.3c0-4.6-3.7-8.3-8.3-8.3h-24.9v-16.6h83.1c27.5,0,49.9-22.3,49.9-49.9V92.6 c0-4.6-3.7-8.3-8.3-8.3h-74.8V51c0-27.5-22.3-49.9-49.9-49.9H76c-22.9,0-41.5,18.6-41.6,41.6v59c-19.3,4-33.2,21-33.3,40.7v315.9 c0,22.9,18.6,41.5,41.6,41.6H209c22.9,0,41.5-18.6,41.6-41.6v-41.6h24.9c4.6,0,8.3-3.7,8.3-8.3v-8.3h191.2 c13.8,0,24.9-11.2,24.9-24.9V225.6C500,211.8,488.8,200.6,475.1,200.6z M367,117.5c0,18.4-14.9,33.3-33.3,33.3 c-18.4,0-33.3-14.9-33.3-33.3v-16.6H367V117.5z M51.1,42.7c0-13.8,11.2-24.9,24.9-24.9h137.4c-8.2,9.1-12.7,21-12.7,33.3v116.4 H51.1V42.7z M234,458.3c0,13.8-11.2,24.9-24.9,24.9H42.8c-13.8,0-24.9-11.2-24.9-24.9V142.4c0-10.5,6.7-19.9,16.6-23.4v56.7 c0,4.6,3.7,8.3,8.3,8.3H209c4.6,0,8.3-3.7,8.3-8.3V119c9.9,3.5,16.6,12.9,16.6,23.4V458.3z M217.4,101.7V51 c0-18.4,14.9-33.3,33.3-33.3s33.3,14.9,33.3,33.3v66.5c0,12.3,4.6,24.1,12.8,33.3h-46.1v-8.3C250.6,122.7,236.7,105.7,217.4,101.7z M267.2,400.1h-16.6V200.6h16.6V400.1z M475.1,217.2c4.6,0,8.3,3.7,8.3,8.3v24.9H283.9v-33.3H475.1z M475.1,383.5H283.9V267.1 h199.5v108.1C483.4,379.8,479.7,383.5,475.1,383.5z"></path><path fill="#14387F" d="M76,283.8H42.8c-4.6,0-8.3,3.7-8.3,8.3v33.3c0,4.6,3.7,8.3,8.3,8.3H76c4.6,0,8.3-3.7,8.3-8.3v-33.3 C84.3,287.5,80.6,283.8,76,283.8z M67.7,317H51.1v-16.6h16.6V317z"></path><path fill="#14387F" d="M142.5,283.8h-33.3c-4.6,0-8.3,3.7-8.3,8.3v33.3c0,4.6,3.7,8.3,8.3,8.3h33.3c4.6,0,8.3-3.7,8.3-8.3v-33.3 C150.8,287.5,147.1,283.8,142.5,283.8z M134.2,317h-16.6v-16.6h16.6V317z"></path><path fill="#14387F" d="M209,283.8h-33.3c-4.6,0-8.3,3.7-8.3,8.3v33.3c0,4.6,3.7,8.3,8.3,8.3H209c4.6,0,8.3-3.7,8.3-8.3v-33.3 C217.4,287.5,213.6,283.8,209,283.8z M200.7,317h-16.6v-16.6h16.6V317z"></path><path fill="#14387F" d="M76,350.3H42.8c-4.6,0-8.3,3.7-8.3,8.3v33.3c0,4.6,3.7,8.3,8.3,8.3H76c4.6,0,8.3-3.7,8.3-8.3v-33.3 C84.3,354,80.6,350.3,76,350.3z M67.7,383.5H51.1v-16.6h16.6V383.5z"></path><path fill="#14387F" d="M142.5,350.3h-33.3c-4.6,0-8.3,3.7-8.3,8.3v33.3c0,4.6,3.7,8.3,8.3,8.3h33.3c4.6,0,8.3-3.7,8.3-8.3v-33.3 C150.8,354,147.1,350.3,142.5,350.3z M134.2,383.5h-16.6v-16.6h16.6V383.5z"></path><path fill="#14387F" d="M209,350.3h-33.3c-4.6,0-8.3,3.7-8.3,8.3v33.3c0,4.6,3.7,8.3,8.3,8.3H209c4.6,0,8.3-3.7,8.3-8.3v-33.3 C217.4,354,213.6,350.3,209,350.3z M200.7,383.5h-16.6v-16.6h16.6V383.5z"></path><path fill="#14387F" d="M76,416.8H42.8c-4.6,0-8.3,3.7-8.3,8.3v33.3c0,4.6,3.7,8.3,8.3,8.3H76c4.6,0,8.3-3.7,8.3-8.3v-33.3 C84.3,420.5,80.6,416.8,76,416.8z M67.7,450H51.1v-16.6h16.6V450z"></path><path fill="#14387F" d="M142.5,416.8h-33.3c-4.6,0-8.3,3.7-8.3,8.3v33.3c0,4.6,3.7,8.3,8.3,8.3h33.3c4.6,0,8.3-3.7,8.3-8.3v-33.3 C150.8,420.5,147.1,416.8,142.5,416.8z M134.2,450h-16.6v-16.6h16.6V450z"></path><path fill="#14387F" d="M209,416.8h-33.3c-4.6,0-8.3,3.7-8.3,8.3v33.3c0,4.6,3.7,8.3,8.3,8.3H209c4.6,0,8.3-3.7,8.3-8.3v-33.3 C217.4,420.5,213.6,416.8,209,416.8z M200.7,450h-16.6v-16.6h16.6V450z"></path><path fill="#14387F" d="M209,217.2H42.8c-4.6,0-8.3,3.7-8.3,8.3v33.3c0,4.6,3.7,8.3,8.3,8.3H209c4.6,0,8.3-3.7,8.3-8.3v-33.3 C217.4,221,213.6,217.2,209,217.2z M200.7,250.5H51.1v-16.6h149.6V250.5z"></path><path fill="#14387F" d="M441.8,317c-6.2,0-12.1,2.3-16.6,6.5c-10.2-9.3-26-8.5-35.2,1.7c-9.3,10.2-8.5,26,1.7,35.2 c9.5,8.6,24,8.6,33.5,0c10.2,9.3,26,8.5,35.2-1.7c9.3-10.2,8.5-26-1.7-35.2C454.1,319.3,448.1,317,441.8,317L441.8,317z M408.6,350.3c-4.6,0-8.3-3.7-8.3-8.3c0-4.6,3.7-8.3,8.3-8.3c4.6,0,8.3,3.7,8.3,8.3C416.9,346.5,413.1,350.3,408.6,350.3z M441.8,350.3c-4.6,0-8.3-3.7-8.3-8.3c0-4.6,3.7-8.3,8.3-8.3c4.6,0,8.3,3.7,8.3,8.3C450.1,346.5,446.4,350.3,441.8,350.3z"></path><path fill="#14387F" d="M67.7,51h16.6v16.6H67.7V51z"></path><path fill="#14387F" d="M101,51h83.1v16.6H101V51z"></path><path fill="#14387F" d="M67.7,84.2h116.4v16.6H67.7V84.2z"></path><path fill="#14387F" d="M67.7,117.5h116.4v16.6H67.7V117.5z"></path></svg>