<svg viewBox="0 0 65 67"  xmlns="http://www.w3.org/2000/svg">
    <g clip-path="url(#clip0)">
        <path d="M65 1.10744V47.6198C65 48.2289 64.5 48.7273 63.8889 48.7273H36.6667C36.6667 49.0318 36.5417 49.3225 36.3194 49.5302L33.0139 52.6448L34.3194 56.9915C34.5 57.5729 34.1667 58.1959 33.5694 58.3758C33.5556 58.3758 33.5278 58.3897 33.5139 58.3897L29.0833 59.4417L28.0278 63.8576C27.8889 64.4529 27.2917 64.8267 26.6944 64.6744C26.6806 64.6744 26.6528 64.6605 26.6389 64.6605L22.2778 63.3593L19.1528 66.6539C18.7361 67.0969 18.0278 67.1246 17.5833 66.6954C17.5694 66.6816 17.5556 66.6678 17.5417 66.6539L14.4167 63.3593L10.0556 64.6605C9.47222 64.8405 8.84722 64.5083 8.66666 63.913C8.66666 63.8992 8.65277 63.8715 8.65277 63.8576L7.59722 59.4417L3.16666 58.3897C2.56944 58.2512 2.19444 57.656 2.34722 57.0607C2.34722 57.0469 2.36111 57.0192 2.36111 57.0054L3.66666 52.6587L0.361107 49.544C-0.0833359 49.1287 -0.111115 48.4227 0.319443 47.9798C0.333328 47.9659 0.347221 47.9521 0.361107 47.9382L3.66666 44.8236L2.36111 40.4769C2.18055 39.8955 2.51389 39.2725 3.11111 39.0926C3.125 39.0926 3.15277 39.0787 3.16666 39.0787L7.59722 38.0267L8.65277 33.6107C8.79166 33.0155 9.38889 32.6417 9.98611 32.794C10 32.794 10.0278 32.8078 10.0417 32.8078L13.8889 33.9568V1.10744C13.8889 0.498347 14.3889 0 15 0H63.8889C64.5 0 65 0.498347 65 1.10744ZM62.7778 46.5124V11.0744H47.2222V27.6859C47.2222 28.295 46.7222 28.7934 46.1111 28.7934C45.875 28.7934 45.6528 28.7242 45.4722 28.5857L39.4444 24.3498L33.4167 28.5857C32.9167 28.9318 32.2222 28.8211 31.875 28.3227C31.7361 28.1428 31.6667 27.9074 31.6667 27.6859V11.0744H16.1111V32.2957L17.5278 30.8006C17.9444 30.3576 18.6528 30.33 19.0972 30.7591C19.1111 30.7729 19.125 30.7868 19.1389 30.8006L22.2639 34.0952L26.625 32.794C27.2083 32.614 27.8333 32.9463 28.0139 33.5415C28.0139 33.5554 28.0278 33.5831 28.0278 33.5969L29.0833 38.0128L33.5139 39.0649C34.1111 39.2033 34.4861 39.7985 34.3333 40.3938C34.3333 40.4076 34.3194 40.4353 34.3194 40.4492L33.0139 44.7959L34.8194 46.4986H62.7778V46.5124ZM45 2.21488H33.8889V25.5541L38.8056 22.0934C39.1944 21.8165 39.7083 21.8165 40.0833 22.0934L45 25.5541V2.21488ZM9.59722 39.1895C9.5 39.5909 9.18056 39.9093 8.77778 40.0062L4.83333 40.9337L6 44.8097C6.125 45.2112 6 45.6403 5.69444 45.931L2.75 48.7134L5.69444 51.4959C6 51.7866 6.11111 52.2157 6 52.6171L4.83333 56.4932L8.77778 57.4207C9.18056 57.5176 9.5 57.8359 9.59722 58.2374L10.5278 62.1688L14.4167 61.006C14.8194 60.8814 15.25 61.006 15.5417 61.3105L18.3333 64.2868L21.125 61.3521C21.4167 61.0475 21.8472 60.9368 22.25 61.0475L26.1389 62.2103L27.0694 58.2789C27.1667 57.8775 27.4861 57.5591 27.8889 57.4622L31.8333 56.5347L30.6667 52.6587C30.5417 52.2572 30.6667 51.8281 30.9722 51.5374L33.9444 48.7273L31 45.9448C30.6944 45.6541 30.5833 45.225 30.6944 44.8236L31.8611 40.9475L27.9167 40.02C27.5139 39.9231 27.1944 39.6048 27.0972 39.2033L26.1667 35.2719L22.2778 36.4347C21.875 36.5593 21.4444 36.4347 21.1528 36.1302L18.3611 33.1955L15.5694 36.1302C15.2778 36.4347 14.8472 36.5455 14.4444 36.4347L10.5556 35.2719L9.59722 39.1895ZM16.1111 8.8595H31.6667V2.21488H16.1111V8.8595ZM47.2222 2.21488V8.8595H62.7778V2.21488H47.2222Z" fill="#F29F03"></path>
        <path d="M59.4444 36.5454C60.0556 36.5454 60.5556 37.0438 60.5556 37.6528V39.8677C60.5556 40.4768 60.0556 40.9752 59.4444 40.9752C58.8333 40.9752 58.3333 40.4768 58.3333 39.8677V37.6528C58.3333 37.0438 58.8333 36.5454 59.4444 36.5454Z" fill="#F29F03"></path>
        <path d="M55 36.5454C55.6111 36.5454 56.1111 37.0438 56.1111 37.6528V39.8677C56.1111 40.4768 55.6111 40.9752 55 40.9752C54.3889 40.9752 53.8889 40.4768 53.8889 39.8677V37.6528C53.8889 37.0438 54.3889 36.5454 55 36.5454Z" fill="#F29F03"></path>
        <path d="M50.5556 36.5454C51.1667 36.5454 51.6667 37.0438 51.6667 37.6528V39.8677C51.6667 40.4768 51.1667 40.9752 50.5556 40.9752C49.9444 40.9752 49.4444 40.4768 49.4444 39.8677V37.6528C49.4444 37.0438 49.9444 36.5454 50.5556 36.5454Z" fill="#F29F03"></path>
        <path d="M46.1111 36.5454C46.7222 36.5454 47.2222 37.0438 47.2222 37.6528V39.8677C47.2222 40.4768 46.7222 40.9752 46.1111 40.9752C45.5 40.9752 45 40.4768 45 39.8677V37.6528C45 37.0438 45.5 36.5454 46.1111 36.5454Z" fill="#F29F03"></path>
        <path d="M59.4444 44.2975C58.8308 44.2975 58.3333 43.8017 58.3333 43.1901C58.3333 42.5785 58.8308 42.0826 59.4444 42.0826C60.0581 42.0826 60.5556 42.5785 60.5556 43.1901C60.5556 43.8017 60.0581 44.2975 59.4444 44.2975Z" fill="#F29F03"></path>
        <path d="M55 44.2975C54.3864 44.2975 53.8889 43.8017 53.8889 43.1901C53.8889 42.5785 54.3864 42.0826 55 42.0826C55.6137 42.0826 56.1111 42.5785 56.1111 43.1901C56.1111 43.8017 55.6137 44.2975 55 44.2975Z" fill="#F29F03"></path>
        <path d="M50.5556 44.2975C49.9419 44.2975 49.4444 43.8017 49.4444 43.1901C49.4444 42.5785 49.9419 42.0826 50.5556 42.0826C51.1692 42.0826 51.6667 42.5785 51.6667 43.1901C51.6667 43.8017 51.1692 44.2975 50.5556 44.2975Z" fill="#F29F03"></path>
        <path d="M46.1111 44.2975C45.4975 44.2975 45 43.8017 45 43.1901C45 42.5785 45.4975 42.0826 46.1111 42.0826C46.7248 42.0826 47.2222 42.5785 47.2222 43.1901C47.2222 43.8017 46.7248 44.2975 46.1111 44.2975Z" fill="#F29F03"></path>
        <path d="M29.4444 48.7272C29.4444 54.8458 24.4722 59.8016 18.3333 59.8016C12.1944 59.8016 7.22222 54.8458 7.22222 48.7272C7.22222 42.6086 12.1944 37.6528 18.3333 37.6528C24.4722 37.6667 29.4306 42.6086 29.4444 48.7272ZM9.44444 48.7272C9.44444 53.6138 13.4306 57.5867 18.3333 57.5867C23.2361 57.5867 27.2222 53.6138 27.2222 48.7272C27.2222 43.8406 23.2361 39.8677 18.3333 39.8677C13.4306 39.8677 9.44444 43.8406 9.44444 48.7272Z" fill="#F29F03"></path>
        <path d="M19.2639 42.581L21.2778 45.5849L24.25 46.5677C24.8333 46.7615 25.1528 47.3845 24.9583 47.9659C24.9028 48.132 24.8056 48.2704 24.6944 48.395L22.7917 50.2915V53.157C22.7917 53.7661 22.2917 54.2644 21.6806 54.2644C21.4583 54.2644 21.25 54.1952 21.0694 54.0845L18.3472 52.2849L15.625 54.0845C15.1111 54.4306 14.4306 54.2921 14.0833 53.7799C13.9583 53.6 13.9028 53.3785 13.9028 53.1708V50.3054L12 48.4089C11.5694 47.9797 11.5694 47.2737 12 46.8446C12.125 46.72 12.2639 46.637 12.4306 46.5816L15.4028 45.5987L17.4167 42.5948C17.7639 42.0826 18.4444 41.9442 18.9583 42.2903C19.0694 42.3456 19.1806 42.4564 19.2639 42.581ZM17.0417 47.1215C16.9028 47.3291 16.7083 47.4814 16.4722 47.5644L14.8472 48.1043L15.7917 49.0456C16 49.2533 16.1111 49.5301 16.1111 49.8347V51.0944L17.7222 50.0285C18.0972 49.7793 18.5833 49.7793 18.9583 50.0285L20.5694 51.0944V49.8347C20.5694 49.544 20.6806 49.2533 20.8889 49.0456L21.8333 48.1043L20.2083 47.5644C19.9722 47.4814 19.7778 47.3291 19.6389 47.1215L18.3472 45.1834L17.0417 47.1215Z" fill="#F29F03"></path></g><defs>
    </defs>
</svg>