<?xml version="1.0" encoding="utf-8"?>
<!-- Generator: Adobe Illustrator 25.0.0, SVG Export Plug-In . SVG Version: 6.00 Build 0)  -->
<svg version="1.1" id="Capa_1" xmlns="http://www.w3.org/2000/svg" xmlns:xlink="http://www.w3.org/1999/xlink" x="0px" y="0px"
	 viewBox="0 0 200 200" style="enable-background:new 0 0 200 200;" xml:space="preserve">
<style type="text/css">
	.st0{fill:#F78F1E;}
	.st1{fill:#EF8F39;}
</style>
<g>
	<g>
		<path class="st0" d="M131.1,101.7c0-9,0-18,0-27c0-1,0-1,1-1c12.1,0,24.2,0,36.3,0c1,0,1,0,1,1c0,3.5,0,6.9,0,10.4c0,1,0,1-1.1,1
			c-5.8,0-11.5,0-17.3,0c-0.4,0-0.7,0-1.1,0c-0.5,0-0.6,0.2-0.6,0.7c0,1.1,0,2.2,0,3.3c0,1.4,0,2.8,0,4.2c0,1,0,1,1,1
			c5.4,0,10.8,0,16.2,0c0.3,0,0.7,0,1,0c0.5,0,0.6,0.2,0.6,0.6c0,1,0,2,0,3c0,2.5,0,5.1,0,7.6c0,0.9,0,0.9-0.9,0.9
			c-5.5,0-11,0-16.5,0c-1.4,0-1.3-0.2-1.3,1.4c0,2.5,0,5,0,7.5c0,1.1,0,1.1,1.1,1.1c5.8,0,11.7,0,17.5,0c0.2,0,0.4,0,0.7,0
			c0.8,0,0.8,0,0.8,0.8c0,1.7,0,3.4,0,5.1c0,1.9,0,3.8,0,5.6c0,0.6-0.2,0.8-0.7,0.8c-0.2,0-0.4,0-0.7,0c-11.8,0-23.6,0-35.4,0
			c-1.5,0-1.5,0-1.5-1.5C131.1,119.3,131.1,110.5,131.1,101.7C131.1,101.7,131.1,101.7,131.1,101.7z"/>
		<path class="st0" d="M118.5,115.8c1.1-1,2.3-1.8,3.3-2.9c0.4-0.4,0.6-0.1,0.9,0.2c1.3,1.4,2.6,2.8,3.9,4.2c0.3,0.3,0.6,0.6,0.9,1
			c0.8,0.8,0.8,0.9,0.1,1.8c-3.4,4.8-8.1,7.9-13.8,9.6c-4.9,1.5-9.9,1.7-14.9,0.9c-5-0.8-9.4-2.8-13.3-6c-4.7-3.9-7.8-8.9-9.3-14.9
			c-0.8-3.3-0.9-6.7-0.5-10.2c0.5-4.2,1.6-8.3,3.5-12.1c2.2-4.5,5.3-8.2,9.5-10.9c3.1-2,6.5-3.3,10.1-3.9c1.7-0.3,3.4-0.4,5-0.5
			c1.8-0.1,3.5,0.1,5.3,0.3c2.7,0.3,5.3,1,7.9,2c3.9,1.6,7.2,4.2,9.7,7.5c0.2,0.3,0.4,0.6,0.5,0.8c1,1.6,0.9,1.3-0.4,2.3
			c-1.8,1.5-3.7,3-5.6,4.4c-0.3-0.2-0.5-0.5-0.7-0.7c-2-2.9-4.8-4.7-8.3-5.3c-3.8-0.6-7.4,0.2-10.5,2.5c-3.6,2.6-5.6,6.1-6.5,10.4
			c-1,4.9-0.4,9.7,1.9,14.1c1.8,3.5,4.4,6.3,8.3,7.7c2.3,0.9,4.6,0.6,6.8,0.1c1.9-0.4,3.6-1.3,5.3-2.2
			C118.1,116.1,118.3,116,118.5,115.8z"/>
		<path class="st0" d="M192.5,101.6c0,8.9,0,17.9,0,26.8c0,1.4,0.1,1.2-1.2,1.2c-5.2,0-10.3,0-15.5,0c-0.2,0-0.4,0-0.6,0
			c-0.6,0.1-0.8-0.2-0.7-0.8c0-0.4,0-0.9,0-1.3c0-17.5,0-35,0-52.6c0-0.2,0-0.4,0-0.7c0-0.5,0.2-0.8,0.7-0.7c0.3,0,0.5,0,0.8,0
			c5,0,10,0,15,0c0.3,0,0.5,0,0.8,0c0.5,0,0.8,0.2,0.7,0.7c0,0.3,0,0.5,0,0.8C192.5,84,192.5,92.8,192.5,101.6
			C192.5,101.6,192.5,101.6,192.5,101.6z"/>
		<path class="st1" d="M118.5,115.8c-0.1,0.4-0.4,0.5-0.7,0.4C118,116,118.2,115.8,118.5,115.8z"/>
		<path class="st0" d="M40.3,67.5c-18,0-32.6,14.6-32.6,32.6s14.6,32.6,32.6,32.6c18,0,32.6-14.6,32.6-32.6S58.3,67.5,40.3,67.5z
			 M40.3,131.4c-17.2,0-31.1-13.9-31.1-31.1c0-17.2,13.9-31.1,31.1-31.1s31.1,13.9,31.1,31.1C71.4,117.5,57.5,131.4,40.3,131.4z"/>
		<path class="st0" d="M57.7,79.8c0.1,0.3,0.3,0.5,0,0.8c-0.2,0.1-0.3,0.4-0.5,0.6c-0.3,0.3-0.9,0.6-0.9,1c0.1,0.5,0.6,0.9,0.9,1.4
			c0.2,0.2,0.3,0.2,0.6,0.1c0.4-0.2,0.9-0.3,1.3-0.5c0.4-0.2,0.7,0,0.8,0.4c0.2,0.7,0.3,1.5,0.5,2.3c-0.6,0.2-1.2,0.3-1.8,0.4
			c-0.5,0.1-0.7,0.3-0.7,0.8c0,0,0,0.1,0,0.1c0.1,1.9,0.1,1.9,2,2.2c0.2,0,0.4,0.1,0.6,0.2c0.2,0.9-0.2,1.7-0.6,2.4
			c0,0.1-0.1,0.1-0.1,0.2c-0.4,0.2-0.8,0-1.2-0.1c-1.3-0.4-1.9,0.3-1.7,1.7l0,0c0.4,0.1,0.7,0.5,0.9,0.9c0.1,0.2,0.3,0.3,0.1,0.6
			c-0.4,0.5-0.9,1-1.3,1.5c-0.2,0.3-0.5,0.2-0.8,0c-0.3-0.3-0.7-0.6-1-0.9c-0.4-0.4-0.7-0.4-1.1-0.1c-1.2,0.7-1.2,0.7-0.7,2
			c0.1,0.2,0.1,0.3,0.2,0.5c0.2,0.4,0.1,0.7-0.4,0.8c-0.7,0.2-1.4,0.6-2.2,0.9c-0.4-0.7-0.5-1.4-0.7-2.1c-0.1-0.6-0.4-0.7-0.9-0.7
			c-1.9,0-1.9,0-2.2,1.8c-0.1,0.8-0.1,0.8-0.9,0.7c-0.2,0-0.4,0-0.7,0c-0.5,0.2-0.9-0.1-1.4-0.2c-0.3-0.1-0.5-0.3-0.4-0.6
			c0.1-0.5,0.2-1,0.3-1.5c0.2-0.6,0-0.9-0.5-1.2c-0.5-0.3-0.8-0.1-1.1,0.4c-0.2,0.3-0.3,0.5-0.5,0.7c-0.5,0.5-1,0.6-1.5,0.1
			c-0.1-0.1-0.2-0.1-0.3-0.2c-1.8-1.4-2-1.6,0.2-3.2c0.1,0,0.2-0.1,0.2-0.1c0.2-0.7-0.5-1-0.7-1.5c-0.1-0.3-0.5-0.2-0.8-0.1
			c-0.2,0.1-0.5,0.2-0.7,0.3c-1,0.4-1,0.4-1.3-0.7c-0.2-0.7-0.3-1.3-0.7-2c0.6-0.5,1.4-0.3,2-0.5c0.4-0.1,0.6-0.3,0.6-0.7
			c0-0.1,0-0.1,0-0.2c0-0.5,0.2-1.2-0.1-1.6c-0.3-0.3-0.9-0.3-1.4-0.4c-0.8-0.2-0.8-0.2-0.7-0.9c0,0,0-0.1,0-0.1
			c0.3-0.6,0-1.5,0.6-1.8c0.5-0.4,1.2,0.2,1.7,0.4c0.4,0.1,0.7,0,0.9-0.4c0.1-0.2,0.2-0.5,0.3-0.7c0.2-0.4,0.1-0.6-0.2-0.8
			c-0.3-0.2-0.6-0.4-0.9-0.7c-0.4-0.3-0.5-0.5-0.1-0.9c0.4-0.4,0.8-0.9,1.2-1.3c0.6-0.6,0.6-0.6,1.3,0c0.1,0.1,0.2,0.1,0.2,0.2l0,0
			c0.1,0.1,0.2,0.1,0.2,0.2l0,0c0.3,0.1,0.3,0.4,0.5,0.6c0.1,0,0.1,0,0.2,0c0.2-0.2,0.5-0.3,0.7-0.4c0.1,0,0.1,0,0.2-0.1
			c0.1-0.1,0.2-0.1,0.2-0.2l0,0c0.2-0.2,0.6-0.3,0.5-0.7l0,0c-0.3-0.2-0.3-0.6-0.5-0.9c-0.1-0.2-0.1-0.3-0.2-0.5
			c-0.2-0.4,0-0.6,0.3-0.8c0.4-0.1,0.8-0.2,1.2-0.5c1.1-0.8,1.5-0.7,1.9,0.6c0.1,0.4,0.1,1,0.5,1.3c0.4,0.1,0.8,0.1,1.3,0.1
			c0.9,0.1,1.2-0.5,1.4-1.1c0.3-1.2,0.5-1.2,1.6-0.9c0.3,0.1,0.6,0.2,0.9,0.3c0.7,0.2,0.9,0.7,0.6,1.4c-0.1,0.3-0.2,0.5-0.3,0.8
			c-0.1,0.4,0.2,0.7,0.5,0.9c0.3,0.2,0.6,0.2,0.9-0.1c0.1-0.1,0.2-0.1,0.2-0.2C56,78,56.7,78.1,57.7,79.8z"/>
		<path class="st0" d="M42.7,101.7c1.1-0.4,1.1-0.4,1.6,0.8c0.6,1.3,0.6,1.3,2,1.1c1.3-0.2,1.3-0.2,1.5-1.6c0-0.1,0-0.3,0-0.4
			c0-0.4,0.2-0.6,0.6-0.5c0.6,0.1,1.2,0.2,1.8,0.3c0.3,0.1,0.4,0.2,0.4,0.6c-0.1,0.4-0.1,0.8-0.3,1.2c-0.2,0.6,0,0.9,0.5,1.1
			c0.3,0.1,0.6,0.3,0.9,0.5c0.8-0.5,1-1.5,1.7-2.1c0.7,0.3,1.2,0.8,1.8,1.1c0.4,0.3,0.5,0.5,0.1,0.9c-0.3,0.4-0.6,0.8-0.9,1.1
			c-0.3,0.3-0.3,0.6,0,0.9c0.2,0.1,0.3,0.3,0.4,0.5c0.3,0.5,0.7,0.5,1.2,0.3c1.6-0.8,1.6-0.8,2.2,0.9c0.4,1.1,0.4,1.1-0.8,1.5
			c0,0-0.1,0-0.1,0c-1.2,0.4-1.2,0.4-0.8,1.5c0,0.1,0,0.2,0.1,0.3c0.2,0.3-0.1,0.9,0.3,1.1c0.4,0.2,0.9,0.2,1.4,0.2
			c0.9,0,0.9,0,0.8,1c-0.1,1.7-0.1,1.7-1.9,1.5c-0.3,0-0.7-0.3-0.9,0.1c-0.2,0.5-0.7,1-0.6,1.6c0,0.3,0.5,0.4,0.7,0.6
			c0.3,0.3,0.9,0.4,1,0.8c0.1,0.4-0.4,0.7-0.6,1.1c-0.2,0.3-0.4,0.7-0.6,1c-0.8,0.4-1.1-0.3-1.5-0.6l0,0c-0.1-0.1-0.2-0.1-0.2-0.2
			l0,0c-0.3-0.3-0.6-0.2-0.9,0l0,0c-0.1,0.4-0.4,0.3-0.6,0.5l0,0c-0.1,0.2-0.2,0.4-0.5,0.4l0,0c0,0.1,0,0.2,0,0.3l0,0
			c0.6,0.3,0.7,1,1,1.6c0.2,0.5,0,0.8-0.5,0.9l0,0c-0.3,0.4-0.8,0.7-1.3,0.9c-0.8,0.3-1.1,0.1-1.3-0.7c-0.6-2.2-0.4-1.8-2.7-1.5
			c-0.4,0-0.5,0.2-0.5,0.6c0.1,0.6-0.1,1.2-0.2,1.7c0,0.3-0.1,0.4-0.4,0.4c-0.7,0-1.5-0.1-2.2-0.1c-0.4,0-0.5-0.2-0.5-0.7
			c0-0.4,0.2-0.8,0.3-1.2c0.2-0.9,0.2-1-0.6-1.4c-0.2-0.1-0.3-0.1-0.5-0.2c-0.4-0.2-0.6-0.1-0.8,0.2c-0.2,0.5-0.5,0.9-0.8,1.3
			c-0.2,0.5-0.5,0.5-1,0.2c-0.3-0.2-0.6-0.3-0.8-0.5c-1.3-0.4-1.5-0.9-0.7-1.9c0.2-0.2,0.4-0.4,0.5-0.6c0.2-0.3,0.3-0.7,0-1
			c-0.3-0.3-0.5-0.6-1-0.5c-1.9,0.6-1.9,0.5-2.8-1.3c0-0.1-0.1-0.2-0.1-0.3c-0.3-0.7,0-1.1,0.7-1.4c1.3-0.5,1.4-0.8,1.2-2
			c-0.1-0.5-0.3-0.6-0.7-0.6c-0.1,0-0.2,0-0.3,0c-0.2,0-0.5-0.1-0.7-0.1c-0.1,0-0.2,0-0.3,0c-0.5-1-0.4-2,0-3
			c0.1-0.4,0.5-0.4,0.8-0.4c0.3,0,0.6,0.1,0.9,0.1c0.5,0.1,0.8-0.1,1-0.6c0.2-0.5-0.1-0.7-0.4-1c-1.3-0.9-1.3-0.9-0.5-2.3
			c0.1-0.2,0.2-0.3,0.3-0.5c0.8-1.2,0.8-1.3,2-0.3c0.5,0.4,1,0.7,1.6,0.1c0.6-0.5,0.3-1,0-1.4c-0.5-0.9-0.4-1.4,0.6-1.8
			C42.2,101.9,42.5,101.8,42.7,101.7z"/>
		<path class="st0" d="M18.7,109.2c-0.2,0.2-0.5,0.3-0.8,0.1c-0.6-0.5-1.2-1-1.7-1.5c-0.3-0.3-0.1-0.5,0-0.7
			c0.4-0.4,0.9-0.8,1.3-1.2c0.3-0.2,0.3-0.5,0.1-0.8c0-0.1-0.1-0.1-0.1-0.2c-0.7-1.1-0.7-1.1-1.8-0.6c-1.2,0.5-1.2,0.5-1.6-0.7
			c-0.1-0.5-0.2-0.9-0.4-1.4c-0.2-0.4,0-0.7,0.4-0.8c0.1,0,0.1,0,0.2,0c0.6-0.2,1.3,0,1.6-0.4c0.3-0.4,0-1.1,0.2-1.7
			c0.1-0.3,0-0.6-0.5-0.7c-0.5-0.2-1.1-0.2-1.6-0.2c-0.4-0.1-0.5-0.4-0.4-0.8c0.1-0.3,0.1-0.6,0.1-0.9c0.1-1.6,0.3-1.8,1.9-1.4
			c0.5,0.1,0.9,0.2,1.2-0.3c0.4-0.5,0.2-1-0.2-1.4l0,0c-1.3-0.8-1.3-0.8-0.3-2c0.3-0.3,0.5-0.6,0.9-0.8c0.7-0.5,0.7-0.5,1.2,0.1
			c0.2,0.2,0.5,0.5,0.7,0.7c0.3,0.6,0.7,0.4,1.1,0.2c1.3-0.7,1.3-0.7,0.6-2c-0.4-0.8-0.4-1,0.5-1.4c0.5-0.2,1-0.4,1.4-0.5
			c0.6-0.2,0.6-0.2,0.8,0.4c0.1,0.4,0.3,0.8,0.4,1.3c0.1,0.6,0.4,0.7,0.9,0.7c0.1,0,0.1,0,0.2,0c1.8,0,1.8,0,2.3-1.7
			c0.2-0.7,0.3-0.7,0.9-0.5c0,0,0.1,0,0.1,0c0.6,0.3,1.4,0.1,1.7,0.6c0.4,0.6-0.3,1.2-0.4,1.7c-0.1,0.3-0.1,0.6,0.2,0.7
			c0.2,0.1,0.3,0.2,0.4,0.3c0.8,0.6,0.6,0.6,1.4-0.1c0.4-0.4,0.7-1.1,1.3-1.1c0.5,0,0.8,0.7,1.3,1c0.1,0.1,0.2,0.1,0.3,0.2
			c0.5,0.1,0.5,0.4,0.3,0.8c-0.1,0.3-0.3,0.5-0.5,0.7c-0.9,0.7-0.8,1.4,0,2.1c0.1,0,0.3,0,0.4,0c0.4-0.1,0.8-0.3,1.2-0.3
			c0.8-0.2,1.2,0.1,1.3,0.9c0,0.3,0.2,0.6,0.2,0.8c0.2,0.8,0,1.4-0.9,1.5c-0.8,0.2-1.4,0.5-1.2,1.6c0.1,0.6,0.3,0.9,0.9,1.1
			c0.6,0.2,1.5,0.1,1.5,1.2c0,0.4-0.2,0.7-0.3,1.1c-0.4,1-0.7,1.2-1.9,0.9c-0.4-0.1-0.8-0.2-1.1,0.2c-0.6,0.6-0.6,1,0.2,1.7
			c0.4,0.4,1,0.8,0.6,1.4c-0.5,0.7-0.8,1.6-1.9,1.7c-0.1,0-0.2-0.1-0.2-0.2c-0.3-0.5-0.8-0.8-1.2-1.1c-0.3-0.3-0.5-0.2-0.9-0.1
			c-1.3,0.7-1.3,0.7-0.8,2.1c0.4,1.1,0.4,1.1-0.7,1.5c-1.8,0.7-1.8,0.7-2.2-1.1c-0.3-1.1-0.3-1.1-1.4-1c-1.4,0.1-1.4,0.1-1.7,1.5
			c0,0.1-0.1,0.3-0.1,0.4c-0.2,0.8-0.3,0.8-1.1,0.7c-0.5-0.1-1.1-0.2-1.6-0.3c-0.4-0.1-0.6-0.3-0.5-0.7c0.2-0.5,0-1.1,0.5-1.5l0,0
			c0.1-0.2,0.2-0.5,0-0.7l0,0c-0.2-0.2-0.5-0.2-0.7-0.4l0,0c-0.2-0.1-0.5-0.1-0.7-0.3c-0.1,0-0.1,0.1-0.2,0.1
			c-0.1,0-0.1,0.1-0.1,0.1c0,0.1-0.1,0.1-0.1,0.2c0,0.2-0.3,0.3-0.4,0.5l0,0C19.1,108.8,19,109.1,18.7,109.2z"/>
	</g>
	<path class="st0" d="M66.9,72.4c-0.1-0.3-0.3-0.6-0.4-0.9c-0.1-0.1-0.1-0.2-0.2-0.3c-0.1-0.1-0.2-0.2-0.3-0.2c0.1,0,0.1,0,0.2-0.1
		c0.2-0.1,0.3-0.2,0.4-0.4c0-0.2,0-0.3,0-0.5c0-0.1-0.1-0.2-0.1-0.3c-0.1-0.1-0.2-0.2-0.4-0.3c-0.2-0.1-0.4-0.1-0.6-0.1
		c-0.4,0-0.8,0-1.2,0c0,0,0,0,0,0c0,1,0,2,0,3c0,0,0,0,0,0c0.2,0,0.5,0,0.7,0c0,0,0,0,0,0c0-0.2,0-0.3,0-0.5c0-0.2,0-0.4,0-0.6
		c0,0,0,0,0,0c0.1,0,0.2,0,0.3,0c0.1,0,0.2,0.1,0.3,0.1c0.1,0.1,0.1,0.1,0.1,0.2c0.1,0.3,0.3,0.5,0.4,0.8c0,0,0,0,0,0
		C66.3,72.4,66.6,72.4,66.9,72.4C66.9,72.4,66.9,72.4,66.9,72.4C66.9,72.4,66.9,72.4,66.9,72.4z M65.7,70.5c0,0.1-0.1,0.2-0.2,0.2
		c-0.1,0-0.1,0-0.2,0c-0.1,0-0.2,0-0.3,0c0,0,0,0,0,0c0-0.1,0-0.2,0-0.4c0-0.1,0-0.2,0-0.4c0,0,0,0,0,0c0.1,0,0.2,0,0.4,0
		c0.1,0,0.1,0,0.2,0c0.1,0,0.2,0.1,0.2,0.2C65.7,70.3,65.7,70.4,65.7,70.5z"/>
	<path class="st0" d="M65.5,67.8c-1.7,0-3,1.4-3,3s1.4,3,3,3c1.7,0,3-1.4,3-3S67.2,67.8,65.5,67.8z M65.5,73.4
		c-1.4,0-2.5-1.1-2.5-2.5c0-1.4,1.1-2.5,2.5-2.5c1.4,0,2.5,1.1,2.5,2.5C68,72.3,66.9,73.4,65.5,73.4z"/>
</g>
</svg>
