<?xml version="1.0" encoding="utf-8"?>
<!-- Generator: Adobe Illustrator 25.0.0, SVG Export Plug-In . SVG Version: 6.00 Build 0)  -->
<svg version="1.1" id="Capa_1" xmlns="http://www.w3.org/2000/svg" xmlns:xlink="http://www.w3.org/1999/xlink" x="0px" y="0px"
	 viewBox="0 0 200 200" style="enable-background:new 0 0 200 200;" xml:space="preserve">
<style type="text/css">
	.st0{fill-rule:evenodd;clip-rule:evenodd;fill:#CC2229;}
</style>
<g>
	<path class="st0" d="M62.3,118.1V79.3H70v38.9H62.3L62.3,118.1z M79.6,118.1V92.2h7v2.4c1-1.2,2.1-2,3.1-2.5c1-0.5,2.4-0.7,4-0.7
		h0.6v6.1c-1.6,0.1-3,0.3-4,0.8c-1,0.4-1.8,1.1-2.5,2c-0.5,0.7-0.6,2-0.6,4v14L79.6,118.1L79.6,118.1z M98.7,118.1V88.3h7.7v29.8
		C106.4,118.1,98.7,118.1,98.7,118.1z M98.7,84.9v-6.6h7.7v6.6H98.7z M115.9,118.1V89.4h6.3V92c0.9-1.1,1.9-1.9,3-2.5
		c1.6-0.7,3.2-1.1,4.9-1.1c3.4,0,6.3,1.3,8.7,4c0.2,0.3,0.4,0.4,0.4,0.4c0.8,1.2,1.5,2.6,1.8,4.1c0.4,1.5,0.5,3.6,0.5,6.4v15h-6.9
		v-13.6c0-3.4-0.4-5.7-1.2-7c-0.5-0.7-1.1-1.3-1.9-1.8c-0.8-0.5-1.8-0.6-2.7-0.6c-1,0-1.9,0.2-2.8,0.6c-0.9,0.5-1.6,1.1-2,1.8
		c-0.5,0.6-0.7,1.6-0.9,2.6c-0.2,1-0.3,2.6-0.3,4.8v13L115.9,118.1L115.9,118.1z M32.3,94.7c2-2.3,4.6-3.4,7.7-3.4
		c3,0,5.4,1,7.2,3.1c0.7,0.7,1.4,1.8,1.9,3.3H30.5C30.9,96.5,31.5,95.5,32.3,94.7z M56.9,104.1c0.2-1.6,0.4-2.7,0.4-3.2
		c0-3.1-0.8-6-2.4-8.8c-1.6-2.7-3.7-4.9-6.4-6.5c-2.6-1.6-5.6-2.4-8.7-2.4c-3.2,0-6.2,0.8-8.9,2.4c-2.7,1.6-4.9,3.9-6.5,6.6
		c-1.6,2.8-2.4,5.8-2.4,9c0,3.2,0.8,6.2,2.4,9s3.7,4.9,6.5,6.5c2.7,1.6,5.6,2.4,8.9,2.4c2.5,0,4.8-0.6,7.2-1.6
		c2.3-1,4.4-2.5,6.1-4.3c1.1-1.2,2.1-2.8,3-4.9h-9c-0.8,0.8-1.8,1.5-2.8,1.9c-1.5,0.6-3,0.9-4.7,0.9c-3,0-5.4-1-7.1-3
		c-0.7-0.7-1.3-1.8-1.8-3.2h26.1L56.9,104.1L56.9,104.1z M176.2,90.1c-4.2-7.8-15.3-7.7-15.3-7.7C143.1,83.7,144.4,99,144.4,99
		c1.7,17.4,20,16.5,23.6,13.8c-6.9,8.2-21.3-1.5-21.3-1.5l-1.9,6.5c8.5,6.1,15.1,5.3,15.1,5.3c12.6,0,16.2-9,16.2-9
		C177.9,103.8,176.2,90.1,176.2,90.1z M160.8,108c-4.5-0.1-8-3.8-8-8.3c0.1-4.4,3.6-7.9,8-8c4.5,0,8.1,3.6,8.1,8.1l0,0
		C168.9,104.3,165.3,108,160.8,108L160.8,108z"/>
	<path class="st0" d="M97.5,149.1c-21.4,0-39.6-13.8-46.1-33c-2,1.7-4.4,2.9-6.9,3.5c7.9,21.7,28.7,37.3,53.1,37.3
		c23.5,0,43.7-14.5,52.2-35c-2.5-0.8-4.9-2-6.9-3.7C135.7,136.2,118.1,149.1,97.5,149.1L97.5,149.1z M50.9,85.9
		C57.1,66,75.6,51.5,97.5,51.5c23.3,0,42.8,16.4,47.6,38.4c1.7-2.6,3.8-4.9,6.3-6.6c-7.2-22.9-28.7-39.5-53.9-39.5
		c-25,0-46.2,16.3-53.6,38.9C46.5,83.2,48.9,84.4,50.9,85.9L50.9,85.9z"/>
	<path class="st0" d="M58.9,42.9L18,79.2c-0.2,0.2-10.3,8-10.3,22.2c0,14.1,11.8,24,12.3,24.5l44.2,35.4
		c0.9,0.6,15.5,10.2,36.3,10.2c20.9,0,38.8-12.3,39.5-12.8l41.1-36.4c0.4-0.3,11.3-9.3,11.3-22.8c0-13.6-13-24-13.6-24.5L141.7,45
		c-0.9-0.6-19.5-14.6-44.1-14.6C72.8,30.4,59.5,42.4,58.9,42.9L58.9,42.9z M68.6,155.1l-43.8-35.2c0,0-9.4-8-9.4-18.5
		c0-10.2,7.2-16,7.5-16.2l41.3-36.5c0.2-0.2,11.8-10.5,33.5-10.5c22,0,39.1,12.7,39.3,12.9l36.8,30c0.2,0.1,10.7,8.7,10.7,18.5
		s-8.4,16.8-8.5,16.9l-40.8,36.2c0.2-0.2-16.3,11.2-34.7,11.2C82,163.7,68.8,155.2,68.6,155.1z"/>
</g>
</svg>
