<?xml version="1.0" standalone="no"?>
<!DOCTYPE svg PUBLIC "-//W3C//DTD SVG 20010904//EN"
 "http://www.w3.org/TR/2001/REC-SVG-20010904/DTD/svg10.dtd">
<svg version="1.0" xmlns="http://www.w3.org/2000/svg"
 width="606.000000pt" height="606.000000pt" viewBox="0 0 606.000000 606.000000"
 preserveAspectRatio="xMidYMid meet">
<metadata>
Created by potrace 1.14, written by Peter Selinger 2001-2017
</metadata>
<g transform="translate(0.000000,606.000000) scale(0.100000,-0.100000)"
fill="#000000" stroke="none">
<path d="M2817 6054 c-1 -1 -58 -4 -127 -8 -121 -6 -149 -8 -290 -21 -60 -5
-117 -12 -165 -20 -11 -1 -45 -6 -75 -10 -110 -13 -442 -83 -490 -102 -18 -7
-11 -5 -85 -27 -33 -10 -64 -22 -70 -26 -5 -4 -22 -10 -37 -14 -34 -8 -216
-96 -283 -136 -27 -17 -58 -33 -67 -36 -10 -4 -18 -10 -18 -14 0 -4 -12 -12
-26 -19 -15 -6 -70 -45 -123 -86 -174 -133 -315 -304 -377 -456 -49 -119 -65
-213 -70 -388 -2 -90 -1 -168 3 -174 3 -5 7 -24 9 -41 2 -29 6 -50 18 -102 31
-144 130 -316 251 -438 152 -153 376 -237 633 -237 91 -1 202 11 287 30 46 11
68 17 120 37 11 4 25 8 31 9 34 8 189 94 258 144 94 68 165 141 224 227 34 50
82 141 87 164 1 3 11 37 23 75 26 84 35 158 35 280 1 110 -8 201 -22 238 -6
15 -9 27 -6 27 8 0 -43 137 -75 200 -105 209 -280 372 -513 479 -45 21 -91 41
-102 45 -19 7 -19 8 4 27 13 10 29 19 37 19 8 0 14 4 14 8 0 5 19 17 43 27 23
10 60 27 83 36 43 20 140 47 189 54 17 3 41 7 55 11 45 11 294 13 350 3 216
-39 355 -129 466 -299 16 -25 31 -47 35 -50 22 -19 101 -255 115 -344 3 -21 8
-48 11 -60 10 -37 11 -1188 2 -1251 -19 -121 -113 -266 -227 -348 l-47 -34
-1332 1 c-881 1 -1334 -2 -1336 -9 -2 -5 -3 -50 -2 -100 l0 -90 1137 0 c908 0
1134 -3 1126 -12 -6 -7 -18 -13 -28 -13 -9 0 -20 -3 -24 -7 -4 -5 -11 -8 -14
-9 -4 0 -14 -4 -22 -7 -21 -9 -183 -68 -195 -71 -5 -2 -17 -6 -25 -9 -27 -11
-190 -67 -380 -132 -401 -136 -560 -205 -823 -354 -203 -115 -437 -323 -542
-481 -76 -115 -150 -274 -170 -368 -3 -12 -8 -32 -11 -44 -3 -13 -12 -59 -21
-103 -24 -125 -22 -516 3 -557 3 -4 7 -22 8 -40 14 -132 174 -476 263 -566 7
-7 13 -17 13 -22 0 -9 154 -167 186 -190 69 -50 93 -65 157 -100 114 -60 306
-122 416 -136 25 -3 47 -7 50 -9 14 -8 197 -19 326 -19 186 0 307 11 440 40
39 9 77 17 86 19 149 30 378 138 538 253 179 127 382 337 484 500 15 23 28 42
30 42 1 0 3 -20 5 -44 3 -51 5 -61 27 -146 15 -62 95 -238 119 -263 6 -7 23
-30 38 -52 35 -50 114 -133 156 -163 109 -77 320 -148 497 -167 238 -25 595
-25 735 0 14 2 43 6 65 9 22 3 51 7 65 10 14 3 42 7 64 11 195 29 526 153 658
246 14 11 31 19 37 19 6 0 11 5 11 10 0 6 7 10 15 10 8 0 15 3 15 8 0 4 21 21
45 37 25 17 45 33 45 37 0 9 -33 71 -61 113 -10 17 -22 38 -25 47 -8 23 -30
30 -44 13 -6 -7 -41 -33 -78 -56 -37 -24 -69 -46 -72 -50 -11 -13 -98 -40
-142 -43 -75 -6 -207 65 -209 112 -1 18 -2 26 -14 77 -4 17 -8 610 -9 1319 -2
994 0 1289 10 1293 6 2 155 5 330 6 l319 2 0 90 c1 50 -2 95 -6 100 -5 6 -125
10 -328 9 -177 0 -322 2 -322 5 -1 3 -3 150 -4 326 -2 305 -11 634 -20 720 -3
22 -7 67 -10 100 -7 77 -12 115 -31 240 -11 71 -35 182 -44 200 -5 11 -14 37
-20 57 -25 83 -103 225 -171 311 -36 45 -175 185 -230 230 -118 98 -365 233
-479 262 -3 1 -12 4 -20 7 -58 22 -142 43 -214 54 -22 3 -43 7 -46 9 -3 2 -26
6 -50 9 -25 4 -56 9 -70 11 -68 12 -137 21 -235 30 -22 2 -58 6 -80 9 -100 13
-636 29 -648 20z m378 -3886 l0 -1080 -45 -45 c-52 -52 -136 -103 -200 -122
-84 -25 -255 -22 -330 6 -8 3 -21 7 -27 9 -35 7 -150 81 -197 128 -94 92 -152
251 -172 476 -11 119 -4 413 12 495 2 10 6 35 9 55 7 50 13 78 20 100 3 10 8
27 10 37 18 78 123 298 192 399 76 114 202 250 444 480 41 38 88 86 106 107
29 33 37 36 90 39 32 2 65 2 73 0 14 -3 16 -121 15 -1084z"/>
</g>
</svg>
