<?xml version="1.0" encoding="utf-8"?>
<!-- Generator: Adobe Illustrator 25.0.0, SVG Export Plug-In . SVG Version: 6.00 Build 0)  -->
<svg version="1.1" id="Capa_1" xmlns="http://www.w3.org/2000/svg" xmlns:xlink="http://www.w3.org/1999/xlink" x="0px" y="0px"
	 viewBox="0 0 200 200" style="enable-background:new 0 0 200 200;" xml:space="preserve">
<style type="text/css">
	.st0{fill:#1D1D1B;}
	.st1{fill-rule:evenodd;clip-rule:evenodd;fill:#008AD1;}
</style>
<g>
	<polygon class="st0" points="7.7,139.7 7.7,128.3 10.4,128.3 10.4,132.5 12.1,132.5 17.1,128.3 21.2,128.3 14.5,133.6 21.5,139.7 
		17.4,139.7 12.2,134.8 10.4,134.8 10.4,139.7 	"/>
	<path class="st0" d="M25.4,135.6c0,0.6,0.1,0.9,0.2,1.2c0.1,0.3,0.4,0.5,0.6,0.6s0.7,0.2,1.3,0.2h3.7c0.6,0,1-0.1,1.4-0.2
		c0.3-0.1,0.6-0.3,0.6-0.6c0.1-0.3,0.2-0.6,0.2-1.2v-3c0-0.6-0.1-1-0.2-1.3c-0.2-0.3-0.4-0.5-0.6-0.6c-0.3-0.1-0.7-0.2-1.3-0.2h-3.5
		c-0.6,0-1,0.1-1.4,0.2c-0.3,0.1-0.6,0.3-0.6,0.6c-0.1,0.3-0.2,0.7-0.2,1.3v3H25.4z M36.2,135.9c0,0.7-0.1,1.4-0.2,1.8
		c-0.1,0.5-0.4,0.9-0.6,1.2c-0.3,0.3-0.7,0.6-1.3,0.6c-0.6,0.2-1.2,0.2-2,0.2h-5.1c-0.7,0-1.4-0.1-1.9-0.2c-0.6-0.2-1-0.4-1.3-0.7
		c-0.4-0.3-0.6-0.7-0.7-1.2s-0.3-1.1-0.3-1.8v-3.4c0-0.8,0.1-1.5,0.2-1.9c0.2-0.6,0.4-0.9,0.7-1.2c0.4-0.3,0.7-0.6,1.3-0.6
		c0.6-0.1,1.2-0.2,2-0.2H32c1,0,1.8,0.1,2.4,0.4c0.6,0.3,1,0.6,1.3,1.3c0.3,0.6,0.5,1.4,0.5,2.5V135.9L36.2,135.9z"/>
	<polygon class="st0" points="37.9,139.7 37.9,128.3 40.7,128.3 40.7,137.5 47.9,137.5 47.9,139.7 	"/>
	<path class="st0" d="M52.4,130.4v2.5H58c0.4,0,0.6-0.1,0.8-0.4c0.2-0.3,0.3-0.6,0.3-0.9s-0.1-0.6-0.3-0.8c-0.2-0.2-0.5-0.3-0.8-0.3
		L52.4,130.4L52.4,130.4z M49.6,139.7v-11.5h8.3c0.8,0,1.6,0.1,2.2,0.3c0.6,0.2,1,0.5,1.3,0.9c0.3,0.5,0.5,1,0.5,1.7
		c0,0.8-0.1,1.5-0.4,1.8c-0.2,0.4-0.6,0.6-1.1,0.7c0.6,0.2,1.1,0.6,1.4,0.9c0.3,0.4,0.5,1,0.5,1.8c0,0.8-0.1,1.5-0.4,1.9
		c-0.3,0.5-0.7,0.8-1.3,1.1c-0.6,0.2-1.3,0.4-2.2,0.4L49.6,139.7L49.6,139.7z M52.4,134.9v2.7h5.5c0.5,0,0.8,0,1.1-0.1
		c0.3-0.1,0.4-0.2,0.5-0.4c0.1-0.2,0.1-0.5,0.1-0.8s0-0.6-0.1-0.7c-0.1-0.2-0.2-0.3-0.5-0.4c-0.2-0.1-0.6-0.1-1-0.1h-5.6V134.9
		L52.4,134.9z"/>
	<polygon class="st0" points="64.5,139.7 64.5,128.3 76.2,128.3 76.2,130.4 67.3,130.4 67.3,133 75.9,133 75.9,134.9 67.3,134.9 
		67.3,137.6 76.2,137.6 76.2,139.7 	"/>
	<polygon class="st0" points="78.3,139.7 78.3,128.3 83,128.3 90,137.5 90.3,137.5 90.3,128.3 93.1,128.3 93.1,139.7 88.4,139.7 
		81.5,130.5 81,130.5 81,139.7 	"/>
	<path class="st0" d="M104.1,128.3c0.9,0,1.7,0.1,2.2,0.4c0.6,0.3,1,0.6,1.3,1.1c0.3,0.5,0.4,1.1,0.4,1.8h-2.8
		c0-0.4-0.1-0.6-0.3-0.8c-0.2-0.2-0.6-0.3-1.1-0.3h-4.6c-0.9,0-1.3,0.4-1.3,1.2c0,0.5,0.1,0.8,0.4,0.9c0.2,0.2,0.6,0.2,1,0.2h5
		c0.7,0,1.3,0,1.8,0.1c0.5,0.1,0.8,0.2,1.1,0.5c0.3,0.2,0.6,0.6,0.7,1c0.2,0.5,0.3,1.1,0.3,1.8c0,0.8-0.1,1.5-0.4,2
		c-0.3,0.6-0.6,0.9-1.3,1.1c-0.6,0.3-1.3,0.4-2.2,0.4h-5.5c-1,0-1.8-0.1-2.3-0.4c-0.6-0.3-0.9-0.6-1.2-1.1c-0.3-0.5-0.4-1.1-0.4-1.8
		h2.9c0,0.3,0.1,0.6,0.4,0.7c0.3,0.2,0.6,0.4,0.9,0.4h4.6c0.6,0,1.1-0.1,1.4-0.3s0.5-0.6,0.5-1c0-0.3-0.1-0.6-0.2-0.7
		c-0.1-0.2-0.3-0.4-0.6-0.5s-0.6-0.2-1.2-0.2h-4.1c-0.8,0-1.5-0.1-2-0.2c-0.6-0.1-0.9-0.3-1.3-0.6c-0.4-0.3-0.6-0.6-0.7-1
		c-0.2-0.5-0.2-1-0.2-1.8c0-0.6,0.1-1.1,0.3-1.5c0.2-0.4,0.4-0.7,0.7-1c0.4-0.3,0.7-0.5,1.3-0.6c0.6-0.1,1.2-0.2,1.9-0.2h4.6V128.3z
		"/>
	<path class="st0" d="M119.2,139.7h-5.2c-1.1,0-1.9-0.1-2.5-0.4c-0.6-0.3-1-0.6-1.3-1.3c-0.3-0.6-0.4-1.4-0.4-2.4v-3.2
		c0-1.1,0.2-1.9,0.5-2.6s0.7-1,1.4-1.3c0.6-0.3,1.6-0.4,2.7-0.4h4.5c1,0,1.8,0.1,2.5,0.4c0.6,0.2,1.1,0.6,1.5,1.2
		c0.4,0.6,0.6,1.4,0.6,2.4h-2.9c0-0.6-0.2-1-0.5-1.3c-0.4-0.3-0.8-0.4-1.6-0.4h-3.5c-0.6,0-1.1,0-1.5,0.1c-0.3,0.1-0.6,0.3-0.6,0.6
		s-0.2,0.7-0.2,1.3v2.9c0,0.6,0.1,1,0.2,1.3c0.2,0.3,0.4,0.5,0.6,0.6c0.3,0.1,0.7,0.2,1.3,0.2h3.5c0.6,0,1,0,1.3-0.1
		c0.3-0.1,0.6-0.3,0.6-0.5c0.1-0.3,0.2-0.6,0.2-1.1h2.9c0,1-0.1,1.8-0.4,2.4c-0.2,0.6-0.6,0.9-1.2,1.2
		C121.2,139.6,120.3,139.7,119.2,139.7L119.2,139.7z"/>
	<polygon class="st0" points="125,139.7 125,128.3 127.8,128.3 127.8,132.6 134.9,132.6 134.9,128.3 137.7,128.3 137.7,139.7 
		134.9,139.7 134.9,134.9 127.8,134.9 127.8,139.7 	"/>
	<polygon class="st0" points="157.7,128.3 152.6,128.3 148.8,137.5 148.6,137.5 144.8,128.3 139.6,128.3 139.6,139.7 142.4,139.7 
		142.4,130.5 142.8,130.5 146.7,139.7 150.6,139.7 154.6,130.5 155,130.5 155,139.7 157.7,139.7 	"/>
	<polygon class="st0" points="162.9,139.7 160.1,139.7 160.1,128.3 162.9,128.3 	"/>
	<path class="st0" d="M167.9,137.5h5c0.6,0,1.2-0.1,1.6-0.2c0.4-0.1,0.6-0.4,0.7-0.6c0.1-0.3,0.2-0.6,0.2-1.1v-3
		c0-0.6-0.2-1.2-0.6-1.5c-0.4-0.3-1-0.5-1.9-0.5h-5V137.5L167.9,137.5z M165.1,128.3h8.9c0.7,0,1.3,0.1,1.8,0.3
		c0.6,0.2,0.9,0.4,1.3,0.7c0.4,0.4,0.6,0.7,0.7,1.3c0.2,0.6,0.3,1.2,0.3,1.9v3c0,1-0.1,1.8-0.4,2.5c-0.3,0.6-0.7,1.1-1.3,1.4
		c-0.6,0.3-1.4,0.5-2.4,0.5h-9L165.1,128.3L165.1,128.3z"/>
	<polygon class="st0" points="179.6,128.3 192.1,128.3 192.1,130.5 187.2,130.5 187.2,139.7 184.4,139.7 184.4,130.5 179.6,130.5 	
		"/>
	<path class="st1" d="M71,115.6h12.8V106H71V115.6L71,115.6z M85.1,62.1H95v24h8.2l9.8-24h9.9L111,90.9l11.4,28.1h-9.9l-9.4-23.4H95
		V119h-9.9V62.1L85.1,62.1z M96,115.6h13.8l-3.9-9.6H96V115.6L96,115.6z M121.8,115c4.5-1.7,7.8-6,7.8-11.1V98
		c0-6.5-5.4-11.8-11.8-11.8h-3.8l-1.9,4.8l1.9,4.8h0.5c2.3,0,4.2,1.8,4.2,4.2v2c0,1-0.4,2-1,2.7L121.8,115L121.8,115z M84,85.5
		c-1.1-0.7-1.8-2-1.8-3.4v-2c0-1.5,0.7-2.7,1.8-3.4V66.3h-1c-6.5,0-11.8,5.4-11.8,11.8V84c0,6.5,5.4,11.8,11.8,11.8h1V85.5L84,85.5z
		 M96,75.9H106l3.9-9.6H96V75.9L96,75.9z M118.3,75.9h11.4v-9.6h-7.4L118.3,75.9L118.3,75.9z"/>
</g>
</svg>
