<?xml version="1.0" encoding="utf-8"?>
<!-- Generator: Adobe Illustrator 25.0.0, SVG Export Plug-In . SVG Version: 6.00 Build 0)  -->
<svg version="1.1" id="Capa_1" xmlns="http://www.w3.org/2000/svg" xmlns:xlink="http://www.w3.org/1999/xlink" x="0px" y="0px"
	 viewBox="0 0 200 200" style="enable-background:new 0 0 200 200;" xml:space="preserve">
<style type="text/css">
	.st0{fill:#263496;}
</style>
<g>
	<path class="st0" d="M101.6,104.5c-10.7,0-21.4,0-32.2,0c-0.5,0-1,0-1.5,0.1c-0.7,0-1-0.2-1-1c0-1.4,0.1-2.7,0.1-4.1
		c0-18.7,0-37.3,0-56c0-0.7,0-1.4-0.1-2.1c0-0.7,0.2-1,0.9-0.9c1.3,0,2.5,0.1,3.8,0.1c19.9,0,39.8,0,59.7,0c1.1,0,2.1-0.1,3.2-0.1
		c0.7,0,0.9,0.2,0.9,0.9c0,9.1,0,18.2,0,27.2c0,11.3,0,22.6,0,33.8c0,0.4,0,0.8,0,1.2c0,0.7-0.2,0.9-0.9,0.9c-1.4,0-2.7-0.1-4.1-0.1
		C120.9,104.5,111.3,104.5,101.6,104.5z M101.3,101.6c9.9,0,19.9,0,29.8,0c1.1,0,1.3-0.2,1.4-1.4c0-1.2,0-2.3,0-3.5
		c0-11.9,0-23.8,0-35.7c0-5.4,0-10.8,0-16.2c0-1-0.3-1.3-1.2-1.3c-19.9,0-39.9,0-59.8,0c-1.2,0-1.5,0.3-1.5,1.5c0,0.2,0,0.3,0,0.5
		c0,18,0,36.1,0,54.1c0,0.4,0,0.8,0,1.2c0,0.5,0.3,0.8,0.8,0.8c0.2,0,0.4,0,0.7,0C81.4,101.6,91.4,101.6,101.3,101.6z"/>
	<path class="st0" d="M87.1,124.1c-0.1,0.1-0.1,0.3-0.2,0.4c-0.5,3-1,6.1-1.5,9.1c-0.3,1.8-0.6,3.7-1,5.5c0,0.2-0.4,0.5-0.6,0.5
		c-1.5,0-3.1,0-4.6,0c-0.4,0-0.5-0.3-0.5-0.6c-0.3-2.2-0.7-4.4-1-6.6c-0.4-2.6-0.8-5.2-1.1-7.8c0-0.1,0-0.3-0.1-0.4
		c-0.1-0.1-0.2-0.2-0.3-0.2c-0.1,0-0.2,0.2-0.2,0.3c0,0.2,0,0.4,0,0.6c-0.2,4.7-0.3,9.4-0.5,14.1c0,0.5-0.2,0.7-0.7,0.7
		c-2,0-3.9,0-5.9,0c-0.4,0-0.6-0.2-0.5-0.6c0.4-3.3,0.7-6.5,1.1-9.8c0.5-4.4,1-8.9,1.5-13.3c0.1-0.7,0.2-1.5,0.2-2.2
		c0-0.4,0.2-0.6,0.6-0.6c2.3,0,4.7,0,7,0c0.4,0,0.6,0.2,0.6,0.5c0.1,0.3,0.1,0.6,0.2,0.8c0.5,3.4,1,6.8,1.5,10.2
		c0.1,0.7,0.2,1.4,0.4,2.2c0,0.2,0.1,0.3,0.2,0.5c0.1,0,0.1,0,0.2,0c0.1-0.3,0.2-0.5,0.3-0.8c0.5-2.9,0.9-5.9,1.4-8.8
		c0.2-1.3,0.5-2.6,0.7-3.9c0.1-0.4,0.3-0.6,0.8-0.6c2.3,0,4.5,0,6.8,0c0.6,0,0.8,0.2,0.8,0.7c0.5,5.3,1,10.5,1.5,15.8
		c0.2,2.5,0.5,5,0.7,7.5c0.1,0.6,0.1,1.2,0.2,1.8c0.1,0.4-0.1,0.6-0.5,0.6c-1.9,0-3.9,0-5.8,0c-0.4,0-0.5-0.2-0.5-0.6
		c-0.2-4.3-0.3-8.7-0.5-13c0-0.5-0.1-0.9-0.1-1.4c0-0.2-0.1-0.4-0.2-0.6C87.2,124.1,87.1,124.1,87.1,124.1z"/>
	<path class="st0" d="M175.2,126.6c0-4.2,0-8.3,0-12.5c0-0.6,0.1-0.7,0.7-0.7c1.3,0,2.6,0.1,3.9,0.1c2.2,0,4.3,0.3,6.4,0.8
		c2.4,0.6,4,2.2,4.9,4.4c0.4,1,0.7,2.1,0.7,3.2c0,2.7-1.1,4.9-3.3,6.5c-0.7,0.5-0.7,0.6-0.3,1.4c0.8,1.7,1.5,3.5,2.3,5.3
		c0.6,1.4,1.2,2.8,1.9,4.2c0.3,0.6,0.2,0.8-0.5,0.8c-1.7,0-3.3,0-5,0c-1,0-1,0-1.4-0.9c-1-2.8-2-5.6-3-8.4c-0.1-0.2-0.2-0.4-0.3-0.6
		c-0.1-0.2-0.3-0.3-0.4-0.4c-0.1,0.2-0.2,0.4-0.2,0.5c0,0.6,0,1.3,0,1.9c0,2.3,0,4.7,0.1,7c0,0.5-0.2,0.7-0.7,0.7
		c-1.7,0-3.4,0-5.1,0c-0.5,0-0.6-0.2-0.6-0.7C175.2,135,175.2,130.8,175.2,126.6C175.2,126.6,175.2,126.6,175.2,126.6z M181.6,122.3
		C181.6,122.3,181.6,122.3,181.6,122.3c0,0.9,0,1.8,0,2.6c0,0.9,0.3,1.1,1.2,0.9c1.5-0.4,2.1-1.5,2.4-2.9c0.3-1.8-0.8-3.7-2.5-4.1
		c-0.8-0.2-1.2,0-1.2,0.9C181.6,120.5,181.6,121.4,181.6,122.3z"/>
	<path class="st0" d="M15.1,127.7c0,0.2-0.1,0.5-0.1,0.7c0,3.6,0,7.1,0,10.7c0,0.5-0.2,0.7-0.6,0.7c-1.9,0-3.7,0-5.6,0
		c-0.4,0-0.6-0.1-0.6-0.6c0-1.2,0-2.3,0-3.5c0-6.9,0-13.8,0-20.6c0-0.4,0-0.8,0-1.1c0-0.6,0.1-0.8,0.7-0.8c1.4,0,2.7,0,4.1,0
		c0.4,0,0.8,0,1.2,0c0.6,0,0.7,0.1,0.7,0.7c0,3.2,0,6.5,0,9.7c0,0.3,0,0.6,0.1,0.9c0.1,0,0.1,0,0.2,0.1c0.2-0.3,0.4-0.5,0.5-0.8
		c0.9-2.8,1.9-5.7,2.8-8.5c0.2-0.5,0.3-1,0.5-1.4c0.1-0.3,0.3-0.5,0.6-0.5c2,0,4,0,6,0c0.4,0,0.5,0.2,0.3,0.6
		c-0.8,1.8-1.6,3.6-2.3,5.4c-0.7,1.6-1.4,3.2-2.1,4.9c-0.2,0.4-0.5,0.9-0.6,1.3c-0.1,0.4-0.2,0.8-0.1,1.1c0.5,1.3,1.1,2.5,1.7,3.7
		c1.3,2.9,2.6,5.7,4,8.6c0.4,0.8,0.3,0.9-0.6,0.9c-1.8,0-3.6,0-5.4,0c-0.5,0-0.8-0.2-0.9-0.6c-0.5-1.4-1-2.9-1.6-4.3
		c-0.8-2.2-1.6-4.3-2.4-6.5c-0.1-0.2-0.3-0.4-0.5-0.7C15.2,127.6,15.2,127.6,15.1,127.7z"/>
	<path class="st0" d="M38.7,113.1c1.1,0,2.1,0,3.2,0c0.8,0,0.9,0.1,1,0.8c0.3,1.2,0.5,2.4,0.8,3.6c0.8,3.5,1.5,7,2.3,10.5
		c0.7,3.1,1.4,6.2,2.1,9.3c0.1,0.6,0.3,1.3,0.4,1.9c0.1,0.4-0.1,0.4-0.4,0.5c-0.4,0-0.8,0-1.2,0c-1.5,0-3.1,0-4.6,0
		c-0.5,0-0.8-0.2-0.8-0.7c0-0.6-0.2-1.3-0.2-1.9c-0.1-0.5-0.4-0.8-0.9-0.8c-1.2,0-2.3,0-3.5,0c-0.5,0-0.8,0.3-0.9,0.8
		c-0.1,0.7-0.3,1.3-0.4,2c-0.1,0.4-0.3,0.6-0.8,0.6c-1.8,0-3.7,0-5.5,0c-0.5,0-0.7-0.1-0.5-0.6c0.4-1.7,0.8-3.4,1.2-5.1
		c0.4-1.6,0.7-3.2,1.1-4.8c0.4-1.7,0.8-3.4,1.2-5.1c0.4-1.5,0.7-3.1,1-4.6c0.4-1.9,0.9-3.9,1.3-5.8c0.1-0.4,0.3-0.5,0.7-0.5
		C36.4,113.1,37.6,113.1,38.7,113.1z M38.7,131.2C38.7,131.2,38.7,131.2,38.7,131.2c0.2,0,0.3,0,0.5,0c1.5,0,1.5,0,1.3-1.5
		c-0.5-3-0.9-6-1.4-9c0-0.3-0.3-0.6-0.4-0.8c-0.2,0.3-0.4,0.5-0.4,0.8c-0.5,3.2-0.9,6.4-1.4,9.6c-0.1,0.5,0.1,0.7,0.6,0.8
		C37.9,131.2,38.3,131.2,38.7,131.2z"/>
	<path class="st0" d="M163.8,113.1c1.1,0,2.1,0,3.2,0c0.8,0,0.8,0.1,1,0.8c0.5,2.4,1.1,4.8,1.6,7.1c0.3,1.5,0.6,3.1,1,4.6
		c0.4,1.8,0.8,3.7,1.2,5.5c0.6,2.6,1.1,5.2,1.7,7.8c0.1,0.5-0.1,0.6-0.5,0.6c-1.9,0-3.8,0-5.8,0c-0.4,0-0.6-0.2-0.7-0.7
		c0-0.7-0.2-1.4-0.3-2.1c-0.1-0.4-0.3-0.7-0.8-0.7c-1.2,0-2.4,0-3.6,0c-0.5,0-0.9,0.3-0.9,0.8c-0.1,0.7-0.3,1.4-0.4,2.1
		c-0.1,0.5-0.4,0.4-0.7,0.4c-1.7,0-3.3,0-5,0c-1.2,0-1.2,0-1-1.1c0.6-2.6,1.2-5.1,1.7-7.7c0.7-2.9,1.3-5.9,2-8.8
		c0.6-2.7,1.3-5.5,1.9-8.2c0.1-0.4,0.3-0.7,0.8-0.6C161.6,113.2,162.7,113.1,163.8,113.1z M163.9,131.2
		C163.9,131.2,163.9,131.2,163.9,131.2c0.3,0,0.7,0,1,0c0.9,0,1-0.2,0.9-1c-0.3-1.9-0.6-3.9-0.9-5.8c-0.2-1.2-0.4-2.5-0.6-3.7
		c0-0.2-0.3-0.5-0.4-0.7c-0.1,0.2-0.4,0.5-0.4,0.7c-0.3,2.4-0.6,4.8-1,7.2c-0.1,0.8-0.3,1.6-0.4,2.4c-0.1,0.8,0,0.9,0.8,0.9
		C163.2,131.2,163.5,131.2,163.9,131.2z"/>
	<path class="st0" d="M112.9,139.7c-0.9,0-1.9,0-2.8,0c-0.4,0-0.7-0.1-0.7-0.6c0-0.7-0.1-1.3-0.2-2c-0.1-0.6-0.3-0.8-0.9-0.8
		c-1.2,0-2.3,0-3.5,0c-0.5,0-0.8,0.2-0.9,0.7c-0.1,0.7-0.3,1.4-0.4,2.1c-0.1,0.4-0.3,0.6-0.7,0.6c-1.8,0-3.6,0-5.5,0
		c-0.7,0-0.8-0.1-0.6-0.8c0.6-2.7,1.2-5.4,1.8-8.1c0.5-2.3,1.1-4.5,1.6-6.8c0.3-1.3,0.6-2.6,0.9-3.8c0.5-2.2,1-4.3,1.5-6.5
		c0.1-0.4,0.3-0.5,0.6-0.5c2.4,0,4.7,0,7.1,0c0.4,0,0.6,0.3,0.6,0.6c0.4,1.8,0.8,3.6,1.2,5.4c0.5,2.4,1.1,4.9,1.6,7.3
		c0.7,3.2,1.4,6.5,2.1,9.7c0.2,0.9,0.4,1.9,0.7,2.8c0.1,0.5,0,0.7-0.5,0.7C114.8,139.7,113.8,139.7,112.9,139.7
		C112.9,139.7,112.9,139.7,112.9,139.7z M106.6,131.2C106.6,131.2,106.6,131.2,106.6,131.2c0.4,0,0.8,0,1.1,0c0.7,0,0.8-0.2,0.7-0.9
		c-0.1-0.9-0.3-1.8-0.4-2.7c-0.3-2.2-0.7-4.5-1-6.7c-0.1-0.3-0.3-0.6-0.4-1c-0.2,0.3-0.4,0.7-0.4,1c-0.5,3.2-0.9,6.3-1.4,9.5
		c-0.1,0.5,0.1,0.7,0.6,0.7C105.7,131.2,106.2,131.2,106.6,131.2z"/>
	<path class="st0" d="M118,139.5c0.2-0.5,0.4-0.9,0.5-1.3c0.9-2.1,1.8-4.3,2.7-6.4c0.8-2,1.7-4,2.6-6.1c0.7-1.6,1.3-3.2,2-4.8
		c0.2-0.4,0.4-0.9,0.6-1.3c0.3-0.6,0.1-0.9-0.5-0.9c-1,0-1.9,0-2.9,0c-1,0-2,0-3,0c-0.4,0-0.6-0.2-0.6-0.6c0-1.5,0-2.9,0-4.4
		c0-0.6,0.1-0.7,0.7-0.7c2.9,0.1,5.9,0.2,8.8,0.3c2,0.1,4.1,0.1,6.1,0.2c0.6,0,0.6,0.2,0.4,0.7c-0.4,0.9-0.8,1.9-1.2,2.8
		c-0.8,2-1.7,4-2.5,6.1c-0.7,1.6-1.3,3.3-2,5c-0.7,1.6-1.3,3.2-2,4.7c-0.3,0.8-0.2,1,0.6,1c2,0.1,4,0.1,6,0.2c0.9,0,0.9,0.1,0.9,0.9
		c0,1.3,0,2.6,0,3.9c0,0.5-0.2,0.7-0.7,0.7c-5.3,0-10.6,0-15.8,0C118.4,139.5,118.3,139.5,118,139.5z"/>
	<path class="st0" d="M64.7,137.1c0,0.7,0,1.4,0,2.1c0,0.4-0.2,0.7-0.6,0.8c-3.7,1.1-6.9,0.2-9.6-2.4c-2.4-2.4-3.6-5.3-4.1-8.6
		c-0.4-2.7-0.1-5.2,0.7-7.7c0.9-2.8,2.5-5.1,4.9-6.8c1.8-1.2,3.8-1.8,5.9-1.6c0.7,0.1,1.4,0.3,2.1,0.5c0.4,0.1,0.5,0.4,0.5,0.8
		c0,1.4,0,2.8,0,4.2c0,0.4-0.2,0.6-0.6,0.5c-2.4-0.5-4.2,0.6-5.6,2.4c-1.8,2.5-2.1,5.2-1.3,8.2c0.6,2,1.7,3.6,3.5,4.6
		c1,0.6,2.1,0.7,3.2,0.5c0.6-0.1,0.7,0,0.7,0.6C64.7,135.7,64.7,136.4,64.7,137.1C64.7,137.1,64.7,137.1,64.7,137.1z"/>
	<path class="st0" d="M139.2,126.7c0-4.2,0-8.3,0-12.5c0-0.7,0.1-0.8,0.8-0.8c1.7,0.1,3.5,0.1,5.2,0.2c0.4,0,0.6,0.2,0.6,0.7
		c0,6.1,0,12.3,0,18.4c0,1.7,0,1.7,1.6,1.7c1,0,2,0,3,0c0.5,0,0.6,0.2,0.6,0.6c0,1.4,0,2.8,0,4.2c0,0.7-0.1,0.7-0.7,0.7
		c-3.1,0-6.2,0-9.2,0c-0.3,0-0.7,0-1,0c-0.7,0-0.8-0.1-0.8-0.8c0-2.6,0-5.2,0-7.8C139.2,129.9,139.2,128.3,139.2,126.7
		C139.2,126.7,139.2,126.7,139.2,126.7z"/>
	<path class="st0" d="M121.7,160.5c-0.6,0-1.2,0-1.8,0c-0.2,0-0.4-0.2-0.5-0.4c-0.7-0.9-1.4-1.8-2.2-2.7c-0.5-0.6-1.1-0.9-1.9-0.9
		c-0.6,0-0.8,0.1-0.8,0.8c0,0.9,0,1.7,0,2.6c0,0.5-0.2,0.7-0.7,0.7c-1.2,0-1.2,0-1.2-1.2c0-2.4,0-4.8,0-7.2c0-0.8,0.1-1,0.9-0.9
		c1.9,0.1,3.7,0,5.6,0.2c1.5,0.1,2.3,1.4,2,2.9c-0.2,1-0.8,1.5-1.7,1.8c-0.2,0.1-0.4,0.2-0.7,0.3c0.2,0.2,0.3,0.5,0.5,0.7
		c1.1,0.9,1.7,2.1,2.6,3.2C121.7,160.4,121.7,160.5,121.7,160.5z M116.4,155.2C116.4,155.2,116.4,155.2,116.4,155.2
		c0.5-0.1,1,0,1.5-0.1c0.6-0.1,1.1-0.5,1.3-1.1c0.2-0.5-0.1-0.9-0.4-1.1c-0.3-0.2-0.7-0.4-1.1-0.4c-0.8-0.1-1.6,0-2.5,0
		c-0.5,0-0.7,0.3-0.7,0.7c0,0.5,0,0.9,0,1.4c0,0.5,0.3,0.6,0.7,0.6C115.6,155.2,116,155.2,116.4,155.2z"/>
	<path class="st0" d="M50,160.5c-0.7,0-1.3,0-1.9,0c-0.2,0-0.5-0.3-0.6-0.5c-0.6-0.8-1.3-1.6-1.9-2.5c-0.6-0.7-1.3-1.1-2.2-1
		c-0.5,0-0.7,0.3-0.7,0.7c0,0.9,0,1.7,0,2.6c0,0.5-0.2,0.7-0.7,0.7c-1.1,0-1.1,0-1.1-1.1c0-2.5,0-4.9,0-7.4c0-0.4,0-0.8,0.5-0.8
		c2,0,4,0,6,0.2c1.8,0.2,2.7,2.4,1.6,3.8c-0.3,0.4-0.9,0.6-1.3,0.9c-0.2,0.1-0.4,0.2-0.6,0.3c0.1,0.2,0.2,0.4,0.4,0.6
		c0.8,1,1.6,2,2.5,3C49.9,160.1,49.9,160.3,50,160.5z M44.7,155.2C44.7,155.2,44.7,155.2,44.7,155.2c0.5,0,1.1,0,1.6-0.1
		c0.7-0.1,1.1-0.6,1.2-1.2c0.1-0.6-0.2-1.1-0.9-1.3c-1.1-0.2-2.2-0.2-3.3-0.2c-0.2,0-0.4,0.4-0.5,0.7c-0.1,0.4,0,0.9,0,1.3
		c0,0.5,0.3,0.7,0.7,0.7C43.9,155.2,44.3,155.2,44.7,155.2z"/>
	<path class="st0" d="M68.6,155.9c0,1.3,0,2.6,0,3.9c0,0.5-0.2,0.7-0.7,0.7c-0.9,0.1-1.5-0.3-2-1.1c-0.9-1.5-2-3-3-4.4
		c-0.1-0.2-0.4-0.2-0.6-0.4c-0.1,0.2-0.2,0.4-0.2,0.6c0,1.5,0,3,0,4.5c0,0.4-0.2,0.7-0.6,0.7c-0.2,0-0.3,0-0.5,0
		c-0.4,0-0.6-0.2-0.6-0.6c0-0.3,0-0.7,0-1c0-2.3,0-4.6,0-6.9c0-0.7,0.1-0.8,0.8-0.9c0.7-0.1,1.2,0.1,1.7,0.8c1,1.6,2.1,3.2,3.2,4.7
		c0.1,0.2,0.5,0.3,0.7,0.4c0.1-0.2,0.2-0.5,0.2-0.7c0-1.5,0-3.1,0-4.6c0-0.6,0.2-0.6,0.9-0.6c0.5,0,0.8,0.1,0.8,0.7
		C68.6,153.2,68.6,154.6,68.6,155.9C68.6,155.9,68.6,155.9,68.6,155.9z"/>
	<path class="st0" d="M15.2,155.7c0.5,0,1.1,0,1.6,0c0.4,0,0.5,0.2,0.5,0.6c0,0.8,0.1,1.7,0,2.5c0,0.3-0.2,0.7-0.4,0.8
		c-0.8,0.4-1.6,0.8-2.5,1c-1.7,0.3-3.3,0.3-4.9-0.7c-1.6-1-2.2-3.2-2-4.7c0.3-1.9,1.4-3.2,3.2-3.8c1.6-0.5,4.6-0.5,5.8,1.2
		c0.2,0.3,0.3,0.6,0.5,1c-0.3,0.1-0.7,0.3-1,0.4c-0.5,0.1-0.8,0-1.1-0.4c-0.8-1-1.9-1.2-3.1-0.9c-1.3,0.3-2.1,1.2-2.3,2.6
		c-0.1,0.9,0,1.8,0.4,2.6c0.5,1,1.3,1.5,2.4,1.6c0.9,0.1,1.8-0.1,2.5-0.5c0.3-0.2,0.5-0.5,0.6-0.8c0.1-0.7-0.1-0.9-0.8-1
		c-0.4,0-0.8,0-1.1,0c-0.4,0-0.5-0.2-0.5-0.5c0-0.4,0.1-0.7,0.5-0.7C14,155.7,14.6,155.7,15.2,155.7
		C15.2,155.7,15.2,155.7,15.2,155.7z"/>
	<path class="st0" d="M71.1,155.9c0-1.3,0-2.6,0-3.9c0-0.4,0.1-0.7,0.6-0.7c1.6,0,3.3,0,4.9,0.2c1.8,0.2,3,1.5,3.2,3.2
		c0.2,1.2,0.2,2.5-0.3,3.6c-0.4,0.9-1.1,1.6-2.1,1.9c-1.9,0.6-3.8,0.2-5.8,0.3c-0.4,0-0.5-0.3-0.5-0.6
		C71.1,158.6,71.1,157.2,71.1,155.9C71.1,155.9,71.1,155.9,71.1,155.9z M73.1,155.8c0,0.8,0,1.7,0,2.5c0,0.7,0.2,0.9,0.8,0.9
		c0.7,0,1.3,0,2-0.1c1.1-0.1,1.8-0.8,2-1.9c0.1-0.9,0.1-1.8,0-2.7c-0.1-0.9-0.7-1.6-1.6-1.8c-0.7-0.2-1.5-0.2-2.3-0.2
		c-0.7,0-0.9,0.2-0.9,0.8C73,154.2,73.1,155,73.1,155.8z"/>
	<path class="st0" d="M96.9,160.8c-0.8-0.2-1.7-0.3-2.5-0.6c-0.9-0.3-1.4-1.1-1.7-2c0-0.1,0-0.4,0.1-0.4c0.5-0.4,1.5-0.1,1.8,0.4
		c0.9,1.5,3.1,1.4,4,0.6c0.3-0.3,0.7-0.6,0.5-1c-0.2-0.3-0.5-0.7-0.9-0.8c-1-0.3-2.1-0.6-3.1-0.9c-0.8-0.2-1.5-0.6-2-1.4
		c-0.6-1.1-0.1-2.2,0.6-2.8c1.2-1,5.1-1.2,6.3,0.4c0.2,0.3,0.4,0.6,0.5,1c0,0.1-0.2,0.4-0.4,0.5c-0.7,0.3-1.3,0.1-1.8-0.6
		c-0.7-0.9-2.5-1.1-3.4-0.3c-0.4,0.4-0.4,1.1,0.2,1.4c0.4,0.2,0.9,0.3,1.3,0.5c1.1,0.3,2.2,0.6,3.2,1c0.9,0.4,1.2,1.2,1.2,2.2
		c0,1-0.6,1.8-1.4,2.3c-0.9,0.5-1.8,0.5-2.7,0.5C96.9,160.7,96.9,160.8,96.9,160.8z"/>
	<path class="st0" d="M39.3,160.5c-0.7,0-1.3,0.1-1.8,0c-0.2,0-0.5-0.4-0.6-0.6c-0.3-1.2-1-1.8-2.3-1.6c-0.6,0.1-1.3,0-1.9,0
		c-0.9,0-1.1,0.2-1.4,1c-0.5,1.3-0.8,1.5-2.2,1.2c-0.1,0-0.1-0.1-0.2-0.1c0.3-0.6,0.6-1.2,0.8-1.9c0.9-2,1.8-4.1,2.7-6.1
		c0.5-1.1,1.1-1.5,2.3-1.2c0.2,0.1,0.5,0.4,0.6,0.6c1.1,2.4,2.2,4.9,3.4,7.4C38.8,159.6,39,160,39.3,160.5z M34,157
		C34,157,34,157,34,157c0.3,0,0.6,0,0.9,0c0.4,0,0.6-0.3,0.5-0.6c-0.3-0.8-0.7-1.6-1-2.4c-0.2-0.4-0.6-0.4-0.8,0.1
		c-0.3,0.7-0.6,1.4-0.9,2.1c-0.2,0.6,0,0.9,0.7,0.9C33.6,157,33.8,157,34,157z"/>
	<path class="st0" d="M19.7,155.8c0-1.2,0-2.4,0-3.7c0-0.8,0.1-1,0.9-1c2,0,4.1,0,6.1,0c0.4,0,0.7,0,0.8,0.5
		c0.1,0.6-0.1,0.8-0.7,0.8c-1.4,0-2.8,0-4.2,0c-0.9,0-1,0.1-1,1c0,1.5,0,1.5,1.4,1.5c1,0,2.1,0,3.1,0c0.8,0,0.9,0.1,0.9,0.6
		c0,0.5-0.2,0.6-1,0.6c-1.1,0-2.3,0-3.4,0c-0.9,0-1.1,0.2-1.1,1.1c0,0.4,0,0.8,0,1.2c0,0.5,0.2,0.8,0.8,0.8c1.5,0,3,0,4.6,0
		c0.4,0,0.7,0,0.7,0.5c0,0.6-0.2,0.8-0.7,0.8c-2.1,0-4.2,0-6.4,0c-0.8,0-0.9-0.1-0.9-0.9C19.7,158.4,19.7,157.1,19.7,155.8
		C19.7,155.8,19.7,155.8,19.7,155.8z"/>
	<path class="st0" d="M90.4,154.9c0,0.9,0,1.9,0,2.8c0,1.8-1.2,2.7-2.8,2.9c-0.9,0.1-1.7,0.1-2.6,0c-1.6-0.2-2.7-1-2.8-2.9
		c0-1,0-2,0-3c0-0.9,0-1.9,0-2.8c0-0.5,0.2-0.7,0.7-0.7c0.1,0,0.2,0,0.2,0c0.9,0,1,0,1,0.9c0,1.7,0,3.4,0,5.1c0,0.9,0.4,1.6,1.2,1.9
		c0.9,0.4,1.9,0.4,2.7-0.3c0.3-0.2,0.5-0.6,0.5-1c0.1-0.5,0.1-1,0.1-1.5c0-1.5,0-2.9,0-4.4c0-0.7,0.1-0.8,0.8-0.8c0.1,0,0.2,0,0.3,0
		c0.7,0,0.8,0.1,0.8,0.8C90.5,152.9,90.5,153.9,90.4,154.9C90.5,154.9,90.5,154.9,90.4,154.9z"/>
	<path class="st0" d="M125.7,158.5c0.3-1.3-0.2-2.4-1-3.4c-0.8-1-1.5-2.1-2.3-3.1c-0.1-0.2-0.2-0.4-0.2-0.6c0.2-0.1,0.4-0.1,0.6-0.2
		c0.2,0,0.4,0,0.6,0c0.6-0.1,0.9,0.2,1.2,0.6c0.6,0.9,1.1,1.7,1.7,2.6c0.3,0.5,0.6,0.5,1,0c0.6-0.9,1.1-1.7,1.7-2.6
		c0.3-0.5,1.7-0.9,2.2-0.6c0.1,0,0.1,0.4,0,0.5c-0.8,1.2-1.6,2.4-2.5,3.5c-0.7,0.9-1.1,1.8-1,2.9c0.1,0.6,0,1.2,0,1.7
		c0,0.5-0.2,0.7-0.7,0.7c-1.3,0-1.3,0-1.3-1.2C125.7,159,125.7,158.7,125.7,158.5z"/>
	<path class="st0" d="M106.6,151.2c1.1,0,2.3,0,3.4,0c0.4,0,0.7,0.1,0.8,0.6c0,0.5-0.2,0.7-0.6,0.7c-0.5,0-1.1,0-1.6,0
		c-0.8,0-1,0.2-1,1c0,2.1,0,4.1,0,6.2c0,0.8-0.1,0.8-0.8,0.8c-1.1,0-1.1,0-1.1-1.1c0-2,0-4,0-6c0-0.7-0.2-0.9-0.9-0.9
		c-0.6,0-1.1,0-1.7,0c-0.4,0-0.7-0.1-0.7-0.6c0-0.5,0.2-0.7,0.7-0.7C104.3,151.2,105.5,151.2,106.6,151.2
		C106.6,151.2,106.6,151.2,106.6,151.2z"/>
	<path class="st0" d="M55.9,155.9c0-1.3,0-2.6,0-3.9c0-0.7,0.1-0.8,0.9-0.7c0.8,0,0.9,0.1,0.9,0.7c0,2.6,0,5.2,0,7.8
		c0,0.7-0.1,0.7-0.8,0.7c-1.1,0-1.1,0-1.1-1.1C55.9,158.3,55.9,157.1,55.9,155.9z"/>
	<path class="st0" d="M60.2,143.8c-1.1,0-2.1,0-3.2,0c-0.6,0-0.7-0.1-0.7-0.8c0-1.5,0-1.5,1.5-1.5c1.9,0,3.8,0,5.6,0
		c0.4,0,0.6,0.2,0.6,0.6c0,0.4,0,0.8,0,1.2c0,0.4-0.2,0.5-0.6,0.5C62.4,143.8,61.3,143.8,60.2,143.8
		C60.2,143.8,60.2,143.8,60.2,143.8z"/>
	<path class="st0" d="M100.7,62c0-3.6,0-7.2,0-10.8c0-0.7,0.2-0.9,0.9-1c2.9-0.4,5.7,0,8.5,0.8c1.9,0.5,3.7,1.3,5.4,2.3
		c2.3,1.4,4.4,3.2,6,5.4c1.3,1.8,2.4,3.7,3.2,5.8c0.4,1,0.6,2,0.9,3c0.2,0.8,0,1-0.7,1c-1.4,0-2.9,0-4.3,0c-0.6,0-0.9-0.2-1-0.8
		c-0.4-1.6-1.1-3.1-2.1-4.5c-1.2-1.8-2.7-3.3-4.5-4.5c-1.6-1-3.2-1.8-5.1-2.2c-0.7-0.2-1.1,0.1-1.1,0.8c0,3.2,0,6.4,0.1,9.5
		c0.1,1.7,0.8,3.2,2,4.4c0.8,0.9,1.8,1.3,3,1.3c3.4,0,6.8-0.1,10.3-0.1c1,0,2.1,0,3.1,0c0.7,0,1,0.3,0.9,1c-0.2,2.1-0.5,4.1-1.2,6.1
		c-0.4,1.1-1,2.2-1.5,3.3c-1,2-2.4,3.8-4,5.3c-2.4,2.3-5.1,4-8.2,5c-2.2,0.7-4.4,1-6.6,1.2c-1,0.1-2.1-0.1-3.1-0.2
		c-0.4,0-0.6-0.4-0.6-0.7c0-1.5,0-3,0-4.6c0-0.5,0.3-0.7,0.7-0.6c1.8,0.3,3.6,0.3,5.4,0c1.2-0.2,2.3-0.7,3.4-1.1
		c1-0.4,1.9-0.9,2.8-1.5c1.8-1.1,3.2-2.7,4.3-4.4c0.4-0.6,0.8-1.2,1.1-1.9c0.1-0.3,0.2-0.7,0.1-0.9c-0.1-0.2-0.5-0.3-0.8-0.3
		c-4.1,0-8.2-0.1-12.4,0c-1.8,0-3-0.8-3.8-2.2c-0.6-1.1-1-2.3-1-3.6C100.8,68.8,100.7,65.4,100.7,62C100.7,62,100.7,62,100.7,62z"/>
	<path class="st0" d="M76.8,71.8c0-5.4,0-10.8,0-16.1c0-1.9,0-3.8-0.1-5.6c0-0.6,0.2-0.8,0.8-0.9c1.7,0,3.3,0,5,0
		c0.5,0,0.7,0.2,0.7,0.9c0,2,0,4.1-0.1,6.1c0,2,0,3.9,0,5.9c0,0.4,0.1,0.9,0.4,1c0.5,0.2,0.6-0.4,0.8-0.7c1-2.2,2.5-4.2,4.3-5.9
		c1.3-1.2,2.8-2.3,4.2-3.2c1.1-0.7,2.4-1.2,3.6-1.8c0.6-0.3,0.9-0.1,0.9,0.6c0,1.6,0,3.1,0,4.7c0,0.6-0.3,0.9-0.8,1.2
		c-1.6,0.9-3.1,1.9-4.3,3.3c-1.6,1.8-2.9,3.8-3.7,6.2c-0.9,3-0.9,6-0.2,9c0.5,2,1.4,3.8,2.6,5.4c1.5,2,3.3,3.7,5.5,4.8
		c0.6,0.3,0.8,0.7,0.8,1.3c0,1.5,0,2.9,0,4.4c0,0.9-0.3,1.1-1.1,0.7c-1.4-0.7-2.8-1.3-4-2.1c-1.7-1.1-3.3-2.3-4.6-3.9
		c-0.9-1.1-1.7-2.3-2.6-3.4c-0.4-0.6-0.6-1.2-1-1.8c-0.1-0.2-0.4-0.3-0.5-0.3c-0.1,0-0.3,0.3-0.3,0.5c-0.1,0.3,0,0.6,0,0.8
		c0,2.7,0,5.4,0,8.1c0,0.8,0,1.5,0.1,2.3c0,0.6-0.2,0.8-0.8,0.8c-1.5,0-3.1,0-4.6,0c-0.8,0-1.1-0.2-1.1-1c0-3,0-6,0-9
		C76.7,79.8,76.7,75.8,76.8,71.8C76.7,71.8,76.7,71.8,76.8,71.8z"/>
</g>
</svg>
