<?xml version="1.0" encoding="utf-8"?>
<!-- Generator: Adobe Illustrator 25.0.0, SVG Export Plug-In . SVG Version: 6.00 Build 0)  -->
<svg version="1.1" id="Capa_1" xmlns="http://www.w3.org/2000/svg" xmlns:xlink="http://www.w3.org/1999/xlink" x="0px" y="0px"
	 viewBox="0 0 200 200" style="enable-background:new 0 0 200 200;" xml:space="preserve">
<style type="text/css">
	.st0{fill:#114573;}
	.st1{fill:#16486F;}
	.st2{fill:#1A86AA;}
	.st3{fill:#14487B;}
	.st4{fill:#114367;}
	.st5{fill:#17456D;}
	.st6{fill:#18466C;}
	.st7{fill:#1B4871;}
	.st8{fill:#2486A8;}
	.st9{fill:#15466E;}
	.st10{fill:#17476D;}
	.st11{fill:#194770;}
	.st12{fill:#082942;}
	.st13{fill:#2386A7;}
	.st14{fill:#1A6A77;}
	.st15{fill:#004B90;}
	.st16{fill:#014B8F;}
	.st17{fill:#1B87A6;}
	.st18{fill:#337F8F;}
	.st19{fill:#1B809C;}
	.st20{fill:#008CCB;}
	.st21{fill:#147B9D;}
	.st22{fill:#06498A;}
	.st23{fill:#034A8D;}
</style>
<g>
	<path class="st0" d="M108.5,119.9c-4.2,1.9-8.7,3-13.4,3.4c-3,0.3-6,0.1-9,0.2c-6.4,0-13,0-19.4,0c-0.6,0-0.9-0.1-0.9-0.8
		c0-3.7,0.1-7.4,0-11.1c0-0.8,0.3-0.9,1-0.9c8.2,0,16.5,0.1,24.7,0c9-0.1,16.6-3.4,22.7-10.1c0.1-0.1,0.2-0.2,0.3-0.3
		c0.3,0,0.7-0.3,0.7,0.4c-0.9,1.1-1.7,2.4-2.9,3.3c-1.2,0.8-2.5,1.7-3.7,2.8c-1.4,1.3-3.1,1.9-4.9,2.6c-1.6,0.6-3.1,1.3-4.8,1.6
		c-1.7,0.3-3.3,0.7-5.1,0.7c-8.4,0-16.9,0-25.2,0c-0.4,0-0.7,0-1,0c-0.6,0-0.8,0.3-0.8,0.9c0,3,0,6.1,0,9.1c0,0.6,0.4,1,1,1
		c0.4,0,0.7,0,1.1,0c8.3,0,16.6,0,24.9,0c2.8,0,5.4-0.8,8.1-1.4c2.2-0.5,4.2-1.4,6.3-2.1c0.3-0.1,0.6-0.2,0.8-0.1
		c0.4,0.1,0.5,0.4,0.2,0.6C109,119.6,108.7,119.7,108.5,119.9z"/>
	<path class="st1" d="M81.7,34.3c2.8-2.4,5.8-4.2,9.1-5.7c5.9-2.7,12-4,18.4-3.9c8,0,16.1,0,24.1,0c0.9,0,1.1,0.3,1.1,1.1
		c-0.1,3.5-0.1,7,0,10.6c0,1-0.2,1.3-1.2,1.3c-8.3-0.1-16.6,0-24.9,0c-0.6,0-1.2,0-1.7,0c-0.5-0.3-1.1,0.3-1.5-0.3
		c0.6-0.8,1.4-0.7,2.2-0.6c7.6,0.2,15.3,0,22.9,0.1c0.3,0,0.6,0,0.9,0c2.1,0,2.4-0.3,2.4-2.4c0-2.5,0-5,0-7.5c0-1.1-0.1-1.2-1.2-1.2
		c-8.7,0-17.5,0-26.2,0c-1.4,0-2.9,0.4-4.2,0.6c-0.1,0-0.3,0.1-0.4,0.1c-1.8-0.1-3.6,0.6-5.2,1.3c-3.7,1.3-7.4,2.5-10.6,4.8
		c-0.8,0.6-1.7,1.2-2.5,1.8c-0.3,0.3-0.6,0.6-1.1,0.6C81.8,34.8,81.5,34.7,81.7,34.3z"/>
	<path class="st2" d="M84,67.6c0.7,0.2,1-0.1,1-0.9c0.5-11.2,8.7-20.4,19.7-22.4c1.7-0.3,3.2-0.4,4.9-0.4c5.8,0,11.6,0,17.4,0.1
		c0.5,0,1-0.1,0.9,0.6c-0.1,4,0.1,7.9-0.1,11.8c-0.3,0.1-0.5-0.1-0.6-0.3c-0.2-0.5-0.1-0.9-0.1-1.5c0-2.8,0-5.4,0-8.2
		c0-1-0.2-1.1-1.2-1.3c-4.6-0.6-9.2-0.5-13.9-0.4c-3.1,0.1-6.4,0.1-9.4,0.8c-2.9,0.6-5.4,1.8-7.6,3.9c-0.6,0.5-1.2,0.7-1.7,1.3
		c-2.2,2.2-4.2,4.6-5.4,7.6c-1.1,2.8-2,5.5-2,8.6c0,0.7-0.1,1.6-0.9,1.9c-0.4-0.6-1-0.8-1.7-0.7c-1.2,0-2.4,0-3.6,0
		c-0.4,0-0.7,0-1.1-0.2c-0.1-0.1-0.1-0.2,0-0.3C80.4,67.6,82.3,67.6,84,67.6z"/>
	<path class="st3" d="M84.9,80.6c-0.5,0-0.8,0-1.3,0.1c-5.4,0-11,0-16.4,0c-0.4,0-0.7,0-1.1,0c-0.2-0.4-0.1-0.7-0.1-1.1
		c0-4.2,0-8.5,0-12.8c0-0.4,0.1-0.7-0.1-1.1c0.2-4.8,1.2-9.4,3-13.8c0.7-1.2,1.3-2.5,1.9-3.7c0.2-0.4,0.3-0.8,0.8-0.4
		c0.2,0.5,0.1,0.8-0.1,1.2c-0.6,1.1-1.1,2.4-1.7,3.6c-0.7,1.4-1.2,2.8-1.4,4.3c-0.2,1.4-0.6,2.7-1,4.1c-0.4,1.5-0.7,2.9-0.6,4.4
		c0,4.3,0,8.6,0,12.9c0,1.6,0.2,1.7,1.7,1.7c4.6,0,9.2,0,13.8,0c0.8,0,1.7-0.6,2.5-0.1c0.1,0.1,0.2,0.2,0.3,0.2
		C85.2,80.2,85.1,80.4,84.9,80.6z"/>
	<path class="st4" d="M134.4,67.8c0.2,0.9,0.1,1.9,0.1,2.9c0,3.6,0,7.1,0,10.7c0,2.3-0.2,4.6-0.8,6.8c-0.1,0.2,0,0.4,0,0.6
		c-0.2,0.6-0.3,1.3-0.4,1.9l0,0c-0.6-0.1-0.5-0.6-0.5-1c0-0.1,0-0.3,0.1-0.4c0.3-0.7,0.4-1.5,0.3-2.2c0.6-2.9,0.2-5.8,0.5-8.7
		c0.2-1.8,0.4-3.7,0.4-5.6c0-1.2-0.5-2.3-0.5-3.5c0-0.6-0.6-0.6-1-0.6c-2.1,0-4.1,0-6.3,0c-1,0-2,0-3,0c-0.6,0-1.1-0.1-1.5-0.7
		c0-0.2,0-0.3,0.1-0.4c4.1,0,8.1,0,12.1,0C134.1,67.7,134.3,67.7,134.4,67.8z"/>
	<path class="st5" d="M105.2,37.4c0.5,0.1,1-0.2,1.5,0.2c-6.1,0.6-11.6,2.6-16.5,6.4c-1.7,1.3-3.2,2.9-4.6,4.5
		c-0.3,0.3-0.6,0.6-0.8,0.9c-0.2,0.1-0.5,0.5-0.6-0.1c0.2-1.2,1-2,1.8-2.9c1.9-1.9,4.1-3.7,6.4-5.2c1.5-1,3.1-1.7,4.8-2.3
		c1.6-0.6,3.1-1.3,4.9-1.7C103.1,37.1,104.1,36.9,105.2,37.4z"/>
	<path class="st6" d="M108.5,119.9c-0.1-0.2-0.2-0.4,0.2-0.5c0.3,0,0.6-0.1,0.6-0.5c0-0.3,0.1-0.5,0.4-0.6c1.6-0.5,2.7-1.7,4.1-2.4
		c1-0.5,1.7-1.3,2.5-1.8c2.7-1.7,4.9-4,7-6.3c0.8-0.9,1.6-2,2.3-3c0.4-0.5,0.6-0.9,1.4-0.6l0.1,0.1c-1.6,2.6-3.5,4.8-5.7,6.9
		c-3.5,3.5-7.6,6.2-12.1,8.3C109.2,119.7,108.8,119.8,108.5,119.9z"/>
	<path class="st7" d="M71.5,47.5c-0.5,0.6-0.8,1.4-1.3,2c-0.4,0.6-0.6,1.4-1,2c0,0.1-0.2,0-0.3,0.1c0.8-2.5,2.1-4.7,3.5-6.9
		c2.5-3.9,5.5-7.3,9-10.2c0.1-0.1,0.2-0.1,0.3-0.1c0,0.2,0.1,0.3,0.2,0.4c0.1,0.5-0.2,0.7-0.6,0.9c-1.8,1.2-3,2.9-4.5,4.5
		c-1.9,2-3.3,4.5-4.9,6.8C71.9,47.1,71.8,47.4,71.5,47.5z"/>
	<path class="st8" d="M134.4,67.8c-4.2,0-8.5,0-12.7,0.1c-0.5,0.4-0.9,0.3-1.4,0.3c-7.3,0-14.6,0-21.8,0c-1.1-0.2-1.5-0.6-1.3-1.6
		c0.3-2,0.9-3.9,2.2-5.5c0.2-0.3,0.5-0.4,0.8-0.2l0.1,0.1c-1.2,1.7-2.1,3.7-2.3,5.8c-0.1,0.6,0.2,0.9,0.8,0.9c7.6,0,15.1,0,22.6,0
		c0.1,0,0.1,0,0.2,0c3.9,0,7.8,0,11.7,0.1C133.8,67.6,134.1,67.4,134.4,67.8z"/>
	<path class="st9" d="M121.3,84c0.3-0.3,0.1-0.6,0.2-0.9c0.2-0.8,0-1.7,0.1-2.5c0.6-0.3,0.6,0.2,0.7,0.6c0.1,0.4,0.1,0.8,0,1.3
		c-0.2,1.9-0.3,4-0.7,5.8c-0.6,2.2-1.6,4.2-2.5,6.4c-0.4,0.8-0.6,1.7-1.2,2.5c-0.2,0.3-0.4,0.6-0.7,0.8c-0.3,0.1-0.6,0.1-0.8,0
		l-0.1-0.1c2.5-3.7,4.2-7.6,4.9-12.1C121.3,85.1,121.3,84.5,121.3,84z"/>
	<path class="st10" d="M84.2,49.3c0.2,0.2,0.4,0,0.5,0c-1.6,2.3-3,4.6-4.1,7.3c-1.4,3.5-2,7.2-2.1,11h-0.1h-0.1
		c-0.8,0.1-0.6-0.6-0.6-1c-0.2-2.4,0.3-4.8,1-7.1c0.6-2.3,1.6-4.5,2.8-6.6c0.6-1,1.2-2,1.7-3C83.7,49.4,83.8,49.2,84.2,49.3z"/>
	<path class="st11" d="M133,89.5c0.1,0.4-0.1,0.7,0.2,1.1c-0.6,3.1-1.7,6-3.1,8.8c-0.8,1.7-1.7,3.5-2.9,5l0,0
		c-0.4-0.6-0.3-1.2,0.1-1.7c0.9-1.4,1.7-2.9,2.4-4.2c1-1.8,1.6-3.9,2.2-5.9c0.3-0.8,0.6-1.6,0.5-2.5C132.4,89.9,132.5,89.3,133,89.5
		z"/>
	<path class="st12" d="M65.9,65.5c0.3,0.4,0.2,0.7,0.2,1.1c0,4.6,0,9.3,0,13.9c-0.3,0-0.2-0.2-0.2-0.4
		C65.8,75.2,65.9,70.3,65.9,65.5z"/>
	<path class="st9" d="M115.1,100.2c-0.2-0.1-0.5,0.3-0.6-0.1c0.6-0.8,1.3-1.7,1.9-2.5l0,0c0.2,0.2,0.2,0.5,0.1,0.7
		C116,99.1,115.8,99.9,115.1,100.2z"/>
	<path class="st11" d="M133.3,90.6c-0.1-0.6,0.1-1.3,0.4-1.9C133.7,89.4,133.5,89.9,133.3,90.6z"/>
	<path class="st13" d="M107.3,56.9c-2.8,0.6-5.1,1.8-6.9,4l0,0c-0.4-1.1,0.5-1.9,1.1-2.3c1.6-1.1,3.3-2.1,5.3-2
		c0.2,0,0.4,0.1,0.5,0.2C107.4,56.7,107.4,56.8,107.3,56.9z"/>
	<path class="st14" d="M107.3,56.9c0-0.1,0-0.2,0-0.3c0.5-0.5,1-0.3,1.5-0.3c5.7,0,11.3,0,17,0c0.6,0,1,0,1.6-0.1c0.1,0,0.1,0,0.2,0
		c0.1,0.1,0.3,0.1,0.4,0.2c-0.2,0.7-0.8,0.5-1.2,0.5c-5.7,0-11.4,0-17.1,0C108.9,56.9,108.1,56.9,107.3,56.9z"/>
	<path class="st15" d="M115.1,100.2c0.5-0.6,0.6-1.3,1.3-1.7c0.3-0.3,0.6-0.6,0.8-0.8c0.6-0.5,0.8-1.3,1.2-1.9
		c1-2.2,1.9-4.5,2.9-6.7c0.4-0.8,0.6-1.7,0.6-2.7c-0.2-1.7,0.7-3.2,0.5-5c-0.1-0.4,0.2-0.8-0.4-0.9c-0.3-0.2-0.3-0.6-0.4-0.8
		c0-0.3,0-0.6,0-0.8c0-3.2,0-6.4,0-9.6c0-0.5-0.1-1,0.3-1.4c0.6,0.4,1.1,0.5,1.7,0.5c3.1,0,6.3,0,9.4,0c0.7,0,0.9,0.3,1,1
		c0.5,2.3,0.6,4.6,0.3,6.9c-0.5,2.9-0.2,5.9-0.4,8.8c0,0.7-0.6,1.3-0.4,2.1c-0.4,0.6-0.1,1.4-0.5,2.1c0,0.1,0,0.1,0,0.2
		c-0.3,0.1-0.5,0.2-0.4,0.6c0.1,2-0.8,3.8-1.5,5.6c-0.6,1.7-1.6,3.4-2.4,5.1c-0.6,1.1-1.9,2-1.7,3.6c-0.6,0-0.9,0.4-1.3,0.8
		c-0.9,1-1.5,2.3-2.5,3.3c-0.7,0.7-1.5,1.5-2.1,2.3c-0.8,0.9-1.7,1.7-2.8,2.3c-0.9,0.5-1.6,1.1-2.3,1.7c-1.1,0.8-2.1,1.5-3.3,2.1
		c-0.7,0.5-1.5,1.1-2.3,1.5c-0.4,0.2-0.9,0.2-1.2,0.6c-1.2,0-2.1,0.8-3.2,1c-1.1,0.2-1.9,1-3.2,1.1s-2.7,0.6-4,1
		c-0.1,0-0.3,0.2-0.4,0.2c-1.4-0.2-2.7,0.5-4,0.5c-8.8,0-17.7,0-26.6,0c-1.5,0-1.6-0.1-1.6-1.6c0-2.9,0-5.9,0-8.7
		c0-1,0.2-1.4,1.3-1.4c8.8,0.1,17.7,0.1,26.5,0c2.7,0,5.3-0.7,7.9-1.7c1.7-0.6,3.2-1.6,4.9-2.1c0.3-0.1,0.6-0.4,0.8-0.6
		c1.7-1.6,3.8-2.7,5.3-4.3C113.9,101.7,114.6,101.1,115.1,100.2z"/>
	<path class="st16" d="M84.2,49.3c-0.2,0.1-0.5,0.2-0.6,0.4c-0.6,1.5-1.5,2.9-2.3,4.2c-0.8,1.3-0.8,2.9-1.8,4
		c-0.4,0.4-0.2,1.1-0.4,1.7c-0.7,2.4-1.2,4.9-1,7.4c0,0.3,0,0.6,0.4,0.6c0.6,0.4,1.2,0.2,1.8,0.2c1.2,0,2.4,0.1,3.6,0
		c0.8,0,1.2,0.2,1.1,1c0.3,0.5,0.3,1.1,0.3,1.7c0,2.8,0,5.4,0,8.2c0,0.6,0.1,1.1-0.5,1.5c-0.5-0.1-0.8-0.6-1.4,0
		c-0.1,0.2-0.6,0.1-0.8,0.1c-4.9,0-9.9,0-14.7,0c-1.3,0-1.6-0.3-1.6-1.5c0-4.1,0.1-8.2,0-12.3c0-2.4,0.6-4.7,1-7
		c0.3-1.2,0.6-2.3,0.7-3.5c0.1-1.3,0.7-2.5,1.3-3.7c0.7-1.5,1.8-2.9,1.9-4.6c0.5-1.4,1.5-2.5,2.3-3.7c1-1.6,2-3.2,3.5-4.4
		c1.1-0.9,1.8-2.3,3-3.1c0.6-0.5,1.4-0.7,1.7-1.5c1-0.4,1.7-1.1,2.5-1.7c1.4-1.1,2.8-2,4.3-2.8c1.6-0.7,3.1-1.8,5.1-1.8
		c0.2,0,0.4-0.1,0.6-0.2c2-1.1,4.2-1.7,6.5-2c1.3-0.2,2.7-0.1,3.9-0.6c0.3-0.1,0.6-0.1,0.9-0.1c9,0,18,0,27,0c0.9,0,1.1,0.3,1.1,1.1
		c-0.1,2.9,0,5.8,0,8.7c0,1.4-0.4,1.7-1.7,1.9c-0.2,0-0.5,0-0.6,0c-7.6,0-15.3,0-22.9,0c-0.8,0-1.6-0.2-2.4,0
		c-0.4,0.1-0.7,0.1-1,0.5c-2.5-0.2-4.7,0.6-7,1.5c-1.7,0.6-3.1,1.4-4.7,2.1c-1.4,0.6-2.4,1.7-3.7,2.6C88.2,44.8,87.2,46,86,47
		C85.3,47.4,84.6,48.3,84.2,49.3z"/>
	<path class="st17" d="M98.3,80.6c-0.1,0.2-0.2,0.3-0.3,0.5c-0.1,7.2,0,14.3,0,21.5c0,1.7-0.1,1.7-1.7,1.7c-3.2,0-6.4,0-9.8,0
		c-0.4,0-0.9,0.3-0.8-0.5c0.5-0.5,1-0.4,1.5-0.4c2.7,0,5.4,0,8.1,0c1.7,0,1.8-0.2,1.8-1.7c0-6.4,0-12.9,0-19.3
		c0-0.6-0.1-1.4,0.6-1.9c0.2-0.1,0.3-0.2,0.5-0.2C98.4,80.1,98.4,80.3,98.3,80.6z"/>
	<path class="st18" d="M85.7,103.6c0.1,0.6,0.6,0.4,1,0.5c3.2,0,6.4,0,9.6,0c1.3,0,1.6-0.3,1.6-1.5c0-6.8,0-13.5,0-20.4
		c0-0.4-0.1-0.7,0.1-1.1c0,3.4,0,6.8,0.1,10.2c0,3.9,0,7.7,0,11.6c0,1.1-0.4,1.4-1.4,1.3c-3.5-0.1-7,0-10.5,0
		c-0.9,0-1.2-0.2-1.2-1.2c0-7.1,0-14.3,0-21.4c0-0.4,0.2-0.8-0.2-1.2c0.1-0.1,0.2-0.3,0.2-0.4c0.6,0.2,0.6,0.7,0.6,1.2
		c0.1,1.6,0,3.2,0,4.8c0,5,0,9.9,0,14.9C85.6,101.9,85.9,102.7,85.7,103.6z"/>
	<path class="st19" d="M98.3,80.6c0-0.1,0-0.3,0-0.4c0.5-0.5,1.1-0.4,1.7-0.4c6.3,0,12.5,0,18.8,0c1,0,1.9-0.1,2.9-0.1
		c0,0.3,0,0.6,0.1,0.8c-0.1,0.8,0.1,1.7-0.2,2.5c0-0.1,0-0.2,0-0.3c0.1-2.1,0.1-2.1-2.1-2.1C112.4,80.6,105.3,80.6,98.3,80.6z"/>
	<path class="st20" d="M121.7,79.7c-0.4,0.5-0.8,0.4-1.3,0.4c-7.4,0-14.7,0-22.1,0c-0.7,0.2-0.8,0.7-0.8,1.5c0,6.7,0,13.5,0,20.3
		c0,1.6-0.2,1.7-1.7,1.7c-3.3,0-6.7,0-10,0c-0.4-0.6-0.5-1.1-0.5-1.7c0-6.8,0-13.6,0-20.4c0-0.5,0.2-0.9-0.2-1.3c-0.1,0-0.1,0-0.2,0
		c0.1-0.3,0.2-0.5,0.2-0.7C85,76,85.3,72.5,85,69c0-0.1,0.1-0.2,0.2-0.3c0.6-0.8,0.6-1.7,0.6-2.8c-0.1-1.8,0.7-3.6,1.1-5.3
		c0.5-2.2,1.6-4.1,2.9-6c1.3-1.8,2.7-3.6,4.6-5c1.4-0.9,2.6-2.2,4.1-2.9c1.6-0.6,3.1-1.4,4.9-1.7c6.6-1,13.3-0.8,19.9-0.7
		c1.2,0,2.4,0.3,3.6,0.4c0.7,0,0.7,0.6,0.7,1.1c0,3.4,0,6.7,0,10.1l0,0c-0.4,0.3-0.8,0.2-1.3,0.2c-6.1,0-12.1,0-18.1,0
		c-0.5,0-0.9-0.1-1.3,0.2c-2,0-3.6,1-5.2,1.9c-0.6,0.4-1.2,1.2-1.4,2.2c-0.8-0.2-0.8,0.6-1.2,1.1c-1,1.3-1.3,2.9-1.7,4.5
		c-0.2,0.7,0.1,1.3,0.8,1.6c0.9,0.3,1.8-0.1,2.8-0.1c6.3,0,12.4,0,18.7,0c1.6,0,1.8,0.4,1.8,1.9c0,2.8,0,5.5,0,8.3
		c0,0.4-0.1,0.7,0.1,1C121.7,79.3,121.7,79.5,121.7,79.7z"/>
	<path class="st21" d="M121.7,79.1c-0.4-0.3-0.2-0.7-0.2-1.1c0-2.7,0-5.4,0-8.1c0-1.4-0.5-1.8-1.8-1.8c-6.2,0-12.2,0-18.4,0
		c-0.4,0-0.7,0-1.2,0.3c-0.6,0.3-1.3,0.4-1.7-0.3c0.2-0.3,0.5-0.2,0.7-0.2c7.6,0,15.1,0,22.7,0c0,0.1,0,0.1,0,0.2
		C121.7,71.7,121.7,75.4,121.7,79.1z"/>
	<path class="st11" d="M133,89.3c0.2-0.6-0.5-1.6,0.5-2.1C133.5,87.9,133.5,88.7,133,89.3z"/>
	<g>
		<path class="st22" d="M122.6,163.2c-3,0-6.1,0-9.1,0.1c-1.7,0.1-2.9,0.8-3.8,2.3c-1.7,3.3-0.1,6.3,3.6,6.3c1.2,0,2.4,0,3.7,0
			c0.6,0,1.3,0,1.8,0.1c0.6,0.1,1.2,0.4,1.2,1.1s-0.4,1.2-1.2,1.4c-0.2,0-0.4,0.1-0.6,0.2c-1.7,0-3.4,0-5.2,0
			c-1.4,0-2.9-0.2-4.2,0.1l0,0l0,0c-0.2,0.6-0.3,1-0.2,1.6c-0.2,0.6-0.7,1.3,0.4,1.3c3.2,0,6.4,0.2,9.8-0.1l0,0l0,0
			c0.6,0.1,1.1-0.2,1.6-0.5c2.4-1,3.2-5.2,1.5-7.1c-0.9-1-2.1-1.1-3.3-1.1c-1.7,0-3.3,0-5-0.1c-0.6,0-1.1-0.3-1.2-0.9
			c-0.1-0.7,0.4-1.2,1-1.4c0.5-0.1,1-0.1,1.5-0.1c1.8,0,3.8,0,5.6,0c2.6,0,2.6,0,2.6-2.6v-0.1C123.2,163.3,123,163.2,122.6,163.2z"
			/>
		<path class="st22" d="M185.4,163.1c-3.2,0-6.4,0-9.6,0c-2.2,0-2.2,0-2.5,2.1c0,0.2,0,0.5-0.1,0.6c-0.1,0.6,0,0.8,0.6,0.8
			c1,0,2.1,0,3.1,0c0.6,0,0.7,0.2,0.6,0.8c-0.2,1.5-0.3,2.9-0.5,4.4c-0.2,1.4-0.4,2.8-0.5,4.1c-0.2,1.6-0.2,1.6,1.5,1.6
			c0.5,0,1,0,1.5,0c0.5,0.1,0.6-0.1,0.7-0.6c0.3-2.9,0.6-5.8,0.8-8.7l0,0l0,0c0.4-1.7,0.4-1.7,2.2-1.7c0.1,0,0.2,0,0.2,0
			c2.5,0,2.5,0,2.7-2.5C186.3,163.3,186.2,163.1,185.4,163.1z"/>
		<path class="st22" d="M138.9,163.2c-3.1,0-6.3,0-9.4,0c-1.2,0-2.2,0.5-3,1.4c-1.5,1.7-1.9,3.8-2,6c-0.2,1.3-0.2,2.6,0.2,3.9l0,0
			c0,0.3,0,0.5,0.2,0.6l0,0c0.5,1.7,1.5,2.5,3.1,2.5c2.7,0,5.4,0,8.1,0c2.4,0,2.3,0,2.4-2.4c0-0.6-0.2-0.7-0.7-0.7
			c-2.7,0-5.2,0-7.9,0c-0.5,0-0.9-0.1-1.4-0.3c-0.5-0.6-0.6-1.3-0.6-2c0-1.3,0.1-2.7,0.5-3.9c0.5-1.6,1.1-2.1,2.8-2.1
			c2.1,0,4.2,0,6.4,0s2,0,2.3-2C139.7,163.3,139.6,163.1,138.9,163.2z"/>
		<path class="st22" d="M90,163.1c-3,0-6,0-9,0c-1.8,0-3.2,0.8-4.1,2.4c-1.6,2.9-1.7,6.1-1.2,9.2c0.3,1.5,1.2,2.6,2.9,2.7
			c0,0,0.1,0,0.1-0.1c0,0-0.1,0-0.1,0.1c3.4,0,6.9,0,10.3,0.1c0.3,0,0.6,0,0.5-0.5l0,0l0,0c0.1-0.6,0.1-1.1,0.2-1.7
			c0.2-0.7,0-1.1-0.9-1.1c-2.7,0.1-5.2,0-7.9,0c-0.9,0-1.7-0.4-1.7-1.4c-0.3-2.3-0.1-4.6,1.3-6.5c0.6-0.3,1.3-0.5,2-0.4
			c2.1,0,4.1,0,6.3,0s2.1,0,2.2-2.1C90.8,163.3,90.7,163.1,90,163.1z"/>
		<path class="st22" d="M190,163.2c-0.3,0-0.6,0-0.8,0c-0.5,0-0.6,0.2-0.6,0.6c-0.4,4.1-0.8,8-1.3,12.1c-0.2,1.7-0.2,1.7,1.6,1.7
			c0.3,0,0.6,0,0.8,0c0.8,0.1,1.2,0,1.3-1c0.3-3.7,0.7-7.4,1.1-11.1C192.2,163.2,192.3,163.2,190,163.2z"/>
		<path class="st22" d="M73,164.2L73,164.2c-0.6-0.8-1.6-1-2.5-1.1c-3.2,0-6.5,0-9.8,0c-0.5,0-0.7,0.2-0.7,0.6
			c-0.1,1.2-0.2,2.4-0.3,3.6l0,0l0,0c-0.1,0.3-0.2,0.6-0.2,0.9c-0.2,2.2-0.5,4.5-0.6,6.7c-0.3,2.7-0.3,2.7,2.4,2.6
			c0.6,0,0.7-0.2,0.8-0.7c0.3-3,0.6-6.1,0.9-9.1c0.1-0.6,0.1-1.2,0.9-1.1l0,0c1.7,0,3.3,0,5,0.1c1.4,0,1.7,0.5,1.7,1.8
			c-0.3,2.5-0.6,5.1-0.8,7.6c-0.2,1.6-0.2,1.6,1.4,1.6c1.7,0,1.7,0,1.9-1.7c0.3-3.1,0.7-6.2,0.8-9.4C73.8,165.6,73.7,164.8,73,164.2
			z"/>
		<path class="st22" d="M170.6,163.1c-3.9,0-7.7,0-11.6,0c-0.4,0-0.6,0.1-0.6,0.5c-0.1,0.8-0.2,1.6-0.3,2.4
			c-0.1,0.5,0.1,0.6,0.6,0.6c0.9,0,1.9,0.1,2.9,0c0.9-0.1,1.2,0.2,1.1,1.1c-0.4,3-0.6,6.2-1,9.2c-0.1,0.6,0,0.8,0.6,0.7
			c0.8-0.1,1.7,0,2.5,0c0.4,0,0.6-0.1,0.6-0.5c0.3-3.4,0.6-6.8,0.9-10.2c0-0.1,0.1-0.2,0.1-0.2c1.3,0,2.6,0,3.9,0
			c0.4,0,0.7,0.1,0.7-0.5c0-0.8,0.1-1.6,0.2-2.4C171.2,163.3,171,163.1,170.6,163.1z M162.9,177.2c-0.1,0-0.1-0.1-0.2-0.1
			C162.9,177.1,162.9,177.1,162.9,177.2C163.1,177,163,177.1,162.9,177.2z"/>
		<path class="st22" d="M153.6,163.2c-0.2,0-0.3,0-0.5,0c-0.3,0-0.4,0.2-0.5,0.5c-0.3,3.3-0.7,6.6-0.9,9.9l0,0l0,0
			c-0.2,0.5-0.5,0.5-0.9,0.5c-1,0-2.1,0-3.1,0c-1.1,0-2.2,0.2-3.2-0.3c-0.6-0.6-0.3-1.3-0.3-2c0.2-1.9,0.4-3.9,0.5-5.7
			c0.2-0.1,0.2-0.4,0.2-0.6c0.2-2.3,0.2-2.3-2.1-2.3c-0.6,0-0.9,0.2-0.9,0.8c-0.2,2.4-0.6,4.7-0.7,7.1c-0.1,1.3-0.4,2.6-0.1,4
			c0.4,1.6,1.3,2.5,2.9,2.5c3.4,0,6.9,0,10.3,0c0.6,0,0.4-0.5,0.5-0.7c0.4-3.7,0.7-7.4,1.1-11.1
			C156.2,163.1,156.2,163.1,153.6,163.2z"/>
		<path class="st22" d="M106.8,163.2c-3,0-6.1,0-9.1,0c-0.7,0-1.5,0.1-2.1,0.6l0,0l0,0c-0.1,0-0.2,0-0.2,0.1c-1.1,0.4-1.7,1.3-2,2.2
			c-1.2,2.7-1.5,5.5-0.9,8.4c0.4,2.1,1.6,3,3.7,3c2.6,0,5.1,0,7.6,0c2.4,0,2.4,0,2.7-2.3c0.1-0.8-0.2-0.8-0.8-0.8
			c-2.6,0-5.2,0-7.8,0c-0.5,0-0.9,0.1-1.3-0.3c-0.1-0.2-0.3-0.4-0.4-0.5c-0.1-0.6-0.1-1.1-0.2-1.6c0.2-0.6,0.6-0.5,1-0.5
			c2.7,0,5.3,0,7.9,0c1.9,0,1.9,0,2.1-1.9c0.1-0.8-0.1-1-0.9-1c-2.9,0-5.9,0-8.9,0c-0.7,0-1-0.2-0.9-0.9c0.3-0.6,0.6-1.1,0.9-1.6
			c2.7-0.4,5.4-0.2,8.1-0.2c2,0,2,0,2.3-2C107.5,163.4,107.4,163.2,106.8,163.2z M106.9,163.5C106.9,163.5,106.8,163.5,106.9,163.5
			C106.8,163.4,106.9,163.4,106.9,163.5C106.9,163.4,106.9,163.5,106.9,163.5z"/>
	</g>
	<path class="st0" d="M117.1,97.7c-0.1,0.5-0.2,0.9-0.8,0.8c0-0.3,0-0.6,0-0.8C116.6,97.7,116.8,97.7,117.1,97.7z"/>
	<g>
		<path class="st23" d="M94,138c-0.6,0-0.7,0.2-0.8,0.7c-0.3,3.4-0.6,6.8-0.9,10.2c-2.1,0.2-4.2,0.1-6.4,0.1c-0.9,0-1.3-0.6-1.2-1.6
			c0.3-2.9,0.6-5.7,0.8-8.6c0-0.3,0.3-0.8-0.3-0.8c-0.8-0.1-1.7,0-2.6,0c-0.4,0-0.4,0.4-0.4,0.6c-0.3,3-0.6,6-0.8,9l0,0l0,0
			c0,0.6-0.1,1.1,0,1.7c0.2,2,1.4,3.1,3.3,3.1c3.2,0,6.4,0,9.7,0.1c0.7,0,0.9-0.3,1-0.9c0.4-3.7,0.7-7.5,1.1-11.1
			C96.6,137.9,96.6,137.9,94,138z M81.9,149.6L81.9,149.6L81.9,149.6L81.9,149.6L81.9,149.6L81.9,149.6z"/>
		<path class="st23" d="M79.4,138c-2.9,0-5.8,0-8.7,0.1c-1.7,0.1-3.2,0.6-4.1,2.2c-1.8,3.4-0.3,6.4,3.6,6.4c1.6,0,3.1,0,4.7,0
			c0.7,0,1.5,0.1,2,0.6c0,0.4,0,0.7,0,1c-0.5,0.7-1.1,0.9-1.8,0.9c-2.4,0-4.8,0-7.2,0c-2.6,0-2.6,0-2.5,2.6v0.1
			c-0.1,0.4,0.1,0.5,0.5,0.5c3.2,0,6.4,0,9.8-0.1c1.9-0.1,3.3-1.1,3.9-2.9c0.5-1.6,0.6-3.1-0.6-4.5c-0.9-1.1-2.3-1.2-3.6-1.3
			c-1.7-0.1-3.4,0.1-5.2-0.1c-0.5-0.1-0.9-0.2-1-0.8c-0.1-0.6,0.2-1,0.6-1.3c0.2-0.1,0.5-0.2,0.6-0.3c2.3,0,4.5,0,6.8,0
			c2.5,0,2.5,0,2.8-2.4v-0.1C80.2,138.2,79.9,138,79.4,138z"/>
		<path class="st23" d="M103.1,138.1c-3.2,0.1-5,2-4.9,5.2c0,2,1.2,3.2,3.2,3.4s4,0,6,0.1c1.5,0.1,1.8,0.4,1.8,1.7l0,0l0,0
			c-0.5,0.7-1.2,0.9-1.9,0.9c-3.1,0-6.3,0-9.3,0c-0.1,0.8-0.2,1.7-0.3,2.5c-0.1,0.4,0,0.6,0.6,0.6c3.1,0,6.4,0,9.5-0.1
			c1.7,0,3-0.8,3.8-2.5c1.3-2.8,0.5-6.3-3.5-6.4c-1.8,0-3.8,0-5.6,0l0,0l0,0c-0.5-0.3-1-0.5-0.9-1.2c0.1-0.6,0.4-0.9,0.8-1.1
			c0.4-0.2,0.6-0.2,1-0.2c2.3,0,4.6,0,6.9,0c1.8,0,1.8,0,2-1.8c0.1-0.4,0.1-0.8,0.2-1.2C109.3,138.1,106.1,138,103.1,138.1z"/>
		<path class="st23" d="M116.1,138c-1.2-0.1-1.4,0.4-1.5,1.4c-0.4,3.8-0.7,7.5-1.2,11.2c-0.2,1.9-0.3,1.9,1.7,1.9c0.2,0,0.5,0,0.6,0
			c1,0.2,1.2-0.3,1.3-1.2c0.3-3.7,0.7-7.4,1.1-11C118.4,138.1,118.4,138.2,116.1,138z"/>
		<path class="st23" d="M134,138.9c-0.6-0.6-1.2-0.9-1.9-0.9c-3.5,0-7,0-10.5,0c-0.4,0-0.6,0.1-0.6,0.6c-0.3,3.3-0.6,6.6-0.9,9.9
			c0,0.2,0,0.4,0,0.6c0,0.1,0,0.3-0.1,0.4c-0.2,1-0.5,2-0.1,3l0,0c0.8,0,1.7,0,2.6,0.1c0.4,0,0.6-0.1,0.6-0.6
			c0.3-3.5,0.6-6.9,0.9-10.4c2.3,0,4.6,0,6.9-0.1c0.5,0.5,0.8,0.8,0.7,1.6c-0.3,2.8-0.6,5.5-0.9,8.3c-0.1,0.9,0,1.1,0.9,1.1
			c2.1-0.1,2.2,0,2.4-2.2c0.4-2.9,0.7-5.9,0.7-8.9C134.9,140.6,134.8,139.7,134,138.9z M125.1,141.3L125.1,141.3c-0.1,0-0.2,0-0.3,0
			C124.9,141.3,125,141.3,125.1,141.3z"/>
	</g>
	<path class="st2" d="M106.9,56.7c0.2-0.6,0.7-0.4,1.1-0.4c6.5,0,13.1,0,19.6,0c-0.2,0.7-0.7,0.4-1.1,0.4c-6.4,0-12.8,0-19.2,0
		C107.1,56.7,107,56.7,106.9,56.7z"/>
	<g>
		<path class="st23" d="M22.9,163.1c-2.8,0-5.6,0-8.4,0c-3.5,0-5.2,1.5-5.7,5c-0.3,2.2-0.5,4.5-0.7,6.7c-0.3,2.7-0.3,2.6,2.4,2.7
			c1,0,1.3-0.4,1.3-1.2c0.1-1.6,0.3-3.1,0.5-4.7c3.3,0,6.6,0,9.9,0c0.7,0,1.1-0.2,1-0.9c0-0.3,0.1-0.5,0.1-0.7
			c0.2-1.3,0.2-1.3-1.1-1.3c-3.2,0-6.4,0-9.7,0c0.6-2.6,0.6-2.7,3.2-2.7c2,0,4,0,6,0s2,0,2.2-2C23.9,163.2,23.5,163.1,22.9,163.1z"
			/>
		<path class="st23" d="M36.6,163.2c-3.2-0.1-6.4,0-9.8-0.1c-0.6,0-0.7,0.2-0.7,0.7c-0.5,4.3-0.8,8.7-1.4,13.1
			c-0.1,0.5,0.1,0.6,0.6,0.6c0.8,0,1.7,0,2.6,0c0.5,0,0.6-0.1,0.6-0.6c0.1-1.4,0.3-2.7,0.4-4.1c0.3-0.1,0.6-0.1,0.7-0.2l0,0l0,0
			c1.1,0,2.2,0.1,3.3,0.1c0.6,0,0.7,0.2,0.9,0.6c0.5,1.2,1,2.3,1.5,3.4c0.2,0.4,0.3,0.6,0.8,0.6c1,0,1.9,0,2.9,0
			c0.6,0,0.7-0.2,0.5-0.7c-0.6-1.3-1.1-2.5-1.7-3.8c0-0.4,0.4-0.5,0.6-0.7c1-0.9,1.7-1.9,1.9-3.3C41.1,165.9,39.4,163.3,36.6,163.2z
			 M35.7,169.5c-0.1,0-0.2,0-0.3,0c-0.8,0-1.7,0-2.6,0c-0.8,0-1.7,0-2.6,0c-0.6,0-0.7-0.1-0.6-0.7c0.1-2.7,0.1-2.7,2.9-2.7
			c1.1,0,2.2,0,3.3,0c1,0,1.7,0.6,1.7,1.5C37.3,168.6,36.7,169.4,35.7,169.5z"/>
		<path class="st23" d="M53.5,163.1c-2-0.1-4-0.1-6,0c-1.5,0.1-2.8,0.6-3.6,1.9c-0.5,0.7-0.8,1.5-0.9,2.4c-0.3,2.5-0.5,5-0.7,7.5
			c-0.3,2.9-0.3,2.9,2.6,2.6c0.4,0,0.6-0.2,0.6-0.6c0-1.1,0.4-2.3,0.3-3.4c0.1-0.2,0.1-0.5,0.2-0.6c2.5,0,5,0.1,7.5,0.1
			c0,0.2,0,0.5,0,0.6c-0.3,1.1-0.3,2.3-0.5,3.4c0,0.2-0.1,0.5,0.1,0.5c1,0,1.9,0,2.9,0c0.2,0,0.2-0.3,0.2-0.5
			c0.4-3.3,0.7-6.6,0.9-9.9C57.3,164.6,55.9,163.2,53.5,163.1z M53.6,170c-2.4,0.2-4.7,0.2-7.1,0c-0.7-0.4-0.2-1-0.2-1.5
			c0.1-2.3,0.6-2.6,2.8-2.6c1,0,2.1,0,3.1,0c1.2,0.1,1.7,0.6,1.7,1.7C53.9,168.4,53.9,169.2,53.6,170z"/>
	</g>
</g>
</svg>
