<?xml version="1.0" encoding="utf-8"?>
<!-- Generator: Adobe Illustrator 25.0.0, SVG Export Plug-In . SVG Version: 6.00 Build 0)  -->
<svg version="1.1" id="Capa_1" xmlns="http://www.w3.org/2000/svg" xmlns:xlink="http://www.w3.org/1999/xlink" x="0px" y="0px"
	 viewBox="0 0 200 200" style="enable-background:new 0 0 200 200;" xml:space="preserve">
<style type="text/css">
	.st0{fill:#00529E;}
</style>
<g>
	<path class="st0" d="M158.1,105.2c0.2,5.1,0.4,11.2-9.9,11.3h-10.2c-10.4,0.1-9.5-7.6-9.9-11.6V93.5c0-4.4,1.8-8,10-7.9h9.4
		c8.9-0.1,10.6,3.6,10.6,7.9v2.1h-11.7c0-2.8-0.6-4.4-2.3-4.6h-1.9c-1.8,0-2.3,2.1-2.3,4.9v6.9c0.2,2.8,0.1,7.1,2.6,7.2h1.4
		c2,0.1,2.4-2.1,2.5-4.9H158.1z"/>
	<polygon class="st0" points="34.6,96.9 31.6,116.2 14.1,116.2 7.5,85.8 18.9,85.8 22.5,107.7 27.1,85.8 42,85.8 46.5,107.7 
		50.2,85.8 61.5,85.8 54.9,116.2 37.3,116.2 	"/>
	<path class="st0" d="M73.8,105.7l2.9-10.8l2.7,10.8H73.8z M80.9,111.7l1.2,4.4h12.4l-9.3-30.4H68.2l-9,30.4h12l1.1-4.4H80.9z"/>
	<path class="st0" d="M111.5,97.5c1.1,0,2-0.9,2-2v-2.1c0-1.1-0.9-2-2-2h-3.5v6.2H111.5L111.5,97.5z M111.6,109.7
		c1.1,0.1,1.9-0.9,1.9-2v-2.4c0-1.1-0.9-2-2-2H108v6.4L111.6,109.7L111.6,109.7z M117.8,116.2H95.6V85.8h25.1c3-0.1,5.4,1.7,5.4,5.6
		v2.7c0,0,0.2,5-4.3,5.6c4.8,1.2,4.7,6.7,4.7,6.7s0,2.4,0,2.5C126.3,115.7,120.8,116.3,117.8,116.2"/>
	<path class="st0" d="M177.8,110c2.6,0,2.7-4.4,2.7-7.1v-7.1c0.1-2.8-0.7-4.9-2.5-4.9h-3.4c-1.8,0-2.3,2.1-2.3,4.9v7.1
		c0,2.8,0.3,7,2.8,7.1H177.8z M170.1,116.4c-9.8,0-9.7-7.3-9.9-11.6V93.5c0-4.4,3.6-7.9,7.9-7.9h16.4c4.3,0,7.9,3.6,7.9,7.9v11.2
		c-0.1,4.3-0.1,11.6-10,11.6L170.1,116.4L170.1,116.4z"/>
</g>
</svg>
