<?xml version="1.0" encoding="utf-8"?>
<!-- Generator: Adobe Illustrator 25.0.0, SVG Export Plug-In . SVG Version: 6.00 Build 0)  -->
<svg version="1.1" id="Capa_1" xmlns="http://www.w3.org/2000/svg" xmlns:xlink="http://www.w3.org/1999/xlink" x="0px" y="0px"
	 viewBox="0 0 200 200" style="enable-background:new 0 0 200 200;" xml:space="preserve">
<style type="text/css">
	.st0{fill:#040309;}
	.st1{fill:#040406;}
	.st2{fill:#050409;}
	.st3{fill:#281806;}
	.st4{fill:#A3A3A3;}
	.st5{fill:#FECA01;}
	.st6{fill:#F3CF2D;}
</style>
<g>
	<path class="st0" d="M21.4,112.1c-3.5,4.9-7,9.8-10.5,14.7c-1,1.3-1.9,2.7-2.9,4c-0.1,0-0.2-0.1-0.2-0.1c0-0.9,0-1.7,0-2.6
		c0-7,0-14,0-20.9c0-0.9,0.2-1.7,0.8-2.5c7.3-10.5,14.6-21,21.8-31.6c0.4-0.6,0.9-0.9,1.7-0.9c5.6,0,11.2,0,16.8,0
		c0.3,0,0.6-0.2,0.8,0.2c0.2,0.3-0.2,0.5-0.4,0.7C44.2,80.2,39.1,87.3,34,94.4c-3.9,5.4-7.8,10.9-11.7,16.3
		C22,111.2,21.7,111.6,21.4,112.1z"/>
	<path class="st0" d="M44.4,105.4c-4.3,0-8.6,0-12.9,0c-0.3,0-0.7,0.2-0.9-0.2c-0.1-0.3,0.2-0.5,0.4-0.7c3.2-4.4,6.4-8.8,9.6-13.3
		c0.5-0.6,1-0.9,1.8-0.9c8.2,0,16.4,0,24.5,0c0.3,0,0.7-0.1,0.8,0.2c0.2,0.3-0.2,0.5-0.3,0.8c-2.9,4.5-5.9,9-8.8,13.6
		c-0.4,0.6-0.8,0.7-1.4,0.7C52.9,105.4,48.7,105.4,44.4,105.4C44.4,105.4,44.4,105.4,44.4,105.4z"/>
	<path class="st0" d="M131.2,105.6c-2.5,0-5,0-7.6,0c-1,0-2-0.2-2.8-0.8c-1.2-0.7-1.9-1.8-1.9-3.2c0-3.5,0-6.9,0-10.4
		c0-0.7,0.3-1,1-0.9c1.1,0.1,2.2,0.1,3.2,0c0.7,0,0.9,0.2,0.9,0.9c0,3,0,6,0,9c0,1.4,0.2,1.6,1.6,1.6c3.7,0,7.5,0,11.2,0
		c1.5,0,1.7-0.2,1.7-1.7c0-2.9,0-5.8,0-8.7c0-0.9,0.3-1.1,1.1-1.1c1,0.1,2,0.1,3,0c0.8,0,0.9,0.3,0.9,1c0,3.2,0,6.5,0,9.7
		c0,2.8-1.6,4.5-4.4,4.6c-0.1,0-0.3,0-0.4,0C136.3,105.6,133.7,105.6,131.2,105.6C131.2,105.6,131.2,105.6,131.2,105.6z"/>
	<path class="st1" d="M83,105.6c-2.4,0-4.8,0-7.2,0c-0.8,0-1.6-0.1-2.4-0.4c-1.8-0.6-2.7-2-2.7-3.9c0-3.4,0-6.7,0-10.1
		c0-0.8,0.2-1.1,1-1c1,0.1,2.1,0.1,3.1,0c0.7,0,1,0.2,1,0.9c0,3,0,6,0,9c0,1.3,0.2,1.6,1.6,1.6c3.8,0,7.6,0,11.4,0
		c1.3,0,1.5-0.3,1.5-1.6c0-3,0-6,0-9c0-0.7,0.2-1,0.9-0.9c1.1,0.1,2.2,0,3.3,0c0.6,0,0.8,0.2,0.8,0.8c0,3.6,0,7.3,0,10.9
		c0,1.9-2,3.6-4.3,3.6C88.3,105.6,85.7,105.6,83,105.6C83,105.6,83,105.6,83,105.6z"/>
	<path class="st0" d="M101.7,99.7c0-1.7,0-3.3,0-5c0-0.6-0.2-0.8-0.8-0.8c-0.9,0-1.8,0-2.7,0c-0.6,0-0.9-0.1-0.9-0.9
		c0-2.8-0.1-2.8,2.7-2.8c1.7,0,1.7,0,1.7-1.8c0-0.2,0-0.3,0-0.5c-0.1-0.9,0.2-1.2,1.1-1.1c0.8,0.1,1.7,0,2.6,0
		c0.6,0,0.9,0.2,0.8,0.8c0,0.1,0,0.1,0,0.2c0,2.4,0,2.4,2.4,2.4c2.6,0,5.2,0,7.8,0c0.8,0,1.1,0.1,1.1,1c0,2.6,0,2.6-2.7,2.6
		c-2.5,0-5,0-7.6,0c-0.8,0-1,0.3-1,1.1c0,3.2,0,6.5,0,9.7c0,0.7-0.2,1-0.9,1c-0.8-0.1-1.7-0.1-2.6,0c-0.8,0.1-1-0.3-1-1
		C101.7,103,101.6,101.3,101.7,99.7z"/>
	<path class="st2" d="M159.2,90.3c2.5,0,4.9,0,7.4,0c0.7,0,1.1,0.1,1,0.9c-0.1,0.9,0.4,2.1-0.2,2.8c-0.6,0.6-1.8,0.2-2.7,0.2
		c-3.6,0-7.2,0-10.8,0c-1.6,0-1.8,0.2-1.8,1.8c0,2.9,0,5.8,0,8.7c0,0.8-0.2,1-1,1c-1.1-0.1-2.2,0-3.3,0c-0.5,0-0.8-0.2-0.7-0.7
		c0-3.7,0-7.3,0-11c0-1.6,1.4-3,3.3-3.4c0.6-0.1,1.3-0.2,1.9-0.2C154.6,90.3,156.9,90.3,159.2,90.3
		C159.2,90.3,159.2,90.3,159.2,90.3z"/>
	<path class="st3" d="M61.5,87.6c-5.9,0-11.8,0-17.7,0c-0.3,0-0.7,0.2-0.8-0.1c-0.2-0.3,0.2-0.6,0.4-0.8c3.4-4.7,6.8-9.4,10.2-14.1
		c0.4-0.5,0.7-0.8,1.4-0.8c11.4,0,22.7,0,34.1,0c0.4,0,1.1-0.2,1.3,0.2c0.2,0.4-0.3,0.8-0.6,1.1c-3,4.6-6.1,9.1-9.1,13.7
		c-0.4,0.6-0.8,0.8-1.5,0.8C73.2,87.5,67.4,87.6,61.5,87.6C61.5,87.6,61.5,87.6,61.5,87.6z"/>
	<path class="st4" d="M21.4,112.1c0.2-0.6,0.5-1,1-1.4C22.2,111.3,21.9,111.8,21.4,112.1z"/>
	<path class="st2" d="M192.1,94.2c0-1.1-0.4-1.9-1.1-2.6c-1-1-2.3-1.3-3.7-1.3c-5.3,0-10.5,0-15.8,0c-0.7,0-1,0.2-0.9,0.9
		c0,0.7,0.1,1.3,0,2c-0.1,0.8,0.3,1,1.1,1c4.5,0,9,0,13.5,0c0.5,0,1,0,1.5,0.2c0.4,0.2,0.6,0.4,0.5,0.9c-0.1,0.4-0.5,0.3-0.7,0.3
		c-2.4,0-4.8,0-7.2,0c-2.6,0-5.1-0.1-7.7,0c-2.9,0.1-4.4,1.7-4.4,4.6c0,0.6,0,1.2,0,1.8c0,0.9,0.3,1.6,0.9,2.2
		c1.1,1.2,2.5,1.6,4.1,1.6c3.1,0,6.2,0,9.2,0c3.3,0,6.5,0,9.8,0c0.7,0,1-0.1,1-0.9C192,101.2,192,97.7,192.1,94.2z M185.4,101.8
		c-1.9,0-3.7,0-5.6,0c0,0,0,0,0,0c-2.1,0-4.2,0-6.4,0c-1.2,0-1.5-0.4-1.4-1.5c0.1-0.8,0.5-1.1,1.2-1.1c2.2,0,4.4,0,6.6,0
		c2.1,0,4.1,0,6.2,0c0.8,0,1,0.2,1,1C186.9,102.1,187.3,101.8,185.4,101.8z"/>
	<path class="st5" d="M45.8,84.6c1.8-2.6,3.7-5.2,5.5-7.7c0.9-1.2,1.8-2.3,2.6-3.6c0.4-0.7,0.9-0.8,1.6-0.8c10.2,0,20.3,0,30.5,0
		c0.8,0,1.5,0,2.3,0c0.2,0,0.5-0.1,0.6,0.1c0.2,0.3-0.1,0.5-0.2,0.7c-2.1,3.2-4.2,6.3-6.4,9.4c-0.8,1.1-1.4,2.3-2.3,3.4
		c-0.4,0.4-0.9,0.5-1.4,0.5c-10.8,0-21.6,0-32.5,0c-0.3,0-0.8,0.2-1-0.2c-0.2-0.4,0.1-0.7,0.3-1.1C45.6,85.1,45.8,84.9,45.8,84.6z"
		/>
	<path class="st6" d="M45.8,84.6c0.3,0.6-0.3,0.9-0.5,1.3c-0.2,0.5-0.2,0.7,0.4,0.7c0.2,0,0.5,0,0.7,0c10.4,0,20.8,0,31.1,0
		c0.8,0,1.7,0.1,2.5-0.4c-0.1,0.7-0.6,0.7-1.1,0.7c-2.8,0-5.6,0-8.4,0c-8.3,0-16.7,0-25,0c-0.3,0-0.7,0.2-0.9-0.2
		c-0.2-0.3,0.2-0.6,0.4-0.8C45.2,85.4,45.5,85,45.8,84.6z"/>
</g>
</svg>
