<?xml version="1.0" encoding="utf-8"?>
<!-- Generator: Adobe Illustrator 25.0.0, SVG Export Plug-In . SVG Version: 6.00 Build 0)  -->
<svg version="1.1" id="Capa_1" xmlns="http://www.w3.org/2000/svg" xmlns:xlink="http://www.w3.org/1999/xlink" x="0px" y="0px"
	 viewBox="0 0 200 200" style="enable-background:new 0 0 200 200;" xml:space="preserve">
<style type="text/css">
	.st0{fill:#1E2B50;}
	.st1{fill:#263356;}
	.st2{fill:#999FAF;}
	.st3{fill:#5C6580;}
	.st4{fill:#FEFEFE;}
</style>
<g>
	<path class="st0" d="M123.2,118.2c0-4.8,0-9.6,0-14.4c0-1-0.3-1.3-1.3-1.3c-2.7,0.1-5.3,0-7.9,0c-0.8,0-1.2-0.2-1.2-1.1
		c0.1-2.5,0.1-4.9,0-7.4c0-0.8,0.2-1.2,1.1-1.2c9.9,0,19.7,0,29.6,0c0.9,0,1.1,0.3,1.1,1.1c-0.1,2.5-0.1,5,0,7.5
		c0,0.9-0.3,1.1-1.1,1.1c-2.6,0-5.1,0-7.6,0c-1.1,0-1.4,0.3-1.4,1.4c0.1,9.6,0,19.3,0.1,28.8c0,1.2-0.3,1.5-1.5,1.5
		c-2.9-0.1-5.7-0.1-8.7,0c-1,0-1.2-0.3-1.2-1.3C123.2,128,123.2,123.1,123.2,118.2z"/>
	<path class="st0" d="M28.1,101c0,2.6-0.1,5.1,0,7.6c0,1.1-0.3,1.4-1.4,1.2c-2.1-0.5-4.1-1.1-5.9-2.3c-0.9-0.6-1.5-0.6-2.3,0
		c-0.6,0.5-1.3,1.7-2,1c-0.9-0.7,0.3-1.6,0.6-2.3c0.5-0.9,0.5-1.5-0.3-2.3c-1.8-2-2.9-4.3-3.1-7c-0.2-1.1-0.6-1.5-1.6-1.5
		c-0.4,0-0.6,0-1-0.1c-0.4-0.1-0.9,0-0.9-0.6c0-0.6,0.5-0.6,0.7-0.6c1.9-0.4,2.7-1.5,2.9-3.4c0.2-2.1,1.2-4.1,2.6-5.7
		c0.6-0.8,0.7-1.5,0.1-2.3c-0.2-0.3-0.4-0.6-0.5-0.8C16,81.3,15.5,81,16,80.5c0.5-0.4,0.7,0.1,1.1,0.3s0.6,0.4,0.9,0.6
		c0.7,0.6,1.3,0.6,2-0.1c5.4-4,12.7-4.1,18.3-0.6c1,0.6,1.7,0.6,2.5-0.1c0.5-0.4,1-1.4,1.8-0.7c0.7,0.6-0.2,1.3-0.5,1.8
		c-0.6,1-0.5,1.8,0.3,2.7c1.6,1.8,2.5,4.1,3,6.5c0.3,1,0,1.2-0.9,1.2c-5.1,0-10.1,0-15.1,0c-1.1,0-1.5,0.2-1.4,1.4
		C28.2,95.9,28.1,98.4,28.1,101z"/>
	<path class="st0" d="M7.7,93.8C7.4,83.4,16.1,72.9,28,71.9c0.8-0.1,1.1-0.4,1.1-1.2c0-0.9-0.6-0.7-1.1-0.7c-0.4,0-1,0.3-1.1-0.3
		c-0.1-0.7-0.3-1.5,0.3-2.1c1.4-1.7,4.8-1.6,6.1,0.1c0.6,0.6,0.4,1.5,0.3,2.1c-0.1,0.5-0.7,0.3-1.1,0.3c-0.6,0-1,0.1-1,0.9
		c0,0.8,0.3,1,1.1,1.1c5.6,0.6,10.4,2.9,14.3,7c3.1,3.3,5.1,7.2,5.8,11.7c0.1,0.5,0.6,1.2-0.4,1.4c-1,0.2-0.9-0.6-1-1.2
		c-1.4-8.8-9.2-16.1-18.4-17c-10.4-1.4-20.2,4.9-22.9,14.5C6.4,100,14.1,112.1,26,114.3c0.5,0.1,0.8,0.2,1.3,0.2
		c0.8,0,1,0.5,0.9,1.2c-0.1,1-0.8,0.6-1.2,0.6c-4.4-0.6-8.3-2.4-11.6-5.3C10.3,106.5,7.6,100.9,7.7,93.8z"/>
	<path class="st1" d="M28.6,74.5c0.6-0.6,0.9-0.1,1.3,0.2c0.5,0.5,0.8,0.9,1.3,1.4c0.2,0.5,0.5,0.9-0.2,1.2c-0.6-0.6-1-1.5-1.8-1.9
		C28.7,75.3,28.7,74.7,28.6,74.5z"/>
	<path class="st2" d="M28.6,74.5c0.4,0.2,0.4,0.6,0.6,0.8c0,0.6,0,1.3,0.1,1.9c0.1,0.4-0.1,0.6-0.4,0.6c-0.4,0-0.5-0.2-0.4-0.6
		C28.7,76.4,28.6,75.4,28.6,74.5z"/>
	<path class="st3" d="M30.9,77.3c0.4-0.4,0.2-0.7,0.2-1.2c0.2-0.6-0.3-1.3,0.1-1.9c0.5,0.6,0.1,1.3,0.2,1.9c0.1,0.4,0.1,0.8,0,1.3
		C31.2,77.7,31,77.5,30.9,77.3z"/>
	<path class="st0" d="M88.5,91.9c-12.4,0-22.4,9.7-22.4,21.7s10,21.8,22.4,21.8c12.3,0,22.4-9.8,22.4-21.7
		C110.9,101.7,100.9,91.9,88.5,91.9z M88.5,125c-6.2,0-11.2-5.1-11.2-11.2c0-6.3,5-11.3,11.2-11.3s11.3,5.1,11.3,11.2
		C99.9,119.9,94.7,125.1,88.5,125z"/>
	<path class="st0" d="M58.2,125.7c-2.2-2.8-4.4-5.6-6.7-8.5c6.9-1.9,9.7-7.4,9.4-12.9c-0.3-6.2-5.3-11.2-11.5-11.3
		c-6.5-0.1-12.8,0-19.3,0c-0.7,0-1.1,0.1-1.1,1c0,13.2,0,26.3,0,39.4c0,0.8,0.3,1,1,1c3,0,6.1-0.1,9,0c0.9,0,1.2-0.3,1.2-1.2
		c0-4.4,0-8.8,0-13.3c0-0.4-0.2-0.8,0.3-1.2c3.3,4.9,6.6,9.8,9.9,14.7c0.5,0.7,0.9,1,1.8,1c3.8-0.1,7.6,0,11.4,0
		c0.4,0,0.7,0.2,1.1-0.3C62.7,131.2,60.4,128.4,58.2,125.7z M48.9,107.1c-0.3,2.6-2.5,4.6-5.2,4.7c-3.4,0.1-3.4,0.1-3.4-3.3
		c0-0.7,0-1.4,0-2.1c0-1.5,0-2.9,0-4.3c0-0.7,0.2-1,1-0.9c1.2,0.1,2.4-0.1,3.5,0.2C47.5,102,49.2,104.5,48.9,107.1z"/>
	<path class="st0" d="M190.7,133.9c-5.3-13.5-10.5-26.8-15.8-40.3c-0.3-0.6-0.6-0.7-1.3-0.7c-2.1,0-4.1,0-6.3,0
		c-1.8,0-4.1-0.6-5.4,0.3c-1.4,0.8-1.6,3.2-2.3,5c-4.6,11.6-9.1,23.1-13.7,34.7c-0.5,1.1-0.4,1.4,0.9,1.4c3.2-0.1,6.5-0.1,9.8,0
		c1,0,1.4-0.4,1.7-1.2c0.6-1.6,1.2-3.1,1.7-4.8c0.2-0.6,0.6-1,1.3-1c4.5,0,9,0,13.5,0c0.7,0,1.1,0.3,1.3,0.9
		c0.6,1.8,1.2,3.4,1.8,5.2c0.2,0.6,0.4,0.8,1.1,0.8c3.8,0,7.6,0,11.5,0C190.7,133.9,190.7,133.9,190.7,133.9z M172,118.4
		c-2.5,0-5,0-7.5,0c-0.6,0-0.8-0.2-0.6-0.7c1.4-4,2.9-8,4.3-12.3c1.5,4.2,2.9,8.2,4.2,12.2C172.7,118.2,172.7,118.4,172,118.4z"/>
	<path class="st4" d="M39.3,84c-2.2,1.7-4.4,3.3-6.5,5c-0.7,0.6-1,0.6-1.2-0.4c-0.5-2.8-1.1-5.5-1.9-8.3c-0.6,3-1.1,6-1.7,9.2
		c-2.8-1.8-5.4-3.4-8.1-5.2c-0.1,0.1-0.1,0.1-0.2,0.2c1.8,2.5,3.7,5,5.5,7.6c-3.1,0.7-6.2,1.4-9.2,2.1c0,0.1,0,0.1,0,0.2
		c3.1,0.5,6.4,1,9.7,1.5c-1.8,2.7-3.5,5.2-5.3,7.6c0.1,0.1,0.1,0.2,0.2,0.2c2.1-1.4,4.2-2.8,6.5-4.3c0,2.9,0,5.7,0,8.5
		c0,0.8-0.5,0.6-0.9,0.6c-1.7-0.4-3.2-1-4.7-1.9c-1.1-0.8-2.2-1.8-3.6,0.1c1.5-1.7,0.5-2.7-0.5-3.8c-1.6-1.8-2.5-4.1-2.8-6.4
		c-0.2-1.3-0.4-2.2-2.1-2.2c1.9-0.2,1.8-1.6,2-2.9c0.4-2.3,1.2-4.3,2.6-6.2c0.7-0.9,1.5-1.8,0.5-3.1c1.2,1,1.9,0.5,2.9-0.2
		c5.2-3.9,12.3-4.1,17.7-0.4c1,0.7,1.8,1.1,2.9-0.1c-0.9,1.4-0.4,2.2,0.6,3.1c1.4,1.5,2.2,3.3,2.8,5.3c0.1,0.5,0.4,0.8-0.4,0.8
		c-2.8,0-5.6,0-8.7,0C36.8,88.3,38.1,86.1,39.3,84C39.5,84.1,39.4,84,39.3,84z"/>
	<path class="st0" d="M192,96.7c0.4-2.8-2.3-5-4.8-5c-2.8,0-5.1,2.2-5.1,5c0,2.8,2.2,4.9,5.1,5C189.5,101.8,192.3,99.6,192,96.7z
		 M187.2,100.7c-2.1,0-3.9-1.8-4-3.8c-0.1-2.1,1.7-4,3.8-4c2.1-0.1,4,1.8,4,3.9C191,98.8,189.3,100.6,187.2,100.7z"/>
	<path class="st0" d="M189.3,98.4c-0.6-0.6-1.5-1.2-0.3-2.2c0.5-0.5,0.3-1.5-0.6-1.8c-1-0.4-2.1-0.5-3-0.1c-0.6,0.3-0.2,1.3-0.3,1.9
		c-0.1,0.6,0,1.2,0,1.8c0,0.4-0.3,1,0.6,1c0.7,0,0.6-0.5,0.6-0.9c0-0.3-0.1-0.6,0.2-0.7c0.4-0.2,0.6,0.2,0.7,0.5
		c0.6,0.7,1.1,1.7,2.4,1.1C189.5,98.7,189.4,98.5,189.3,98.4z M187.1,96.4c-0.5,0.1-0.6-0.2-0.6-0.6c0-0.5,0.2-0.6,0.6-0.6
		c0.4,0,0.7,0.2,0.7,0.5C187.7,96.2,187.4,96.4,187.1,96.4z"/>
</g>
</svg>
