<?xml version="1.0" encoding="utf-8"?>
<!-- Generator: Adobe Illustrator 25.0.0, SVG Export Plug-In . SVG Version: 6.00 Build 0)  -->
<svg version="1.1" id="Capa_1" xmlns="http://www.w3.org/2000/svg" xmlns:xlink="http://www.w3.org/1999/xlink" x="0px" y="0px"
	 viewBox="0 0 200 200" style="enable-background:new 0 0 200 200;" xml:space="preserve">
<style type="text/css">
	.st0{fill:#E20018;}
	.st1{fill:#FEFEFE;}
	.st2{fill:#FEFBFA;}
	.st3{fill:#FEFCFB;}
	.st4{fill:#FDF9F8;}
	.st5{fill:#FEFAF8;}
	.st6{fill:#FEFAF9;}
	.st7{fill:#FDF9F7;}
	.st8{fill:#FDF8F7;}
	.st9{fill:#FEF9F8;}
	.st10{fill:#FDF8F6;}
	.st11{fill:#FCEFEA;}
	.st12{fill:#FCEEE9;}
	.st13{fill:#FBE6DF;}
	.st14{fill:#FDF7F5;}
	.st15{fill:#FDF4F0;}
	.st16{fill:#FDF3F0;}
	.st17{fill:#FDF2F0;}
	.st18{fill:#FDF5F3;}
	.st19{fill:#FCEFEB;}
	.st20{fill:#FDF4F1;}
	.st21{fill:#FDF0EC;}
	.st22{fill:#E41120;}
	.st23{fill:#FDF2EE;}
	.st24{fill:#FADCD4;}
	.st25{fill:#FDF5F2;}
	.st26{fill:#E51D2A;}
	.st27{fill:#FCF0EB;}
	.st28{fill:#FBE5DF;}
	.st29{fill:#E72D32;}
	.st30{fill:#FDF6F3;}
	.st31{fill:#E9463B;}
	.st32{fill:#FBE2DB;}
	.st33{fill:#FBE4DD;}
	.st34{fill:#FADCD3;}
	.st35{fill:#FADED5;}
	.st36{fill:#FBE6E0;}
	.st37{fill:#FCEEEA;}
	.st38{fill:#FADCD1;}
	.st39{fill:#EE7161;}
	.st40{fill:#F9D4C7;}
	.st41{fill:#EB5D4E;}
	.st42{fill:#FCECE7;}
	.st43{fill:#FBE5DD;}
	.st44{fill:#F9D2C6;}
	.st45{fill:#F8CABC;}
	.st46{fill:#EA5543;}
	.st47{fill:#E8473A;}
	.st48{fill:#FBE3DE;}
	.st49{fill:#EC6755;}
	.st50{fill:#F9CFC4;}
	.st51{fill:#E3061B;}
	.st52{fill:#E3091C;}
	.st53{fill:#E3081C;}
	.st54{fill:#E3081B;}
	.st55{fill:#E62B30;}
	.st56{fill:#E4131F;}
	.st57{fill:#EB594B;}
	.st58{fill:#E51C27;}
	.st59{fill:#E9443F;}
	.st60{fill:#F39B83;}
	.st61{fill:#E3091D;}
	.st62{fill:#E3071B;}
	.st63{fill:#E20219;}
	.st64{fill:#E3071C;}
	.st65{fill:#E62832;}
	.st66{fill:#E30D1E;}
</style>
<g>
	<path class="st0" d="M105.5,178.2c-4.3,0-8.6,0-12.9,0c-1.7-0.3-3.4-0.3-5.2-0.4c-7.9-0.7-15.1-3.3-22.2-6.6
		c-8.1-3.8-15.2-8.9-21.6-15.2c-8-8-14.1-17.4-18.1-28c-2.5-6.7-4.2-13.5-4.2-20.7c0-0.2-0.1-0.3-0.2-0.5c0-4.4,0-8.8,0-13.2
		c0.3-1.7,0.3-3.3,0.4-5c0.5-6.8,2.6-13.1,5.2-19.3c3.7-8.7,8.9-16.5,15.5-23.4c11.9-12.5,26.4-20.1,43.3-23.2
		c2.9-0.5,5.9-0.5,8.9-0.6c5.6-0.2,11.1-0.2,16.7,0.4c6.5,0.7,12.8,2.7,18.8,5.2c4.5,1.9,8.7,4.2,12.8,6.9c0.7,0.4,1.4,0.8,1.5,1.7
		c0,0.3-0.1,0.5-0.4,0.6c-2.4-0.4-4.8,0.1-7.1-0.5c-1.5-0.4-3.1,0-4.6-0.2c-0.7-0.1-1.5,0-1.8-0.7c-0.4-1.1-1.2-1.2-2.1-1.3
		c-0.5,0-0.9-0.7-1.5-0.3c-0.3,1.1-1.2,1.4-2.1,1.7c-1.1,0.4-1.8,0.9-0.7,2c0.3,0.3,0.5,0.7,0.2,1.1c-0.2,0.3-0.6,0.4-0.9,0.2
		c-1.4-0.6-2.9-0.1-4.3-0.6c0.5,2,0.4,2.1-1.6,2.1c-2.7,0-5.3,0.5-7.5,2.2c-0.5,0.3-1,0.6-1.2-0.1c-0.7-2.2-2.7-2.2-4.3-2.7
		c-1.7-0.5-4.4,1.2-5.2,2.8c-0.4,0.9-0.9,1.7-1.6,2.4c-0.9,1-1.2,2-0.5,3.2c0.1,0.3,0.3,0.6,0.4,0.9c0.2,1.2-0.2,2.2-1.2,2.9
		c-1.1,0.8-2,2-3.2,2.7c-0.7,0.4-0.5,1-0.5,1.6c0.2,2-0.1,2.5-2.1,2.9c-1.5,0.3-1.1,1.3-1.2,2.2c-0.1,0.7,0,1.2,0.8,1.4
		c1,0.3,1.6-0.3,2-1.1c0.5-0.9,1.2-1.8,1.9-2.6c1.4-1.4,3.4-1.4,4.8,0c0.6,0.6,1.4,1.1,2,1.8c-0.5-0.6-1.2-1.1-1.6-1.8
		c-0.2-0.4-0.4-0.8,0-1.3c0.4-0.4,0.8-0.2,1.2,0c1.6,0.9,3,1.9,3.4,4c0.6-0.4,0.6-1,1-1.3c0.8-0.7,1.9-0.5,2.1,0.5
		c0.3,1.3,0.8,2.1,2.3,2.3c1.1,0.1,1.6,1,1.6,2.1c0,1.1-0.5,1.9-1.7,2.2c-0.7,0.2-1.5,0.3-2.2,0.1c-1.5-0.4-2.9-0.7-4.7-0.2
		c-1.5,0.5-3.6-0.6-4.3-2.1c-0.9-1.9-2.2-1.7-3.6-1.5c-1.3,0.2-2.6,0.8-3.9,1.2c-0.8,0.3-1.6,0.8-1.8,1.7c-0.4,1.7-1.4,2.9-2.4,4.2
		c-2.9,4-1.9,9.9,0.9,13.5c0.5,0.6,1,0.9,1.9,0.8c1.6-0.2,3.1-0.2,4.6-0.7c1.9-0.6,4.7,1.8,4.6,4c-0.1,1.5,0.3,2.8,0.9,4.2
		c1,2.1,1.4,4.4,0.6,6.7c-0.5,1.4-0.1,2.8,0.2,4.3c0.6,3.2,2,6.1,3,9.1c0.1,0.3,0.2,0.7,0.5,0.6c1.2-0.4,2.8,0.1,3.7-1.2
		c0.8-1.2,1.6-2.4,2.1-3.8c0.5-1.4,1.4-2.7,1.3-4.4c0-0.6,0.5-1.2,1-1.5c2-1.6,2.2-3.8,1.5-5.8c-1.3-3.7,0.7-6.2,2.6-8.7
		c1.1-1.4,2.1-2.8,2.6-4.5c0.4-1.4,0.2-1.6-1.2-1.4c-0.3,0-0.6,0.1-0.8,0.1c-0.5,0-1-0.2-1.2-0.8c-0.2-0.5,0.1-0.8,0.5-1.1
		c1.4-1.3,3.3-1.9,4.7-3.3c0.6-0.6,1.2-1.2,1.5-2c0.4-0.9,0.7-1.8-0.1-2.7c-0.3-0.3-0.3-0.7-0.2-1.1c0.2-0.4,0.6-0.6,1-0.7
		c3.3-0.8,5.6,1,7.7,3c0.2,0.2,0.3,0.4,0.3,0.6c0,2.7,2.1,4.7,2.5,7.4c0.8-0.5,0.6-1.1,0.6-1.6c-0.1-1.6,0.4-3,1.4-4.2
		c0.6-0.7,1.1-1.5,1.6-2.4c0.9-1.7,2.6-1.8,3.8-0.2c0.5,0.7,1,1.3,1.3,2.2c0.1,0.4,0.3,0.9,0.8,1c1.2,0.3,1.4,1.3,1.6,2.3
		c0.2,1.1,0.5,2.1,0.3,3.2c-0.2,0.8,0.2,1.6,0.7,2.1c0.8,0.8,1.1,1.8,0.8,2.9c-0.1,0.1-0.2,0.3-0.3,0.4c-0.5,0.3-1,0.2-1.2-0.2
		c1.6,1.2,1.2,3.9,3.2,5.4c0-1.4-1.1-2.3-0.7-3.6c0-0.2,0-0.3,0-0.5c-0.2-1.5-0.6-3.1-1.6-4.1c-1.4-1.4-0.9-2.9-0.9-4.4
		c0-0.7,0.7-0.8,1.3-0.7c0.7,0.2,1.3,0.6,1.8,1.2c0.7,0.9,1.1,0.4,1.4-0.3c0.3-0.8,0.3-1.5-0.1-2.3c-0.4-0.8-1-1.5-1.4-2.3
		c-0.9-1.5-0.3-3,1.3-3.5c0.9-0.3,1.7-0.8,2.6-1.2c1.2-0.5,1.9-3.2,1.2-4.8c-0.6-1.6-1.4-3.1-2-4.6c-0.2-0.4-0.4-0.6-0.8-0.8
		c-0.7-0.4-1.1-1-0.6-1.9c0.5-0.9,1.2-0.7,2-0.4c1.4,0.5,2.5,1.3,3.2,2.7c0-0.3-0.1-0.4-0.1-0.6c-0.1-0.3-0.3-0.5-0.5-0.7
		c-1.2-1.8-1-2.8,0.2-4.6c0.9-1.3,0.3-2.8,0.1-4.2c-0.1-0.6-0.5-1.1-0.4-1.8c0.5-1,1-0.5,1.4,0c0.5,0.6,0.8,1.3,1,1.8
		c-0.7-1.2-1.2-3-3.3-3.1c-2.9-0.2-3.6-1.1-2.7-3.8c0.2-0.7,0.5-1.5,0.6-2.2c0.1-0.3,0.3-0.4,0.6-0.5c2,0.3,3,1.9,4.2,3.2
		c5.1,5.2,9.6,10.9,13.1,17.3c4.5,8.3,7.8,17,8.8,26.4c0.7,7,0.7,14,0.1,21.1c-1.3,15.6-7.6,29.1-17.4,41
		c-9.4,11.4-21.3,19.5-35.3,24.3c-5.7,2-11.6,3.2-17.7,3.2C106.3,178.1,105.9,178,105.5,178.2z"/>
	<path class="st1" d="M128.3,33.7c0.4,0,0.9,0.1,1.3,0.1c0.9,0,1.5,0.3,1.3,1.4c0,0.1-0.3,0.5,0,0.5c1.4-0.2,2.9,0.5,4.2,0
		c0.5-0.2,1-0.4,1.4-0.2c1.7,0.9,3.4,0.9,5.3,0.4c0.7-0.2,1.2,0.7,1.9,0.9c2.6,1.4,4.9,3.1,6.8,5.4c0.4,0.6,1.4,1-0.1,1.8
		c-0.6,0.3-0.6,1.9-0.5,2.9c0.1,0.6,1,0.7,1.7,0.5c0.2-0.1,0.6,0.2,0.9,0.3c0.9,0.2,1,0.9,0.9,1.6c1.3,1.7,1.1,3.7,1.3,5.7
		c0.1,0.4-0.2,0.8-0.5,1c-1.5,1.1-1.5,2.3-0.3,3.7c1,1,1.1,2.2,0,3.7c-0.6-2.6-2.2-4-4.5-4.5c-0.6,0.8-1,1.8,1.1,1.7
		c0.3,0,0.7,0.1,0.6,0.4c-0.7,2,1.4,3.1,1.7,4.8c0.1,0.5,0.6,1.1,0.3,1.6c-0.7,1.1,0.5,2.2-0.4,3.3c-1,1.3-2.6,1.5-3.9,2.2
		c-0.5,0.2-1.2-0.1-1.4,0.8c-0.2,0.8-0.3,1.3,0.3,2c1,1.1,1.8,2.3,1.8,4c0,1.2-0.9,1.9-1.2,2.9c-0.1,0.3-0.7,0.7-1,0
		c-0.8-1.8-0.8-1.8-2.6-2.9c-0.4,1.8-0.6,3.5,1.2,4.9c1.2,0.9,1.4,2.6,1.3,4.2c-1.4,0.3-1.6-0.8-2-1.7c0-1-0.2-1.9-0.9-2.7
		c-0.4-0.5-0.6-1.1-0.5-1.7c0.1-1.2,0-2.4-0.7-3.4c-0.3-0.4-0.2-0.8-0.1-1.3c0.2-0.7,0.1-1.4-0.9-0.6c-0.8,0.6-1.2,0.2-1.1-0.6
		c0.2-1.8-1.7-2.4-1.9-3.9c-0.1-0.4-2,0.2-2.1,0.8c-0.2,0.9-0.7,1.7-1.4,2.3c-1.3,1.3-2,2.8-1.5,4.7c0.3,1.1-0.8,1.8-0.9,2.9
		c-0.8-0.7-1-1.4-1.2-2.2c-0.4-1.6-1.3-3-2-4.6c-0.2-0.6-0.5-1.1-0.4-1.8c0.1-0.9,0.1-0.9-0.8-0.9c-0.5,0-0.9-0.6-0.8-0.7
		c0.4-0.9-0.5-0.7-0.7-1.1c-1.2-1.8-3-1-4.6-1.3c-1.4-0.6-3.3,0.3-4.5-1.3c1,0.9,1,0.9,2.4,0.8c0.8-0.1,0.7,0.5,0.8,1
		c0.2,0.8,1.7,0.5,1.4,1.7c-0.3,1.6-0.7,3.2-2,4.2c-1.7,1.3-3.4,2.8-5.6,3.4c-0.5,0.1-0.2,0.5,0,0.8c0.5,0.5,0.9,0.3,1.3,0
		c0.7-0.5,1.7-0.8,2.2-0.4c0.6,0.5,0.3,1.6,0.1,2.4c-0.6,2-1.9,3.5-3.1,5.1c-1.6,2.2-3.7,4.2-2.3,7.7c0.8,2.1,1,4.9-1.7,6.6
		c-0.8,0.5-1.4,1.4-1,2.7c0.2,0.5,0.6,1.8-0.9,1.8c-0.3,0-0.3,0.3-0.3,0.5c0.2,1.9-1.2,3.1-2,4.5c-0.6,1-1.4,1.6-2.8,1.6
		c-1.7-0.1-2-0.5-3-1.9c-2-2.8-2-6.3-3.2-9.4c-0.4-1.1-0.2-2.7,0.2-3.8c1-2.5,0-4.5-0.9-6.6c-0.5-1-0.8-1.9-0.6-3.2
		c0.2-1,0.9-2.9-1.6-2.7c-0.2,0-0.5-0.2-0.5-0.4c-0.2-1.8-1.2-1.1-2.1-0.7c-1.1,0.5-2.2,0.9-3.4,0.4c-0.2-0.1-0.4-0.1-0.5,0
		c-2.5,1.5-3-0.9-3.6-2.1c-0.8-1.5-2-2.9-2-4.9c-0.1-3.7,0.2-7.1,3.2-9.8c0.2-0.2,0.5-0.3,0.5-0.6c0.2-2.7,1.7-3.7,4.3-4.4
		c1.6-0.4,3.2-0.7,4.9-0.9c1-0.1,1.5,0.3,1.4,1.2c-0.1,1.2,0.3,1.7,1.4,1.7c0.5,0,0.8,0.3,1.2,0.6c0.8,0.5,1.5,1.6,2.2-0.3
		c0.3-0.9,1.4-0.3,1.9,0c1.3,0.7,2.6,0.8,4.1,0.6c1.4-0.1,1.1-1.1,1.2-1.8c0.1-0.7,0-1.4-1.1-1.3c-2,0.2-2.9-0.8-2.6-2.8
		c0.1-0.5-0.1-0.6-0.5-0.6c-0.7,0-1,0.5-1.2,1c-0.1,0.2,0.3,0.7,0.2,0.9c-0.1,0.4-0.3,1-0.6,1.1c-0.5,0.2-0.4-0.5-0.6-0.8
		c-0.5-0.8-0.9-1.6-1.1-2.5c-0.1-0.3-0.2-0.6-0.4-0.7c-1.2-0.2-1.9-1-2.8-1.8c0.1,0.8,0.4,1.4,1.1,1.7c2.1,0.9,1.3,2.1,0.3,3.9
		c0.1-2.7-2.5-2.9-3-4.8c-0.1-0.2-3,0.5-3.1,0.8c-0.7,1.2-1.7,2.2-2.3,3.5c-0.6,1.2-2.1,0.9-3.3,0.4c-1.1-0.4-0.3-1.1-0.3-1.7
		c0-0.3,0.2-0.6,0.1-0.8c-0.3-1.9,0.5-2.7,2.5-2.4c0.3,0.1,0.9,0.2,0.9-0.4c0-0.9,0.6-1.9-0.4-2.7c-0.8-0.6-1.1-1,0.2-1.1
		c1.7-0.2,2.3-1.9,3.6-2.6c1.1-0.6,1.8-1.4,1.6-2.8c0.7-0.7,1.2-0.8,1.3,0.4c0,1.3,1,0.9,1.6,0.9c1.7-0.2,2.6-1.5,3.6-2.6
		c0.3-0.2,0.4-0.6,0.8-0.7c-0.2,0-0.4,0.2-0.6,0.3c-1.8-0.3-2.1-1-1.4-2.7c-0.3,0.4-0.6,0.9-0.5,1.6c0.3,1.2-0.4,2.3-1,3.3
		c-0.6,1.1-1.5,1.4-2.6,0.6c0.4-1.5-0.6-1.5-1.6-1.5c-0.9-1.1-0.8-2.7,0.2-3.7c0.8-0.8,1.4-1.6,1.8-2.8c0.6-2,4.5-3.5,6.6-2.7
		c1,0.3,1.9,0.8,2.8,1.1c1.1,0.4,1.8,0.8,0.9,2.3c1.1-0.6,0.7-1.6,1.3-2.1c0.8-0.1,0.3,0.9,0.6,1c2.5-2.2,5.3-2,8.2-1.7
		c0.1-0.6-0.4-0.7-0.7-1c-0.5-0.6-0.7-1.3-0.2-1.8c0.5-0.4,1,0.3,1.3,0.7c0.1,0.1,0.2,0.3,0.4,0.4c0.7-2.1,0.8,0.2,1.3,0.1
		c0-0.5-0.3-1.4,0.8-0.7c0.7,0.4,1.5,0.7,2.3,0.8c-0.6-0.5-1.2-1.1-1.8-1.6c0.1-0.5,1.4-0.3,0.6-1.3c-0.3-0.4,0.3-0.6,0.7-0.6
		c1.2,0,2.2-0.4,3-1.4C127.1,33.4,127.7,33.6,128.3,33.7z"/>
	<path class="st1" d="M67.3,53.8c0.2,1.5-0.3,2.7-1.9,3c-1.6,0.3-1.9,2.1-3.1,2.8c-1.2,0.6-2,1.7-2.3,3.1c-0.3,1.1-1.4,1.7-2.3,2.1
		c-1.7,0.9-1.8,2.2-1.9,3.8c0,0.7,0.5,2.1-0.5,2.1c-0.9,0.1-0.6-1.3-0.8-2c-0.3-1.4-1.7-2.2-2.9-1.4c-0.5,0.4-0.8,0.4-1.3,0.2
		c-1.5-0.6-2.8,0.3-3.3,1.8c-0.5,1.6-1.4,3.1-0.8,4.9c0.2,0.4-0.2,1.3,0.7,1.3c0.7-0.1,1.5,0,1.9-0.7c0.2-0.3,0.4-0.7,0.5-1.1
		c0.3-0.8,1-0.7,1.6-0.5c0.8,0.3,0.4,0.8,0.2,1.4c-0.3,0.6-0.4,1.4-0.7,2c-0.3,0.6-0.2,0.8,0.3,0.9c1.4,0.5,1.6,1.4,1.1,2.6
		c-0.2,0.4-0.3,0.9-0.4,1.3c-0.2,1.1,0.7,1.8,1.8,1.8c1.3,0,2.5-0.2,3.5-1.1c0.7-0.6,1.7-0.1,2.7,0.1c2.4,0.5,4.3,1.3,5.1,3.8
		c0.1,0.4,0.5,0.6,0.9,0.8c2.7,1.3,3.6,1.9,2.7,4.9c-0.3,1,0.8,1.3,1.5,1.5c2.2,0.7,4.3,1.7,5.7,3.5c0.6,0.7,0.5,1.9,0,2.7
		c-1.3,2-1.9,4.2-2.3,6.6c-0.2,0.9-0.7,1.8-1.1,2.7c-0.2,0.6-0.7,1.2-1.8,1.2c-1,0-1.9,0.7-2,2.1c-0.1,1.9-1.3,3.5-1.9,5.2
		c-0.1,0.4-0.5,0.4-0.8,0.4c-0.2,0-0.6,0.1-0.6,0.2c0.1,2.4-3.4,2.9-3.1,5.5c0,0.4,0.1,0.9-0.3,1.1c-0.9,0.5-0.7,0.8,0,1.2
		c0.5,0.3,0.5,1,0.3,1.4c-1,2-0.3,3.4,1.6,4.6c-2.3,0.1-4.2-1.2-4.8-3.1c-0.3-0.9-0.1-1.9-1-2.6c-0.1-0.1,0-0.9,0.1-0.9
		c1.4-0.4,0.5-1.4,0.2-1.7c-1.4-1.4-1.3-3.4-1.1-4.8c0.6-3.2,0-6.3,0.1-9.4c0-0.5,0.1-0.9,0.2-1.3c0.3-1.6,0.3-3.1-1.2-4.3
		c-1.6-1.3-2.4-3.1-2.6-5.1c-0.2-1.2-0.3-2.3-1.4-3.1c-0.4-0.3-0.4-0.7-0.2-1.1c0.9-2.1,0.2-4.9,2.5-6.6c0.7-0.5,0.5-1.7,0.6-2.6
		c0.1-0.5-0.2-0.7-0.9-0.6c-1.5,0.2-2.5-0.7-3.1-2c-0.6-1.2-0.7-2.9-2.6-3.1c-0.2,0-0.3-0.3-0.4-0.5c-0.4-0.7-0.5-1.7-1.7-0.8
		c-0.1,0.1-0.7,0-0.8-0.1c-0.7-1.4-2.6-1.5-3.2-3c-0.2-0.5-0.4-1-0.3-1.6c0.4-1.5,0-2.9-0.7-4.2c-0.7-0.6-0.4-1.4-0.6-2.1
		c0-0.3,0-0.7-0.1-1.3c0,0.8,0,1.4,0.2,1.9c0.2,0.7,0,1.5,0.1,2.2c-0.1,0.6,0.3,1.2-0.5,1.9c-0.5-2.5-1.1-4.8-1-7.3
		c0-0.5,0.1-1-0.2-1.5c-1.3-2-0.8-3.9,0.1-5.9c0.6-1.3,1.1-2.7,1.9-3.9c0.4-0.6,0.3-1.5,1.5-1.3c0.4,0.1,0.6-0.9,0.3-1.4
		c-0.6-1.4,0-2.4,0.9-3.4c3.1-3.4,6.6-6.4,10.3-9.1c1-0.7,2.4-0.4,3.3,0.6c0.3,0.4,0.7,1,1.4,0.4c0.4-0.9,1.1-1,1.8-0.6
		c1.2,0.7,2.4,0.7,3.7,0.6c0.5-0.4-0.7-1.1,0.3-1.4c0.2-0.4,0.5-0.7,1-0.3c-0.1,0.8,0.2,1.5,0.6,2.3c0.2-0.1,0.5-0.3,0.7-0.4
		c0.4-0.2,1-1,1.3-0.1c0.3,0.6,0,1.2-0.7,1.7c-0.7,0.5-1.4,0.1-2,0.1c-1.5-0.1-1.5,1.4-2.5,1.8c-1.2,0.5-2.2,1.7-3,2.8
		c-1.1,1.5,0.6,2.1,1.4,2.9c0.6,0.5,1.4,0.6,0.7,1.7c-0.3,0.3-0.2,1,0.3,1.1c0.5,0.2,0.5-0.5,0.6-0.8c0.3-0.8,0.6-1.5,1.4-1.7
		c0.6-0.2,0.5-0.6,0.5-1.1c0.1-1.5,1.3-2.3,2-3.4c0.4-0.5,1-0.1,1.4,0.1c0.6,0.2,1.2,0.7,1.2,1.5c0.1,0.5-0.7,1,0.2,1.4
		c0.8,0.3,0.9-0.7,1.5-0.8c0.2,0.8,0.7,1.4,0.2,2.3c-0.5,0.9,0.8,1.7,1,1.8c1,0.3,0.9,1,0.5,1.3c-1,0.7-1.9,1.9-3.4,1.3
		c-0.6-0.2-1.2-0.3-1.7,0.2C67.2,53.2,66.7,53.6,67.3,53.8z"/>
	<path class="st1" d="M121.1,129.9c-1.3,4.7-2.6,9.4-3.8,14.1c-0.3,1.2-0.8,1.8-2.2,1.7c-1.6-0.2-3.5,0.6-4.6-0.3
		c-1-0.8-1-2.7-1.5-4.2c-1.1-3.7-2.2-7.5-3.6-11.2c0,3.6,0,7.3,0,10.9c0,1.5,0.6,3.5-0.3,4.4c-1,1-3,0.3-4.5,0.3
		c-3.7,0.1-3.7,0-3.7-3.7c0-6.1,0-12.2,0-18.3c0-1.2,0.2-1.7,1.5-1.6c3.8,0.1,7.7,0.1,11.5,0c1.1,0,1.5,0.3,1.7,1.4
		c0.5,2.6,1.1,5.3,2,7.9c0.5-2.3,1.1-4.6,1.6-7c0.5-2.4,0.5-2.4,2.9-2.4c3.6,0,7.1,0,10.7,0c0.9,0,1.4,0.1,1.4,1.2
		c-0.1,7,0,14.1,0,21.1c0,1-0.3,1.3-1.2,1.2c-2.1-0.1-4.2-0.1-6.3,0c-1.1,0-1.3-0.3-1.3-1.4c0-4.8,0-9.6,0-14.4
		C121.3,129.9,121.2,129.9,121.1,129.9z"/>
	<path class="st1" d="M89,129c-0.9,0-1.8,0-2.7,0c-1.2,0-2.4,0.3-3.3-1.2c-0.7-1.2-4.9-1.3-6.1-0.5c-0.5,0.3-0.7,0.7-0.6,1.3
		c0.1,0.6,0.6,0.9,1.2,1c3,0.4,5.9,0.9,8.8,1.4c1.6,0.2,3.1,0.4,4.6,1c2.4,0.9,4.2,2.4,4.5,5.2c0.3,2.8-0.7,5.1-3.1,6.7
		c-2.5,1.7-5.4,2.3-8.3,2.5c-4.2,0.4-8.5,0.3-12.5-1.2c-2.5-1-4.6-2.4-5.1-5.3c-0.2-0.9,0.1-1.2,1-1.2c3.2,0,6.3,0,9.5,0
		c0.4,0,0.8,0,1.2,0.5c1.4,1.6,4.3,2.2,6.3,1.3c0.6-0.3,0.9-0.7,0.9-1.3c0-0.8-0.6-1.2-1.3-1.3c-2.4-0.5-4.8-0.9-7.1-1.4
		c-1.8-0.3-3.6-0.6-5.3-1c-3-0.8-4.5-2.7-4.8-5.6c-0.3-2.9,1-5.3,3.6-6.7c1.5-0.8,3-1.2,4.7-1.4c4.6-0.5,9.1-0.6,13.5,0.9
		c2.5,0.9,4.7,2.3,5.6,5c0.4,1.1,0.2,1.7-1.2,1.6C91.7,128.9,90.3,129,89,129z"/>
	<path class="st1" d="M159.7,101.7c0.1-2,1.5-3.3,3.1-2.9c0.9,0.2,1.3,0.5,0.7,1.5c-0.4,0.6-0.9,1.4-0.3,2c0.5,0.5,0.8,1.5,1.8,1.3
		c0.9-0.2,0.7-1.1,0.8-1.9c0.1-0.8,0.2-1.6,0.4-2.3c0.1-0.4,0-0.9,0.6-0.8c0.4,0,0.4,0.5,0.4,0.8c0.2,3.3,0.9,6.5,1.7,9.8
		c0.7,3.2-0.2,5.7-2.4,8c-0.9,0.9-1.7,1.9-2.6,2.8c-0.7,0.8-2.5,1-3.7,0.4c-1.3-0.6-1.1-2.1-1.1-3.3c0-0.2,0.2-0.6,0.1-0.5
		c-1.4,0.8-1.1-1.6-2.3-1.3c-0.9,0.2-2,0.1-2.8,0.6c-1.3,0.8-2.8,0.4-4.1,1.2c-0.3,0.2-1.7,0-1.2-0.9c1.3-2.4,0.9-4.9,1.4-7.4
		c0.4-1.9,1-3.2,3.1-3.2c1,0,1.7-0.6,1.9-1.6c0.2-1.3,1.5-1.9,2.2-2.8C158,100.2,158.7,101.7,159.7,101.7z"/>
	<path class="st1" d="M78.1,38.5c-0.5-0.4-1-0.5-0.6-1.5c0.6-1.6-0.9-1.4-1.9-1.5c-0.4,0-0.8,0.2-1.1-0.2c-0.2-0.4,0-0.7,0.4-0.9
		c0,0,0-0.1,0-0.1c0,0-0.1-0.1-0.1-0.1c-0.6-0.5-0.7-1.2,0.1-1.4c1.1-0.2,1.7-1.1,2.6-1.4c0.3,0,0.6,0.2,1,0.2c1-0.8,2-1.3,3.2-0.3
		c0.4,0.3,1.5,0.1,2-0.3c1-0.9,2-1.2,3.4-1.1c2.2,0,3.8,1.6,5.9,1.6c-0.2,0.7-0.5,1.2-1,1.3c-1.2,0.3-2,0.6-1.1,2.1
		c0.2,0.2-0.5,1.2-0.5,1.9c0,0.4-1.1,0.7-2.3,0.4c0.7,0.6,1.3,1.8,1.1,1.8c-1.3,0.3-1.5,1.9-3,2.1c-3,0.4-5.7,1.5-6.8,4.7
		c-0.2,0.6-0.9,0.9-1.3,0.8c-0.6-0.1-1.3-0.6-1.5-1.1c-0.7-1.7-1.3-3.4,0.2-5C77.3,39.9,77.1,38.8,78.1,38.5z"/>
	<path class="st2" d="M71.1,41.4c1.2,1.2,0.6,2.1-0.6,2.9c-0.4,0.3-0.7,0.1-0.9-0.1c-0.7-0.6-0.9-1.8-2.2-1.6c0-0.1-0.1-0.3-0.1-0.4
		c0.1-0.3,0.4-0.6,0.8-0.5c1.4,0.2,1.4-0.8,1.5-1.8c0.1-1.1-0.5-1.2-1.4-1.4c-0.6-0.1-1.7,0.3-1.7-0.8c-0.1-1.2,1.1-1.1,1.8-1.6
		c0.4,0.6-0.4,0.6-0.2,1.1c0.4-0.3,0.9-0.6,1.5-1c-0.1,0.8,0,1.2,1,1.1c1.9-0.2,2.5,0.7,2,2.5c-0.1,0.4-0.1,0.4,0.3,0.3
		c0.7-0.3,0.8,0.5,0.9,0.8c0.2,0.6-0.4,0.7-0.7,0.9c-0.4,0.4-0.7,0.2-1-0.3C72,41.3,71.6,41.1,71.1,41.4z"/>
	<path class="st3" d="M170.9,98.2c-1,0.1-1.6-0.1-1.8-1c-0.1-0.6-0.4-1.1-1-1.2c-0.7-0.1-0.4,0.6-0.7,1c-0.5,0.7-1.3,0.7-1.4,0
		c-0.2-2.4-2.2-3.2-3.8-4.2c-0.8-0.5-0.1-1.4-0.8-1.9c-0.2-0.1,0.3-0.4,0.5-0.4c0.4,0,1-0.3,1,0.4c0,0.8,0.6,1.1,1,0.9
		c1.7-0.9,2.9,0.3,4,1c0.8,0.5,1.7,1.1,1.5,2.6C169.5,96.3,170.4,97.3,170.9,98.2z"/>
	<path class="st3" d="M149.9,89.5c0-0.4-0.2-0.9,0.2-1.1c1.5-0.7,2.1-2.1,2.9-3.4c0.2-0.4,0.5-1.1,1.1-0.6c0.5,0.4,1.3,1.1,1,1.6
		c-0.9,1.3-0.1,2.8-0.8,4.1c-0.1,0.2,0,0.7-0.2,0.8c-0.8,0.5-0.1,2.3-1.7,2C150.8,92.6,149.9,91.3,149.9,89.5z"/>
	<path class="st3" d="M117.9,98c1.7,1.7,1,3.5,0.4,5c-0.7,1.6-0.8,3.5-1.8,5c-0.5,0.7-0.8,0.8-1.3,0.1c-0.2-0.2-0.4-0.4-0.5-0.6
		c-0.6-2,0-4.2,0.8-5.6C116.1,100.7,117,99.3,117.9,98z"/>
	<path class="st4" d="M107.1,168.1c-0.2-2.2-0.3-3.9-0.5-5.5c0-0.4-0.3-0.8,0.3-0.9c0.7-0.1,0.7,0.4,0.7,0.8
		c0.2,1.9,0.3,3.8,0.4,5.7c0,0.5,0.4,1.2-0.3,1.5c-0.8,0.4-1.2-0.4-1.6-0.9c-1.2-1.5-2.4-3.1-3.9-5c0.2,2,0.3,3.6,0.4,5.2
		c0,0.4,0.4,1.1-0.5,1.2c-0.8,0-0.5-0.7-0.6-1.2c-0.2-1.9-0.3-3.8-0.5-5.7c0-0.4-0.3-0.9,0.3-1.2c0.6-0.2,0.9,0,1.3,0.5
		C104.2,164.3,105.5,166,107.1,168.1z"/>
	<path class="st5" d="M136.6,159.5c-0.7,0.7-1.1,0.5-1.6-0.1c-1.6-2.1-1.6-2-3.7-0.8c-0.8,0.4-1,0.8-0.4,1.5c0.3,0.5,0.5,1,0.8,1.5
		c0.2,0.3,0.3,0.6-0.1,0.8c-0.5,0.3-0.7,0-0.9-0.3c-1.1-2-2.2-3.9-3.3-5.9c-0.3-0.4-0.2-0.7,0.2-1c1.1-0.6,2.2-1.3,3.4-1.8
		c1.4-0.6,2.9,0.4,2.8,1.9c-0.1,1,0.3,1.5,1.1,2c0.3,0.2,0.5,0.7,0.8,1.1C136,158.8,136.3,159.1,136.6,159.5z"/>
	<path class="st6" d="M64.9,152.7c0,0.8-0.2,1.4-0.6,1.6c-1.9,0.7-1.9,2.6-2.9,3.9c-0.2,0.2,0,1-0.7,0.6c-0.5-0.3-0.6-0.6-0.3-1.1
		c0.2-0.3,0.4-0.6,0.5-0.9c0.7-1.3-0.7-3.6-2.1-3.5c-0.8,0.1-0.9,1.1-1.4,1.5c-0.4,0.3-0.5,1.3-1.2,0.7c-0.7-0.6,0.1-1,0.3-1.4
		c1.1-1.6,2.2-3.1,3.4-4.6c0.2-0.3,0.4-1,1-0.6c1.3,0.9,2.8,1.6,3.7,3.1C64.9,152.2,64.9,152.6,64.9,152.7z"/>
	<path class="st7" d="M91.9,166.1c0-2.6,1.5-4.4,3.9-4.4c2.3,0,4,1.8,3.9,4.3c0,2.6-1.7,4.3-4,4.3C93.5,170.3,91.9,168.6,91.9,166.1
		z"/>
	<path class="st7" d="M84.8,168.8c-1.9,0-3.4-1-3.6-2.5c-0.1-0.4-0.2-0.9,0.2-1c0.6-0.2,0.7,0.2,0.8,0.7c0.3,1.3,1.3,1.7,2.5,1.8
		c0.7,0,1.4-0.2,1.6-0.9c0.2-0.7-0.3-1.2-0.8-1.5c-0.7-0.4-1.5-0.7-2.2-1.2c-0.8-0.5-1.4-1.2-1.2-2.2c0.3-1.1,1-1.7,2.2-1.8
		c1.8-0.1,3.4,0.8,3.6,2.1c0.1,0.4,0.3,0.8-0.3,1c-0.4,0.1-0.7-0.1-0.8-0.6c-0.1-0.9-0.7-1.3-1.4-1.4c-0.8-0.2-1.6-0.3-2,0.7
		c-0.4,0.9,0.4,1.3,1,1.6c0.5,0.3,1,0.5,1.5,0.7c1.1,0.6,1.9,1.5,1.5,2.8C87.1,168.5,86.1,168.9,84.8,168.8z"/>
	<path class="st8" d="M141.6,150.2c-0.9,0-1.5-0.5-1.8-1.2c-0.5-1.3,0.1-2.3,1-3.2c0.9-0.8,1.9-1.3,3.1-0.7c0.3,0.2,0.9,0.2,0.6,0.8
		c-0.2,0.4-0.5,0.5-0.9,0.3c-0.7-0.4-1.3-0.3-1.9,0.2c-0.7,0.5-1.3,1.2-0.8,2.1c0.5,1,1.3,0.5,2.1,0.1c0.8-0.4,1.5-0.9,2.3-1.1
		c1.7-0.5,3,0.8,2.7,2.5c-0.4,2.1-3.1,3.7-4.7,2.8c-0.4-0.2-1-0.3-0.6-0.9c0.2-0.5,0.6-0.3,1-0.1c0.7,0.4,1.4,0.3,2.1-0.2
		c0.9-0.6,1.8-1.4,1.2-2.5c-0.6-1.2-1.6-0.5-2.5-0.1C143.4,149.5,142.6,150.1,141.6,150.2z"/>
	<path class="st9" d="M69.1,159.3c-0.7-0.4-1.6-0.8-2.4-1.3c-1.1-0.8-1.3,0.1-1.7,0.8c-0.4,0.7-0.8,1.2,0.3,1.7
		c0.8,0.3,1.6,0.8,2.4,1.3c0.3,0.2,0.7,0.3,0.5,0.7c-0.2,0.4-0.5,0.3-0.8,0.2c-1.3-0.7-2.5-1.4-3.8-2.1c-0.6-0.3-0.4-0.7-0.1-1.1
		c1-1.9,2.1-3.7,3.1-5.6c0.3-0.5,0.6-0.7,1.2-0.4c1.2,0.7,2.3,1.3,3.5,2c0.4,0.2,0.7,0.4,0.4,0.9c-0.3,0.4-0.6,0.1-0.9-0.1
		c-0.7-0.4-1.4-0.7-2.1-1.2c-0.9-0.7-1.3-0.4-1.9,0.5c-0.7,1.1-0.1,1.3,0.7,1.7c0.7,0.4,1.4,0.8,2.1,1.2c0.2,0.1,0.4,0.2,0.3,0.5
		C69.7,159.2,69.6,159.4,69.1,159.3z"/>
	<path class="st8" d="M71.6,162c-0.1,1,0.5,1.8,1.4,2.2c1,0.5,2,0.4,2.7-0.5c0.4-0.4,0.8-0.8,1.2-0.2c0.4,0.5-0.2,0.8-0.5,1.1
		c-1.3,1.4-3.9,1.2-5.2-0.4c-1.2-1.5-1-4.2,0.6-5.9c1.4-1.5,3.5-1.7,5.2-0.4c0.8,0.6,1.2,1.3,1.2,2.3c0,0.3,0,0.8-0.4,0.8
		c-0.2,0-0.6-0.3-0.6-0.4c-0.2-1.9-1.4-2.7-3.1-2.4C72.7,158.4,71.6,160.2,71.6,162z"/>
	<path class="st10" d="M118.6,159c1.4,0.1,2.1,0.7,2.4,1.8c0.3,1.1,0.1,2-0.9,2.6c-0.2,0.1-0.5,0.3-0.8,0.3c-1.8,0.3-2.9,1-1.7,3
		c0.2,0.4,0.3,0.9-0.4,1.1c-0.6,0.2-0.6-0.4-0.7-0.7c-0.6-2-1.3-4.1-1.9-6.1c-0.1-0.4-0.2-0.9,0.4-1.1
		C116.3,159.7,117.5,159.3,118.6,159z"/>
	<path class="st5" d="M58.9,147.7c0,1.3-0.6,2-1.4,2.5c-0.8,0.5-1.6,0.4-2.4-0.1c-0.2-0.2-0.5-0.3-0.7-0.5c-1.1-1.4-2.1-1.5-3.1,0.1
		c-0.2,0.3-0.5,1.1-1.1,0.5c-0.7-0.6,0.1-1,0.4-1.3c1.3-1.5,2.7-2.9,4-4.4c0.5-0.6,0.9-0.7,1.4-0.1C57,145.6,58.7,146.3,58.9,147.7z
		"/>
	<path class="st2" d="M122.3,166.2c0-2.5,0-5.1,0-7.7c0-0.5,0-0.9,0.5-1.1c0.6-0.3,0.9,0.1,1.3,0.5c1.5,1.6,3.1,3.1,4.5,4.8
		c0.2,0.3,1,0.5,0.4,1c-0.5,0.4-1,0.2-1.3-0.3c-0.7-1.2-1.6-1.2-2.8-0.7c-1.2,0.5-1.7,1.1-1.5,2.3
		C123.6,165.7,123.4,166.3,122.3,166.2z"/>
	<path class="st7" d="M78.4,31.5c-0.2,0.1-0.4,0.2-0.7,0.3c-0.9-0.6-1.2,0.4-1.9,0.6c-0.6,0.2-1.2,0.5-1.8,0.7
		c-0.4-0.1-0.8,0.1-1,0.5c-1,1.6-2.3,0.9-3.7,0.7c0.3-0.7,0.9-0.9,1.4-1c1-0.4,2-0.6,1.1-2c-0.1-0.2,0-0.5,0.2-0.6
		c1.6-0.6,3.2-1.5,5-0.9C77.8,30,78.5,30.5,78.4,31.5z"/>
	<path class="st11" d="M96.4,154.9c0-1.7,0-3.4,0-5.1c0-0.3,0.1-0.5,0.5-0.5c0.5,0,0.7,0.3,0.8,0.7c0.5,1.2,0.9,2.4,1.5,4
		c0.6-1.5,1-2.6,1.5-3.8c0.2-0.4,0.3-0.9,0.9-0.8c0.7,0.1,0.5,0.7,0.5,1.1c0,1.3,0,2.6,0,3.9c0,0.3,0,0.6-0.3,0.7
		c-0.5,0.1-0.5-0.4-0.5-0.7c0-0.9,0-1.8,0-3c-0.9,1.1-1,2.2-1.4,3.1c-0.1,0.3-0.2,0.7-0.6,0.7c-0.5,0-0.5-0.4-0.6-0.7
		c-0.4-1-0.8-2-1.3-3.4c-0.4,1.6,0.1,2.9-0.4,4C96.7,154.9,96.5,154.9,96.4,154.9z"/>
	<path class="st9" d="M147.1,89.4c0,0.6-0.1,1.1,0.4,1.7c0.4,0.4,0.8,1,0.6,1.7c-0.1,0.5-0.1,1.1-0.5,1.3c-0.6,0.3-0.8-0.4-1.1-0.8
		c-0.6-0.8-1.1-1.6-1.4-2.6c-0.4-1.4-1-2.9-2.2-3.9c-0.2-0.2-0.6-0.5-0.2-0.8c0.3-0.2,0.8-0.4,1.2,0.1c0.4,0.6,0.5,1.4,1.3,1.7
		C146,88,146.4,88.8,147.1,89.4z"/>
	<path class="st10" d="M135.6,151.5c-0.6,0.4-1.1,0.8-1.6,1.1c-0.2,0.2-0.5,0.3-0.7,0.1c-0.3-0.3-0.2-0.6,0.1-0.8
		c1.5-1.1,2.9-2.1,4.4-3.2c0.3-0.2,0.5-0.2,0.7,0.1c0.3,0.4,0,0.7-0.3,0.8c-2,0.9-1.2,2-0.2,3.1c0.9,1,1.6,2.2,2.4,3.3
		c0.2,0.3,0.5,0.7,0,1c-0.5,0.3-0.7,0-0.9-0.3c-1-1.4-2-2.8-3.1-4.2C136.2,152,135.9,151.8,135.6,151.5z"/>
	<path class="st12" d="M81.2,152.2c0.8-0.4,1.8-0.6,2.4,0c0.5,0.6,0.2,1.7,0.1,2.6c-1.1-0.4-2.2,0.6-3.3,0.2c-0.9-0.4-1.5-1-1.7-1.9
		c-0.7-2.4,1.1-4.4,3.3-3.9c0.9,0.2,1.7,0.6,1.5,1.8c-0.4,0.1-0.6-0.2-0.7-0.4c-0.5-0.8-1.3-0.9-2.1-0.6c-1,0.4-1.2,1.2-1.2,2.2
		c0,0.9,0.3,1.7,1.2,2c0.9,0.3,2,0.2,2.2-0.9C83.2,151.9,81.5,153.1,81.2,152.2z"/>
	<path class="st13" d="M89.4,149.6c-0.9,0.5-1.6,0.3-2.3,0.3c-0.6,0-0.9,0.2-1,0.9c0,0.7,0.3,0.9,0.9,0.9c0.6,0,1.3-0.1,1.9,0.2
		c-0.1,0.8-0.7,0.5-1,0.6c-0.7,0.2-1.9-0.5-1.8,1c0.1,1.5,1.2,0.6,1.9,0.8c0.4,0.1,0.9-0.1,1.5,0.5c-1.6,0.3-2.9,0.4-4.2,0
		c-0.2-0.1-0.2-5.1,0-5.3C85.6,149,88,149.1,89.4,149.6z"/>
	<path class="st14" d="M158.5,63.1c-0.6,0.1-1-1.8-1.7-0.1c0,0.1-0.4,0.1-0.6,0.1c-0.1,0-0.2-0.3-0.2-0.4c0.4-0.6,0.2-1.6,1-1.8
		c1.5-0.4,1.5-1.3,1.1-2.4c-0.2-0.6-0.4-1.3,0.3-1.4c0.5-0.1,1,0.6,1.2,1.1c0.3,0.8,0.5,1.7,0.6,2.5c0.1,0.5,0.1,1.1-0.6,1.2
		C158.8,61.8,158.8,62.6,158.5,63.1z"/>
	<path class="st14" d="M112.8,153.5c0.3-1.6-0.1-3,0.3-4.3c0.4,0.7,0.8,5.1,0.5,5.5c-0.5,0.5-0.9,0.1-1.1-0.4
		c-0.7-1.1-1.5-2.2-2.4-3.6c-0.4,1.5,0.1,2.9-0.4,4.1c-0.2,0-0.4,0-0.5,0c0-1.8-0.2-3.6,0.1-5.3c0.1-0.8,0.8-0.2,1,0.2
		C111.1,150.9,111.9,152.1,112.8,153.5z"/>
	<path class="st15" d="M92.2,149.2c2.5,0,2.7,0.4,2.3,2.8c-0.1,0.6,0.3,1.4,0.4,2.1c0,0.3,0.4,0.7-0.2,0.8c-0.6,0.1-0.6-0.3-0.6-0.7
		c-0.1-0.7,0-1.5-1.1-1.6c-1,0-2-0.2-1.7,1.4c0.1,0.3,0.2,0.9-0.3,0.9c-0.7,0-0.4-0.7-0.4-1c0-0.9,0.1-1.8,0-2.7
		C90.3,149.6,90.8,148.8,92.2,149.2z"/>
	<path class="st6" d="M91.5,53.7c-1.2,0.2-1.2-0.9-0.9-1.2c0.8-1,0.4-1.8,0-2.7c-0.2-0.4-0.1-0.8,0.1-1.1c0.1-0.3,0.3-0.6,0.7-0.5
		c0.3,0.1,0.7,0.3,0.6,0.7c-0.2,0.8,0.3,1.4,0.8,1.9c0.6,0.6,0.8,1.4,0.5,2.1C92.9,53.8,91.9,53.2,91.5,53.7z"/>
	<path class="st16" d="M103,154.9c0.7-1.8,1.4-3.6,2.1-5.3c0.3-0.6,0.8-0.6,1.1,0.1c0.7,1.5,1.2,3.1,1.9,4.7
		c0.1,0.2,0.2,0.5-0.1,0.5c-0.2,0-0.5,0-0.6-0.2c-1.9-1.9-1.9-1.9-3.7,0.2C103.6,154.9,103.4,154.9,103,154.9z"/>
	<path class="st10" d="M57.2,38.1c0.1-1.5,1.4-2.5,2.9-2.1c1.1,0.3,1.1,0.3,2-0.4c-0.2,1-0.4,1.9-0.6,2.8
		C60,38.8,58.6,38.4,57.2,38.1z"/>
	<path class="st17" d="M88.9,168.5c0.3-2.2,0.6-4.3,1-6.4c0.1-0.4,0-0.8,0.6-0.7c0.6,0.1,0.5,0.5,0.5,0.9c-0.3,2.1-0.6,4.2-0.9,6.3
		c-0.1,0.4,0,1-0.7,0.9C88.6,169.4,89,168.8,88.9,168.5z"/>
	<path class="st18" d="M81.2,160.2c-0.6,1.9-1.3,4.2-2.1,6.6c-0.1,0.3-0.4,0.4-0.7,0.3c-0.3-0.1-0.4-0.3-0.3-0.6
		c0.7-2.3,1.4-4.5,2.1-6.8c0.1-0.3,0.4-0.4,0.7-0.3C81.1,159.3,81.3,159.5,81.2,160.2z"/>
	<path class="st19" d="M154.3,76.2c0.2-0.4-0.5-1.4,0.6-1.4c0.9,0,1,0.9,0.8,1.7c-0.3,1.1-0.1,1.8,1.1,2.2c0.5,0.2,0.8,0.8,1.1,1.3
		c0.1,0.2,0,0.5,0,0.8c-0.2,0-0.5,0-0.6-0.1C155.8,79.6,154,78.7,154.3,76.2z"/>
	<path class="st20" d="M158.1,88.4c-0.6,1-1.6,0.8-2.2,1.6c0.6,0.3,2.1,0.5,0.5,1.5c-0.1,0,0.1,0.4,0.1,0.6c0.1,0.4,0.7,1.2-0.6,0.7
		c-0.4-0.1,0.1,0.8-0.7,1.2c-0.6-1.6-0.4-3.3,0.2-4.7C155.7,88.2,157,88.5,158.1,88.4z"/>
	<path class="st21" d="M114.8,149.1c1.6,0.5,1.6,1.9,2.6,2.5c0.9-0.6,1-2,2.2-2.5c0.2,0.8-0.3,1.2-0.6,1.6c-0.8,1.1-1.6,2.2-1.3,3.7
		c0,0.2,0,0.5-0.3,0.5c-0.2,0-0.5-0.1-0.5-0.3C117.4,152.4,115.6,151.1,114.8,149.1z"/>
	<path class="st19" d="M98.6,33.2c0.7,0.1,1.4,0.4,2-0.4c0.2-0.2,0.8-0.2,1.3-0.2c0.4,0,0.7,0.1,0.7,0.5c0,0.4-0.1,0.7-0.6,0.6
		c-1-0.2-1.6,0.6-1.9,1.1c-0.6,1-0.9,0.9-1.2,0c-0.1-0.4-0.2-0.5-0.6-0.5c-0.5,0-0.5-0.5-0.5-0.9C97.8,32.9,98.3,33.3,98.6,33.2z"/>
	<path class="st22" d="M121.4,71.8c-0.3-0.1-0.1-1.4-1-0.4c-0.7,0.8-1.3,0.6-1.9-0.4c-0.4-0.7-1-1.2-1.5-1.8c-0.2-0.3-0.4-0.6,0-0.8
		c0.3-0.2,0.8-0.2,0.9,0.1c0.6,2.6,3.2,1.8,4.8,2.8C122.1,71.4,121.7,71.4,121.4,71.8z"/>
	<path class="st16" d="M158,85.3c-1.2-0.3-1.5-1.4-1.7-2.1c-0.1-0.5,1-1.2,1.7-1.2c0.7,0,1,0.8,0.8,1.4
		C158.6,84,158.6,84.8,158,85.3z"/>
	<path class="st23" d="M57.8,75.1c-0.9,0-1.8,0.6-2.2-1c-0.3-0.9-1.8-0.8-3-0.9C54.3,71.7,57,72.8,57.8,75.1z"/>
	<path class="st9" d="M88.7,42.2c0.8,0.1,1.9-0.4,1.8,0.8c-0.1,1-1.3,1.6-2.1,1.7c-0.7,0.1-1-1.2-1.1-1.8
		C87.2,41.6,88.4,42.6,88.7,42.2z"/>
	<path class="st24" d="M153.5,49.4c-0.5-0.4-0.6-1.1-0.9-1.6c0.6-0.2,1-0.3,1.5,0.3c1.1,1.3,1.8,2.7,2.8,4c0.2,0.2,0.4,0.4,0,0.7
		c-0.4,0.3-0.6,0.2-0.8-0.1c-0.5-0.8-0.9-1.6-1.4-2.5C154.4,49.7,154.3,49.1,153.5,49.4z"/>
	<path class="st25" d="M151.6,96.2c-0.8-0.5-1.9-0.4-2.9-0.7c-0.5-0.1-0.7-0.6-0.5-1.1c0.2-0.6,0.6-0.5,1.1-0.3
		c0.9,0.5,2.3,0,2.9,1.2c0.1,0.2,0.2,0.4,0.2,0.6C152.3,96.2,152.1,96.3,151.6,96.2z"/>
	<path class="st26" d="M150.5,42.2c-2.3-1.8-4.5-3.6-6.8-5.4c0.1-0.1,0.2-0.2,0.4-0.3c2.5,1.5,4.7,3.3,6.8,5.4
		C150.7,42,150.6,42.1,150.5,42.2z"/>
	<path class="st25" d="M156.9,53.4c0.7,0.4,1.1,0.6,1.5,0.8c0.8,0.3,0.6,1.1,0.5,1.6c-0.1,0.6-1.1,0.3-1.4,1
		c-0.4-0.3-0.5-0.8-0.6-1.3C156.8,54.9,156.9,54.3,156.9,53.4z"/>
	<path class="st27" d="M71.7,55.9c-0.7-0.1-1.1-1.1-2.5-0.6c0.9-1.3,1.5-2.1,2.1-2.9C71.2,53.7,73.2,54.6,71.7,55.9z"/>
	<path class="st25" d="M161.3,122.1c0,0,0.6-0.1,0.5,0.6c-0.1,1-0.9,1.5-1.7,1.7c-0.3,0.1-0.9,0-0.7-0.6
		C159.6,123.1,159.5,122,161.3,122.1z"/>
	<path class="st20" d="M57.3,76.5c0.9-0.6,1.4-1.3,2.5-1.1c0.5,0.1,0.9,0.2,1,0.7c0.1,0.5-0.4,0.5-0.7,0.7
		C59.1,77.4,58.4,76.9,57.3,76.5z"/>
	<path class="st28" d="M112.4,36.8c0.2-1.2,2.7-2.5,3.6-1.9c0.1,0.1,0.2,0.4,0.2,0.4c-0.2,0.2-0.4,0.4-0.7,0.4
		c-1.2,0-1.9,0.7-2.5,1.5C112.7,37.3,112.5,37,112.4,36.8z"/>
	<path class="st12" d="M70.1,30.7c0.4,0.2,1.2,0.2,1.1,0.9c-0.1,1-0.9,1.1-1.7,1.2c-0.4,0.1-0.8-0.2-0.5-0.6
		C69.5,31.8,68.9,30.7,70.1,30.7z"/>
	<path class="st29" d="M74,33.1c0.7-0.9,1.7-1.2,2.6-1.7c0.5-0.3,0.9-0.3,1.1,0.4c-1.2,0.2-1.7,1.8-3.2,1.5
		c-0.3-0.1-0.1,0.6,0.1,0.9C74,34.1,74,33.6,74,33.1z"/>
	<path class="st30" d="M88.4,53c-0.2-1.2-0.3-2.3,1.2-2.8C89.8,51.3,90.7,52.7,88.4,53z"/>
	<path class="st31" d="M57.2,38.1c1.4,0.1,2.9,0.2,4.3,0.4c0.7,0.3,1.6-0.7,2.1,0.4c-1.3,0.3-2.7,0.8-4-0.2
		c-0.4-0.3-1.1-0.2-1.5,0.2C57.9,38.5,57.3,38.6,57.2,38.1z"/>
	<path class="st32" d="M110.8,166.5c-0.5,0.1-1-0.1-0.8-0.4c0.5-1.1,1.7-0.6,2.6-0.9c0.4-0.1,0.8,0,0.7,0.4
		C112.8,166.7,111.5,166.2,110.8,166.5z"/>
	<path class="st33" d="M133.8,83.9c0.1-0.4,0-1.1,0.6-0.8c0.6,0.3,1.1,0.8,0.9,1.6c-0.1,0.5-0.1,1.2-0.8,1
		C133.6,85.4,134.1,84.5,133.8,83.9z"/>
	<path class="st11" d="M154.4,72.9c-0.9-1-1.4-2-0.2-3.3C154.8,70.7,154.5,71.8,154.4,72.9z"/>
	<path class="st34" d="M64.9,37.2c-0.3,0.1-0.6,0.2-1,0.3c-0.1-0.6-1.7-0.6-0.6-1.6c0.4-0.4,0.9-0.6,1.4-0.4c0.7,0.3,0,0.7,0,1.1
		C64.7,36.8,64.8,37,64.9,37.2z"/>
	<path class="st10" d="M62.3,33.6c0.5-0.2,1-0.2,1,0.6c0,1.1-0.8,0.6-1.3,0.7c-0.6,0.1-1.3-0.4-1.3-0.7
		C60.8,33.5,61.5,33.2,62.3,33.6z"/>
	<path class="st35" d="M112.4,36.8c0.2,0.1,0.4,0.3,0.6,0.4c0,0.8,0.8,1,1,1.7C111.6,38.9,111.4,38.6,112.4,36.8z"/>
	<path class="st36" d="M156.5,96.1c-0.2,0.7-1,0.8-1.2,1.5c-0.3-0.9-0.9-1.2-1.9-1.4C154.7,95.5,155.6,95.9,156.5,96.1z"/>
	<path class="st18" d="M67.5,35.3c1.1-0.7,2.1-0.4,3.5,0C69.7,36.1,68.6,35.4,67.5,35.3z"/>
	<path class="st37" d="M65.8,42.6c-0.3,0.6-1.1,0.2-1.6,0.6c-0.2,0.2-0.5-0.3-0.4-0.5c0.2-0.6,0.5-1.1,1.2-1.2
		C65.7,41.5,65.6,42,65.8,42.6z"/>
	<path class="st33" d="M153.7,83.4c0.2-1.3,0.6-2.1,1-3C155.5,81.5,155.4,81.8,153.7,83.4z"/>
	<path class="st38" d="M159.3,88.8c0.1-0.3-0.2-0.9,0.4-0.9c0.6,0,0.7,0.4,0.7,0.9c0,0.5-0.1,1-0.6,1
		C159.1,89.8,159.4,89.2,159.3,88.8z"/>
	<path class="st36" d="M64.2,34.4c0.5-0.9,1-1.1,1.8-0.7c0.5,0.2,0.3,0.5,0.1,0.8C65.4,35.5,64.9,34.5,64.2,34.4z"/>
	<path class="st39" d="M78.1,38.5c-0.8,0.4,0.2,2.1-1.4,2C76,39,76.9,38.7,78.1,38.5z"/>
	<path class="st40" d="M128.3,33.7c-0.6,0-1.2,0-1.7,0.1c-0.1-0.1-0.2-0.3-0.3-0.3c-0.3-0.1-0.7,0.1-0.7-0.4c0-0.2,0-0.5,0.2-0.6
		c0.4-0.2,0.9,0,1,0.2C127,33.6,127.8,33.4,128.3,33.7z"/>
	<path class="st41" d="M97.8,50.1c0-0.7-0.2-1.4-1.1-0.7c-0.1-0.2-0.2-0.4-0.3-0.6c0.6,0.2,1-0.9,1.6-0.1c0.4,0.5,0.5,1,0.1,1.5
		C98,50.2,97.9,50.2,97.8,50.1z"/>
	<path class="st42" d="M122.8,32.8c0.4-0.9,0.8-1.3,1.5-1c0.3,0.1,0.6,0.3,0.4,0.6C124.3,33.3,123.6,32.6,122.8,32.8z"/>
	<path class="st43" d="M156.8,65.6c-0.3-0.1-0.3-0.1-0.3-0.1c-0.3-0.6-0.7-1.1-0.5-1.8c0-0.1,0.4-0.1,0.4-0.1
		C156.8,64.2,157.1,64.8,156.8,65.6z"/>
	<path class="st44" d="M156.9,98.1c0.2-0.9,0.5-1.5,1.6-1.8C158.1,97.2,157.9,97.8,156.9,98.1z"/>
	<path class="st45" d="M66.2,33.1c-0.3-0.1-0.6-0.3-0.6-0.7c0-0.4,0.3-0.6,0.7-0.6c0.3,0,0.5,0.3,0.5,0.6
		C66.7,32.7,66.7,33.1,66.2,33.1z"/>
	<path class="st46" d="M40.1,66.7c0.1,0.8,0.3,1.6,0.4,2.3c-0.1,0.2-0.3,0.5-0.4,0.7c-0.4-0.8-0.3-1.6-0.3-2.4
		C39.7,67,39.5,66.6,40.1,66.7z"/>
	<path class="st47" d="M147.1,89.4c-0.8-0.4-1.4-1-2-1.6c0-0.2,0.1-0.4,0.1-0.6c0.7,0.6,1.3,1.1,2,1.7
		C147.1,89,147.1,89.2,147.1,89.4z"/>
	<path class="st48" d="M149.4,74.6c-0.1,0.5-0.2,1-0.7,1c-0.1,0-0.4-0.4-0.4-0.6c0-0.4,0.1-0.8,0.6-0.8
		C149.2,74.2,149.4,74.4,149.4,74.6z"/>
	<path class="st49" d="M67.3,53.8c-0.7,0-1.2,0.6-2,0.4c0.5-0.8,1.4-0.6,1.9-1.2C67.2,53.2,67.3,53.5,67.3,53.8z"/>
	<path class="st50" d="M98.5,63.2c0.1-0.4,0.5-0.3,0.8-0.3c0.3-0.1,0.5,0.1,0.5,0.4c0,0.4-0.2,0.6-0.6,0.5
		C98.9,63.6,98.5,63.7,98.5,63.2z"/>
	<path class="st51" d="M97.8,50.1c0.1,0,0.2,0,0.3,0c0.7,0.7,1.3,0.3,1.6-0.3c0.6-1.1,1.6-2.1,1.3-3.7c-0.3-1.2,1.1-2,1.5-3.1
		c0.1-0.2,0.7-0.2,0.9,0.1c0.2,0.3-0.2,0.6-0.4,0.8c-1.2,1.6-1.1,2.5,0.5,3.4c0.3,0.3,0.1,0.7,0.3,1c-1.5,2.3-3.5,3.2-5.8,2.5
		C97.5,50.8,97.7,50.4,97.8,50.1z"/>
	<path class="st52" d="M115,80.9c-3.5-3.4-3.5-8-6.2-11.5c1.1,0.1,1,0.2,1.5,0.7c1.6,1.8,1.9,4.3,3.3,6.2
		C114.6,77.6,114.7,79,115,80.9z"/>
	<path class="st53" d="M109.1,58.5c0.3-1-0.3-2.1,1.2-1.9c-0.5,1.1-0.4,1.9,0.9,2.3c0.3,0.1,0.7,0.5,0.5,1c-0.2,0.5-0.7,0.3-1,0.2
		c-1.3-0.3-2.5-0.4-3.7,0.2c-0.4,0.2-0.6-0.1-0.6-0.3c-0.1-1.1,0.2-2.3,1-2.9C107.9,56.5,108.5,57.5,109.1,58.5z"/>
	<path class="st54" d="M116.4,56.6c0.3,0.1,0.6,0.2,0.6,0.5c0.1,1.4,0.5,3.1,1,4.3c0.2,0.5,1.1,1,0.4,1.7c-0.3,0.3-0.6,0.3-1.1,0.1
		c-0.7-0.4-1.2-0.8-1-1.7c0.2-1-0.5-1.6-0.9-2.4c-0.3-0.6-0.5-1.3,0-1.9C115.6,57,115.9,56.6,116.4,56.6z"/>
	<path class="st55" d="M120.3,56.4c0.7,0.1,0.6,0.7,0.8,1c0.2,0.4,0,0.9-0.5,1c-0.5,0.1-0.6-0.4-0.7-0.7
		C119.8,57.1,120,56.7,120.3,56.4z"/>
	<path class="st56" d="M121.3,40.2c-0.4,0.4,0.2,1.4-0.8,1.5c-0.1,0-0.2-0.1-0.3-0.2c0.9-0.2-0.1-1.5,0.9-1.6
		C121.3,39.7,121.4,39.9,121.3,40.2z"/>
	<path class="st57" d="M103.8,48.4c-0.1-0.3-0.2-0.7-0.3-1c0.6-0.6,1.3-0.3,2.2-0.6C105.1,47.7,103.5,47,103.8,48.4z"/>
	<path class="st58" d="M58,57.1c-0.3-1.4,0.2-3-1.7-3.4c-0.3-0.1,0.1-0.5,0.2-0.7c0.3-0.4,1-0.5,1.2-0.2c0.5,0.8,0.8,1.7,1.3,2.6
		C59.1,55.7,58.6,56.6,58,57.1z"/>
	<path class="st59" d="M56.8,55.8c-0.1,0.9-0.5,1.6-1.1,2.2C55.8,57.2,55.4,56.3,56.8,55.8z"/>
	<path class="st60" d="M40.1,66.7c-0.1,0.2-0.2,0.4-0.3,0.7c-0.4-0.7-0.4-1.4-0.2-2.1C40.4,65.5,40.2,66.1,40.1,66.7z"/>
	<path class="st61" d="M132.9,155.7c0,0.7-2,2.6-2.8,2.4c-1-0.2-1.6-1.5-1.4-2c0.4-1.1,1.7-1.5,2.8-1.8
		C132.3,154.2,132.7,155,132.9,155.7z"/>
	<path class="st62" d="M61,150.2c0.5-0.1,2.8,1.9,2.8,2.3c0,0.8-0.4,1.4-1.2,1.6c-0.5,0.1-3.1-1.4-3-1.8
		C59.8,151.4,60.5,150.8,61,150.2z"/>
	<path class="st63" d="M93,166.2c0-2,1.1-3.4,2.7-3.5c1.7-0.1,2.9,1.3,2.9,3.3c0,2-1.2,3.4-2.8,3.4C94.2,169.4,93.1,168.1,93,166.2z
		"/>
	<path class="st64" d="M118.5,160.1c1,0.1,1.4,0.7,1.4,1.5c0,0.9-1.5,1.9-2.8,1.8c-1.2-0.1-0.8-1.4-1.1-2.1
		C115.8,160.9,117.5,160.1,118.5,160.1z"/>
	<path class="st53" d="M57.8,148.1c-0.2,0.7-0.7,1.5-1.6,1.3c-1.1-0.2-2.2-1-2.4-2.1c-0.1-0.6,0.9-1.5,1.7-1.9
		C56,145.3,57.8,147.4,57.8,148.1z"/>
	<path class="st65" d="M123.4,162.2c-0.1-1.2-0.2-2.3-0.3-3.6c1.2,0.6,1.7,1.7,2.6,2.5C125.1,161.8,124.3,162,123.4,162.2z"/>
	<path class="st66" d="M92.4,151.9c-0.7,0.1-1.1,0-1.2-0.9c0-1,0.4-1.1,1.2-1c0.7,0.1,1.6-0.1,1.6,1C94,152,93.1,151.8,92.4,151.9z"
		/>
	<path class="st58" d="M104.8,152.5c0.2-0.8,0.3-1.5,0.8-2.1C106.6,152.6,106.6,152.6,104.8,152.5z"/>
</g>
</svg>
