<?xml version="1.0" encoding="utf-8"?>
<!-- Generator: Adobe Illustrator 25.0.0, SVG Export Plug-In . SVG Version: 6.00 Build 0)  -->
<svg version="1.1" id="Capa_1" xmlns="http://www.w3.org/2000/svg" xmlns:xlink="http://www.w3.org/1999/xlink" x="0px" y="0px"
	 viewBox="0 0 200 200" style="enable-background:new 0 0 200 200;" xml:space="preserve">
<style type="text/css">
	.st0{fill:#FFFFFF;}
	.st1{fill:#094891;}
	.st2{fill:#E5262E;}
</style>
<path class="st0" d="M46.1,139.1L46.1,139.1z"/>
<g>
	<path class="st1" d="M189.8,64.9v-0.6h0.5c0.4,0,0.4,0.1,0.4,0.3s-0.1,0.4-0.5,0.4H189.8 M190.2,65.3c0.2,0,0.3,0,0.4,0.1
		s0.1,0.4,0.2,0.6c0,0.2,0.1,0.3,0.1,0.5h0.6c-0.1-0.3-0.1-0.5-0.2-0.7c0-0.3-0.1-0.5-0.5-0.6l0,0c0.4-0.1,0.6-0.3,0.6-0.6
		c0-0.6-0.5-0.7-1-0.7h-0.8v2.6h0.4v-1.1L190.2,65.3L190.2,65.3z M190.3,67c-1,0-1.8-0.8-1.8-1.8c0-1,0.8-1.8,1.8-1.8
		c1,0,1.8,0.8,1.8,1.8C192.1,66.1,191.3,67,190.3,67z M190.3,67.3c1.2,0,2.2-1,2.2-2.2c0-1.2-1-2.2-2.2-2.2c-1.2,0-2.2,1-2.2,2.2
		C188.1,66.4,189.1,67.3,190.3,67.3z"/>
	<path class="st1" d="M74.1,68.1h18.7l7.4,30.9H87.7l-1.2-6.2h-6.2l-1.2,6.2H66.7L74.1,68.1 M85.3,86.6l-1.8-9.6l-1.8,9.6H85.3z"/>
	<path class="st1" d="M58.4,86.5l8,12.5H53.1l-5.9-10.1v10H34.8V68.1h21.8c5.2,0,9.3,4.2,9.3,9.2C65.8,81.9,62.6,85.6,58.4,86.5
		 M50.3,74.3h-3.1v6.2h3.1c1.8,0,3.1-1.4,3.1-3.1C53.5,75.7,52.1,74.3,50.3,74.3z"/>
	<rect x="127" y="74.3" class="st1" width="6.2" height="6.2"/>
	<polyline class="st1" points="135.9,68.1 148.4,68.1 148.4,92.8 160.8,92.8 160.8,98.9 135.9,98.9 135.9,68.1 	"/>
	<polyline class="st1" points="163.2,68.1 188.1,68.1 188.1,74.3 175.6,74.3 175.6,80.5 188.1,80.5 188.1,86.6 175.6,86.6 
		175.6,92.8 188.1,92.8 188.1,98.9 163.2,98.9 163.2,68.1 	"/>
	<polyline class="st1" points="7.5,68.1 32.5,68.1 32.5,74.3 20,74.3 20,80.5 32.5,80.5 32.5,86.6 20,86.6 20,98.9 7.5,98.9 
		7.5,68.1 	"/>
	<path class="st1" d="M101.7,92.8h12.6L103.5,82c-1.5-1.5-2.5-3.5-2.5-5.8c0-4.4,3.7-8.1,8.1-8.1H127v6.2h-12.6l10.9,10.9
		c1.5,1.5,2.4,3.4,2.4,5.7c0,4.4-3.7,8.1-8.1,8.1h-17.9L101.7,92.8"/>
	<polyline class="st2" points="7.6,105.1 26.2,105.1 7.6,116.1 7.6,105.1 	"/>
	<polyline class="st2" points="7.7,123.9 38.7,105.1 63.5,105.1 7.5,139 7.7,123.9 	"/>
	<polyline class="st2" points="20,139 76,105.1 100.9,105.1 44.9,139 20,139 	"/>
	<polyline class="st2" points="57.3,139 113.4,105.1 138.2,105.1 82.2,139 57.3,139 	"/>
	<polyline class="st2" points="94.7,139 150.7,105.1 175.6,105.1 119.6,139 94.7,139 	"/>
	<polyline class="st2" points="132,139 188.1,105.1 188,120.2 156.9,139 132,139 	"/>
	<polyline class="st2" points="169.4,139 188.1,127.6 188.1,139 169.4,139 	"/>
</g>
</svg>
