<?xml version="1.0" encoding="utf-8"?>
<!-- Generator: Adobe Illustrator 25.0.0, SVG Export Plug-In . SVG Version: 6.00 Build 0)  -->
<svg version="1.1" id="Capa_1" xmlns="http://www.w3.org/2000/svg" xmlns:xlink="http://www.w3.org/1999/xlink" x="0px" y="0px"
	 viewBox="0 0 200 200" style="enable-background:new 0 0 200 200;" xml:space="preserve">
<style type="text/css">
	.st0{fill-rule:evenodd;clip-rule:evenodd;fill:#02569C;}
	.st1{fill-rule:evenodd;clip-rule:evenodd;fill:#020202;}
</style>
<g>
	<polygon class="st0" points="8.1,131.3 8.1,140.1 191,94.5 191,85.7 	"/>
	<path class="st1" d="M67.1,100.2c0,4.5,3.1,8.4,7.7,8.4h0.3c5.6,0,11-4.2,11-9.9v-2.5c0-2.6-1.6-5.3-3.2-6.3
		c-2.4-1.4-4.6-1.6-7.7-0.8C70.3,90.3,67.1,94.2,67.1,100.2L67.1,100.2z M28.2,100.7v1l-0.3,18.2l5.1-1.3V113l0.2-13.5L28.2,100.7
		L28.2,100.7z M150.1,89.5l5-1.2l0.2-19.2c-0.6,0-1.9,0.5-2.6,0.6c-0.6,0.2-2.2,0.3-2.3,0.8c-0.1,0.7-0.1,5.4-0.1,6.3
		C150.2,81.2,150.1,85,150.1,89.5L150.1,89.5z M51.8,95.5c0-0.6,3.1-1.1,3.8-1.3c1.4-0.4,2.7-0.6,4-0.9c1.6-0.5,6.7-1.8,8.1-1.9
		l-0.2,4l-5.3,1.4l-0.3,15.1l-5,1.1l0.2-15l-5.4,1.3L51.8,95.5L51.8,95.5z M40.8,116.7h2c4.1,0,8.7-4,8.9-7.4l-4.1-1.1
		c-0.2,1.8-1.8,4.4-3.9,4.4h-1c-2.1,0-3.3-2.6-3.3-4.7v-1.3c0-2.8,2.2-5.9,5.2-5.9c1.6,0,2.1,1.5,2.7,2.5l3.6-2.3
		c-0.6-2.5-4-4.5-7.4-4c-3,0.6-5.7,2.4-7.2,4.5c-1.7,2.4-2.3,5.7-1.5,9.3C35.5,113.4,37.8,116.7,40.8,116.7L40.8,116.7z M20.8,102.6
		l-3.6,12.9l-4.5-10.9l-5,1.3l7.7,17.1l4.9-1.2l6.3-20.7L20.8,102.6L20.8,102.6z M176.2,66v1.8l7.6-1.8c-1.6,2.3-2.9,5.3-4.4,7.8
		c-0.7,1.2-1.6,2.6-2.2,3.9c-1,1.8-1,2.4-1,5.2l15.8-3.9v-2.4l0.2-2.1l-8.7,2.1l6.7-12.6l0.2-2.1v-1.6c-2.6,0.6-5.3,1.2-7.9,1.9
		c-1.4,0.4-2.6,0.6-4,1C176.2,63.7,176.2,63.1,176.2,66L176.2,66z M134.1,74.3l-0.4,19.2l14.5-3.5V86l-9.5,2.3v-1.8l0.2-2.3l8.4-2.1
		v-3.6l-8.4,2v-3.7l8.9-2.2v-3.8L134.1,74.3L134.1,74.3z M168.2,76.7l-6.2-9.3l-5,1.2l-0.3,19.3l5-1.2l0.3-11.5l6.1,9.9l4.9-1.2
		l0.3-19.2c-1.2,0.3-2.2,0.6-3.4,0.8c-2.4,0.6-1.3-0.1-1.5,2.8C168.2,70.8,168.2,73.8,168.2,76.7L168.2,76.7z M89.1,85.6L89,103.3
		v1.4l4.9-1.1v-6.8c0.6-0.1,1.9-0.6,2.4-0.6c0.4,0,3.4,5,3.6,5.6c0.9,0,2.4-0.5,3.3-0.7c1.9-0.6,2.1,0,1.1-1.6
		c-1-1.7-1.9-3.5-2.9-5.1c1.6-0.4,3-2.9,3-5.2c0-3.7-2.2-6-5.9-6C96.9,83.3,91,85.1,89.1,85.6L89.1,85.6z M94,88.9
		c0-0.6,2.8-1,3.4-1.1c1.3-0.2,2.3,0.6,2.3,1.9c0,1.1-1.3,1.8-2.3,2c-1.1,0.2-2.4,0.7-3.5,0.8L94,88.9L94,88.9z M115.5,78.9v3.3
		l-0.3,15.9l5.1-1.3v-6.7l2.6-0.6l3.4,5.8l5.1-1.3l-3.6-6.2l0.1-0.1c1.2-0.4,2.9-2.9,2.9-4.5v-0.8c0-3.2-2.2-5.7-5.4-5.7H125
		C122.2,76.7,118.1,78.9,115.5,78.9L115.5,78.9z M120.4,82.4c0-0.6,3.2-1.2,4-1.2h0.1c0.7,0,1.5,0.9,1.5,1.6v0.6
		c0,1.4-4.2,2.4-5.6,2.4L120.4,82.4L120.4,82.4z M72.3,99.5c0-3,1.8-6.8,4.7-6.8s4.1,2.1,4.1,4.9c0,3.3-1.8,6.8-4.8,6.8h-0.6
		c-2.1,0-3.5-1.9-3.5-4V99.5z"/>
</g>
</svg>
