<?xml version="1.0" encoding="utf-8"?>
<!-- Generator: Adobe Illustrator 25.0.0, SVG Export Plug-In . SVG Version: 6.00 Build 0)  -->
<svg version="1.1" id="Capa_1" xmlns="http://www.w3.org/2000/svg" xmlns:xlink="http://www.w3.org/1999/xlink" x="0px" y="0px"
	 viewBox="0 0 200 200" style="enable-background:new 0 0 200 200;" xml:space="preserve">
<style type="text/css">
	.st0{fill:#F8C400;}
	.st1{fill:#0F1D52;}
</style>
<g id="Ebene_1">
	<rect x="7.7" y="50.1" class="st0" width="184.3" height="102"/>
	<g id="Hengst">
		<polygon class="st1" points="27.8,89.4 31.1,89.4 31.1,112.8 27.8,112.8 27.8,120.7 39.4,120.7 39.4,106.1 49.7,106.1 49.7,120.7 
			61.3,120.7 61.3,112.8 58,112.8 58,89.4 61.3,89.4 61.3,81.5 49.7,81.5 49.7,96.2 39.4,96.2 39.4,81.5 27.8,81.5 		"/>
		<path class="st1" d="M109.5,92.1v20.6h-5.2V94.5c0-0.6-0.4-0.9-0.9-0.9h-8.8v19.1h-5.2V89.4h17.3
			C108.3,89.4,109.5,90.6,109.5,92.1L109.5,92.1z"/>
		<path class="st1" d="M65.1,92.1V110c0,1.6,1.2,2.8,2.8,2.8h17.3v-4.3h-14c-0.6,0-0.9-0.4-0.9-0.9v-4.3h14.9V92.1
			c0-1.6-1.2-2.8-2.8-2.8H67.8C66.3,89.4,65.1,90.6,65.1,92.1L65.1,92.1z M79.9,98.9h-9.7v-4.3c0-0.6,0.4-0.9,0.9-0.9H79
			c0.6,0,0.9,0.4,0.9,0.9V98.9L79.9,98.9z"/>
		<path class="st1" d="M143.4,94.6V98c0,0.6,0.4,0.9,0.9,0.9h11.2c1.6,0,2.8,1.2,2.8,2.8v8.4c0,1.6-1.2,2.8-2.8,2.8h-17.3v-4.3h13.9
			c0.6,0,0.9-0.4,0.9-0.9v-3.4c0-0.6-0.4-0.9-0.9-0.9h-11.2c-1.6,0-2.8-1.2-2.8-2.8v-8.4c0-1.6,1.2-2.8,2.8-2.8h17.3v4.2h-13.9
			C143.8,93.7,143.4,94.1,143.4,94.6L143.4,94.6z"/>
		<polygon class="st1" points="172,81.5 172,85.8 167.7,85.8 167.7,112.8 162.5,112.8 162.5,85.8 65.1,85.8 65.1,81.5 162.5,81.5 
			162.5,79.4 167.7,79.4 167.7,81.5 		"/>
		<path class="st1" d="M116.6,89.4c-1.6,0-2.8,1.2-2.8,2.8V110c0,1.6,1.2,2.8,2.8,2.8h12.1v2.8c0,0.6-0.4,0.9-0.9,0.9H65.1v4.3h66.1
			c1.6,0,2.8-1.2,2.8-2.8V89.4H116.6z M128.7,108.4H120c-0.6,0-0.9-0.4-0.9-0.9V94.6c0-0.6,0.4-0.9,0.9-0.9h7.7
			c0.6,0,0.9,0.4,0.9,0.9V108.4z"/>
	</g>
</g>
</svg>
