<?xml version="1.0" encoding="utf-8"?>
<!-- Generator: Adobe Illustrator 25.0.0, SVG Export Plug-In . SVG Version: 6.00 Build 0)  -->
<svg version="1.1" id="Capa_1" xmlns="http://www.w3.org/2000/svg" xmlns:xlink="http://www.w3.org/1999/xlink" x="0px" y="0px"
	 viewBox="0 0 200 200" style="enable-background:new 0 0 200 200;" xml:space="preserve">
<style type="text/css">
	.st0{fill:#FFFFFF;}
	.st1{fill:#ED1C24;}
</style>
<path class="st0" d="M46.1,139.1L46.1,139.1z"/>
<path class="st1" d="M102.4,97.5c0-8.6,3-17.4,13.2-17.4s12.9,8.8,12.9,17.4c0,8.4-2.8,18.1-12.9,18.1
	C105.4,115.6,102.4,105.9,102.4,97.5L102.4,97.5z M154.6,45.6c-4.9,0-9,4.1-9,8.8c0,5,4.1,9,9,9s8.7-4.1,8.7-9
	C163.3,49.6,159.3,45.6,154.6,45.6z M87.6,97.5c0,18.1,10.4,30.7,27.9,30.7c17.3,0,26.3-12,26.3-30.7s-7.2-30.7-26.3-30.5
	c-3.4,0-8.1,0.5-13.2,3.1c0,0-0.2-27.4-0.2-27.8H87.6V97.5z M8.1,181.2v-79h7.2v72h147.1V67h-15.7v67.1h-117v-31.9h4.4
	c1.2,17.6,14.7,26.6,27.9,26c7.8-0.5,15.2-3.6,20.7-10.9l-9.5-7.9c-11.3,10.6-25.6,3.1-25.6-7.3h35.1c2.6-48.5-46.6-41.5-48.6-11.7
	h-4.4V79.4c0-5.2,0-37,39-37V28c-28.4,0-53.5,18.7-53.5,51.5v11.1H8V79.5C8,44,34.3,20.3,68.6,20.3h100.3v160.9H8.1z M69,90.5H47.8
	C48.2,75.6,69.2,75.6,69,90.5z M101,157.3h11.5c-0.5-2.7-2.8-5-5.5-5S101.2,154.6,101,157.3L101,157.3z M39.2,152.3
	c-3.7,0-6.3,3.4-6.3,7c0,3.6,2.3,7.2,6.3,7.2c4.1,0,6.4-3.4,6.4-7.2C45.7,155.5,43.1,152.3,39.2,152.3z M29.8,169.1v-30.5h3.5v14
	c1.7-1.8,4.1-3.1,6.4-3.1c5.8,0,9.2,4.5,9.2,10.2c0,5.2-3.5,10.1-9.2,10.1c-2.3,0-4.8-1.4-6.4-3.4v2.7L29.8,169.1z M57.4,149.8V169
	h-3.2v-19.2H57.4z M55.8,140.6c1.1,0,2.3,0.9,2.3,2.3c0,1.1-1.2,2.2-2.3,2.2c-1.2,0-2.3-1.1-2.3-2.2
	C53.5,141.4,54.6,140.6,55.8,140.6z M67.1,138.6v30.5h-3.2v-30.5L67.1,138.6z M83.7,152.8l-2.6,1.6c-0.5-1.1-1.7-2-2.8-2
	c-1.1,0-2.1,0.9-2.1,2.3c0,1.8,2.3,2.5,4.1,3.1c2.3,0.9,4.6,2.5,4.6,5.6c0,3.6-2.9,6.4-6.4,6.4c-3.2,0-5.8-2-6.9-5l2.9-1.1
	c0.9,1.8,1.7,2.9,4,2.9c1.6,0,2.9-1.1,2.9-2.9c0-4.2-8.6-2.7-8.6-8.7c0-3.1,2.6-5.4,5.5-5.4C81,149.4,82.8,151,83.7,152.8
	L83.7,152.8z M92.9,152.8v16.3h-3.2v-16.3h-2.1v-2.9h2.1V143h3.2v6.8h3.5v2.9H92.9z M116,160.2h-15c0,3.4,2.6,6.4,6.3,6.4
	c2.8,0,4.3-1.6,5.7-4.1l2.8,1.8c-2.1,3.1-5.1,5.4-8.7,5.4c-6,0-9.5-4.3-9.5-9.9c0-5.9,3.4-10.4,9.2-10.4
	C113,149.4,116.2,154.6,116,160.2L116,160.2z M124.3,149.8V169h-3.5v-19.2H124.3z M122.7,140.6c1.1,0,2.3,0.9,2.3,2.3
	c0,1.1-1.1,2.2-2.3,2.2c-1.3,0-2.3-1-2.3-2.2C120.4,141.5,121.3,140.6,122.7,140.6z M134.2,149.8v2.5h0.3c1.2-2,2.9-2.9,5.3-2.9
	c5.2,0,6.4,3.9,6.4,8.1V169H143v-10.8c0-2.9-0.3-5.9-4-5.9c-4.6,0-4.9,4.3-4.9,7.6v9H131v-19.2H134.2z"/>
<path class="st1" d="M183.8,37.7c4.9,0,8.7-3.9,8.7-8.7s-3.9-8.7-8.7-8.7S175,24.1,175,29S178.9,37.7,183.8,37.7z M183.8,21.7
	c4,0,7.3,3.1,7.3,7.3c0,4.1-3.3,7.3-7.3,7.3c-4.1,0-7.3-3.3-7.3-7.3C176.5,24.8,179.8,21.7,183.8,21.7z M185.3,29.4
	c1.3,0,2.6-0.7,2.6-2.7c0-2-1.6-2.6-3.4-2.6h-4.1V34h1.4v-4.5h1.8l2.5,4.5h1.7L185.3,29.4L185.3,29.4z M184.3,25.6
	c1.2,0,2.2,0.1,2.2,1.3c0,1.3-1.8,1.1-3.1,1.1h-1.5v-2.4H184.3z"/>
</svg>
