<?xml version="1.0" encoding="utf-8"?>
<!-- Generator: Adobe Illustrator 25.0.0, SVG Export Plug-In . SVG Version: 6.00 Build 0)  -->
<svg version="1.1" id="Capa_1" xmlns="http://www.w3.org/2000/svg" xmlns:xlink="http://www.w3.org/1999/xlink" x="0px" y="0px"
	 viewBox="0 0 200 200" style="enable-background:new 0 0 200 200;" xml:space="preserve">
<style type="text/css">
	.st0{fill-rule:evenodd;clip-rule:evenodd;fill:#2954A2;}
</style>
<g>
	<g>
		<path class="st0" d="M79.6,147.4l-12.5-22.2h-7.9l-12.5,22.2l0,0l-2.9,5.1h8.8l2-4h16.9l2,4h8.8L79.6,147.4L79.6,147.4L79.6,147.4
			z M63.1,131.9l6.2,12H56.9L63.1,131.9L63.1,131.9z M145.4,136.3h-17v-11.1h-7.9v27.2h7.9v-11h17v11h7.9v-27.2h-7.9V136.3
			L145.4,136.3z M192.5,144.9c0-4.2-3.9-6-10.2-7.9c-5.7-1.8-12.2-2.9-14.8-4.2c-2-1-2.1-4,6.2-4c3.2,0,8.5,0.6,8.5,2.9h9.1
			c0-5.4-8.4-7.4-17.8-7.4c-7,0-16.4,1.8-16.4,7.7c0,6.6,18.9,8.5,23.9,10.6c1.8,0.8,1.6,3.3-1.9,4.6l0,0c-1.3,0.5-3.1,0.8-5.5,0.8
			c-1.6,0-3.8-0.3-5.5-0.8H168c-1.6-0.6-2.9-1.4-2.9-2.6H156c0,0.9,0.3,1.8,0.7,2.6l0,0c2.8,4.3,12.4,5.4,17.4,5.4
			c9.5,0,15.4-2.2,17.4-5.4l0,0C192.2,146.6,192.5,145.8,192.5,144.9L192.5,144.9z M43.8,144.9c0-4.2-3.9-6-10.2-7.9
			c-5.7-1.8-12.2-2.9-14.8-4.2c-2-1-2.1-4,6.2-4c3.2,0,8.5,0.6,8.5,2.9h9.2c0-5.4-8.4-7.4-17.8-7.4c-7,0-16.4,1.8-16.4,7.7
			c0,6.6,18.9,8.5,23.9,10.6c1.8,0.8,1.6,3.3-1.9,4.6l0,0c-1.3,0.5-3.1,0.8-5.5,0.8c-1.6,0-3.8-0.3-5.5-0.8h-0.1
			c-1.6-0.6-2.9-1.4-2.9-2.6h-9c0,0.9,0.3,1.8,0.7,2.6l0,0c2.8,4.3,12.4,5.4,17.4,5.4c9.5,0,15.4-2.2,17.4-5.4l0,0
			C43.5,146.6,43.8,145.8,43.8,144.9L43.8,144.9z M99.3,129c6.4,0,8.9,2.5,8.9,3.9h8.7c0-1.8-3.1-8.4-17.6-8.4
			c-13.6,0-18.7,7.4-18.7,14.2c0,3.1,1,6.3,3.4,8.9l0,0c2.9,3.1,7.8,5.4,15.3,5.4c9.5,0,14.1-2.9,16.2-5.4l0,0
			c1-1.3,1.4-2.5,1.4-3.1h-8.7c0,0.8-1,2.2-3.4,3.1h-0.1c-1.4,0.5-3.1,0.7-5.4,0.7c-1.5,0-2.9-0.3-4.3-0.7h-0.1
			c-3.6-1.4-5.9-4.7-5.9-8.8C89,133,93.3,129,99.3,129L99.3,129z"/>
	</g>
	<path class="st0" d="M113.2,70.3c3.1,3.1,4.7,6.7,4.7,10.3c0,10.5-13.9,19.5-34,23.9c-1.3,0.3-1.3,0.7,0,0.7
		c25.3-0.6,46.4-7.6,53.9-17c1.7-2,1-4.3-0.1-5.7c-4.3-5.3-12.7-9.7-23.8-12.8C113.3,69.4,112.9,69.9,113.2,70.3L113.2,70.3z"/>
	<path class="st0" d="M88,83.9c0.6,0.2,1-0.3,0.6-0.6c-3.1-3.1-4.7-6.7-4.7-10.3c0-10.4,13.9-19.5,34-23.9c1.3-0.3,1.3-0.7,0-0.7
		C92.6,49.1,71.5,56,64,65.4c-1.7,2-1,4.3,0.1,5.7C68.4,76.4,76.9,80.9,88,83.9L88,83.9z"/>
	<path class="st0" d="M110.5,76.8c0.1-5.3-4.1-9.5-9.3-9.6c-5.3-0.1-9.5,4.1-9.6,9.3c0,0.1,0,0.2,0,0.3c0.1,5.3,4.3,9.4,9.6,9.3
		C106.2,86.1,110.4,81.9,110.5,76.8z"/>
</g>
</svg>
