<svg width="71" height="52" viewBox="0 0 71 52" fill="none" xmlns="http://www.w3.org/2000/svg">
<g clip-path="url(#clip0_7_379)">
<path d="M68.8922 37.8991V26.0092C68.8922 25.844 68.8645 25.6651 68.7951 25.5L61.8615 8.00917C61.6535 7.48624 61.1404 7.1422 60.5719 7.1422H47.2871V1.37615C47.2871 0.619266 46.6631 0 45.9004 0H28.6219C27.8592 0 27.2352 0.619266 27.2352 1.37615C27.2352 2.13303 27.8592 2.75229 28.6219 2.75229H44.5137V7.15596H40.5615C39.7988 7.15596 39.1748 7.77523 39.1748 8.53211V37.6101H22.0904C20.6621 36.1651 18.6791 35.2569 16.4742 35.2569C14.2693 35.2569 12.3002 36.1514 10.858 37.6101H4.88125V17.8073H23.1443V20.0917C23.1443 20.6009 23.4355 21.0826 23.8932 21.3165C24.0873 21.4128 24.3092 21.4679 24.5311 21.4679C24.8084 21.4679 25.0996 21.3853 25.3354 21.2064L34.4045 14.8073C34.765 14.5459 34.9869 14.133 34.9869 13.6927C34.9869 13.2523 34.765 12.8257 34.4045 12.578L25.3354 6.1789C24.9193 5.87615 24.3508 5.83486 23.8932 6.08257C23.4355 6.31651 23.1443 6.7844 23.1443 7.30734V9.59174H4.88125V2.75229H16.183C16.9457 2.75229 17.5697 2.13303 17.5697 1.37615C17.5697 0.619266 16.9457 0 16.183 0H3.49453C2.73184 0 2.10781 0.619266 2.10781 1.37615V37.8991C0.873633 38.4358 0 39.6606 0 41.0917V42.5505C0 44.4633 1.56699 46.0321 3.49453 46.0321H9.15234C10.3033 48.9495 13.16 51.0138 16.4742 51.0138C19.7885 51.0138 22.6451 48.9495 23.7961 46.0321H45.207C46.3719 48.9495 49.2146 51.0138 52.5289 51.0138C55.8432 51.0138 58.6998 48.9495 59.8508 46.0321H67.5055C69.433 46.0321 71 44.4771 71 42.5505V41.0917C71 39.6606 70.1264 38.4358 68.8922 37.8991ZM4.88125 12.3303H24.5311C25.2937 12.3303 25.9178 11.711 25.9178 10.9541V9.9633L31.2012 13.6927L25.9178 17.422V16.4312C25.9178 15.6743 25.2937 15.055 24.5311 15.055H4.88125V12.3303ZM8.59766 43.2798H3.49453C3.10625 43.2798 2.77344 42.9495 2.77344 42.5505V41.0917C2.77344 40.6927 3.10625 40.3624 3.49453 40.3624H9.11074C8.7918 41.2294 8.61152 42.1514 8.61152 43.1284C8.59766 43.1835 8.59766 43.2248 8.59766 43.2798ZM16.4742 48.2477C13.6592 48.2477 11.3711 45.9495 11.3711 43.1284C11.3711 40.3073 13.6592 38.0092 16.4742 38.0092C19.2893 38.0092 21.5773 40.3073 21.5773 43.1284C21.5773 45.9495 19.2893 48.2477 16.4742 48.2477ZM65.4809 24.633H51.4195V15.7294H61.9447L65.4809 24.633ZM41.9482 9.90826H59.6289L60.8492 12.9908H50.0189C49.2563 12.9908 48.6322 13.6101 48.6322 14.367V26.0092C48.6322 26.7661 49.2563 27.3853 50.0189 27.3853H66.1188V31.1147H64.0803C63.3176 31.1147 62.6936 31.7339 62.6936 32.4908C62.6936 33.2477 63.3176 33.867 64.0803 33.867H66.1188V37.5963H58.1313C56.7029 36.1514 54.7199 35.2431 52.515 35.2431C50.3102 35.2431 48.341 36.1376 46.8988 37.5963H41.9205V9.90826H41.9482ZM24.3508 43.2798C24.3508 43.2248 24.3508 43.1835 24.3508 43.1284C24.3508 42.1514 24.1705 41.2156 23.8516 40.3624H45.1516C44.8326 41.2294 44.6523 42.1514 44.6523 43.1284C44.6523 43.1835 44.6523 43.2248 44.6523 43.2798H24.3508ZM52.5289 48.2477C49.7139 48.2477 47.4258 45.9495 47.4258 43.1284C47.4258 40.3073 49.7139 38.0092 52.5289 38.0092C55.3439 38.0092 57.632 40.3073 57.632 43.1284C57.632 45.9495 55.3439 48.2477 52.5289 48.2477ZM68.2266 42.5505C68.2266 42.9495 67.8937 43.2798 67.5055 43.2798H60.4055C60.4055 43.2248 60.4055 43.1835 60.4055 43.1284C60.4055 42.1514 60.2252 41.2156 59.9062 40.3624H67.5055C67.8937 40.3624 68.2266 40.6927 68.2266 41.0917V42.5505Z" fill="#F29F03"/>
<path d="M52.5293 41.7523C51.7527 41.7523 51.1426 42.3716 51.1426 43.1285C51.1426 43.8853 51.7666 44.5046 52.5293 44.5046C53.292 44.5046 53.916 43.8853 53.916 43.1285C53.916 42.3716 53.3059 41.7523 52.5293 41.7523Z" fill="#F29F03"/>
<path d="M9.77637 29.7385C9.01367 29.7385 8.38965 30.3578 8.38965 31.1147C8.38965 31.8716 9.01367 32.4908 9.77637 32.4908H16.599C17.3617 32.4908 17.9857 31.8716 17.9857 31.1147C17.9857 30.3578 17.3617 29.7385 16.599 29.7385H9.77637Z" fill="#F29F03"/>
<path d="M22.132 25.5413C22.132 24.7844 21.508 24.1652 20.7453 24.1652H9.77637C9.01367 24.1652 8.38965 24.7844 8.38965 25.5413C8.38965 26.2982 9.01367 26.9175 9.77637 26.9175H20.7453C21.5219 26.9175 22.132 26.2982 22.132 25.5413Z" fill="#F29F03"/>
<path d="M22.3955 2.75229C23.1721 2.75229 23.7822 2.13303 23.7822 1.37615C23.7822 0.619266 23.1582 0 22.3955 0C21.6328 0 21.0088 0.619266 21.0088 1.37615C21.0088 2.13303 21.6328 2.75229 22.3955 2.75229Z" fill="#F29F03"/>
</g>
<defs>
<clipPath id="clip0_7_379">
<rect width="71" height="52" fill="white"/>
</clipPath>
</defs>
</svg>
