<svg viewBox="0 0 500 500" focusable="false" class="chakra-icon css-yu8z2g"><path fill="#14387F" d="M474.8,300.6H275c-10.6,0-20,6.7-23.5,16.7L208.4,303v-39.2c0.7-0.6,1.5-1.1,2.2-1.7 c25.9-21.8,42.5-52.7,46.5-86.3H275c4.6,0,8.3-3.7,8.3-8.3v-33.3c0-4.6-3.7-8.3-8.3-8.3h-9.9c-2.1-53-24.5-110.8-81.7-116V9.3 c0-4.6-3.7-8.3-8.3-8.3h-49.9c-4.6,0-8.3,3.7-8.3,8.3v0.5c-57.1,5.2-79.6,63-81.7,116h-9.9c-4.6,0-8.3,3.7-8.3,8.3v33.3 c0,4.6,3.7,8.3,8.3,8.3h18c3.9,33.6,20.5,64.5,46.4,86.3c0.7,0.6,1.5,1.1,2.2,1.7V303l-64.1,21.4c-6.2,2.1-10.6,7.6-11.3,14 L0.4,491.2c-0.5,4.6,2.9,8.7,7.4,9.1c0.3,0,0.6,0,0.8,0h466.1c13.8,0,25-11.2,25-25V325.6C499.7,311.8,488.5,300.6,474.8,300.6z M33.6,159.1v-16.6h49.9v-16.6H51.9c1.4-25.2,10.3-93.1,64.9-99.4v74.4h16.6V17.6h33.3v83.2h16.6V26.5 c54.7,6.3,63.5,74.2,64.9,99.4H100.2l33.3,16.6l133.2,0v16.6H33.6z M60,175.8h180.3c-3.8,28.7-18.2,54.9-40.4,73.5 c-28.8,24-70.7,24-99.6,0C78.2,230.7,63.8,204.5,60,175.8z M191.8,274.2v48.3l-41.6,48.5l-41.6-48.5v-48.3 c12.9,6.4,27.2,9.7,41.6,9.7C164.6,284,178.8,280.6,191.8,274.2z M150.2,467.1v16.6H17.9L33,340.1l58.9-19.6v5.1 c0,2,0.7,3.9,2,5.4l49.9,58.3c3.2,3.5,8.7,3.7,12.1,0.5c0.2-0.2,0.3-0.3,0.5-0.5l49.9-58.3c1.3-1.5,2-3.4,2-5.4v-5.1l41.6,13.9 v116.1h-83.2C157.6,450.4,150.2,457.9,150.2,467.1z M166.8,483.7v-16.6H250v8.3c0,2.8,0.5,5.7,1.5,8.3H166.8z M383.2,425.5v58.3 h-16.6v-58.3c0-4.6-3.7-8.3-8.3-8.3h-11.5l-20-40l7-7c0.2,0.6,0.5,1.1,0.8,1.7l16.6,25c1.5,2.3,4.2,3.7,7,3.7h33.3 c2.8,0,5.4-1.4,6.9-3.7l16.6-25c0.3-0.5,0.6-1.1,0.8-1.7l7,7l-20,40h-11.5C386.9,417.2,383.2,420.9,383.2,425.5z M483.1,475.4 c0,4.6-3.7,8.3-8.3,8.3h-74.9v-49.9h8.3c3.2,0,6.1-1.8,7.5-4.6l25-49.9c1.6-3.2,1-7.1-1.6-9.6l-33.3-33.3c-3.3-3.3-8.5-3.3-11.8,0 c-2.2,2.2-3,5.5-2,8.5l7,21.1l-12,17.9h-24.4L350.7,366l7-21.1c1.5-4.4-0.9-9.1-5.3-10.5c-3-1-6.3-0.2-8.5,2l-33.3,33.3 c-2.5,2.5-3.2,6.4-1.6,9.6l25,49.9c1.4,2.8,4.3,4.6,7.5,4.6h8.3v49.9H275c-4.6,0-8.3-3.7-8.3-8.3V325.6c0-4.6,3.7-8.3,8.3-8.3 h199.8c4.6,0,8.3,3.7,8.3,8.3L483.1,475.4L483.1,475.4z"></path></svg>