<svg width="563" height="606" viewBox="0 0 563 606" fill="none" xmlns="http://www.w3.org/2000/svg">
<rect x="1.5293" y="260.612" width="560.906" height="20.1765" fill="white"/>
<path d="M144.672 605.625C94.2986 605.625 56.9853 591.595 34.5973 564.47C12.2093 537.346 0.0825195 505.546 0.0825195 470.003C0.0825195 438.203 7.54522 412.014 21.5377 391.437C35.5302 370.86 54.1869 354.959 76.5748 341.865C98.9628 328.77 123.216 318.482 148.403 310.064C173.589 301.646 197.843 293.228 220.231 284.81C242.619 276.393 261.276 267.039 275.268 255.816C289.261 244.592 296.723 230.562 296.723 213.726V113.647C296.723 101.488 294.858 88.3936 290.193 74.3639C286.462 60.3341 278.067 48.175 266.873 36.9512C255.679 26.6627 238.888 21.0508 216.5 21.0508C204.373 21.0508 193.179 22.9214 181.985 25.7273C170.791 29.4686 161.463 34.1452 153.067 39.7571C179.186 49.1103 197.843 63.1401 209.97 80.9111C222.097 98.6821 227.694 117.389 227.694 138.901C227.694 168.831 217.432 192.214 195.977 209.985C175.455 226.821 150.269 236.174 122.284 236.174C92.433 236.174 69.1122 226.821 53.254 208.114C36.463 189.408 29.0004 166.025 29.0004 138.901C29.0004 115.518 34.5973 95.8762 46.7241 79.9758C57.9181 64.0754 75.642 49.1103 98.9628 36.0158C121.351 22.9214 148.403 14.5035 179.186 8.89161C209.97 3.2797 243.552 0.473755 278.067 0.473755C314.447 0.473755 348.962 4.21502 379.745 10.7622C411.462 18.2448 437.581 33.2099 459.969 56.5928C475.827 73.4286 486.088 94.0056 489.819 118.324C494.484 142.642 496.349 174.443 496.349 213.726V514.899C496.349 533.605 497.282 546.699 500.081 553.247C506.611 557.923 511.275 561.665 517.804 561.665C523.401 561.665 529.931 559.794 535.528 556.053C541.125 552.311 546.722 548.57 551.387 544.829L562.58 563.535C545.789 577.565 526.2 587.853 501.946 595.336C477.693 601.883 452.506 605.625 425.454 605.625C376.947 605.625 344.298 597.207 328.44 579.436C312.581 561.665 303.253 542.023 302.32 519.575C287.395 543.894 266.873 564.47 241.686 580.371C215.567 597.207 183.851 605.625 144.672 605.625ZM256.611 515.834C265.007 515.834 272.47 514.899 278.067 512.093C284.596 509.287 291.126 504.61 297.656 497.128V259.557C290.193 272.651 280.865 284.81 269.671 295.099C258.477 305.387 247.283 315.676 237.022 327.835C225.828 339.059 217.432 354.024 209.97 370.86C202.507 387.695 199.709 409.208 199.709 435.397C199.709 465.327 205.306 485.904 215.567 498.063C226.761 509.287 240.753 515.834 256.611 515.834Z" fill="white"/>
</svg>
