<svg width="805" height="805" viewBox="0 0 805 805" fill="none" xmlns="http://www.w3.org/2000/svg">
<circle cx="402.5" cy="402.5" r="402.5" fill="white"/>
<path fill-rule="evenodd" clip-rule="evenodd" d="M192.273 624.643C211.507 647.946 243.564 660 286.841 660C320.5 660 347.749 652.768 370.188 638.304C391.827 624.643 409.458 606.965 422.281 586.073C423.082 605.358 431.097 622.233 444.721 637.5C458.345 652.768 486.395 660 528.069 660C551.31 660 572.948 656.786 593.785 651.161C614.622 644.732 631.452 635.893 645.878 623.84L636.261 607.769C632.254 610.983 627.445 614.197 622.637 617.411L622.636 617.411C617.828 620.625 612.218 622.233 607.409 622.233C602.218 622.233 598.399 619.48 593.411 615.885C593.01 615.595 592.601 615.3 592.182 615.001C589.778 609.376 588.977 598.126 588.977 582.055V380.924H645.753V363.59H588.977V323.309C588.977 289.56 587.374 262.239 583.367 241.346C580.161 220.454 571.345 202.776 557.721 188.312C538.487 168.223 516.047 155.366 488.799 148.937C462.352 143.312 432.699 140.098 401.444 140.098C371.791 140.098 342.94 142.509 316.493 147.33C290.046 152.151 266.805 159.384 247.571 170.633C227.535 181.883 212.308 194.74 202.691 208.401C192.273 222.061 187.464 238.936 187.464 259.025C187.464 282.328 193.876 302.417 208.301 318.488C221.925 334.559 241.961 342.595 267.606 342.595C291.649 342.595 313.287 334.559 330.919 320.095C349.351 304.827 358.167 284.738 358.167 259.025C358.167 240.543 353.359 224.472 342.94 209.204C332.522 193.936 316.493 181.883 294.053 173.848C301.266 169.026 309.28 165.008 318.897 161.794C328.514 159.384 338.132 157.776 348.55 157.776C367.784 157.776 382.21 162.598 391.827 171.437C401.444 181.08 408.657 191.526 411.862 203.579C415.87 215.633 417.472 226.882 417.472 237.329V323.309C417.472 337.773 411.061 349.827 399.04 359.469C397.286 360.876 395.446 362.249 393.524 363.59H163.863V380.924H360.542C357.694 382.098 354.764 383.248 351.756 384.38C332.522 391.612 311.685 398.844 290.046 406.076C268.408 413.308 247.571 422.147 228.337 433.397C209.103 444.646 193.074 458.307 181.053 475.985C169.032 493.663 162.62 516.163 162.62 543.484C162.62 574.019 173.039 601.34 192.273 624.643ZM405.801 380.924C402.244 385.279 398.387 389.399 394.231 393.219L394.231 393.219C384.614 402.058 374.997 410.897 366.181 421.343C356.564 430.986 349.351 443.843 342.94 458.307C336.529 472.771 334.124 491.253 334.124 513.752C334.124 539.466 338.933 557.144 347.749 567.591C357.366 577.233 369.387 582.858 383.011 582.858C390.224 582.858 396.635 582.055 401.444 579.644C407.054 577.233 412.664 573.216 418.274 566.787V380.924H405.801ZM418.274 363.59V362.684C418.101 362.986 417.928 363.288 417.753 363.59H418.274Z" fill="url(#paint0_linear_602_2)"/>
<defs>
<linearGradient id="paint0_linear_602_2" x1="163" y1="140" x2="646" y2="660" gradientUnits="userSpaceOnUse">
<stop stop-color="#0277BD"/>
<stop offset="1" stop-color="#D32F2F"/>
</linearGradient>
</defs>
</svg>
