<svg width="700" height="327" viewBox="0 0 700 327" fill="none" xmlns="http://www.w3.org/2000/svg">
<path d="M38.7766 15.3241V39.8932H53.681V43.0593H38.7766V106.128C38.7766 108.028 39.1555 109.421 39.7871 110.308C40.5449 111.194 41.6817 111.574 43.3237 111.574C44.4605 111.574 45.7236 111.194 47.2393 110.561C48.755 109.928 50.1443 108.788 51.5337 107.142L53.8073 108.915C51.66 112.587 48.8813 115.5 45.3446 117.653C41.808 119.806 37.5135 120.946 32.3349 120.946C29.0509 120.946 26.0195 120.566 23.367 119.679C20.7145 118.793 18.441 117.526 16.6727 115.753C14.3991 113.6 13.0097 110.814 12.3782 107.521C11.7467 104.229 11.494 99.9228 11.494 94.7303V43.0593H0V40.0198H11.494V22.0363C16.799 22.0363 21.725 21.5297 26.1458 20.3899C30.5666 19.2501 34.7347 17.7303 38.7766 15.3241Z" fill="white"/>
<path d="M112.162 37.8668C115.825 37.8668 118.604 38.6267 120.624 40.2731C122.645 41.7928 124.035 43.6925 124.919 46.0987C125.677 48.505 126.182 50.7846 126.182 53.1908C126.182 57.75 124.919 61.4227 122.266 64.0823C119.74 66.7418 116.33 68.1349 112.162 68.1349C107.741 68.1349 104.331 67.1217 102.057 65.0954C99.7836 63.0691 98.6469 60.4096 98.6469 57.1168C98.6469 53.6974 99.4047 50.7846 100.794 48.6316C102.31 46.352 104.204 44.579 106.352 43.0593C104.583 43.0593 102.941 43.4392 101.552 44.0724C99.9099 44.8323 98.3942 45.8454 97.1312 47.2385C95.7418 48.505 94.605 50.1514 93.8471 51.9244C93.0893 53.6974 92.5841 55.5971 92.5841 57.6234V103.215C92.5841 108.028 93.5945 111.321 95.6155 113.094C97.6364 114.74 101.047 115.627 105.594 115.627V118.793C103.32 118.793 99.9099 118.666 95.2365 118.413C90.6894 118.286 85.8897 118.286 81.09 118.286C76.5429 118.286 71.9958 118.413 67.3224 118.54C62.649 118.666 59.1124 118.793 56.8389 118.793V115.627C59.9966 115.627 62.1438 114.867 63.4069 113.347C64.67 111.827 65.3015 108.915 65.3015 104.735V56.6102C65.3015 52.051 64.67 48.6316 63.5332 46.4787C62.2701 44.1991 60.1229 43.1859 56.8389 43.1859V40.0198C60.1229 40.2731 63.1543 40.3997 66.1857 40.3997C71.238 40.3997 75.9114 40.2731 80.3322 39.8931C84.753 39.5132 88.7948 39.0066 92.5841 38.2468V49.1382C93.8472 46.4787 95.4892 44.3257 97.3838 42.6793C99.2784 41.0329 101.552 39.7665 103.952 39.0066C106.478 38.2468 109.257 37.8668 112.162 37.8668Z" fill="white"/>
<path d="M149.422 119.933C142.602 119.933 137.55 118.033 134.518 114.36C131.487 110.687 129.845 106.382 129.845 101.569C129.845 97.2631 130.855 93.7171 132.75 90.9309C134.644 88.1447 137.171 85.9917 140.202 84.2187C143.233 82.4457 146.517 81.0526 149.928 79.9128C153.338 78.773 156.622 77.6332 159.653 76.4934C162.685 75.3536 165.211 74.0871 167.106 72.5674C169 71.0477 170.011 69.148 170.011 66.8684V53.3174C170.011 51.671 169.758 49.898 169.127 47.9983C168.621 46.0987 167.485 44.4523 165.969 42.9326C164.453 41.5395 162.18 40.7796 159.148 40.7796C157.506 40.7796 155.991 41.0329 154.475 41.4128C152.959 41.9194 151.696 42.5526 150.559 43.3125C154.096 44.5789 156.622 46.4786 158.264 48.8848C159.906 51.2911 160.664 53.824 160.664 56.7368C160.664 60.7894 159.275 63.9556 156.369 66.3618C153.591 68.6414 150.18 69.9079 146.391 69.9079C142.349 69.9079 139.192 68.6414 137.044 66.1085C134.771 63.5756 133.76 60.4095 133.76 56.7368C133.76 53.5707 134.518 50.9112 136.16 48.7582C137.676 46.6052 140.076 44.5789 143.233 42.8059C146.265 41.0329 149.928 39.8931 154.096 39.1332C158.264 38.3733 162.811 37.9934 167.485 37.9934C172.411 37.9934 177.084 38.5 181.252 39.3865C185.547 40.3997 189.083 42.426 192.115 45.5921C194.262 47.8717 195.651 50.6579 196.156 53.9506C196.788 57.2434 197.041 61.5493 197.041 66.8684V107.648C197.041 110.181 197.167 111.954 197.546 112.84C198.43 113.474 199.062 113.98 199.946 113.98C200.704 113.98 201.588 113.727 202.346 113.22C203.103 112.714 203.861 112.207 204.493 111.701L206.009 114.234C203.735 116.133 201.082 117.526 197.798 118.539C194.514 119.426 191.104 119.933 187.441 119.933C180.873 119.933 176.452 118.793 174.305 116.386C172.158 113.98 170.895 111.321 170.769 108.281C168.748 111.574 165.969 114.36 162.559 116.513C159.022 118.793 154.727 119.933 149.422 119.933ZM164.579 107.775C165.716 107.775 166.727 107.648 167.485 107.268C168.369 106.888 169.253 106.255 170.137 105.242V73.074C169.127 74.847 167.863 76.4934 166.348 77.8865C164.832 79.2796 163.316 80.6727 161.927 82.319C160.411 83.8388 159.275 85.8651 158.264 88.1447C157.254 90.4243 156.875 93.3371 156.875 96.8832C156.875 100.936 157.633 103.722 159.022 105.368C160.538 106.888 162.432 107.775 164.579 107.775Z" fill="white"/>
<path d="M242.006 37.8668C246.427 37.8668 250.342 38.3734 253.753 39.2599C257.163 40.2731 259.563 41.1596 261.078 41.9194C264.615 44.0724 266.762 42.6793 267.647 37.9935H270.678C270.425 40.9063 270.299 44.4523 270.173 48.7583C270.046 53.0642 270.046 58.5099 270.046 65.3487H267.015C266.636 61.5494 265.752 57.8767 264.363 54.204C262.973 50.5313 261.078 47.4918 258.426 45.0856C255.9 42.6793 252.49 41.4129 248.321 41.4129C245.795 41.4129 243.648 42.1727 242.006 43.6925C240.238 45.2122 239.48 47.2385 239.48 49.8981C239.48 52.9375 240.364 55.5971 242.259 58.0033C244.153 60.4096 246.427 62.6892 249.206 64.8421C251.984 66.9951 254.889 69.2747 257.668 71.8076C262.342 75.6069 266.257 79.2796 269.289 83.079C272.446 86.8783 273.962 91.6908 273.962 97.5165C273.962 102.076 272.573 106.128 269.794 109.674C267.015 113.22 263.352 116.007 258.679 117.906C254.132 119.933 248.953 120.819 243.269 120.819C239.732 120.819 236.701 120.439 234.049 119.679C231.396 118.919 229.249 118.033 227.733 117.02C226.091 116.26 224.702 115.627 223.565 115.12C222.428 114.613 221.291 114.487 220.155 114.487C219.144 114.487 218.26 114.993 217.628 116.133C216.871 117.146 216.365 118.413 215.986 119.806H212.955C213.208 116.513 213.334 112.587 213.46 107.901C213.587 103.215 213.587 97.0099 213.587 89.4112H216.618C217.25 94.7303 218.386 99.5428 220.155 103.722C221.923 107.901 224.196 111.194 226.975 113.474C229.754 115.88 232.912 117.02 236.575 117.02C238.848 117.02 240.995 116.387 242.764 114.993C244.532 113.6 245.416 111.574 245.416 108.661C245.416 104.229 244.027 100.429 241.374 97.3898C238.722 94.3503 235.312 91.0576 231.27 87.3849C228.238 84.5987 225.333 81.8125 222.681 79.153C220.028 76.4934 217.755 73.5806 216.113 70.2879C214.344 67.1217 213.587 63.5757 213.587 59.5231C213.587 54.9638 214.976 51.0379 217.628 47.8717C220.281 44.579 223.818 42.1727 228.112 40.3997C232.407 38.7533 237.08 37.8668 242.006 37.8668Z" fill="white"/>
<path d="M322.087 37.8668C326.507 37.8668 330.423 38.3734 333.96 39.2599C337.37 40.1464 340.149 41.2862 342.17 42.426C344.948 44.0724 347.096 46.2254 348.738 48.8849C350.38 51.5444 351.264 54.7106 351.264 58.2566C351.264 62.4359 349.874 65.8553 347.222 68.7681C344.443 71.5543 341.033 73.074 336.738 73.074C332.318 73.074 328.907 71.8076 326.381 69.2747C323.981 66.7418 322.718 63.449 322.718 59.3964C322.718 55.5971 323.981 52.3043 326.381 49.6448C328.907 46.9852 331.812 45.2122 335.096 44.1991C334.339 43.6925 333.581 43.3125 332.57 42.9326C331.56 42.5527 330.423 42.426 329.034 42.426C325.371 42.426 322.466 43.5658 320.192 45.7188C317.918 47.8717 316.15 50.7846 314.887 54.3306C313.624 57.8767 312.74 61.676 312.235 65.7287C311.729 69.7813 311.477 73.7073 311.477 77.6333C311.477 84.7254 312.487 90.2977 314.382 94.2237C316.276 98.1497 318.676 100.936 321.708 102.456C324.613 103.975 327.518 104.735 330.549 104.735C332.57 104.735 335.349 104.229 338.759 103.089C342.17 101.949 345.58 99.1628 348.864 94.477L351.39 95.3635C350.127 99.4161 348.232 103.469 345.58 107.395C342.927 111.321 339.391 114.74 335.223 117.273C330.928 119.806 325.876 121.199 319.813 121.199C312.992 121.199 306.93 119.933 301.372 117.273C295.815 114.614 291.52 110.308 288.236 104.229C284.952 98.1497 283.31 90.0444 283.31 79.7862C283.31 70.0346 285.078 62.1826 288.489 55.977C291.899 49.7714 296.572 45.3389 302.509 42.426C308.193 39.2599 314.761 37.8668 322.087 37.8668Z" fill="white"/>
<path d="M398.502 37.8668C407.343 37.8668 414.417 40.5264 419.469 45.7188C424.521 50.9112 427.174 59.6497 427.174 71.9342H379.682L379.429 69.0214H405.07C405.196 64.0823 404.943 59.5231 404.438 55.2171C403.933 50.9112 403.175 47.6185 402.038 45.0856C400.902 42.5527 399.386 41.2862 397.491 41.2862C394.712 41.2862 392.565 43.4392 390.797 47.7451C389.029 52.051 388.018 59.3964 387.513 69.9079L388.144 71.1744C388.018 72.1875 388.018 73.2007 388.018 74.2138C388.018 75.227 388.018 76.2402 388.018 77.38C388.018 84.4721 388.902 90.0444 390.671 93.9704C392.439 97.8964 394.712 100.683 397.365 102.202C400.017 103.722 402.796 104.482 405.449 104.482C407.47 104.482 410.248 103.975 413.659 102.836C417.069 101.696 420.479 98.9095 423.763 94.2237L426.29 95.1102C425.026 99.1628 423.132 103.215 420.479 107.141C417.827 111.067 414.29 114.487 410.122 117.02C405.828 119.553 400.775 120.946 394.712 120.946C388.271 120.946 382.334 119.679 377.029 117.02C371.724 114.36 367.556 110.054 364.399 103.975C361.241 97.8964 359.725 89.7911 359.725 79.5329C359.725 69.7813 361.493 61.9293 364.904 55.7237C368.314 49.5181 372.987 45.0856 378.924 42.1727C384.608 39.2599 391.176 37.8668 398.502 37.8668Z" fill="white"/>
<path d="M492.602 37.8668C497.275 37.8668 500.938 38.5 503.591 39.6398C506.243 40.7797 508.264 42.2994 509.78 43.9458C511.296 45.7188 512.432 48.2517 513.064 51.2912C513.822 54.3306 514.074 58.3833 514.074 63.5757V104.735C514.074 109.041 514.706 111.827 515.969 113.347C517.232 114.867 519.379 115.627 522.537 115.627V118.793C520.516 118.666 517.485 118.54 513.317 118.413C509.275 118.286 505.233 118.16 501.317 118.16C497.023 118.16 492.981 118.286 488.939 118.413C484.897 118.54 481.866 118.666 479.845 118.793V115.627C482.497 115.627 484.266 114.867 485.276 113.347C486.287 111.827 486.792 108.915 486.792 104.735V55.3438C486.792 53.1908 486.539 51.4178 486.034 50.0247C485.529 48.6316 484.771 47.4918 483.634 46.8586C482.624 46.0987 481.108 45.8454 479.34 45.8454C476.561 45.8454 474.035 46.8586 471.761 48.8849C469.488 50.9112 468.477 53.5708 468.477 56.7369V104.735C468.477 109.041 468.983 111.827 470.119 113.347C471.13 114.867 473.024 115.627 475.551 115.627V118.793C473.656 118.666 470.751 118.54 467.088 118.413C463.299 118.286 459.509 118.16 455.594 118.16C451.299 118.16 447.005 118.286 442.71 118.413C438.416 118.54 435.132 118.666 432.858 118.793V115.627C436.016 115.627 438.163 114.867 439.426 113.347C440.69 111.827 441.321 108.915 441.321 104.735V56.6102C441.321 52.051 440.689 48.6316 439.553 46.4787C438.29 44.3257 436.142 43.1859 432.858 43.1859V40.0198C436.142 40.2731 439.174 40.5264 442.205 40.5264C447.257 40.5264 451.931 40.3997 456.352 40.0198C460.772 39.6398 464.814 39.1333 468.604 38.3734V49.2648C471.003 45.2122 474.287 42.2994 478.329 40.5264C482.371 38.7533 487.171 37.8668 492.602 37.8668Z" fill="white"/>
<path d="M562.576 37.8668C566.997 37.8668 570.786 38.3733 573.818 39.5131C576.849 40.5263 579.502 42.2993 581.901 44.5789L580.259 46.2253C578.996 45.0855 577.481 44.3256 575.839 43.6924C574.197 43.0592 572.681 42.8059 571.292 42.8059C566.618 42.8059 563.208 45.8454 560.808 51.7977C558.408 57.75 557.271 66.995 557.271 79.2796C557.271 88.1447 557.777 95.1102 558.661 100.049C559.545 104.988 560.808 108.408 562.324 110.181C563.839 112.081 565.608 112.967 567.376 112.967C570.155 112.967 572.681 111.954 574.955 109.801C577.228 107.775 578.238 105.115 578.238 101.949V109.421C576.218 113.22 573.691 116.133 570.786 118.033C567.881 119.933 564.218 120.819 559.671 120.819C553.861 120.819 548.682 119.426 544.009 116.513C539.336 113.6 535.546 109.041 532.894 102.962C530.115 96.7565 528.852 88.7779 528.852 78.773C528.852 69.5279 530.241 61.9293 533.02 55.8503C535.799 49.7714 539.715 45.3388 544.767 42.2993C549.946 39.3865 555.882 37.8668 562.576 37.8668ZM605.647 0V102.076C605.647 106.635 606.279 110.054 607.542 112.207C608.805 114.36 610.952 115.5 614.11 115.5V118.666C610.952 118.413 607.795 118.16 604.763 118.16C599.711 118.16 595.037 118.286 590.617 118.666C586.322 119.046 582.28 119.553 578.365 120.312V18.2368C578.365 13.6776 577.733 10.2582 576.597 8.10526C575.333 5.9523 573.186 4.8125 569.902 4.8125V1.64638C573.186 1.89967 576.218 2.15296 579.249 2.15296C584.301 2.15296 588.975 2.02632 593.395 1.64638C597.816 1.26645 601.984 0.759868 605.647 0Z" fill="white"/>
<path d="M344.568 167.678V234.04C344.568 238.346 345.199 241.132 346.463 242.651C347.726 244.171 349.873 244.931 353.031 244.931V248.097C351.01 247.971 347.978 247.844 343.936 247.717C339.895 247.591 335.726 247.464 331.558 247.464C327.264 247.464 322.969 247.591 318.675 247.717C314.38 247.844 311.096 247.971 308.823 248.097V244.931C311.98 244.931 314.128 244.171 315.391 242.651C316.654 241.132 317.285 238.219 317.285 234.04V185.915C317.285 181.355 316.654 177.936 315.517 175.783C314.254 173.63 312.107 172.49 308.823 172.49V169.324C312.107 169.577 315.138 169.831 318.17 169.831C323.222 169.831 327.895 169.704 332.316 169.324C336.737 168.818 340.905 168.311 344.568 167.678ZM330.042 129.304C335.347 129.304 339.389 130.444 342.294 132.597C345.199 134.75 346.589 138.043 346.589 142.349C346.589 146.655 345.199 149.948 342.294 152.1C339.389 154.253 335.347 155.393 330.042 155.393C324.738 155.393 320.696 154.253 317.791 152.1C314.886 149.948 313.496 146.655 313.496 142.349C313.496 138.043 314.886 134.75 317.791 132.597C320.696 130.444 324.738 129.304 330.042 129.304Z" fill="white"/>
<path d="M399.26 167.171C408.101 167.171 415.174 169.831 420.227 175.023C425.279 180.216 427.931 188.954 427.931 201.239H380.44L380.187 198.326H405.828C405.954 193.387 405.701 188.827 405.196 184.522C404.691 180.216 403.933 176.923 402.796 174.39C401.659 171.857 400.144 170.591 398.249 170.591C395.47 170.591 393.323 172.744 391.555 177.05C389.786 181.355 388.776 188.701 388.271 199.212L388.902 200.479C388.776 201.492 388.776 202.505 388.776 203.518C388.776 204.531 388.776 205.545 388.776 206.684C388.776 213.776 389.66 219.349 391.428 223.275C393.197 227.201 395.47 229.987 398.123 231.507C400.775 233.026 403.554 233.786 406.206 233.786C408.227 233.786 411.006 233.28 414.416 232.14C417.827 231.127 421.237 228.214 424.521 223.528L427.047 224.415C425.784 228.467 423.89 232.52 421.237 236.446C418.585 240.372 415.048 243.791 410.88 246.324C406.585 248.857 401.533 250.25 395.47 250.25C389.029 250.25 383.092 248.984 377.787 246.324C372.482 243.665 368.314 239.359 365.156 233.28C361.999 227.201 360.483 219.096 360.483 208.837C360.483 199.086 362.251 191.234 365.662 185.028C369.072 178.823 373.745 174.39 379.682 171.477C385.492 168.564 392.06 167.171 399.26 167.171Z" fill="white"/>
<path d="M493.485 167.171C498.159 167.171 501.822 167.804 504.474 168.944C507.127 170.084 509.148 171.604 510.663 173.25C512.179 175.023 513.316 177.556 513.947 180.596C514.705 183.635 514.958 187.688 514.958 192.88V234.04C514.958 238.346 515.589 241.132 516.852 242.651C518.116 244.171 520.263 244.931 523.42 244.931V248.097C521.4 247.971 518.368 247.844 514.2 247.717C510.158 247.591 506.116 247.464 502.201 247.464C497.906 247.464 493.864 247.591 489.823 247.717C485.781 247.844 482.749 247.971 480.728 248.097V244.931C483.381 244.931 485.149 244.171 486.16 242.651C487.17 241.132 487.675 238.219 487.675 234.04V184.648C487.675 182.495 487.423 180.722 486.917 179.329C486.412 177.936 485.654 176.796 484.518 176.163C483.507 175.403 481.991 175.15 480.223 175.15C477.444 175.15 474.918 176.163 472.645 178.189C470.371 180.216 469.361 182.875 469.361 186.041V234.04C469.361 238.346 469.866 241.132 471.003 242.651C472.013 244.171 473.908 244.931 476.434 244.931V248.097C474.539 247.971 471.634 247.844 467.971 247.717C464.182 247.591 460.393 247.464 456.477 247.464C452.183 247.464 447.888 247.591 443.594 247.717C439.299 247.844 436.015 247.971 433.742 248.097V244.931C436.899 244.931 439.047 244.171 440.31 242.651C441.573 241.132 442.204 238.219 442.204 234.04V185.915C442.204 181.355 441.573 177.936 440.436 175.783C439.173 173.63 437.026 172.49 433.742 172.49V169.324C437.026 169.578 440.057 169.831 443.089 169.831C448.141 169.831 452.814 169.704 457.235 169.324C461.656 168.944 465.698 168.438 469.487 167.678V178.569C471.887 174.517 475.171 171.604 479.213 169.831C483.254 168.058 487.928 167.171 493.485 167.171Z" fill="white"/>
<path d="M563.46 167.171C567.881 167.171 571.67 167.678 574.701 168.818C577.733 169.831 580.385 171.604 582.785 173.883L581.017 175.53C579.754 174.39 578.238 173.63 576.596 172.997C574.954 172.364 573.438 172.11 572.049 172.11C567.376 172.11 563.965 175.15 561.565 181.102C559.165 187.054 558.029 196.299 558.029 208.584C558.029 217.449 558.534 224.415 559.418 229.354C560.302 234.293 561.565 237.712 563.081 239.485C564.597 241.385 566.365 242.272 568.133 242.272C570.912 242.272 573.438 241.258 575.712 239.105C577.985 237.079 578.996 234.42 578.996 231.253V238.725C576.975 242.525 574.449 245.438 571.544 247.337C568.639 249.237 564.976 250.123 560.429 250.123C554.618 250.123 549.44 248.73 544.766 245.818C540.093 242.905 536.304 238.346 533.651 232.267C530.872 226.061 529.609 218.082 529.609 208.077C529.609 198.832 530.999 191.234 533.778 185.155C536.556 179.076 540.472 174.643 545.524 171.604C550.829 168.691 556.639 167.171 563.46 167.171ZM606.531 129.304V231.38C606.531 235.939 607.163 239.359 608.426 241.512C609.689 243.665 611.836 244.804 614.994 244.804V247.971C611.836 247.717 608.678 247.464 605.647 247.464C600.595 247.464 595.921 247.591 591.5 247.971C587.206 248.224 583.038 248.857 579.249 249.617V147.541C579.249 142.982 578.617 139.563 577.48 137.41C576.217 135.257 574.07 134.117 570.786 134.117V130.951C574.07 131.204 577.101 131.457 580.133 131.457C585.185 131.457 589.858 131.331 594.279 130.951C598.7 130.571 602.742 130.064 606.531 129.304Z" fill="white"/>
<path d="M661.097 167.171C668.928 167.171 675.875 168.564 681.686 171.224C687.496 173.883 692.043 178.316 695.2 184.395C698.484 190.474 700 198.579 700 208.837C700 219.096 698.358 227.201 695.2 233.28C691.916 239.359 687.496 243.665 681.686 246.324C675.875 248.984 669.055 250.25 661.097 250.25C653.266 250.25 646.446 248.984 640.635 246.324C634.825 243.665 630.278 239.359 626.994 233.28C623.71 227.201 622.194 219.096 622.194 208.837C622.194 198.579 623.836 190.474 626.994 184.395C630.152 178.316 634.825 173.883 640.635 171.224C646.446 168.564 653.266 167.171 661.097 167.171ZM661.097 170.211C658.066 170.211 655.54 173.25 653.519 179.329C651.498 185.408 650.487 195.286 650.487 208.837C650.487 222.388 651.498 232.267 653.519 238.219C655.54 244.298 658.066 247.211 661.097 247.211C664.129 247.211 666.655 244.171 668.676 238.219C670.697 232.14 671.707 222.388 671.707 208.837C671.707 195.286 670.697 185.408 668.676 179.329C666.655 173.25 664.129 170.211 661.097 170.211Z" fill="white"/>
<rect x="309.803" y="277.566" width="390.123" height="2.73195" fill="white"/>
<path d="M329.49 326.625L326.611 319.919H315.589L312.77 326.625H307.801L318.586 302.38H323.713L334.498 326.625H329.49ZM325.369 316.517L322.668 309.944C322.471 309.504 322.195 308.81 321.84 307.863C321.498 306.916 321.261 306.223 321.13 305.782C320.775 307.136 320.256 308.617 319.572 310.225L316.97 316.517H325.369Z" fill="white"/>
<path d="M352.921 313.528H363.529V325.65C361.793 326.124 360.124 326.459 358.52 326.658C356.93 326.856 355.208 326.955 353.355 326.955C348.991 326.955 345.626 325.876 343.26 323.718C340.893 321.549 339.71 318.493 339.71 314.552C339.71 310.665 341.045 307.626 343.713 305.435C346.381 303.233 350.055 302.132 354.735 302.132C357.745 302.132 360.597 302.617 363.292 303.586L361.636 306.872C359.296 305.969 356.956 305.518 354.616 305.518C351.541 305.518 349.109 306.327 347.321 307.946C345.534 309.564 344.64 311.777 344.64 314.585C344.64 317.536 345.442 319.782 347.045 321.323C348.662 322.854 350.982 323.619 354.005 323.619C355.53 323.619 357.16 323.459 358.895 323.14V316.914H352.921V313.528Z" fill="white"/>
<path d="M389.602 326.625H373.296V302.479H389.602V305.815H378.008V312.388H388.872V315.691H378.008V323.272H389.602V326.625Z" fill="white"/>
<path d="M422.694 326.625H416.917L402.74 307.384H402.582L402.681 308.458C402.865 310.506 402.957 312.377 402.957 314.073V326.625H398.678V302.479H404.396L418.533 321.62H418.652C418.625 321.367 418.573 320.448 418.494 318.862C418.415 317.266 418.376 316.022 418.376 315.13V302.479H422.694V326.625Z" fill="white"/>
<path d="M445.395 305.518C442.687 305.518 440.558 306.322 439.007 307.929C437.456 309.537 436.68 311.755 436.68 314.585C436.68 317.547 437.423 319.787 438.908 321.307C440.407 322.826 442.569 323.586 445.395 323.586C446.618 323.586 447.801 323.487 448.944 323.288C450.088 323.079 451.277 322.815 452.513 322.496V325.881C450.252 326.597 447.689 326.955 444.823 326.955C440.604 326.955 437.364 325.887 435.103 323.751C432.842 321.604 431.711 318.538 431.711 314.552C431.711 312.041 432.257 309.845 433.348 307.962C434.452 306.079 436.043 304.637 438.12 303.635C440.196 302.633 442.635 302.132 445.435 302.132C448.379 302.132 451.1 302.65 453.597 303.685L451.902 306.971C450.929 306.586 449.897 306.25 448.806 305.964C447.728 305.667 446.591 305.518 445.395 305.518Z" fill="white"/>
<path d="M461.55 326.625V302.479H466.263V326.625H461.55Z" fill="white"/>
<path d="M494.603 326.625L491.724 319.919H480.703L477.883 326.625H472.914L483.7 302.38H488.826L499.611 326.625H494.603ZM490.482 316.517L487.781 309.944C487.584 309.504 487.308 308.81 486.953 307.863C486.611 306.916 486.375 306.223 486.243 305.782C485.888 307.136 485.369 308.617 484.686 310.225L482.083 316.517H490.482Z" fill="white"/>
<path d="M556.319 314.321C556.319 318.306 554.998 321.356 552.356 323.47C549.714 325.573 545.908 326.625 540.94 326.625H532.875V302.479H541.787C546.375 302.479 549.944 303.514 552.494 305.584C555.044 307.654 556.319 310.566 556.319 314.321ZM551.35 314.453C551.35 308.672 548.123 305.782 541.669 305.782H537.588V323.305H540.94C547.88 323.305 551.35 320.354 551.35 314.453Z" fill="white"/>
<path d="M565.356 326.625V302.479H570.069V326.625H565.356Z" fill="white"/>
<path d="M592.317 313.528H602.924V325.65C601.189 326.124 599.52 326.459 597.916 326.658C596.326 326.856 594.604 326.955 592.75 326.955C588.386 326.955 585.021 325.876 582.655 323.718C580.289 321.549 579.106 318.493 579.106 314.552C579.106 310.665 580.44 307.626 583.109 305.435C585.777 303.233 589.451 302.132 594.131 302.132C597.141 302.132 599.993 302.617 602.688 303.586L601.032 306.872C598.692 305.969 596.352 305.518 594.012 305.518C590.936 305.518 588.505 306.327 586.717 307.946C584.929 309.564 584.035 311.777 584.035 314.585C584.035 317.536 584.837 319.782 586.441 321.323C588.058 322.854 590.378 323.619 593.401 323.619C594.926 323.619 596.556 323.459 598.291 323.14V316.914H592.317V313.528Z" fill="white"/>
<path d="M612.691 326.625V302.479H617.404V326.625H612.691Z" fill="white"/>
<path d="M637.818 326.625H633.106V305.865H624.627V302.479H646.296V305.865H637.818V326.625Z" fill="white"/>
<path d="M671.442 326.625L668.564 319.919H657.542L654.722 326.625H649.754L660.539 302.38H665.665L676.451 326.625H671.442ZM667.322 316.517L664.62 309.944C664.423 309.504 664.147 308.81 663.792 307.863C663.451 306.916 663.214 306.223 663.082 305.782C662.728 307.136 662.208 308.617 661.525 310.225L658.922 316.517H667.322Z" fill="white"/>
<path d="M683.083 326.625V302.479H687.795V323.239H700V326.625H683.083Z" fill="white"/>
</svg>
