<svg width="700" height="327" viewBox="0 0 700 327" fill="none" xmlns="http://www.w3.org/2000/svg">
<path fill-rule="evenodd" clip-rule="evenodd" d="M562.576 37.8668C566.997 37.8668 570.786 38.3733 573.818 39.5131C575.435 40.0536 576.944 40.8104 578.365 41.7449V18.2368C578.365 13.6776 577.733 10.2582 576.596 8.10526C575.333 5.9523 573.186 4.8125 569.902 4.8125V1.64638L570.606 1.70083C573.621 1.93473 576.435 2.15296 579.249 2.15296C584.301 2.15296 588.975 2.02631 593.395 1.64638C597.816 1.26645 601.984 0.759868 605.647 0V102.076C605.647 106.635 606.279 110.054 607.542 112.207C608.805 114.36 610.952 115.5 614.11 115.5V118.666C610.952 118.413 607.795 118.16 604.763 118.16C599.711 118.16 595.037 118.286 590.617 118.666C586.322 119.046 582.28 119.553 578.365 120.312V44.8669C577.573 44.4121 576.724 44.0339 575.839 43.6924C574.197 43.0592 572.681 42.8059 571.292 42.8059C566.618 42.8059 563.208 45.8454 560.808 51.7977C558.408 57.75 557.271 66.995 557.271 79.2796C557.271 88.1447 557.777 95.1102 558.661 100.049C559.545 104.988 560.808 108.408 562.324 110.181C563.839 112.081 565.608 112.967 567.376 112.967C570.155 112.967 572.681 111.954 574.955 109.801C577.228 107.775 578.239 105.115 578.239 101.949V109.421C576.218 113.22 573.691 116.133 570.786 118.033C567.881 119.933 564.218 120.819 559.671 120.819C553.861 120.819 548.682 119.426 544.009 116.513C539.336 113.6 535.546 109.041 532.894 102.962C530.115 96.7566 528.852 88.7779 528.852 78.773C528.852 69.5279 530.241 61.9293 533.02 55.8503C535.799 49.7714 539.715 45.3388 544.767 42.2993C549.945 39.3865 555.882 37.8668 562.576 37.8668ZM38.7766 15.3241V39.8931H53.681V43.0593H38.7766V106.128C38.7766 108.028 39.1555 109.421 39.7871 110.308C40.5449 111.194 41.6817 111.574 43.3237 111.574C44.4605 111.574 45.7236 111.194 47.2393 110.561C48.755 109.928 50.1443 108.788 51.5337 107.141L53.8073 108.915C51.66 112.587 48.8813 115.5 45.3446 117.653C41.808 119.806 37.5135 120.946 32.3349 120.946C29.0509 120.946 26.0195 120.566 23.367 119.679C20.7145 118.793 18.441 117.526 16.6727 115.753C14.3991 113.6 13.0097 110.814 12.3782 107.521C11.7467 104.229 11.494 99.9227 11.494 94.7303V43.0593H0V40.0198H11.494V22.0362C16.799 22.0362 21.725 21.5297 26.1458 20.3899C30.5666 19.2501 34.7347 17.7303 38.7766 15.3241ZM112.162 37.8668C115.825 37.8668 118.604 38.6267 120.624 40.273C122.645 41.7928 124.035 43.6924 124.919 46.0987C125.677 48.5049 126.182 50.7845 126.182 53.1908C126.182 57.75 124.919 61.4227 122.266 64.0822C119.74 66.7418 116.33 68.1349 112.162 68.1349C107.741 68.1349 104.331 67.1217 102.057 65.0954C99.7836 63.0691 98.6469 60.4096 98.6469 57.1168C98.6469 53.6974 99.4047 50.7845 100.794 48.6316C102.31 46.352 104.204 44.579 106.352 43.0592C104.583 43.0592 102.941 43.4392 101.552 44.0724C99.9099 44.8322 98.3942 45.8454 97.1312 47.2385C95.7418 48.5049 94.605 50.1513 93.8471 51.9244C93.0893 53.6974 92.5841 55.5971 92.5841 57.6234V103.215C92.5841 108.028 93.5945 111.321 95.6155 113.094C97.6364 114.74 101.047 115.627 105.594 115.627V118.793C103.32 118.793 99.9099 118.666 95.2365 118.413C90.6894 118.286 85.8897 118.286 81.09 118.286C76.6622 118.286 72.2343 118.406 67.6898 118.53L67.3224 118.539C66.0699 118.573 64.899 118.607 63.8121 118.639H63.8119H63.8116H63.8114H63.8112H63.8111H63.8111H63.811H63.8109H63.8108H63.8107H63.8107H63.8106H63.8105C60.8431 118.725 58.5027 118.793 56.8389 118.793V115.627C59.9966 115.627 62.1438 114.867 63.4069 113.347C64.67 111.827 65.3015 108.914 65.3015 104.735V56.6102C65.3015 52.051 64.67 48.6316 63.5332 46.4786C62.2701 44.199 60.1229 43.1859 56.8389 43.1859V40.0198C60.1229 40.273 63.1543 40.3997 66.1857 40.3997C71.238 40.3997 75.9114 40.273 80.3322 39.8931C84.753 39.5132 88.7948 39.0066 92.5841 38.2467V49.1382C93.8472 46.4786 95.4892 44.3257 97.3838 42.6793C99.2784 41.0329 101.552 39.7665 103.952 39.0066C106.478 38.2467 109.257 37.8668 112.162 37.8668ZM134.518 114.36C137.55 118.033 142.602 119.933 149.422 119.933C154.727 119.933 159.022 118.793 162.559 116.513C165.969 114.36 168.748 111.574 170.769 108.281C170.895 111.321 172.158 113.98 174.305 116.387C176.452 118.793 180.873 119.933 187.441 119.933C191.104 119.933 194.514 119.426 197.798 118.539C201.082 117.526 203.735 116.133 206.008 114.234L204.493 111.701C203.861 112.207 203.103 112.714 202.346 113.22C201.588 113.727 200.704 113.98 199.946 113.98C199.128 113.98 198.526 113.546 197.74 112.98L197.74 112.98C197.676 112.934 197.612 112.888 197.546 112.84C197.167 111.954 197.041 110.181 197.041 107.648V66.8685C197.041 61.5494 196.788 57.2435 196.156 53.9507C195.651 50.6579 194.262 47.8718 192.115 45.5921C189.083 42.426 185.547 40.3997 181.252 39.3866C177.084 38.5 172.411 37.9935 167.485 37.9935C162.811 37.9935 158.264 38.3734 154.096 39.1333C149.928 39.8931 146.265 41.0329 143.233 42.806C140.076 44.579 137.676 46.6053 136.16 48.7583C134.518 50.9112 133.76 53.5708 133.76 56.7369C133.76 60.4096 134.771 63.5757 137.044 66.1086C139.192 68.6415 142.349 69.9079 146.391 69.9079C150.18 69.9079 153.591 68.6415 156.369 66.3619C159.275 63.9556 160.664 60.7895 160.664 56.7369C160.664 53.8241 159.906 51.2912 158.264 48.8849C156.622 46.4787 154.096 44.579 150.559 43.3125C151.696 42.5527 152.959 41.9195 154.475 41.4129C155.99 41.0329 157.506 40.7797 159.148 40.7797C162.18 40.7797 164.453 41.5395 165.969 42.9326C167.485 44.4523 168.621 46.0987 169.127 47.9984C169.758 49.8981 170.011 51.6711 170.011 53.3175V66.8685C170.011 69.1481 169 71.0477 167.106 72.5675C165.211 74.0872 162.685 75.3536 159.653 76.4934C156.622 77.6332 153.338 78.773 149.928 79.9129C146.517 81.0527 143.233 82.4457 140.202 84.2188C137.171 85.9918 134.644 88.1448 132.75 90.9309C130.855 93.7171 129.845 97.2632 129.845 101.569C129.845 106.382 131.487 110.688 134.518 114.36ZM167.485 107.268C166.727 107.648 165.716 107.775 164.579 107.775C162.432 107.775 160.538 106.888 159.022 105.368C157.633 103.722 156.875 100.936 156.875 96.8832C156.875 93.3372 157.254 90.4244 158.264 88.1448C159.275 85.8652 160.411 83.8388 161.927 82.3191C163.316 80.6727 164.832 79.2796 166.348 77.8865C167.863 76.4934 169.127 74.8471 170.137 73.074V105.242C169.253 106.255 168.369 106.888 167.485 107.268ZM242.006 37.8668C246.427 37.8668 250.342 38.3734 253.753 39.2599C257.163 40.273 259.563 41.1595 261.078 41.9194C264.615 44.0724 266.762 42.6793 267.647 37.9934H270.678C270.425 40.9063 270.299 44.4523 270.173 48.7582C270.046 53.0641 270.046 58.5099 270.046 65.3487H267.015C266.636 61.5493 265.752 57.8767 264.362 54.204C262.973 50.5313 261.078 47.4918 258.426 45.0855C255.9 42.6793 252.49 41.4128 248.321 41.4128C245.795 41.4128 243.648 42.1727 242.006 43.6924C240.238 45.2122 239.48 47.2385 239.48 49.898C239.48 52.9375 240.364 55.597 242.259 58.0033C244.153 60.4095 246.427 62.6891 249.206 64.8421C251.984 66.9951 254.889 69.2747 257.668 71.8076C262.342 75.6069 266.257 79.2796 269.289 83.0789C272.446 86.8783 273.962 91.6908 273.962 97.5164C273.962 102.076 272.573 106.128 269.794 109.674C267.015 113.22 263.352 116.007 258.679 117.906C254.132 119.933 248.953 120.819 243.269 120.819C239.732 120.819 236.701 120.439 234.049 119.679C231.396 118.919 229.249 118.033 227.733 117.02C226.091 116.26 224.702 115.627 223.565 115.12C222.428 114.613 221.291 114.487 220.155 114.487C219.144 114.487 218.26 114.993 217.628 116.133C216.871 117.146 216.365 118.413 215.986 119.806H212.955C213.208 116.513 213.334 112.587 213.46 107.901C213.587 103.215 213.587 97.0098 213.587 89.4112H216.618C217.25 94.7302 218.386 99.5427 220.155 103.722C221.923 107.901 224.196 111.194 226.975 113.474C229.754 115.88 232.912 117.02 236.575 117.02C238.848 117.02 240.995 116.386 242.764 114.993C244.532 113.6 245.416 111.574 245.416 108.661C245.416 104.229 244.027 100.429 241.374 97.3898C238.722 94.3503 235.312 91.0576 231.27 87.3849C228.238 84.5987 225.333 81.8125 222.681 79.153C220.028 76.4934 217.755 73.5806 216.113 70.2878C214.344 67.1217 213.587 63.5757 213.587 59.523C213.587 54.9638 214.976 51.0378 217.628 47.8717C220.281 44.579 223.818 42.1727 228.112 40.3997C232.407 38.7533 237.08 37.8668 242.006 37.8668ZM333.96 39.2599C330.423 38.3734 326.507 37.8668 322.087 37.8668C314.761 37.8668 308.193 39.2599 302.509 42.426C296.572 45.3388 291.899 49.7714 288.489 55.977C285.078 62.1826 283.31 70.0345 283.31 79.7862C283.31 90.0444 284.952 98.1497 288.236 104.229C291.52 110.308 295.815 114.613 301.372 117.273C306.93 119.933 312.992 121.199 319.813 121.199C325.876 121.199 330.928 119.806 335.223 117.273C339.391 114.74 342.927 111.321 345.58 107.395C348.232 103.469 350.127 99.4161 351.39 95.3635L348.864 94.477C345.58 99.1628 342.17 101.949 338.759 103.089C335.349 104.229 332.57 104.735 330.549 104.735C327.518 104.735 324.613 103.975 321.708 102.456C318.676 100.936 316.276 98.1497 314.382 94.2237C312.487 90.2977 311.477 84.7253 311.477 77.6332C311.477 73.7072 311.729 69.7812 312.235 65.7286C312.74 61.676 313.624 57.8766 314.887 54.3306C316.15 50.7845 317.918 47.8717 320.192 45.7188C322.466 43.5658 325.371 42.426 329.034 42.426C330.423 42.426 331.56 42.5526 332.57 42.9326C333.581 43.3125 334.339 43.6924 335.096 44.199C331.812 45.2122 328.907 46.9852 326.381 49.6447C323.981 52.3043 322.718 55.597 322.718 59.3964C322.718 63.449 323.981 66.7418 326.381 69.2747C328.907 71.8076 332.318 73.074 336.738 73.074C341.033 73.074 344.443 71.5543 347.222 68.7681C349.874 65.8553 351.264 62.4359 351.264 58.2566C351.264 54.7105 350.38 51.5444 348.738 48.8849C347.096 46.2253 344.948 44.0724 342.17 42.426C340.149 41.2862 337.37 40.1464 333.96 39.2599ZM398.502 37.8668C407.343 37.8668 414.417 40.5263 419.469 45.7188C424.521 50.9112 427.174 59.6497 427.174 71.9342H388.071C388.018 72.6941 388.018 73.4539 388.018 74.2138V77.3799C388.018 84.472 388.902 90.0444 390.671 93.9704C392.439 97.8964 394.712 100.683 397.365 102.202C400.017 103.722 402.796 104.482 405.449 104.482C407.47 104.482 410.248 103.975 413.659 102.836C417.069 101.696 420.479 98.9095 423.763 94.2237L426.29 95.1102C425.026 99.1628 423.132 103.215 420.479 107.141C417.827 111.067 414.29 114.487 410.122 117.02C405.828 119.553 400.775 120.946 394.712 120.946C388.271 120.946 382.334 119.679 377.029 117.02C371.724 114.36 367.556 110.054 364.398 103.975C361.241 97.8964 359.725 89.7911 359.725 79.5329C359.725 69.7812 361.493 61.9293 364.904 55.7237C368.314 49.5181 372.987 45.0855 378.924 42.1727C384.608 39.2599 391.176 37.8668 398.502 37.8668ZM405.07 69.0214H387.557C388.076 58.9823 389.079 51.9289 390.797 47.7451C392.565 43.4392 394.712 41.2862 397.491 41.2862C399.386 41.2862 400.902 42.5526 402.038 45.0855C403.175 47.6184 403.933 50.9112 404.438 55.2171C404.943 59.523 405.196 64.0822 405.07 69.0214ZM503.591 39.6398C500.938 38.5 497.275 37.8668 492.602 37.8668C487.171 37.8668 482.371 38.7533 478.329 40.5263C474.287 42.2994 471.003 45.2122 468.604 49.2648V38.3734C464.814 39.1332 460.772 39.6398 456.352 40.0198C451.931 40.3997 447.257 40.5263 442.205 40.5263C439.391 40.5263 436.578 40.3081 433.562 40.0742L432.858 40.0198V43.1859C436.142 43.1859 438.29 44.3257 439.553 46.4786C440.689 48.6316 441.321 52.051 441.321 56.6102V104.735C441.321 108.914 440.69 111.827 439.426 113.347C438.163 114.867 436.016 115.627 432.858 115.627V118.793C435.132 118.666 438.416 118.539 442.71 118.413C447.005 118.286 451.299 118.16 455.594 118.16C459.509 118.16 463.299 118.286 467.088 118.413C470.751 118.539 473.656 118.666 475.551 118.793V115.627C473.024 115.627 471.13 114.867 470.119 113.347C468.983 111.827 468.477 109.041 468.477 104.735V56.7369C468.477 53.5707 469.488 50.9112 471.761 48.8849C474.035 46.8586 476.561 45.8454 479.34 45.8454C481.108 45.8454 482.624 46.0987 483.634 46.8586C484.771 47.4918 485.529 48.6316 486.034 50.0247C486.539 51.4178 486.792 53.1908 486.792 55.3438V104.735C486.792 108.914 486.287 111.827 485.276 113.347C484.266 114.867 482.497 115.627 479.845 115.627V118.793C481.866 118.666 484.897 118.539 488.939 118.413C492.981 118.286 497.023 118.16 501.317 118.16C505.233 118.16 509.275 118.286 513.317 118.413C517.485 118.539 520.516 118.666 522.537 118.793V115.627C519.379 115.627 517.232 114.867 515.969 113.347C514.706 111.827 514.074 109.041 514.074 104.735V63.5757C514.074 58.3832 513.822 54.3306 513.064 51.2911C512.432 48.2517 511.296 45.7188 509.78 43.9457C508.264 42.2994 506.243 40.7796 503.591 39.6398ZM344.568 234.04V167.678C340.905 168.311 336.737 168.818 332.316 169.324C327.895 169.704 323.222 169.831 318.17 169.831C315.356 169.831 312.542 169.613 309.526 169.379L309.526 169.379L308.823 169.324V172.49C312.107 172.49 314.254 173.63 315.517 175.783C316.654 177.936 317.285 181.355 317.285 185.915V234.04C317.285 238.219 316.654 241.132 315.391 242.651C314.128 244.171 311.98 244.931 308.823 244.931V248.097C311.096 247.971 314.38 247.844 318.675 247.717C322.969 247.591 327.264 247.464 331.558 247.464C335.726 247.464 339.895 247.591 343.936 247.717C347.978 247.844 351.01 247.971 353.031 248.097V244.931C349.873 244.931 347.726 244.171 346.463 242.651C345.199 241.132 344.568 238.346 344.568 234.04ZM342.294 132.597C339.389 130.444 335.347 129.305 330.042 129.305C324.738 129.305 320.696 130.444 317.791 132.597C314.886 134.75 313.496 138.043 313.496 142.349C313.496 146.655 314.886 149.948 317.791 152.101C320.696 154.254 324.738 155.393 330.042 155.393C335.347 155.393 339.389 154.254 342.294 152.101C345.199 149.948 346.589 146.655 346.589 142.349C346.589 138.043 345.199 134.75 342.294 132.597ZM399.259 167.171C408.101 167.171 415.174 169.831 420.227 175.023C425.279 180.216 427.931 188.954 427.931 201.239H388.829C388.776 201.999 388.776 202.758 388.776 203.518V206.684C388.776 213.777 389.66 219.349 391.428 223.275C393.197 227.201 395.47 229.987 398.123 231.507C400.775 233.027 403.554 233.786 406.206 233.786C408.227 233.786 411.006 233.28 414.416 232.14C417.827 231.127 421.237 228.214 424.521 223.528L427.047 224.415C425.784 228.467 423.89 232.52 421.237 236.446C418.585 240.372 415.048 243.791 410.88 246.324C406.585 248.857 401.533 250.25 395.47 250.25C389.029 250.25 383.092 248.984 377.787 246.324C372.482 243.665 368.314 239.359 365.156 233.28C361.999 227.201 360.483 219.096 360.483 208.837C360.483 199.086 362.251 191.234 365.662 185.028C369.072 178.823 373.745 174.39 379.682 171.477C385.492 168.564 392.06 167.171 399.259 167.171ZM405.828 198.326H388.315C388.834 188.287 389.837 181.233 391.555 177.05C393.323 172.744 395.47 170.591 398.249 170.591C400.144 170.591 401.659 171.857 402.796 174.39C403.933 176.923 404.691 180.216 405.196 184.522C405.701 188.828 405.954 193.387 405.828 198.326ZM504.474 168.944C501.822 167.805 498.159 167.171 493.485 167.171C487.928 167.171 483.254 168.058 479.213 169.831C475.171 171.604 471.887 174.517 469.487 178.569V167.678C465.698 168.438 461.656 168.944 457.235 169.324C452.814 169.704 448.141 169.831 443.089 169.831C440.275 169.831 437.461 169.613 434.445 169.379L433.742 169.324V172.49C437.026 172.49 439.173 173.63 440.436 175.783C441.573 177.936 442.204 181.355 442.204 185.915V234.04C442.204 238.219 441.573 241.132 440.31 242.652C439.047 244.171 436.899 244.931 433.742 244.931V248.097C436.015 247.971 439.299 247.844 443.594 247.717C447.888 247.591 452.183 247.464 456.477 247.464C460.393 247.464 464.182 247.591 467.971 247.717C471.634 247.844 474.539 247.971 476.434 248.097V244.931C473.908 244.931 472.013 244.171 471.003 242.652C469.866 241.132 469.361 238.346 469.361 234.04V186.041C469.361 182.875 470.371 180.216 472.645 178.189C474.918 176.163 477.444 175.15 480.223 175.15C481.991 175.15 483.507 175.403 484.518 176.163C485.654 176.796 486.412 177.936 486.917 179.329C487.423 180.722 487.675 182.495 487.675 184.648V234.04C487.675 238.219 487.17 241.132 486.16 242.652C485.149 244.171 483.381 244.931 480.728 244.931V248.097C482.749 247.971 485.781 247.844 489.823 247.717C493.864 247.591 497.906 247.464 502.201 247.464C506.116 247.464 510.158 247.591 514.2 247.717C518.368 247.844 521.4 247.971 523.42 248.097V244.931C520.263 244.931 518.116 244.171 516.852 242.652C515.589 241.132 514.958 238.346 514.958 234.04V192.88C514.958 187.688 514.705 183.635 513.947 180.596C513.316 177.556 512.179 175.023 510.663 173.25C509.148 171.604 507.127 170.084 504.474 168.944ZM563.46 167.171C567.881 167.171 571.67 167.678 574.701 168.818C576.319 169.358 577.828 170.115 579.249 171.049V147.541C579.249 142.982 578.617 139.563 577.48 137.41C576.217 135.257 574.07 134.117 570.786 134.117V130.951L571.489 131.005C574.505 131.239 577.319 131.457 580.133 131.457C585.185 131.457 589.858 131.331 594.279 130.951C598.7 130.571 602.742 130.064 606.531 129.305V231.38C606.531 235.939 607.163 239.359 608.426 241.512C609.689 243.665 611.836 244.804 614.994 244.804V247.971C611.836 247.717 608.678 247.464 605.647 247.464C600.595 247.464 595.921 247.591 591.5 247.971C587.206 248.224 583.038 248.857 579.249 249.617V174.245C578.421 173.757 577.529 173.357 576.596 172.997C574.954 172.364 573.438 172.11 572.049 172.11C567.376 172.11 563.965 175.15 561.565 181.102C559.165 187.054 558.029 196.3 558.029 208.584C558.029 217.449 558.534 224.415 559.418 229.354C560.302 234.293 561.565 237.712 563.081 239.485C564.597 241.385 566.365 242.272 568.133 242.272C570.912 242.272 573.438 241.258 575.712 239.105C577.985 237.079 578.996 234.42 578.996 231.253V238.726C576.975 242.525 574.449 245.438 571.544 247.337C568.639 249.237 564.976 250.124 560.429 250.124C554.618 250.124 549.44 248.73 544.766 245.818C540.093 242.905 536.304 238.346 533.651 232.267C530.872 226.061 529.609 218.082 529.609 208.078C529.609 198.832 530.999 191.234 533.778 185.155C536.556 179.076 540.472 174.643 545.524 171.604C550.829 168.691 556.639 167.171 563.46 167.171ZM681.685 171.224C675.875 168.564 668.928 167.171 661.097 167.171C653.266 167.171 646.446 168.564 640.635 171.224C634.825 173.883 630.152 178.316 626.994 184.395C623.836 190.474 622.194 198.579 622.194 208.837C622.194 219.096 623.71 227.201 626.994 233.28C630.278 239.359 634.825 243.665 640.635 246.324C646.446 248.984 653.266 250.25 661.097 250.25C669.055 250.25 675.875 248.984 681.685 246.324C687.496 243.665 691.916 239.359 695.201 233.28C698.358 227.201 700 219.096 700 208.837C700 198.579 698.484 190.474 695.201 184.395C692.043 178.316 687.496 173.883 681.685 171.224ZM650.487 208.837C650.487 195.286 651.498 185.408 653.519 179.329C655.54 173.25 658.066 170.211 661.097 170.211C664.129 170.211 666.655 173.25 668.676 179.329C670.697 185.408 671.707 195.286 671.707 208.837C671.707 222.388 670.697 232.14 668.676 238.219C666.655 244.171 664.129 247.211 661.097 247.211C658.066 247.211 655.54 244.298 653.519 238.219C651.498 232.267 650.487 222.388 650.487 208.837ZM309.803 277.566H699.926V280.298H309.803V277.566ZM363.529 313.528H352.921V316.914H358.895V323.14C357.16 323.459 355.53 323.619 354.005 323.619C350.982 323.619 348.662 322.854 347.045 321.323C345.442 319.782 344.64 317.536 344.64 314.585C344.64 311.777 345.534 309.564 347.321 307.946C349.109 306.327 351.541 305.518 354.616 305.518C356.956 305.518 359.296 305.969 361.636 306.872L363.292 303.586C360.597 302.617 357.745 302.132 354.735 302.132C350.055 302.132 346.381 303.233 343.713 305.435C341.045 307.626 339.71 310.665 339.71 314.552C339.71 318.494 340.893 321.549 343.26 323.718C345.626 325.876 348.991 326.955 353.355 326.955C355.208 326.955 356.93 326.856 358.52 326.658C360.124 326.459 361.793 326.124 363.529 325.65V313.528ZM326.611 319.919L329.49 326.625H334.498L323.713 302.38H318.586L307.801 326.625H312.77L315.589 319.919H326.611ZM322.668 309.944L325.369 316.517H316.97L319.572 310.225C320.256 308.617 320.775 307.136 321.13 305.782C321.261 306.223 321.498 306.916 321.84 307.863C322.195 308.81 322.471 309.504 322.668 309.944ZM389.602 326.625H373.296V302.479H389.602V305.815H378.008V312.388H388.872V315.691H378.008V323.272H389.602V326.625ZM416.917 326.625H422.694V302.479H418.376V315.13C418.376 316.022 418.415 317.266 418.494 318.862C418.573 320.448 418.625 321.367 418.652 321.62H418.533L404.396 302.479H398.678V326.625H402.957V314.073C402.957 312.377 402.865 310.506 402.681 308.458L402.582 307.384H402.74L416.917 326.625ZM445.395 305.518C442.687 305.518 440.558 306.322 439.007 307.929C437.456 309.537 436.68 311.755 436.68 314.585C436.68 317.547 437.423 319.787 438.908 321.307C440.407 322.826 442.569 323.586 445.395 323.586C446.618 323.586 447.801 323.487 448.944 323.289C450.088 323.079 451.277 322.815 452.513 322.496V325.881C450.252 326.597 447.689 326.955 444.823 326.955C440.604 326.955 437.364 325.887 435.103 323.751C432.842 321.604 431.711 318.538 431.711 314.552C431.711 312.042 432.257 309.845 433.348 307.962C434.452 306.079 436.043 304.637 438.12 303.635C440.196 302.633 442.635 302.132 445.435 302.132C448.379 302.132 451.1 302.65 453.597 303.685L451.902 306.971C450.929 306.586 449.897 306.25 448.806 305.964C447.728 305.667 446.591 305.518 445.395 305.518ZM461.55 302.479V326.625H466.263V302.479H461.55ZM491.724 319.919H480.703L477.883 326.625H472.914L483.7 302.38H488.826L499.611 326.625H494.603L491.724 319.919ZM490.482 316.517L487.781 309.944C487.584 309.504 487.308 308.81 486.953 307.863C486.611 306.916 486.375 306.223 486.243 305.782C485.888 307.136 485.369 308.617 484.686 310.225L482.083 316.517H490.482ZM552.356 323.47C554.998 321.356 556.319 318.306 556.319 314.321C556.319 310.566 555.044 307.654 552.494 305.584C549.944 303.514 546.375 302.479 541.787 302.479H532.875V326.625H540.94C545.908 326.625 549.714 325.573 552.356 323.47ZM541.669 305.782C548.123 305.782 551.35 308.672 551.35 314.453C551.35 320.354 547.88 323.305 540.94 323.305H537.588V305.782H541.669ZM565.356 326.625V302.479H570.069V326.625H565.356ZM602.924 313.528H592.317V316.914H598.291V323.14C596.556 323.459 594.926 323.619 593.401 323.619C590.378 323.619 588.058 322.854 586.441 321.323C584.837 319.782 584.035 317.536 584.035 314.585C584.035 311.777 584.929 309.564 586.717 307.946C588.505 306.327 590.936 305.518 594.012 305.518C596.352 305.518 598.692 305.969 601.031 306.872L602.688 303.586C599.993 302.617 597.141 302.132 594.131 302.132C589.451 302.132 585.777 303.233 583.109 305.435C580.44 307.626 579.106 310.665 579.106 314.552C579.106 318.494 580.289 321.549 582.655 323.718C585.021 325.876 588.386 326.955 592.75 326.955C594.604 326.955 596.326 326.856 597.916 326.658C599.52 326.459 601.189 326.124 602.924 325.65V313.528ZM612.691 326.625V302.479H617.404V326.625H612.691ZM633.106 326.625H637.818V305.865H646.296V302.479H624.627V305.865H633.106V326.625ZM668.564 319.919H657.542L654.722 326.625H649.754L660.539 302.38H665.665L676.451 326.625H671.442L668.564 319.919ZM667.322 316.517L664.62 309.944C664.423 309.504 664.147 308.81 663.792 307.863C663.451 306.916 663.214 306.223 663.082 305.782C662.728 307.136 662.208 308.617 661.525 310.225L658.922 316.517H667.322ZM683.083 302.479V326.625H700V323.239H687.795V302.479H683.083Z" fill="url(#paint0_linear_1623_2)"/>
<defs>
<linearGradient id="paint0_linear_1623_2" x1="700" y1="327" x2="725.845" y2="74.2086" gradientUnits="userSpaceOnUse">
<stop stop-color="#D23030"/>
<stop offset="1" stop-color="#0378BD"/>
</linearGradient>
</defs>
</svg>
