<svg width="71" height="auto" viewBox="0 0 500 500" xmlns="http://www.w3.org/2000/svg">
    <rect x="118.1" y="450.8" fill="#F29F03" width="16.4" height="16.4"></rect>
    <path fill="#F29F03" d="M306.8,352.3H167.3V229.3c0-4.5-3.7-8.2-8.2-8.2H11.4c-4.5,0-8.2,3.7-8.2,8.2v262.5c0,4.5,3.7,8.2,8.2,8.2 h295.3c4.5,0,8.2-3.7,8.2-8.2V360.5C315,356,311.3,352.3,306.8,352.3z M216.5,368.7h32.8v32.8h-32.8V368.7z M68.9,237.5h32.8v32.8 H68.9V237.5z M19.6,237.5h32.8v41c0,4.5,3.7,8.2,8.2,8.2h49.2c4.5,0,8.2-3.7,8.2-8.2v-41h32.8v114.9H19.6V237.5z M68.9,368.7h32.8 v32.8H68.9V368.7z M19.6,368.7h32.8v41c0,4.5,3.7,8.2,8.2,8.2h49.2c4.5,0,8.2-3.7,8.2-8.2v-41h32.8v114.9H19.6V368.7z M298.6,483.6 H167.3V368.7h32.8v41c0,4.5,3.7,8.2,8.2,8.2h49.2c4.5,0,8.2-3.7,8.2-8.2v-41h32.8V483.6z"></path>
    <rect x="265.7" y="450.8" fill="#F29F03" width="16.4" height="16.4"></rect>
    <rect x="118.1" y="319.5" fill="#F29F03" width="16.4" height="16.4"></rect>
    <path fill="#F29F03" d="M485.3,106c0.6,0.2,1.3,0.2,1.9,0.2c2.9,0,5.6-1.6,7.1-4.1c0.7-1.3,1.1-2.8,1.1-4.3V65.2c0-3.8-2.6-7.1-6.3-8 L251.3-0.2c-1.3-0.3-2.6-0.3-3.8,0L9.5,57.2c-3.7,0.9-6.3,4.2-6.3,8v32.6c0,1.7,0.5,3.4,1.4,4.8c1.9,2.8,5.4,4.2,8.7,3.4l14.5-3.5 v102.2h16.4V98.5L249.3,49l205.1,49.5v385.1h-49.2V163.7c0-4.5-3.7-8.2-8.2-8.2H101.7c-4.5,0-8.2,3.7-8.2,8.2v32.8 c0,4.5,3.7,8.2,8.2,8.2h287.1v16.4H183.7v16.4h205.1v16.4H183.7v16.4h205.1v16.4H183.7v16.4h205.1v180.5h-57.4V500h164.1v-16.4 h-24.6V102.5L485.3,106z M109.9,188.3v-16.4h278.9v16.4H109.9z M249.3,32.4c-0.6,0-1.3,0.1-1.9,0.2l-227.8,55V71.7l229.7-55.4 L479,71.7v15.9l-227.8-55C250.6,32.5,250,32.4,249.3,32.4z"></path>
    <path fill="#F29F03" d="M265.7,130.8c13.6,0,24.6-11,24.6-24.6s-11-24.6-24.6-24.6h-32.8c-13.6,0-24.6,11-24.6,24.6s11,24.6,24.6,24.6 H265.7z M224.7,106.2c0-4.5,3.7-8.2,8.2-8.2h32.8c4.5,0,8.2,3.7,8.2,8.2c0,4.5-3.7,8.2-8.2,8.2h-32.8 C228.4,114.4,224.7,110.8,224.7,106.2z"></path>
</svg>