<?xml version="1.0" encoding="utf-8"?>
<!-- Generator: Adobe Illustrator 25.0.0, SVG Export Plug-In . SVG Version: 6.00 Build 0)  -->
<svg version="1.1" id="Capa_1" xmlns="http://www.w3.org/2000/svg" xmlns:xlink="http://www.w3.org/1999/xlink" x="0px" y="0px"
	 viewBox="0 0 200 200" style="enable-background:new 0 0 200 200;" xml:space="preserve">
<style type="text/css">
	.st0{fill-rule:evenodd;clip-rule:evenodd;fill:#1E71B8;}
	.st1{fill-rule:evenodd;clip-rule:evenodd;fill:#BB253E;}
	.st2{fill-rule:evenodd;clip-rule:evenodd;fill:#FFFFFF;}
</style>
<g>
	<path class="st0" d="M14.2,56.7h171.7c3.6,0,6.6,3,6.6,6.6V126H7.7V63.2C7.7,59.6,10.6,56.7,14.2,56.7z"/>
	<path class="st1" d="M7.5,130.8h184.7v8.1c0,3-2.4,5.5-5.5,5.5H13c-3,0-5.5-2.4-5.5-5.5V130.8z"/>
	<path class="st2" d="M90.7,96.5l0.2-0.2c0.2,0,0.2,0,0.2,0.2l12.7,12.3c0.2,0.4,0.6,0.6,0.8,0.6h15.8c0.6,0,1.4-0.7,1.4-1.4V97.3
		c0-0.7-0.7-1.4-1.4-1.4h-11.5c-0.4,0-0.6-0.2-0.8-0.4l-8.3-8.3c0,0-0.2,0-0.2-0.2c0,0,0.2,0,0.2-0.2l3.8-3.9c0.4-0.2,0.7-0.4,1-0.4
		h11.3c0.7,0,1.4-0.7,1.4-1.4v-6.1c0-0.8-0.6-1.4-1.4-1.4h-11.1c-0.4,0-0.7,0.2-0.8,0.4L91.1,87h-0.2c0,0-0.2,0-0.2-0.2V75.2
		c0-0.8-0.5-1.4-1.2-1.4H76.7c-0.7,0-1.2,0.5-1.2,1.4v10.6c0,0.6,0.5,1.2,1.2,1.2c0.6,0,0.8,0.6,0.8,0.8V95c0,0.6-0.4,0.8-0.8,0.8
		c-0.7,0-1.2,0.7-1.2,1.4v10.6c0,0.7,0.5,1.4,1.2,1.4h12.9c0.7,0,1.2-0.7,1.2-1.4V96.5L90.7,96.5L90.7,96.5z M52.4,82.7
		c-0.8,0-1.4-0.7-1.4-1.4v-2.2c0-0.4-0.4-0.8-0.8-0.8h-7.1c-0.6,0-0.8,0.5-0.8,0.8v7.1c0,0.6,0.4,0.8,0.8,0.8h24.3
		c0.6,0,1.2,0.7,1.2,1.4v19.4c0,0.7-0.6,1.4-1.2,1.4H25.9c-0.7,0-1.4-0.7-1.4-1.4V97.3c0-0.7,0.7-1.4,1.4-1.4h10.6
		c0.7,0,1.2,0.7,1.2,1.4v6.6c0,0.6,0.6,0.8,1,0.8h15.8c0.5,0,0.8-0.4,0.8-0.8V92.5c0-0.5-0.4-0.8-0.8-0.8c0,0,0,0-0.1,0H30.2
		c-0.7,0-1.4-0.7-1.4-1.4l0.2-15c0-0.8,0.6-1.4,1.2-1.4h32.6c0.7,0,1.4,0.5,1.4,1.4v6.1c0,0.7-0.7,1.4-1.4,1.4L52.4,82.7L52.4,82.7
		L52.4,82.7z M158.3,82.7c-0.7,0-1.2-0.7-1.2-1.4v-2.2c0-0.4-0.6-0.8-0.8-0.8h-13.8c-0.6,0-0.8,0.5-0.8,0.8v7.1
		c0,0.6,0.4,0.8,0.8,0.8h4.9c0.5,0,0.8-0.4,0.8-0.8c0-0.7,0.5-1.2,1.4-1.2h10.6c0.7,0,1.2,0.5,1.2,1.2v6.3c0,0.7-0.6,1.2-1.2,1.2
		h-10.6c-0.8,0-1.4-0.6-1.4-1.2c0-0.5-0.4-0.8-0.8-0.8h-4.9c-0.6,0-0.8,0.4-0.8,0.8v2.6c0,0.6,0.4,0.8,0.8,0.8
		c0.7,0,1.4,0.7,1.4,1.4v10.6c0,0.7-0.7,1.4-1.4,1.4h-12.9c-0.7,0-1.2-0.7-1.2-1.4V97.3c0-0.7,0.5-1.4,1.2-1.4
		c0.6,0,0.8-0.4,0.8-0.8V88c0-0.4-0.4-0.8-0.8-0.8c-0.6,0-1.2-0.5-1.2-1.1c0,0,0,0,0-0.1V75.2c0-0.8,0.5-1.4,1.2-1.4h43.8
		c0.6,0,1.4,0.5,1.4,1.4v6.1c0,0.7-0.7,1.4-1.4,1.4H158.3L158.3,82.7z"/>
</g>
</svg>
