<?xml version="1.0" encoding="utf-8"?>
<!-- Generator: Adobe Illustrator 25.0.0, SVG Export Plug-In . SVG Version: 6.00 Build 0)  -->
<svg version="1.1" id="Capa_1" xmlns="http://www.w3.org/2000/svg" xmlns:xlink="http://www.w3.org/1999/xlink" x="0px" y="0px"
	 viewBox="0 0 200 200" style="enable-background:new 0 0 200 200;" xml:space="preserve">
<style type="text/css">
	.st0{fill:#001689;}
</style>
<g>
	<path class="st0" d="M168.2,66.7l-47.3-47.3l0,0l0,0l-40,39.9l-61.8,61.8l78.4-45.3l30.1,30.1c5.9,5.9,5.9,15.6,0,21.5
		c-5.2,5.2-13.2,5.8-19.2,1.9c17,15.6,43.4,15.2,59.9-1.3C185.2,111.1,185.2,83.7,168.2,66.7"/>
	<path class="st0" d="M58.3,163.6l-5.3,7.9h13.7l-2-7.9c-0.6-0.1-2.2-0.1-3.1-0.1S59,163.5,58.3,163.6 M61.5,158.2h1.2
		c2.9,0,5.4,0.1,8.4,0.3l5.5,22.3h-7.4l-1-4.3H49.7l-2.9,4.3h-7.5l12.8-19.3l-3.4-2.5l0.1-0.6C52.8,158.3,57.2,158.2,61.5,158.2"/>
	<path class="st0" d="M149.1,169.5c0.4-1,0.6-2,0.8-3.1c0.2-1,0.4-2,0.5-3.1c-1.7-0.2-5.5-0.2-7.7-0.2c-3,0-5.3,0.1-7.8,0.2l0,0
		l-1.3,6.2l0.1-0.1c2.4,0.2,4.7,0.2,7.7,0.2C144.1,169.6,146.5,169.6,149.1,169.5 M143.7,158.1c4.9,0,9.8,0.3,14.7,0.8
		c-0.1,2.5-0.4,5-0.8,7.5c-0.6,2.5-1.3,5-2.3,7.5c-5.1,0.5-10.2,0.6-15.1,0.6c-1.9,0-4.4,0-7.8-0.1l-1.4,6.5h-7.4l4.1-19.4l-3.4-2.5
		l0.1-0.6C129.8,158.2,137.3,158.1,143.7,158.1"/>
	<path class="st0" d="M174.3,163.6l-5.3,7.9h13.7l-2-7.9c-0.6-0.1-2.2-0.1-3.1-0.1C176.6,163.5,175,163.5,174.3,163.6 M177.4,158.2
		h1.2c2.9,0,5.4,0.1,8.4,0.3l5.5,22.3h-7.4l-1-4.3h-18.4l-2.9,4.3h-7.5l12.8-19.3l-3.4-2.5l0.1-0.6
		C168.8,158.3,173.1,158.2,177.4,158.2"/>
	<path class="st0" d="M120.7,159.1c-5.9-0.6-12-0.9-18.1-0.9H101c-0.3,0-0.6,0.1-0.8,0.1c-6.9,0.1-15.4,0.5-19.6,0.6l-0.1,0.6
		l3.1,2.1l-0.3,1.8c-1.5,5.8-2.9,12-4,17.5h6.5c1.2-5.5,2.7-12.1,4.1-17.6c2.8-0.2,5.7-0.3,8.6-0.4l-2.9,13.6h6.6l2.9-13.6
		c2.9,0.1,5.7,0.2,8.4,0.4c-0.8,5.5-2.1,12.1-3.3,17.6h6.5C118,174,119.6,165.9,120.7,159.1"/>
	<path class="st0" d="M37.8,168.4c-7-1.4-14.3-1.2-21.2-1.7c0.1-0.6,0.1-1.2,0.3-1.9c0.1-0.6,0.3-1.3,0.6-1.9
		c2.5-0.4,4.8-0.6,7.8-0.6c2.9,0,5.1,0.1,7.4,0.6c0,0.4,0,0.6,0,1h6.7c0.3-1.7,0.4-3.2,0.4-5c-4.5-0.6-9-0.9-13.6-0.9
		c-4.5,0-9.2,0.3-13.9,0.9c-1.6,0.2-3.1,0.3-4.5,0.5l-0.1,0.6l3.4,2.1c-0.2,0.8-0.5,1.7-0.6,2.6c-0.4,1.9-0.6,3.6-0.6,5.6
		c6.9,1.3,14.1,1.3,21.2,1.8c-0.1,0.6-0.2,1.4-0.3,2c-0.2,0.7-0.4,1.4-0.6,2c-2.5,0.4-4.9,0.6-7.8,0.6s-5.1-0.1-7.4-0.6
		c0-0.4,0-0.6,0-1H8.1c-0.3,1.7-0.5,3.2-0.5,5c4.5,0.6,9,0.8,13.5,0.8c4.6,0,9.4-0.3,14.1-0.8c0.8-2.1,1.4-4,1.9-6
		C37.6,172.2,37.7,170.5,37.8,168.4"/>
</g>
</svg>
