<?xml version="1.0" encoding="utf-8"?>
<!-- Generator: Adobe Illustrator 25.0.0, SVG Export Plug-In . SVG Version: 6.00 Build 0)  -->
<svg version="1.1" id="Capa_1" xmlns="http://www.w3.org/2000/svg" xmlns:xlink="http://www.w3.org/1999/xlink" x="0px" y="0px"
	 viewBox="0 0 200 200" style="enable-background:new 0 0 200 200;" xml:space="preserve">
<style type="text/css">
	.st0{fill:#FFFFFF;}
	.st1{fill:#13244E;}
	.st2{fill:#818FAF;}
	.st3{fill:#FDE700;}
	.st4{fill:#FBE604;}
	.st5{fill:#13244F;}
	.st6{fill:#13254E;}
	.st7{fill:#BAB972;}
	.st8{fill:#303000;}
	.st9{fill:#F9E506;}
	.st10{fill:#17284A;}
</style>
<path class="st0" d="M46.1,139.1L46.1,139.1z"/>
<path class="st0" d="M46.1,139.1L46.1,139.1z"/>
<g>
	<path class="st1" d="M7.8,92.4c0-8.8,0-17.7,0-26.5c0.1-0.1,0.3,0,0.4,0c61.2,0,122.4,0,183.6,0c0.5,0,0.5,0,0.5,0.5
		c0,8.5,0,17.1,0,25.6c0,0.6,0,0.6-0.6,0.6c-0.1,0-0.2,0-0.4,0c-60.8,0-121.7,0-182.5,0C8.4,92.5,8,92.6,7.8,92.4z"/>
	<path class="st2" d="M7.8,95.9C7.8,95.9,7.8,95.9,7.8,95.9C8,96,8,96.1,8,96.3c0,0.2,0,0.4,0,0.6c0,12.7,0,25.3,0,38
		c0,1-0.1,0.9,0.9,0.9c60.7,0,121.4,0,182.1,0c0.2,0,0.5,0,0.7,0c0.2,0,0.3,0,0.4,0.2c0,0,0,0.1,0,0.1c-61.4,0-122.7,0-184.1,0
		c-0.4,0-0.4-0.1-0.4-0.4C7.8,122.4,7.8,109.1,7.8,95.9z"/>
	<path class="st3" d="M39.8,69.2c1.3,0,2.6,0,3.8,0c0.7,0,1.3,0.1,1.9,0.3c0.8,0.2,1,0.7,1,1.5c0,1.7,0,3.4,0,5.1
		c0,0.1,0,0.3,0.1,0.2c0.4,0,0.8,0.1,1.2-0.2c2.2-1.7,4.3-3.5,6.5-5.2c0.5-0.4,1-0.8,1.4-1.2c0.4-0.4,1-0.6,1.6-0.6
		c2.9,0,5.9,0,8.8,0c0.2,0,0.5,0,0.7,0.1c0.5,0.1,0.7,0.4,0.5,0.9c-0.1,0.4-0.3,0.8-0.6,1.2c-1.2,1.9-2.2,3.9-3.3,5.8
		c-1.9,3.3-3.7,6.7-5.6,10c-0.4,0.8-1,1.2-2,1.1c-2.3,0-4.7,0-7.1,0c-0.1,0-0.3,0-0.4,0c-0.8-0.1-1-0.4-0.7-1.2
		c0.4-1,0.9-1.8,1.4-2.7c1-1.9,2.1-3.7,3.1-5.6c0.2-0.4,0.1-0.3-0.2-0.4c-0.9-0.1-1.6,0.2-2.2,0.9c-1.2,1.3-2.6,2.5-4.1,3.3
		c-0.5,0.3-1,0.5-1.6,0.6c-1.1,0.2-2-0.3-2.5-1.4c-0.5-1-0.8-2.1-1-3.2c0-0.2,0.1-0.5-0.2-0.5c-0.3,0-0.6-0.2-0.9,0.2
		c-2,3.2-4,6.4-6,9.7c-0.1,0.2-0.3,0.3-0.6,0.3c-2.1,0-4.1,0-6.2,0c-0.5,0-1.1,0-1.6-0.2c-0.5-0.2-0.8-0.6-0.8-1.2
		c0-0.4,0.1-0.8,0.3-1.2c2.7-4.7,5.4-9.3,8-14c0.2-0.4,0.5-0.8,0.7-1.2c0.5-0.9,1.3-1.3,2.4-1.3C37.2,69.2,38.5,69.2,39.8,69.2z"/>
	<path class="st3" d="M74.4,88.3c-1.9,0-3.8,0-5.6-0.2c-0.8-0.1-1.6-0.2-2.4-0.5c-1.1-0.5-1.6-1.2-1.6-2.4c0-1.1,0.3-2.2,0.7-3.2
		c1-2.5,2.2-4.8,3.8-6.9c1.8-2.4,4.1-4.2,7.1-5.1c1.5-0.5,3-0.7,4.6-0.7c3.1,0,6.1,0,9.2,0.3c1.7,0.2,3.3,0.4,4.9,1.2
		c2.1,1.1,3.1,2.9,2.8,5.2c-0.6,4.5-3.1,7.6-7,9.7c-1.8,1-3.9,1.5-5.9,1.9C81.4,88.2,77.9,88.3,74.4,88.3z"/>
	<path class="st3" d="M139.8,88.2c-1.5,0-3,0-4.6,0c-0.7,0-0.8-0.1-0.6-0.8c0.1-0.4,0.2-0.8,0.3-1.1c0.1-0.2,0.1-0.3-0.2-0.3
		c-1.8,0-3.6,0-5.5,0c-0.2,0-0.3,0.1-0.3,0.3c-0.1,0.4-0.2,0.8-0.4,1.2c-0.2,0.5-0.6,0.7-1.1,0.7c-0.6,0-1.2,0-1.9,0
		c-2.8,0-5.7,0-8.5,0c-0.9,0-1-0.1-0.6-0.9c0.3-0.6,0.9-1,1.3-1.5c4-4.1,7.9-8.1,11.9-12.2c1.1-1.1,2.1-2.3,3.4-3.3
		c1-0.8,2-1.2,3.3-1.2c3.5,0,7,0,10.5,0c0.3,0,0.4,0,0.4,0.4c-0.3,2.6-0.6,5.3-0.9,7.9c-0.2,2.1-0.5,4.2-0.7,6.3
		c-0.1,0.9-0.2,1.8-0.2,2.7c0,0.3,0,0.6,0,0.9c0,0.6-0.2,0.7-0.8,0.8c-0.2,0-0.4,0-0.6,0C142.7,88.3,141.3,88.3,139.8,88.2
		C139.8,88.2,139.8,88.2,139.8,88.2z"/>
	<path class="st3" d="M170.9,76.1c-1.3,0-2.7-0.1-4,0c-0.4,0-0.7,0.1-1.1,0.3c-0.4,0.2-0.5,0.6-0.2,1c0.4,0.5,0.9,0.8,1.5,1
		c1.9,0.8,3.8,1.6,5.6,2.4c0.7,0.3,1.2,0.7,1.7,1.3c0.6,0.9,0.5,1.9-0.2,2.8c-0.8,1-1.9,1.6-3.1,2.2c-2,0.9-4.1,1.4-6.2,1.8
		c-2.6,0.5-5.2,0.6-7.8,0.4c-2.9-0.2-5.6-0.7-8.4-1.6c-0.1,0-0.2-0.1-0.3-0.1c-0.7-0.2-0.9-0.6-0.7-1.3c0.2-0.9,0.7-1.7,1.4-2.4
		c0.5-0.5,1.1-0.5,1.8-0.6c0.7-0.1,1.3,0.1,1.9,0.3c2.6,0.9,5.2,1.3,7.9,0.5c0.5-0.1,0.9-0.4,1.2-0.7c0.4-0.4,0.4-0.8,0-1.2
		c-0.5-0.5-1.2-0.7-1.8-0.9c-1.5-0.5-2.9-1.1-4.1-2.1c-1-0.8-1.7-1.8-2-3c-0.4-1.7,0.2-3.1,1.4-4.2c1.2-1.3,2.8-2,4.4-2.4
		c2.8-0.7,5.7-0.7,8.6-0.7c2.2,0,4.4,0.2,6.6,0.7c1,0.2,1.9,0.5,2.8,0.9c0.2,0.1,0.2,0.2,0.2,0.4c-0.4,1.6-1,3.2-2,4.6c0,0,0,0,0,0
		c-0.3,0.6-0.7,0.8-1.4,0.8C173.3,76,172.1,76.1,170.9,76.1z"/>
	<path class="st3" d="M104.3,88.3c-2.5,0-4.9,0-7.4,0c-0.3,0-0.6,0-0.8-0.1c-0.5-0.1-0.7-0.3-0.5-0.8c0.2-0.5,0.4-0.9,0.6-1.4
		c3-5.4,6-10.8,9-16.2c0.3-0.5,0.5-0.7,1.1-0.6c2.6,0,5.2,0,7.7,0c0.4,0,0.7,0,1.1,0.1c0.6,0.1,0.8,0.4,0.6,1
		c-0.2,0.6-0.6,1-0.9,1.5c-1.8,3.5-3.6,7-5.4,10.5c-0.3,0.5-0.6,1-0.8,1.6c-0.2,0.6,0,1,0.6,1.2c0.4,0.1,0.8,0.1,1.2,0.1
		c1.6,0,3.2,0,4.8,0c0.4,0,0.5,0.1,0.4,0.4c-0.4,1.6-1.3,2.5-3,2.6c-2.2,0.2-4.4,0-6.6,0.1C105.5,88.3,104.9,88.3,104.3,88.3
		C104.3,88.3,104.3,88.3,104.3,88.3z"/>
	<path class="st4" d="M185.5,73.3c1.3,0.1,2.3,0.8,2.9,2.1c0.7,1.5,0.3,3.3-0.8,4.4c-1.5,1.5-3.9,1.2-5-0.6c-1-1.6-0.8-3.8,0.6-5
		C183.7,73.6,184.4,73.3,185.5,73.3z"/>
	<path class="st1" d="M192.2,136c-0.2,0-0.3,0-0.5,0c-61.1,0-122.2,0-183.4,0c-0.5,0-0.5,0-0.5-0.5c0-13.1,0-26.1,0-39.2
		c0-0.1,0-0.3,0-0.4c0.3,0,0.6,0,0.9,0c61,0,122,0,182.9,0c0.5,0,0.5,0,0.5,0.5c0,13,0,26,0,39C192.2,135.6,192.2,135.8,192.2,136z"
		/>
	<path class="st5" d="M84.4,74.3c0.6,0,1.2,0.1,1.8,0.1c0.7,0.1,0.9,0.4,0.7,1.1c-0.1,0.5-0.4,0.9-0.6,1.3c-1.2,2-2.3,4-3.5,5.9
		c-0.5,0.8-1.2,1.5-2.2,1.8c-1.1,0.3-2.3,0.3-3.4,0c-0.8-0.2-1-0.9-0.6-1.6c1.2-2.2,2.5-4.5,3.7-6.7c0.7-1.3,1.8-2,3.3-1.9
		C83.8,74.3,84.1,74.2,84.4,74.3C84.4,74.3,84.4,74.3,84.4,74.3z"/>
	<path class="st1" d="M131.8,82.3c2.2-2.2,4.4-4.3,6.7-6.5c0,0.7-0.2,1.3-0.3,1.9c-0.2,1.4-0.5,2.9-0.7,4.3c0,0.2-0.1,0.3-0.3,0.3
		c-1.7,0-3.4,0-5.1,0C132,82.4,131.9,82.3,131.8,82.3z"/>
	<path class="st6" d="M185.3,73.9c1.2,0,2.1,0.7,2.6,1.8c0.5,1.3,0.3,2.7-0.7,3.6c-1.2,1.2-3,1.1-4.1-0.3c-1.2-1.5-0.8-3.7,0.7-4.8
		C184.3,74,184.8,73.9,185.3,73.9z"/>
	<path class="st3" d="M97.6,128.6c-0.7-0.1-1-0.8-1-1.4c-0.1-1.3-0.1-2.6-0.1-4c-0.1-3.7-0.2-7.5-0.3-11.2c0-0.1,0-0.2,0-0.3
		c-0.3,0.5-0.4,1-0.6,1.5c-1.1,3.2-2.2,6.3-3.3,9.5c-0.6,1.8-1.3,3.6-1.9,5.4c-0.1,0.3-0.2,0.4-0.5,0.4c-1.8,0-3.6,0-5.5,0
		c-1.5,0-2-0.8-1.9-2.1c0-1.1,0.4-2.1,0.7-3.1c1.1-3.2,2.3-6.5,3.4-9.7c1-2.9,2.1-5.9,3.1-8.8c0.3-0.7,0.5-1.4,0.8-2.1
		c0.5-1,1.3-1.5,2.4-1.5c2.1,0,4.3,0,6.4,0c1,0,1.4,0.4,1.5,1.4c0.1,1.4,0.1,2.8,0.1,4.2c0.1,3,0.1,6,0.2,9.1c0,0.2,0,0.3,0.1,0.5
		c0.2-0.5,0.4-1.1,0.6-1.6c0.9-2.8,1.9-5.5,2.8-8.3c0.5-1.5,1-3,1.5-4.5c0.1-0.3,0.2-0.5,0.6-0.5c2.1,0,4.2,0,6.3,0
		c0.9,0,1.2,0.5,1.3,1.3c0,0.8-0.3,1.5-0.5,2.2c-1,3-2.1,6-3.1,8.9c-1.1,3.2-2.3,6.5-3.4,9.7c-0.5,1.6-1.1,3.1-1.6,4.7
		c0,0.1-0.1,0.2-0.1,0.3c-0.1,0.1-0.3,0.1-0.5,0.1c-2.3,0-4.6,0-7,0C97.9,128.6,97.7,128.6,97.6,128.6z"/>
	<path class="st3" d="M19.8,128.1c-1.4-0.1-3.3,0-5.2-0.2c-1.8-0.2-3-1.3-3.4-3.1c-0.3-1.4-0.2-2.7,0.1-4.1
		c0.8-4.4,2.2-8.6,4.2-12.6c1-2,2.3-3.9,4.1-5.4c1.6-1.3,3.4-2,5.5-2c2.5,0,4.9,0.1,7.4,0.2c1.2,0.1,2.3,0.6,3.4,1.2
		c2.2,1.4,3.3,3.4,3.5,6c0.2,2.7-0.3,5.3-1.1,7.9c-0.6,2-1.4,3.9-2.6,5.6c-1.7,2.5-4,4.3-6.8,5.4c-1,0.4-2.1,0.7-3.2,0.9
		c-0.7,0.1-1.5,0.1-2.2,0.1C22.5,128.2,21.4,128.1,19.8,128.1z"/>
	<path class="st3" d="M146,129.3c-1.2,0-2.4,0.1-3.6,0c-1.9-0.1-3.7-0.7-5-2.3c-0.8-1-1-2.3-1-3.6c0.1-1.7,0.6-3.2,1.1-4.8
		c0.9-2.6,1.7-5.2,2.6-7.7c0.8-2.4,1.6-4.9,2.5-7.3c0.2-0.7,0.5-1.4,0.7-2.1c0.1-0.2,0.2-0.3,0.4-0.3c2.4-0.1,4.7-0.1,7.1-0.2
		c0.7,0,1.1,0.7,1.1,1.5c0,0.5-0.2,0.9-0.3,1.3c-1.3,3.6-2.5,7.2-3.8,10.8c-0.4,1.2-0.9,2.3-1.2,3.5c-0.2,0.8-0.2,1.6,0.2,2.3
		c0.6,1,1.8,1.5,3.1,1.2c1.7-0.4,2.8-1.5,3.3-3c0.8-2.3,1.6-4.7,2.4-7c0.8-2.4,1.6-4.9,2.5-7.3c0.3-0.9,0.6-1.7,0.9-2.6
		c0.1-0.2,0.2-0.3,0.4-0.3c2.2,0,4.3-0.1,6.5-0.1c1,0,1.4,0.5,1.4,1.6c-0.1,0.8-0.4,1.5-0.6,2.3c-1.5,4.4-3.1,8.7-4.6,13.1
		c-0.7,2-1.5,4-2.8,5.8c-1.9,2.5-4.3,4.2-7.4,4.9c-0.8,0.2-1.7,0.3-2.6,0.3C148.1,129.3,147,129.3,146,129.3
		C146,129.3,146,129.3,146,129.3z"/>
	<path class="st3" d="M59.6,114.1c1.4,0.4,1.8,1.5,1.9,2.7c0.1,1.5-0.3,2.9-0.9,4.3c-1,2.3-2.4,4.4-4.4,5.9c-1.5,1.1-3.1,1.7-5,1.7
		c-3.9-0.1-7.8-0.1-11.8-0.1c-0.2,0-0.4,0-0.6,0.1c-0.6,0.1-1-0.2-1-0.8c0-0.7,0.1-1.3,0.3-2c1.5-4.3,3-8.7,4.5-13
		c1.3-3.7,2.6-7.5,3.9-11.2c0.1-0.3,0.3-0.5,0.6-0.5c5.1,0,10.1,0,15.2,0c1.3,0,1.9,0.6,2.2,1.8c0.3,1.3,0.2,2.5,0,3.7
		c-0.3,1.8-0.9,3.5-2,5C61.8,112.7,61,113.7,59.6,114.1z"/>
	<path class="st3" d="M129,128.1c-1.3,0-2.6,0-3.9,0c-0.5,0-0.5-0.1-0.5-0.6c0-0.7,0.1-1.5,0.3-2.2c0.1-0.5,0.1-0.5-0.4-0.5
		c-1.4,0-2.9,0-4.3-0.1c-0.3,0-0.4,0.1-0.4,0.3c-0.1,0.6-0.2,1.2-0.4,1.8c-0.3,0.8-0.6,1-1.5,1c-2.6,0-5.2,0-7.7,0
		c-0.2,0-0.5,0-0.7,0c-0.5,0-0.7-0.2-0.6-0.7c0.1-0.7,0.4-1.3,0.8-1.8c2-3.4,4.1-6.9,6.1-10.3c2.1-3.5,4.2-7.1,6.3-10.6
		c0.6-1,1.2-2,2.1-2.8c0.6-0.6,1.4-0.9,2.2-0.9c2.9,0,5.8,0.1,8.7,0.1c0.3,0,0.4,0.1,0.4,0.4c-0.2,3.4-0.5,6.9-0.7,10.3
		c-0.2,2.8-0.4,5.6-0.6,8.4c-0.1,2.2-0.3,4.3-0.3,6.5c0,0.3,0,0.7-0.1,1c-0.1,0.5-0.4,0.7-0.9,0.7c-1.3,0-2.6,0-3.9,0
		C129,128.2,129,128.1,129,128.1z"/>
	<path class="st3" d="M183.1,110.5c-1,0-1.9,0-2.9,0c-0.5,0-1,0.1-1.4,0.3c-0.7,0.3-0.9,0.8-0.5,1.5c0.4,0.7,0.9,1.3,1.6,1.7
		c1.3,0.9,2.7,1.9,4,2.8c1,0.7,1.7,1.6,2.1,2.8c0.5,1.6,0.1,3.1-0.9,4.5c-1.2,1.7-2.8,2.9-4.7,3.6c-2.8,1.1-5.6,1.8-8.6,1.6
		c-2.6-0.1-4.9-0.8-7.2-2c-0.2-0.1-0.4-0.2-0.7-0.3c-0.8-0.3-1.2-0.8-1.2-1.6c0-0.9,0.3-1.8,0.6-2.6c0.1-0.3,0.3-0.7,0.4-1
		c0.3-0.7,0.8-1.1,1.5-1.2c0.7-0.1,1.4,0,2,0.4c1.9,1.2,4,1.5,6.2,1c0.7-0.2,1.7-1.2,1.8-2c0-0.3-0.1-0.6-0.3-0.9
		c-0.4-0.6-1-1-1.6-1.3c-1.7-0.9-3-2.1-4-3.7c-0.5-0.7-0.6-1.5-0.9-2.3c-0.4-1.5-0.5-3-0.3-4.5c0.3-2,1.4-3.6,2.8-5
		c0.9-0.9,2-1.4,3.2-1.7c2-0.5,4.1-0.8,6.2-0.7c2.9,0.1,5.6,0.9,8.1,2.2c0.1,0.1,0.2,0.1,0.2,0.3c-0.2,2.4-0.6,4.7-1.6,6.8
		c-0.6,1.3-0.6,1.3-2.1,1.3c-0.3,0-0.7,0-1,0C183.8,110.6,183.4,110.6,183.1,110.5C183.1,110.6,183.1,110.6,183.1,110.5z"/>
	<path class="st3" d="M73.8,111.5c3,0,6,0,9,0c-0.3,0.9-0.5,1.7-0.8,2.6c-0.3,1-0.6,1.9-0.9,2.9c-0.1,0.4-0.2,0.4-0.6,0.4
		c-2.7,0-5.4,0-8.1-0.1c-0.3,0-0.4,0.1-0.5,0.4c-0.3,1.1-0.8,2.2-1.1,3.3c-0.3,0.9,0.1,1.4,1,1.7c0.3,0.1,0.5,0.1,0.8,0.1
		c2.4,0,4.8,0,7.2,0c0.3,0,0.4,0.1,0.3,0.4c-0.2,1.1-0.4,2.1-0.8,3.1c-0.6,1.5-1.7,2.3-3.3,2.3c-0.8,0-1.6,0-2.4,0
		c-3.6,0-7.1,0-10.7,0c-0.1,0-0.3,0-0.4,0c-1,0-1.3-0.4-1.1-1.4c0.1-1,0.5-1.9,0.8-2.8c1.1-3.2,2.2-6.3,3.3-9.5c1-2.8,2-5.6,2.9-8.5
		c0.6-1.6,1.1-3.3,1.7-4.9c0.1-0.4,0.3-0.5,0.7-0.5c4.7,0,9.3,0,14,0c0.9,0,1.2,0.3,1.2,1.2c0,1-0.4,2-0.7,3c-0.2,0.5-0.4,1-0.6,1.6
		c-0.1,0.3-0.3,0.4-0.5,0.4c-2.9,0-5.7,0-8.6-0.1c-0.3,0-0.4,0.1-0.5,0.3c-0.4,1.2-0.9,2.4-1.3,3.6
		C73.8,111.2,73.8,111.3,73.8,111.5z"/>
	<path class="st7" d="M97.6,128.6c2.3,0,4.7,0,7,0c0.3,0,0.6,0,0.9,0c0,0,0,0.1,0,0.1c-0.1,0.1-0.2,0-0.3,0c-2.4,0-4.8,0-7.1,0
		C97.9,128.7,97.7,128.7,97.6,128.6C97.6,128.6,97.6,128.6,97.6,128.6z"/>
	<path class="st8" d="M97.7,128.6c2.6,0,5.2,0,7.8,0c-0.1,0.1-0.2,0.1-0.4,0.1c-2.3,0-4.7,0-7,0C97.9,128.7,97.8,128.8,97.7,128.6z"
		/>
	<path class="st9" d="M185.7,77.3c0.5,0.5,0.8,1.1,1.1,1.7c-0.6,0.1-0.6,0.1-0.9-0.4c-0.2-0.3-0.3-0.6-0.5-0.9
		c-0.1-0.1-0.2-0.3-0.3-0.3c-0.4-0.2-0.7-0.1-0.7,0.4c0,0.3,0,0.6,0,0.9c0,0.2-0.1,0.3-0.3,0.3c-0.2,0-0.3-0.1-0.3-0.3
		c0-1.2,0-2.3,0-3.5c0-0.2,0-0.3,0.3-0.3c0.5,0,1,0,1.4,0c0.7,0.1,1,0.4,1.1,0.9C186.7,76.6,186.4,77,185.7,77.3
		C185.8,77.3,185.8,77.3,185.7,77.3z"/>
	<path class="st5" d="M28,108.3c0.4,0,0.7,0,1.1,0c0.8,0,1.1,0.4,1.1,1.2c-0.1,0.8-0.3,1.5-0.6,2.2c-0.9,2.7-1.9,5.4-2.8,8.1
		c-0.4,1-0.8,2-1.7,2.6c-0.4,0.3-0.8,0.5-1.3,0.4c-0.4,0-0.9,0-1.3,0c-0.8-0.1-1.2-0.6-1.2-1.4c0-0.9,0.3-1.7,0.6-2.5
		c0.8-2.5,1.6-4.9,2.5-7.4c0.3-0.9,0.6-1.8,1.2-2.6c0.4-0.6,0.9-0.9,1.7-0.8C27.4,108.3,27.7,108.3,28,108.3
		C28,108.3,28,108.3,28,108.3z"/>
	<path class="st1" d="M51.8,116.8c0.8,0,1.7,0,2.5,0c0.3,0,0.5,0.2,0.6,0.5c0.1,0.5,0.1,1,0,1.5c-0.2,1.2-0.6,2.3-1.3,3.3
		c-0.4,0.5-0.8,0.8-1.5,0.8c-1.6-0.1-3.1-0.1-4.7-0.2c-0.3,0-0.3-0.1-0.2-0.3c0.6-1.8,1.1-3.6,1.7-5.4c0.1-0.2,0.2-0.3,0.4-0.3
		c0.9,0,1.7,0,2.6,0C51.8,116.8,51.8,116.8,51.8,116.8z"/>
	<path class="st5" d="M53,111.5c-0.7,0-1.5,0-2.2,0c-0.2,0-0.3-0.1-0.2-0.3c0.5-1.5,0.9-2.9,1.4-4.4c0.1-0.2,0.2-0.3,0.4-0.3
		c1.4,0,2.8,0,4.2,0.1c0.3,0,0.6,0.2,0.6,0.5c0.2,0.8,0,1.6-0.2,2.3c-0.1,0.4-0.3,0.8-0.6,1.2c-0.4,0.5-0.9,0.9-1.6,0.8
		C54.2,111.4,53.6,111.5,53,111.5C53,111.5,53,111.5,53,111.5z"/>
	<path class="st5" d="M127.9,110.6c-0.1,0.7-0.1,1.3-0.2,2c-0.2,2.2-0.5,4.3-0.7,6.5c-0.1,0.5,0,0.5-0.6,0.5c-1.3,0-2.6-0.1-4-0.1
		c-0.3,0-0.3-0.1-0.2-0.3c1.8-2.8,3.6-5.6,5.4-8.3C127.7,110.7,127.7,110.7,127.9,110.6C127.8,110.6,127.9,110.6,127.9,110.6z"/>
	<path class="st10" d="M184.4,76.1c0-0.5-0.1-0.5,0.6-0.5c0.2,0,0.4,0,0.5,0c0.3,0,0.4,0.3,0.5,0.5c0,0.3-0.1,0.5-0.4,0.6
		c-0.3,0.1-0.6,0.1-0.9,0.1c-0.2,0-0.2-0.1-0.2-0.2C184.4,76.5,184.4,76.3,184.4,76.1z"/>
</g>
</svg>
