<?xml version="1.0" encoding="utf-8"?>
<!-- Generator: Adobe Illustrator 25.0.0, SVG Export Plug-In . SVG Version: 6.00 Build 0)  -->
<svg version="1.1" id="Capa_1" xmlns="http://www.w3.org/2000/svg" xmlns:xlink="http://www.w3.org/1999/xlink" x="0px" y="0px"
	 viewBox="0 0 200 200" style="enable-background:new 0 0 200 200;" xml:space="preserve">
<style type="text/css">
	.st0{fill:#004D96;}
	.st1{fill:#F1B503;}
</style>
<g>
	<g>
		<path class="st0" d="M135.9,91.5c0-0.6-0.2-0.6-0.6-0.6c-2.5,0-5,0-7.5,0c-1.3,0-1.3,0-1.4,1.3c0,0,0,0,0,0.1
			c0,0.4-0.1,0.4-0.4,0.3c-0.4-0.2-0.8-0.4-1.3-0.6c-3.1-1.4-6.2-2.1-9.6-1.5c-2.2,0.4-4.2,1.4-5.7,3.1c-0.6,0.7-0.9,1.6-1.3,2.5
			c-0.2-0.3-0.3-0.5-0.5-0.7c-1.3-2.2-3.1-3.6-5.6-4.4c-2.2-0.7-4.4-0.8-6.7-0.6c-5.2,0.5-8.9,3.8-9.9,8.9c-0.4,1.9-0.5,4-0.2,5.9
			c0,0.3,0.1,0.6-0.3,0.7c-1.4,0.6-2.8,1.2-4.2,1.4c-1.5,0.3-2.8-0.4-3.2-1.8c-0.7-1.9-0.7-3.9,0.1-5.8c0.5-1.2,1.5-1.9,2.8-1.9
			c1.1,0,2.2,0,3.3,0c0.4,0,0.5-0.1,0.6-0.5c0.7-2.6,2.3-4.5,4.5-6c0.7-0.5,1.5-0.8,2.3-1.3c-0.2,0-0.3,0-0.3,0
			c-4.6,0-9.3-0.1-13.9,0c-4.4,0.1-7.7,2.2-9.4,6.4c-1.6,3.9-1.6,7.9-0.3,11.8c1.5,4.4,4.9,6.8,9.4,6.9c3.6,0.1,7-0.8,10.2-2.5
			c0.9-0.5,1.5-0.5,2.3,0.2c1.8,1.4,3.8,2,6,2.2c3.7,0.3,7.2-0.2,10.2-2.7c0.9-0.7,1.7-1.8,2.3-2.8c1.3-2.3,1.5-4.8,1.6-7.4
			c0.7,0.5,1.3,1,1.9,1.4c1.4,0.8,2.9,1.4,4.4,2c0.5,0.2,0.9,0.4,1.3,0.7c0.7,0.6,0.6,1.5-0.4,1.9c-0.3,0.1-0.6,0.2-0.8,0.2
			c-0.6,0-1.3-0.2-1.9-0.4c-1-0.4-1.9-0.9-2.7-1.5c-0.4-0.3-0.6-0.5-1,0c-0.7,1-1.5,2-2.2,3.1c-0.3,0.6-0.6,1.1-1,1.6
			c-0.2,0.2-0.5,0.5-0.3,0.8c0.8,0.5,1.8,1,2.6,1.5c3.4,1.6,6.9,2.3,10.7,1.5c2.8-0.6,4.9-2.1,6.1-4.8c0-0.1,0.1-0.1,0.2-0.1
			c0,1.1,0,2.2,0,3.4s0,1.2,1.2,1.2c2.5,0,5.1,0,7.6,0c0.6,0,0.7-0.2,0.7-0.7C135.9,106.4,135.9,98.9,135.9,91.5z M99.1,106.6
			c-0.3,0.7-0.8,1.3-1.7,1.3c-0.9,0-1.4-0.5-1.8-1.2c-0.4-0.7-0.5-1.6-0.6-2.5c-0.1-1.8-0.2-3.5,0.4-5.2c0.5-1.3,1.4-1.9,2.5-1.5
			c0.7,0.3,1.1,0.8,1.3,1.5c0.1,0.4,0.2,0.7,0.3,1.2c0.2,0.8,0.1,1.6,0.2,2.3C99.7,104,99.7,105.3,99.1,106.6z M126.4,104.5
			L126.4,104.5c-1.1-1.9-2.9-3-4.6-4c-1-0.6-2-1-3.1-1.5c-0.5-0.2-0.8-0.4-1.3-0.6s-0.6-0.7-0.6-1.2c0.1-0.6,0.5-0.7,0.9-0.9
			c1.2-0.3,2.2,0.1,3.3,0.6c0.3,0.1,0.6,0.3,0.8,0.5c0.7,0.5,0.7,0.5,1.3-0.3c0.9-1.3,1.9-2.6,2.9-3.8c0.1-0.1,0.1-0.2,0.2-0.3
			l0.1,0.1C126.4,96.9,126.4,100.7,126.4,104.5z"/>
		<path class="st0" d="M181.6,95.7c-1-2.2-2.8-3.6-5-4.6c-2-0.8-4.1-1.1-6.2-1c-4.4,0.2-7.9,1.8-10.1,5.7c-0.1,0.1-0.1,0.2-0.2,0.2
			c-0.2,0-0.2-0.2-0.2-0.3c-0.1-0.5-0.4-0.9-0.6-1.4c-1.9-3.8-6.2-5.3-9.9-3.4c-1.1,0.6-1.9,1.4-2.9,2.2c0-0.3,0-0.6,0-0.9
			c0-4.7,0-9.4,0-14.1c0-0.5-0.1-0.6-0.6-0.6c-2.8,0-5.6,0-8.3,0c-0.5,0-0.6,0.2-0.6,0.6c0,11.5,0,23,0,34.5c0,0.5,0,1,0,1.5
			c0,0.4,0.1,0.5,0.5,0.5c2.9,0,5.7,0,8.5,0c0.4,0,0.5-0.1,0.5-0.5c0-0.6,0-1.3,0-1.9c2.1,2.4,4.6,3.5,7.8,2.9
			c3.1-0.6,4.8-3,5.8-5.8c0.2,0.4,0.4,0.6,0.6,1c1.1,1.8,2.5,3.1,4.4,3.9c3.2,1.4,6.6,1.5,10,0.6c3.3-0.8,5.7-2.9,6.9-6
			C183.7,104.4,183.6,100,181.6,95.7z M150.9,106.1c-0.4,1.1-1,1.7-1.9,1.8c-0.8,0-1.7-0.6-2-1.6c-0.7-2.3-0.8-4.7,0.1-7
			c0.3-0.7,0.7-1.4,1.7-1.5s1.7,0.4,2,1.3c0.5,1.2,0.6,2.5,0.6,3.4C151.4,103.9,151.3,105,150.9,106.1z M173.3,103.7
			c0,0.7-0.1,1.6-0.4,2.3c-0.1,0.4-0.3,0.8-0.6,1.1c-0.8,1-2.2,1-2.9-0.1c-0.6-0.8-0.6-1.8-0.7-2.7c-0.1-0.6-0.1-1.2-0.1-1.8
			c0.1-1.2,0.1-2.5,0.5-3.6c0.5-1.4,1.5-1.9,2.7-1.5c0.6,0.3,0.8,0.7,1,1.2C173.5,100.4,173.4,102,173.3,103.7z"/>
		<g>
			<path class="st0" d="M58.9,96.2c-0.8-5.1-3.1-9.6-6.6-13.3c-3.7-4-8.2-6.6-13.6-7.7c-1.2-0.3-2.4-0.4-3.6-0.6c-1.3,0-2.6,0-3.9,0
				l-0.1,0.1c-2.5,0-4.8,0.6-7,1.5c-3.3,1.3-6.2,3.1-8.8,5.6c-1.9,1.9-3.4,3.9-4.7,6.2c-1.4,2.4-2.3,5-2.8,7.7
				c-0.2,1-0.2,2.1-0.3,3.1c0,1.1,0,2.2,0,3.3c0.1,0.4,0.1,1.4,0.1,1.4c0,0.6,0.2,1.4,0.3,2c0.5,2.5,1.4,4.9,2.5,7.1
				c1.6,3,3.7,5.6,6.3,7.8c3.1,2.6,6.6,4.4,10.6,5.4c1.2,0.3,2.5,0.6,3.7,0.6c1.5,0,3,0,4.4,0c0.1-0.1,0.3-0.1,0.5-0.1
				c1.6-0.1,3.2-0.4,4.7-0.8c5.4-1.5,9.8-4.4,13.2-8.8C58.4,110.8,60.1,103.8,58.9,96.2z M33.4,121.9c-12,0-21.5-9.4-21.6-21.4
				c0-11.7,9.5-21.3,21.2-21.3c11.9-0.1,21.5,9.5,21.5,21.2C54.7,112.2,45.2,121.9,33.4,121.9z"/>
			<path class="st0" d="M40.4,97c-1.5,0-3,0.1-4.4-0.3c-0.5-0.1-0.6-0.3-0.6-0.7c0-2.4,0-4.7,0-7.1c0-0.4,0.1-0.6,0.6-0.6
				c2.3-0.6,4.5-0.3,6.5,1.2c1,0.7,2.3,0.6,3-0.4c0.7-0.9,0.6-2.2-0.5-3c-2.6-2-5.6-2.7-8.8-2.1c-0.5,0.1-0.7,0.1-0.8-0.6
				c-0.3-1-1.2-1.7-2.2-1.6c-1.1,0.2-1.9,0.9-1.9,2c0,0.5,0,0.9,0,1.5c0,0.2,0.1,0.4-0.1,0.4c-0.1,0-0.3-0.1-0.4-0.2
				c-2.8-1.8-5.7-1.9-8.5-0.5c-2.9,1.6-4.3,4.1-4.4,7.4c0,2.7,0,5.5,0,8.2c0,2.6,0,5.2,0,7.8c0,0.6,0,1.1,0.1,1.6
				c1,6.1,7.6,9,12.8,5.7c0.4-0.2,0.5-0.2,0.6,0.2c0.5,1.3,2,1.8,3.1,1c0.4-0.3,0.6-0.2,1-0.2c3.1,0.7,6.3,0.6,9.1-1.1
				c2.7-1.7,4.4-4,4.3-7.3c0-0.9,0-1.9,0-2.9c0-0.6-0.1-1.3-0.2-1.9C47.6,99.8,44.2,97.1,40.4,97z M31.1,106.7c-1.6-0.8-3-0.4-3.4,1
				c-0.2,0.6-0.1,1.1,0.2,1.7c0.3,0.6,0.6,1.1,0.9,1.7c0.2,0.3,0.2,0.5-0.1,0.7c-1.2,1-2.6,1.3-4.1,0.6c-1.5-0.6-2.4-1.8-2.4-3.4
				c-0.1-2.9,0-5.7,0-8.5s0-5.6,0-8.3c0-3,3.3-4.8,5.9-3.2c0.3,0.2,0.4,0.4,0.3,0.7c-0.9,2.8-0.7,5.5,0.6,8.1c0.4,0.7,1,1.3,1.7,1.9
				c0.2,0.1,0.5,0.3,0.5,0.6C31.1,102.3,31.1,104.5,31.1,106.7z M42.3,112c-2.1,1.2-4.3,1.2-6.5,0.3c-0.4-0.1-0.4-0.3-0.4-0.6
				c0-1.7,0-3.2,0-4.9l0,0c0-1.7,0-3.3,0-5c0-0.4,0.1-0.6,0.6-0.5c1.4,0.2,2.9,0.1,4.3,0.1c2,0,4.4,1.8,4.3,4.3
				c-0.1,0.9-0.1,1.8,0,2.7C44.6,110,43.7,111.2,42.3,112z"/>
		</g>
		<g>
			<path class="st0" d="M192.4,88.4c-0.6-2.5-2.6-4.1-5.1-4c-2,0.1-3.8,1.5-4.4,3.4c-0.6,2,0.1,4.2,1.8,5.4c1.7,1.2,4,1.3,5.7,0.2
				c1.2-0.8,1.9-2,2.2-3.3c0-0.5,0-1,0-1.5C192.5,88.6,192.4,88.5,192.4,88.4z M187.5,93.7c-2.4-0.1-4.3-1.9-4.3-4.4
				c0-2.4,2.1-4.3,4.4-4.2c2.3,0.1,4.2,1.9,4.2,4.4C191.8,91.9,189.9,93.7,187.5,93.7z"/>
			<path class="st0" d="M189.1,89.4c0.6-0.6,0.9-1.1,0.7-1.8c-0.2-0.6-0.6-0.9-1.5-1c-0.7,0-1.6,0-2.3,0c-0.3,0-0.4,0.1-0.4,0.4
				c0,1.6,0,3.1,0,4.7c0,0.3,0.1,0.4,0.4,0.4c0.3,0,0.4-0.1,0.4-0.4c0-0.2,0-0.5,0-0.6c0-1.3,0-1.3,1.3-1.3c1.1,0,1.3,0.2,1.4,1.3
				c0,0.1,0,0.2,0,0.3c0,0.7,0.1,0.7,0.8,0.6C189.5,91.2,190.1,90.1,189.1,89.4z M188.2,89.1c-0.6,0.1-1.1,0-1.6,0
				c-0.2,0-0.3-0.1-0.3-0.3c0-0.2,0-0.4,0-0.6c0-1.1,0-1.1,1.1-1.1c0.2,0,0.5,0,0.6,0c0.6,0,0.9,0.3,0.9,0.8
				C189.1,88.7,188.9,89.1,188.2,89.1z"/>
		</g>
	</g>
	<ellipse class="st1" cx="131.2" cy="82.6" rx="5.7" ry="5.3"/>
</g>
</svg>
